<?xml version="1.0" encoding="utf-8"?>
<!-- Generator: Adobe Illustrator 22.1.0, SVG Export Plug-In . SVG Version: 6.00 Build 0)  -->
<svg version="1.1" id="Layer_1" xmlns="http://www.w3.org/2000/svg" xmlns:xlink="http://www.w3.org/1999/xlink" x="0px" y="0px"
	 viewBox="0 0 2500 661.6" style="enable-background:new 0 0 2500 661.6;" xml:space="preserve">
<g>
	<path d="M2178.1,212.7c0-11.4-9.2-20.6-20.6-20.6H2127c-11.4,0-20.6,9.3-20.6,20.6v318.8c0,11.4,9.2,20.6,20.6,20.6h30.5
		c11.4,0,20.5-9.3,20.5-20.6V212.7z M2216.9,221.2v15.2c0,6.3,5.1,11.3,11.4,11.3h210.3c9.6,0,17.4-7.7,17.4-17.3v-25.7
		c0-9.6-7.9-18.3-17.4-17.3c0,0-203.3,19.9-209.8,20.7C2222,208.6,2216.8,214.4,2216.9,221.2L2216.9,221.2z M2046.7,552.1
		c-52.3,0-85.2-39.7-85.2-83.8l0-127.5h-15c-8,0-14.4-6.4-14.4-14.4v0V305c0-8,6.5-14.4,14.5-14.4l14.9,0l0-78.4
		c0-11.1,8.9-20.1,20.1-20.1h29.7c11.1,0,20.1,9.1,20.1,20.2v78.4l46.3,0c8,0,14.5,6.4,14.5,14.4v21.3c0,8-6.5,14.4-14.4,14.4
		l-46.4,0l0.1,118c0,23.2,14,39,39.1,39h4.2c8.7,0,15.7,7,15.7,15.6v23.2c0,8.7-7,15.7-15.7,15.7L2046.7,552.1L2046.7,552.1
		L2046.7,552.1z M1556.9,281.4c-84.6,0-132,66.2-132,135.9c0,74.3,50.8,139.7,132.5,139.7c56,0,111.1-29.5,121.5-77.9
		c1.4-6.5-3-15.1-12.2-15.1l-40,0c-7.3,0-13.2,3.5-16.7,8.7c-11.5,16.8-28.2,25.7-53,25.7c-35,0-59.3-27.6-61.1-58.2h170
		c15.7,0,22.7-8.5,22.7-23C1688.6,349.4,1648.3,281.4,1556.9,281.4L1556.9,281.4z M1556.9,336c31.2,0,58.2,22.2,60.9,52.3h-121.3
		C1499.1,358.2,1525.6,336,1556.9,336z M2331.5,281.4c-84.6,0-132,66.2-132,135.9c0,74.3,50.8,139.7,132.5,139.7
		c56,0,111.1-29.5,121.5-77.9c1.4-6.5-3-15.1-12.2-15.1l-40,0c-7.3,0-13.2,3.5-16.8,8.7c-11.5,16.8-28.2,25.7-53,25.7
		c-35,0-59.3-27.6-61.1-58.2h170c15.7,0,22.7-8.5,22.7-23C2463.2,349.4,2423,281.4,2331.5,281.4L2331.5,281.4z M2331.5,336
		c31.2,0,58.2,22.2,60.9,52.3h-121.3C2273.8,358.2,2300.3,336,2331.5,336z"/>
	<path d="M1904.2,195.7h-550.7c-12.5,0-22.6,10.2-22.6,22.7l1.9,216.3c0,0-118.6-214.4-124.8-225.3c-5.8-10.3-18.3-19.8-35.6-19.8
		h-45.3c-12.5,0-22.7,10.2-22.7,22.7l0,317.2c0,12.5,10.1,22.7,22.6,22.7h29c12.5,0,22.7-10.2,22.6-22.7L1177,307
		c0,0,119.8,216.5,124.9,225c6.9,11.5,18.6,20.1,35.6,20.1h41.6c12.5,0,22.6-10.2,22.6-22.7l0-280h502.6c8.5,0,15.5-6.9,15.5-15.4
		c0,0,0,0,0,0v-22.9C1919.7,202.6,1912.8,195.6,1904.2,195.7L1904.2,195.7z"/>
	<path d="M1815.1,333.4c23.9,0,41.9,8.7,48.3,23.7c3.1,7.2,9.1,8.6,17.3,8.6h32.9c5.5,0,11.7-4.7,11.7-11.8
		c0-38.3-45.6-72.5-110.3-72.5c-66.9,0-110.8,31.9-110.8,82.6c0,38.8,30.6,61.9,68.4,71.8c17.2,4.5,46.6,11.8,60.8,15.5
		c15.4,4,29.2,8.7,29.2,22c0,20.8-22,27.9-45.9,27.9c-22.7,0-45.3-10.2-51.8-26.3c-3.8-9.4-10.3-10.8-20.3-10.8h-33.5
		c-5.8,0-12.6,5-12.6,12.6v4.3c0,37.1,49.7,75.8,118.2,75.8c48.6,0,116.4-20.2,116.4-85.4c0-37.8-25.3-63.9-66.4-74.3
		c-16.1-4.1-54.7-13.9-63.1-16.1c-15-3.9-28.9-8.8-28.9-21.6C1774.7,340,1792.7,333.4,1815.1,333.4z M596.1,122.4
		c6.1,0,11-4.9,11-11c0-6.1-4.9-11-11-11s-11,4.9-11,11C585.1,117.4,590,122.4,596.1,122.4z M447.9,102.8c5.1,0,9.3-4.1,9.3-9.3
		c0-5.1-4.1-9.3-9.3-9.3c0,0,0,0,0,0c-5.1,0-9.3,4.2-9.3,9.3C438.6,98.7,442.8,102.8,447.9,102.8z M336.8,329.9l-4.5-4.9
		c12.6-11.7,26-30.4,28.1-41.3c2-10.2,16.7-8.6,13.9,2.5C370.7,300.4,353.3,317.5,336.8,329.9L336.8,329.9z M242.7,106.7
		c-23.2,10-26.6,33.8-10.3,48.1c19.6,17.2,52,2.2,48.9-24.1c26.3,1.3,43.3-25.8,39.1-44.9c11.7-10,12.9-31.5-1.2-39.9
		c-15.1-9-29.2-5.6-38.3,11.8C256.8,56,233.7,74.9,242.7,106.7l-11.2-4.9c-14.7-30.8,11.1-62.2,42.7-55c8.8-19,31.3-27.3,50.4-18.5
		c1.7,0.8,3.4,1.7,5,2.8c20.3,12.3,24.6,44,3,59.4c10.2,29.6-10.1,53.8-41,51c-3.6,38.1-39.5,43-62.7,24.9
		c-13.1-10.2-18.5-24.4-21-35c-2.7-11.3-2.7-21.4-13.8-33c-8.4-8.8-23.4-8.5-23.4-8.5c0-27.7-25.9-53-58-40.7
		c-11.4-9.8-25.5-10.8-35.5,1.3c-5.9,7-9.1,25.6,9,34c-0.9,25.2,18.3,41.3,46.4,39.1c1.1,13.4,16,25.8,29.1,27.6l-0.1,6.7
		c-14-1.3-21.6,3.6-31,15.2c-33-1.6-56.2,13.1-55.2,36.8c-23.2,4.4-27.6,28.7-14.4,41.7c13.2,12.9,32.5,7.9,39-7.6
		c23.4,4.5,44.1-12.3,45.1-31.7c21.9,0,31.5-8.7,35-28.8l8.3,0.7c2.4,21.7-7.6,42.2-33.7,39.8c-0.7,25.9-25.8,40.3-49.2,31.4
		c-10.9,20.5-36,28.7-57,8.7C28,244.7,35.5,211.6,62,203.6c0.6-25.4,19.3-49.4,55.7-40.2c0,0,4.7-11.3,16.1-12
		c-7.6-3.1-13.3-7.3-14.9-15.1c-27.4,5.8-50.8-19.4-44.5-44.8c-24.8-13-25.2-37.5-12.9-52c12.8-15.1,34.1-18.5,53.2-2.2
		c32.3-17.9,68.8,4,66.6,40.8c22.6-1.5,36.3,18.2,33.8,38.8c3.7-9.1,8.1-13.3,16.4-15.1L242.7,106.7L242.7,106.7z"/>
	<path d="M298.2,62.5l5.5,3.9c-10.6,22.4-29.4,46.1-45.4,59.2l-6.1-4.6C263.5,102.5,288,71.9,298.2,62.5L298.2,62.5z M140.2,185.3
		l3.7,5.5c-13.4,13.7-38.2,32-51.3,38.4l-5.1-5.6C100.1,209.9,124.4,191.9,140.2,185.3z M172.2,118.9l-6.5,8
		c-17.5-11.5-52.1-42.4-59.9-53.5l5.4-5.6C128,76.3,160.7,105.4,172.2,118.9z M139.7,412.1c2,10,0.3,21.1,9.4,32
		c3.2,3.8,20.7,26.9,33.5,38.8c-17.3,6.8-51.9,20.9-76.8,24c-5,0.6-10.6,4.1-15.3,6.8c-3.1,5.3-6.3,14.8-7.7,25.6
		c-1,7.7-0.8,16.2-0.8,24.9c0,7.7,4.1,31.8,12.6,48c8.6,16.2,16.8,23.5,27,28.2c2-0.9,6.4-1.5,13.3-1.7c18.8-0.4,33.5,10,40,18.9
		c2.5,3.4,7.5,4.1,14,4.1c15.2,0,31.8-5,47.7-11c3.4-2.8,12.9-9.1,22.3-16.5c9.4-7.3,61.6-51.6,84.7-62.8
		c12.2,6.6,32.1,15.1,52.8,15.1c1.2,0,5.2,0.1,9.4-0.9c6.4-1.5,14.7-4.3,25.1-6.4c18.6-3.6,40.4-6.8,46.8-6.7
		c17.1,0.3,67.3,1.6,79.2,1.6c12.5,0,30.3-1.1,37.1-1.8c10.5-3.5,33.9-10,56.3-20.3c22.4-9.9,69.5-42.6,77.2-50.1
		c3.7-3.3,7.1-7,9.5-10.3c0.9-1.3,1.3-1.8,1.3-2.8l-0.3-33c0,0,11.3-12.5,15.6-16.8c0.4-0.4,0.4-1,0.4-1.4
		c-1.9-6.4-3.9-26.3-2.8-46.6l-11.4-5.3c-0.5,21.2-6.8,41.9-18.2,59.9c-17,2.7-49.3,12.7-60.9,26l6.4,1.8c10.9-6,22.6-10.3,36-10.3
		c11.8,0,17,3.1,17,6.4c0,2.3-2.2,7.9-3.1,9.7c-1,2-1.7,4.6-3.7,6.8c-16.2,17.7-35.1,32.7-56.1,44.4c-14.9,8.3-28.9,13.9-50.8,20.1
		c-6.6,1.9-15.6,4.5-21.4,6.5c-8.3-0.3-51.4-1.5-76.6-1.5c-25.2,0-77.2,3.7-93.7,7.8c-7.5,1.9-9.4,4.9-18.1,4.9
		c-16.3,0-37.6-8.3-50.8-14.6c-1.9,0.6-6.6,2.7-11.4,5c-9.3,4.6-30,33.4-42,24.7c-6.1,12.6-32.7,24.5-41.8,37.6
		c1-6.8,11.7-51.2,12.7-60.1c0.2-1.6,0.3-2.8-0.7-4.5c-9.7-16.2-36.8-26.5-52-29.5c-4.5-0.9-6.7-1.5-9.7-2.2l-24.1-7.3l-22.3,7.3
		l25.8,4.9l-32.7,21.7c5.7-2.2,40.9-12,43.6-12.7c2.9-0.9,6.7-1.7,10.9-0.2c4.8,1.7,18.4,4.8,26.5,7.6c4.8,1.6,12.6,10.4,14.6,15
		c0.8,1.9,1.1,6,1.7,15.1c0.3,5.7-1.1,13.6-2.5,19.8c-3.6,16.1-10.9,28.7-13.2,33.1c-3.2,6.2-7.6,8.2-11.9,10.2
		c-7.1,3.3-15.8,5.4-25.5,5.6c-6.7,0.1-11.1-0.3-13.9-4.1c-8.9-12.1-31-23.8-53.6-19.4c-13.8-8.4-27.5-35.4-27.5-56.9
		c0-12.9,6.5-33.2,10-43.4c22.5-3,67.5-20.2,89.5-30.1c4.6-0.2,17.2-4.7,29.2-4.7c29.5,0,58.7,25.8,76.4,43.2
		c2.9-4.8,8.4-12,23.4-12c20.9,0,32.8,18.9,38.8,38.5l10.9-7.9c-2.2-12.1-7.9-23.3-16.5-32.2c-7.2-7.2-20.9-13.2-31.6-13.2
		c-6.4,0-13.2,1.4-17.4,1.4c-14.9,0-21-6.6-32-14.2c-11.9-8.2-34-20.1-49.8-20.1c-10.2,0-14.7,4-23.1,4c-12.3,0.1-16.9-5-22.8-12.4
		c-2.6-3.2-15.1-14.3-18.4-18.7c-1.9-2.6-5.3-13-6.5-18.3L139.7,412.1L139.7,412.1z"/>
	<path d="M156.6,424.2c3.6,3.8,7,8.1,11.5,11.5c4.3,3.3,9.8,6.1,14.9,9c7.2,4.1,15.4,8.8,23.6,11.4c7.1,2.2,16.4,3,25.1,3
		c12.4,0,27-2.6,39.1,3.1c8.1,3.8,8.7,12.4,15.1,14.9c10,3.9,37.9,4.8,53.4,4.8c30.6,0,63.7-3.9,83.3-8.6l-9.5-10.5
		c-13.5,2.2-53.3,6.5-71.5,6.5c-25.7,0-50-4.1-50-14.7c0-7.3,7.9-18,23-18c16.2,0,40.6,9.8,45.1,11.1c4.5,1.3,6.4,1,9.2-0.3l9.5-4.9
		c-12.6-5.8-56.3-20.9-71.6-20.9c-7.2,0-11.1,1-15.8,7.1c-5.8,7.5-21.5,14.4-46.4,14.4c-13.7,0-33.2-2.4-37.5-4.2
		c-7.5-3.1-22.2-11.6-31.6-18.4c-12.1-8.7-22.7-18.4-29.9-29.8c-2.1-3.2-3.2-7-3.2-10.9c0-2.9,0.9-5.7,1.2-7.8c2.2,3,4.5,5.2,7.5,8
		c13.2,12.8,32.6,22.4,52.6,26.3c5.7,1.1,10.8,1.9,16.4,1.9c8.5,0,16.4-4.6,21.4-9l-7.8-9.1c-2.5,0.8-7.8,0.8-11.2,0.8
		c-29,0-65.8-19-74.3-40.9c-0.8-2.2-1.9-3.3-1-5.3c0.8-2,1.9-6.3,2.5-10.2c1.7,1.9,5.2,4.9,9.6,7.8c10.8,6.9,31.3,16.5,35.4,19
		c10.4-3,18.2-6.5,24.3-9.6c7.4-3.9,15.5-5.9,23.8-6c21.2,0,45.5,12.1,68.4,23.4l15.6-6.2c-20.3-14.3-64.5-34.2-89-34.2
		c-14.5,0-28.1,10.6-37.8,10.6c-11.9,0-46-16.6-46-30.5c0-10.7,22.1-16.7,57.6-21.1c-6.2,9.1-12,18.5-17.4,28.1l9,5
		c55.6-80.5,113.4-132.8,162.1-164.7c17.7-11.6,21.7-18.3,27.9-31c15.1-30.8,29.3-54.5,54-54.5c11.5,0,21,6.5,27.4,14.5l17.9,5.3
		l-18.1,12.3l18.5,7.4c-24.2,6.8-57.2,30.3-70.5,64.8c-25.8,1.4-38.2,22.2-46.6,39.7c-5.7,11.8-14.7,16.5-27.9,25.4l-105.3,73.4
		l14.5,2l97.3-65.1c19.2-12.9,28.3-22.5,32.9-31.7c9-18,18.7-31.5,37.8-31.5c9.4,0,19.4,4,27.4,11.6l17.1,5.6l-18.6,11.4l15.6,9.6
		c-44.6,14-72.3,46-88.4,107.1l11.8,2.7c5.9-20.2,11.8-38.8,22.2-55.2c25.9-0.3,52-1.2,77.7-1.2c68.6,0,125.5,2.9,156.2,11.9
		l-10.9-18.9c-32.9-5.6-80.5-8.5-145.3-8.5c-21.7,0-43.7,0.8-65.6,1c14.1-14.9,34.4-27.5,65.7-37.2l-22.2-12.2l24.6-13.7l-33.6-12.5
		c-5.9-5.3-13.2-10.1-22.4-12.4c10.7-33,47.4-52.4,82.5-65.7l-24.6-10l24.8-13.6L481,74.5c-10-11.7-19.6-17.1-34.3-17.1
		c-35.4,0-50.3,30.8-64.4,58c-7.4,14.4-12.1,20.4-24.6,28.6c-27.2,17.8-62,45.1-95.1,80c-17.3-12.5-52.7-49-62.3-68.9
		c-3.8,4.7-7.5,14.9-7.5,14.9c3.6,3.8,45.3,45.9,60.8,63.8l-3.5,3.9c-16.5,3.3-59.4,7.4-74,5.4l-8.2,14.6
		c10.9-1.1,53.5-6.1,71.2-7.1c-5.4,6.6-10.7,13.3-15.7,20.1c-54.8,6.2-91.4,17.5-91.4,37.7c0,3.3,1.3,7.1,1.3,10.7
		c0,8.5-3.2,11.6-9.2,15.4c-3.9,2.5-4.2,4.2-2.5,6.5c1.7,2.4,10.1,14.9,10.1,17.3c0,4-4,8.1-7.3,11.8c-2.9,3.2-2.7,4-0.5,8.1
		l15.9,33.8L156.6,424.2L156.6,424.2z M835.5,236.1c-3.5,3.7-6.6,7.6-9.2,11.8l-8.8-12.4c29.5-39.3,107.4-57.7,153.1-61v-21.1
		c-5.8,1.8-12,3.8-17.8,5.2c-8.2,2-15.7,3.8-22.1,3.6c-6.4-0.2-11.6-2.7-13.9-6.1c-6.1-8.8-0.4-22,19.6-34.4l-15.8-13.2
		c-12.2,15.8-24.3,33.3-36.5,43.8c-11.1,9.5-22.8,14.2-32.2,7.2c-5.1-3.8-7-5.5-7.5-15.4c0.7-14.5,9.5-36.7,17.3-51L842.8,91
		c-3.3,21.9-12.3,40.5-21.9,55.9c-12,19.2-27.4,32.7-43.3,43.7l-10.4-10.3c12.8-7.6,28.9-19.9,39.9-36.8
		c12.8-19.7,23.2-44,23.2-66.1l54.2,5.1c-7.6,9.7-20.2,31.7-25,47.6c-2.5,8.3-2.4,14.9,0.6,17.1c5.7,4.3,15.8-2.6,25.6-13
		c13.8-14.8,27.3-37.1,33.2-45.1l39.2,32.5c-17.4,9.2-34.3,19.8-31,25.7c3.1,5.4,14.2,3.8,26.5,0c10.1-3.1,19.9-7.4,29.1-12.6v53
		c-18.9-0.3-50.9,3.3-81.7,12.6c7.3,10.3,28.4,14.2,41.7,16l-6.7,43C902.4,245.1,876.4,236.9,835.5,236.1l13.5-11.6
		c30.1,0.6,60.3,9.4,77.5,18l2.5-16.3c-15.4-2-34.8-10.8-43.1-20.7c-13.4,5-26.1,11.3-36.8,19L835.5,236.1L835.5,236.1z"/>
	<path d="M673.9,372.7l12.6-27.1c-14.8-17.5-28.3-36-40.4-55.3l-10.9-18.9c-25.1-47.7-16-70.5-29.4-91.5
		c-11.1-17.3-64.9-6.5-73.8-4.7l15.6-25.8l-30.7,2.4l26-30.9c2.8-4,4.2-7.7,7.2-18.4c4.6-16.3,18.6-44.1,59.5-44.1
		c45.4,0,59.5,36.8,79.3,52.7c27.1,21.9,53.2,44.9,78.3,68.9l10.4,10.3c13.4,13.7,27.2,27.8,39.8,44.9l8.8,12.4
		C881,327.7,949,480.4,979,550.3c2.9,6.8,5,13.6,6.8,18.8c-22.7-12.6-44.7-26.4-66-41.2l-13.5-9.5c-8.5-6.1-16.8-12.3-25.1-18.7
		l-13.9-10.9c-8.3-6.7-16.6-13.5-24.7-20.5L870,627.7c2,9.4,10,7.8,16.5-0.4s8.9-10.5,6.5-21.4l-25.7-117l13.9,10.9l24.6,99.4
		c2.4,9,6.2,11.8,16.7,12.3c10.5,0.5,12.7-3.6,10.5-10.5l-26.6-82.5l13.5,9.5l25.2,74.1c6.5,19,0,21.2-11.4,21.2s-21.6-2.7-27.9,1.3
		c-6.2,4-14.1,15-23.4,24.6c-8.3,8.5-20.3,6.3-22.7-9.6l-30.2-182.9c-19.4-17.4-37.9-35.9-55.2-55.3c-7.7-3.3-15.4-6.8-23-10.4
		l-11.4-5.3c-2.7-1.3-5.4-2.5-8.2-3.5c-8.4,10.1-16.4,21.3-25.8,29.3c-5,4.3-8.4,6.7-15.7,6.7c-2.3,0-5.1,0-7.7-1.5
		c-2.8-1.6-5.4-4.7-8.4-9.2c-2.2-3.4-5.5-7.7-8.4-12.5c-6-10-12.4-22.6-18.2-32.8c-6.5-11.5-12.1-20-12.9-21.4
		c-1.2-2.2-4.3-4.9-4.3-4.9c-3.2,5.2-5.5,15.2-5.5,20.8l-11.4-3.9c1.5-7.5,4.5-17.2,6.2-21.9c0-4-4.5-9.4-8.2-9.4
		c-5.2,0-10.5,5.7-13.2,16.6l-11.5,5c1.3-17.6,7.4-36.8,24.8-36.8c14.1,0,22.8,10.7,29.5,20.8C647.3,336.9,669.3,366.9,673.9,372.7
		l8.7,11c1.5,6.9,4.4,10.9,5.8,13.1c3,4.7,6.4,4.4,10.9,0.2c2.1-1.9,8.7-7.3,15.1-14c5.6-5.8,11-12.9,13.2-16.5
		c6.4,2.9,18.3,8.6,27.8,12.8c-41.1-50.6-80.4-112-97.5-153.8c-7.1-17.3,6.7-23,13.4-6c18.1,46.2,70.9,127.8,109.8,170.7
		c44.9,49.5,127.2,121.2,180.7,149.9c-7.8-15.1-18-36.9-29.8-62.1c-65.1-36.8-130.9-104.5-161.6-162.6l13.5,1.6
		c28.6,50.5,96.8,117.8,137.1,137.4c-36.8-78.2-84.8-177.2-122.2-219.9c-46.4-52.9-97.1-93.7-121.3-115
		c-23.9-21-33.7-47.3-68.1-47.3c-28.3,0-43.2,20.4-48.9,41c-1.2,4-1.8,6.5-4.7,10.7L542.4,140l28.9-3.5l-16.7,23.4
		c0,0,45.4-10.2,61.3,11.4c17.1,23.2,6.1,49.3,34.1,100.1c12.3,22.3,42.2,62.4,52.2,71.3l-19.6,41.1L673.9,372.7L673.9,372.7z
		 M228,379.8l-6.9-4.7c5.8-4.6,12.1-8.5,18.9-11.4c3.6-1.5,7.5-2.3,11.5-2.4c7.7,0,14.3,3.2,20.8,6.7c10.2,5.4,21.7,11.9,30.5,11.9
		c3.3,0,6.6-0.8,10.4-0.8c8.7,0,17.1,3.9,21.9,3.9c2.9,0,4.9-2.6,6.8-5.3c4.8-6.9,11.4-12,19.9-15.6c9.1-3.8,20-5.3,31.9-5.3
		c9.4,0,18.4,1.3,23,2.4c0,0-7.1,8.6-8.9,10.5c-9.5,0-27.5-0.3-39,4.4c-7.1,2.9-9.6,7-9.6,12.9c0,8.5,9.5,11.9,20.1,15.1
		c6.3,1.9,13.3,2.4,19.2,2.4c7.3,0,21.3-2.7,35.1-5.8c16.7-3.7,32.2-8.1,36.7-9.7l6,10.8c-18.5,6.3-37.5,12.2-55.1,15.8
		c-9.9,2-19.4,3.3-27.9,3.3c-14.1,0-29.5-5.9-42.1-11.9c-10.6-5.1-20.1-10.1-28.6-10.1c-9.5,0-18.5,3.3-27.3,8.3
		c-4.3,2.5-17.4,11.5-29,16c-8.9,3.5-16.2,5.5-25.2,5.5c-8,0-12.8-1.1-17-4.4l14-8.6c1.8,1.8,5,2.1,7,2.1c2,0,4.4-0.3,9.9-2.5
		c3.1-1.3,7.7-4.1,10.4-5.8c5.5-3.6,7.4-5.7,9.5-7.4c4.2-3.3,5.8-7.8,0.4-12.6c-2.6-2.5-5.5-4.7-8.6-6.7c-4.8-2.9-8.3-5.7-17.1-5.7
		C239.3,374.9,232,377.7,228,379.8L228,379.8z"/>
	<path d="M422.8,385.3c0,0-8.3-2.3-11.2-2.5c5.2-6.9,11.6-13,18.7-17.9c11.3-7.7,23.2-11.9,41.2-13c4.9-0.3,14.9-1.2,20.4-1
		c5,0.2,13.5,0.6,21.3,2c5.5,1,10.7,2.6,15,3.2c2.6,0.4,11.7,0.3,14.8-0.2c12.7-2,28-6.9,36-11.3l3.3,12.2
		c-17.2,8.8-36.6,17.2-54.4,17.2c-9.1,0-18.7-0.7-27.6-1.5c-15.8-1.5-29.5-3.6-34.2-3.6C453.4,368.9,435,374.9,422.8,385.3
		L422.8,385.3z M410.1,453.3l-16.2-7.4c22.4-11.3,56.7-22.7,70.7-25c14.1-2.2,30.1-3.9,39.4-7c4.2,10.7,12.6,22.2,24.7,22.2
		c4.4,0,11.6-3.3,18.9-6.5c8.2-3.6,16.4-7.5,20.6-9.4c4.6-2,19.5-8.6,32.1-14.2c6.3-2.9,12.6-5.8,18.8-8.9l8.5,4.6
		c-2.5,11.1-6.8,24.9-11.6,34.7c-1.9,3.9-3.7,7-5.7,9.3c-3.7,4.2-9.6,9.7-17.4,15.2c-8.5,6-18.8,12.2-29.8,18.5
		c-8.5,4.9-17.1,9.9-25.9,13.9l-4.5-8.2c13.4-7.6,27.1-17.2,39.1-26.1c5.7-4.2,11.2-8.5,15.1-12.1c2.9-2.7,4.7-4.9,6.2-7
		c3.6-5.2,9.4-15.5,11.2-20.4c-5,2.5-24,11.4-32.5,15.8c-9.6,5-25.1,12.9-33.8,17.1c-6.8,3.2-13,5-17.3,5c-9.7,0-14.1-7-16.5-11.2
		c-6.1-10.9-12.7-12-30-12.2C454.1,433.6,426.5,441.9,410.1,453.3L410.1,453.3z M504.4,402.9c0,0-2.3-9.5-3.5-13
		c0,0,2.8-0.9,6.5-0.9c6,0,20.9,1.7,27.1,1.7c23.2,0,31.8-7.3,38.6-13.5c5.8-5.2,11.8-9.5,27.6-9.5c13.9,0,29.9,5.6,34.5,7.8
		l-1,12.7c-7.5-4-15.9-6.2-24.4-6.3c-5.8,0-10.9,0.5-14.6,2.4c-4.1,2.1-6.6,5.3-10.5,8.5c-4.1,3.4-9.7,6.6-17.1,9.4
		c-7.4,2.7-16.5,4.6-30,4.6C519.7,406.6,510,403.6,504.4,402.9L504.4,402.9z"/>
	<path d="M357.2,498.7l10.7-4.4c9.8,3.8,24,8.1,33.9,8.1c5.9,0,10.8-2.1,14.9-3.9c3.2-1.4,38.9-18.9,56.6-25.4
		c5.6-2,11.3-3.2,14.1-3.2c4.2,0,4.5,1.9,5.7,3.9c3.3,5.3,29.7,43,32.4,45.8c22.3-6.9,45.2-16.9,58.4-29.6
		c13.8-13.3,25.2-28.6,36.2-40.5c4.3-4.6,9.5-8.7,12.1-10.1c11.4-6.1,47-6.6,61.9-5.9l-8.9,12.5c-26.3,0-41.1,2.7-47.7,7.7
		c-2.8,2.1-7,6.4-11.1,11.6c-9,11.7-18.8,27.8-22.7,30.9c7.7,5.3,16.1,10,29.5,10c22.3,0,38.3-14,47-21.8l7.5,4.5
		c-5.5,7.2-11.9,14.6-20,20.1c-9,6.1-20.3,10-26.9,11.9c-12.9-2.5-41.5-8.2-48.1-9.5c-24.7,10.1-64.8,26.3-78.3,30.3
		c-3,0.7-6,1.2-9.1,1.4c-10.7,0.6-25.5,0.5-39,0.4c-9.6-0.1-18.7-0.1-23.2-0.9l-11.9-12.4c10.5,2,14.6,2.6,24.4,2.6
		c23.2,0,38.1-3.9,43.1-5.1c4.1-1.1,4.8-3.4,3.6-7.2c-2-6-5.4-11.6-10.6-17.7c-3.6-3.9-7.5-7.4-11.7-10.6c-3.2-2.2-6.3-2.7-15.1,0.3
		c-8.1,2.8-33.3,16.4-44.2,22.2c-5.4,2.9-9.5,3.7-19.2,1.4C391.4,513.6,367,504.6,357.2,498.7L357.2,498.7z M427.1,219.2
		c5,0,9.1-4.1,9.1-9.1c0-5-4.1-9.1-9.1-9.1c-5,0-9.1,4.1-9.1,9.1C417.9,215.1,422,219.2,427.1,219.2z"/>
</g>
</svg>
