<svg xmlns="http://www.w3.org/2000/svg" xmlns:xlink="http://www.w3.org/1999/xlink" viewBox="0 0 903.9 1000"><defs><clipPath id="a"><rect width="903.9" height="1000" fill="none"/></clipPath></defs><title>unilever-orig</title><g clip-path="url(#a)"><path d="M116.4,879.2c-1.5-4.7-5.8-15.3-7-23.1-2.6-17.3,6.5-28.7,14.8-31.4s13,2.1,16.6,13c4.7,16.6,5.2,38.3,3.6,69.5-2,42.5-23.3,93.9-76.2,92.8-45.7-1-65.9-30.6-68-75.7-1-21.3.5-42.5,9.3-72.6,4.7-16.1,8.8-21.8,23.3-24.9,11.4-2.1,10.4,9.8,7.8,23.9-5.7,31.1-8.3,46.1-6.2,81.4,2,37.3,19.2,51.9,37.9,51.9,28,.5,40.4-22.8,45.7-56.5C122.1,900.4,119,887.5,116.4,879.2ZM713.6,916c10.9,0,14,12.9,11.4,20.7s-11.9,16.6-26.4,19.2C695.5,948.1,693.9,916,713.6,916ZM510.8,933.6c0-8.8-4.7-16.1-10.4-16.1s-15.6,5.2-15.6,21.8c0,13,4.6,19.2,6.7,21.8C506.7,956.5,510.8,944,510.8,933.6ZM349.5,827.8c-.7-8.3-7.3-14-16.1-14s-19.1,10.3-18.1,23.3c.6,8.6,5.7,15.6,15.6,15.6S350.6,839.8,349.5,827.8Zm84.3,30.5c-.9-14.5-4.4-21-12.2-20.5-10.3.6-15.1,33.1-13,67.3,1.3,22.3,4.7,25.7,7.8,25.5C422.1,930.2,435.8,890.4,433.9,858.3Zm344,54.6c-6.4,26.7-25.9,65.9-55,65.9-6.7,0-18.7-2.6-18.7-9.4s45.7-8.3,45.7-43c0-12.9-11.9-31.1-29.6-31.1-23.3,0-46.1,25.4-46.1,60.7,0,31.6,19.6,42,39.3,42,34.2,0,55-28,65.9-51.3,5.2,15.6,8.3,51.3,21.3,51.3,5.2,0,8.8-2.6,15.1-16.6,15.5-34.8,30.6-74.7,51.3-74.7,7.8,0,3.1,14,21.8,14,8.8,0,15-7.3,15-15.6,0-11.9-10.9-21.2-27.5-21.2-48.8,0-59.1,73.1-66.9,73.1-13,0-8.8-58.6-18.2-58.6S779,908.3,777.9,912.9ZM363,975.1c7.8,0,21.1-2.5,31.7-19.4-6-13.4-10.3-40.4-10.9-50.2-3.1-50.3,16.3-97.6,37.5-98.9,15.5-.9,28,13.8,29.4,37.6,3.8,62.6-17,88.8-27.5,111.4,1.8,8.7,16.6,23.6,30.6,23.6,5.2,0,11.4-2.6,13-4.7a51.4,51.4,0,0,1-2.1-15c0-36.3,23.3-66.9,43.6-66.9,16.1,0,25.4,21.3,25.4,35.3,0,16.6-14,30.1-34.7,43.1,3.6,3.6,10.4,6.2,16.1,6.2,29.6,0,45.1-35.8,56.5-68.5,2.1-6.2,5.7-15,13-15,12.4,0,17.7,81.9,38.3,81.9,8.8,0,16.1-18.2,16.1-32.1,0-10.4-3.6-11.4-3.6-26.5,0-16.6,8.8-30.6,20.8-30.6,7.3,0,9.9,7.2,9.9,16,0,33.2-23.9,94.9-59.1,94.9-26.5,0-24.4-45.6-33.8-45.6s-24.9,46.2-76.2,46.2c-8.3,0-17.1-4.1-24.4-12.5-12.4,8.3-22.8,11.9-34.8,11.9-19.2,0-27.5-19.7-35.2-19.7-9.4,0-19.7,20.2-50.8,20.2-24.9,0-29-33.2-37.8-33.2s-19.7,33.2-32.7,33.2c-21.8,0-26.4-57.6-45.7-57.6-15,0-62.6,58.5-75.5,57.1-5.2-.5-7.4-4.4-6.8-9.6.7-7.2,6.9-26.4,9.4-35.5,4.2-15.8,8-33.1,10.2-38.6s7.9-9.5,12.5-9.1c2.3.2,3,4.6,3.8,8.1,2.6,12.8,6.3,25.9,10.4,25.9,7.3,0,31.3-46.2,45.3-46.2,17.1,0,19.2,72.6,42.5,72.6,7.8,0,13.5-9.3,18.7-20.8.5-19.2,5.7-46.6,21.3-46.6,10.9,0,16.1,24.4,8.3,45.6,0,25.4,16.6,31.6,27.5,31.6" fill="#0081c0"/></g><path d="M724.3,161.8c-3.8,0-9.4,0-12.4-6s-1.6-12.9-6.3-16.5c4.7,1.4,9.6,1.4,13.5,1.4,12.4,0,24.2-8.5,33.3-8.5,6,0,7.9,3.9,7.9,7.7C760.3,151.9,735.8,161.8,724.3,161.8Zm6,31.1c28.6,0,54.8-22.8,54.8-42.9,0-9.4-4.4-17.1-15.7-18.4,1.9,2.5,2.7,4.4,2.7,8.8,0,15.1-23.1,31.9-48.1,31.9-9.1,0-11.8,6.3-11.8,9.6C712.1,189.6,719.6,192.9,730.3,192.9Zm-2.2,11.6c3.6,26.1,43.2,61.4,53.9,60.5,7.2-.6,9.9-34.1,9.9-60.5,0-15.1.8-27-7.2-29.7-12.7,25.6-45.9,30.8-56.7,29.7" fill="#0081c0"/><path d="M108.7,377.6c9.3,0,7.4-57.3,22.6-57.3,3.6,0,4.7,3.6,4.7,8,0,12.9-6.3,31.9-6.3,42.4,0,5.2,1.4,6.9,3.9,6.9,6.6,0,18.2-63,29.4-63,3.6,0,5.2,3.6,5.2,7.2,0,13.2-16.8,51.2-16.8,61.9,0,1.7.5,3,1.9,3,6.9,0,20.6-29.7,25-44.6,2.5-7.7,5.8-11.8,8.8-11.8s5.2,3,5.2,9.4c0,14.9-13.8,49.8-25.9,73.2-9.3,18.2-23.9,44.3-23.9,58.9,0,7.4,1.4,15.1,12.1,24.5-17.6-1.1-24.8-2.7-31.4-16.5-29.5,58.6,54.2,52.8,25.6,104.8-5.2-9.3-46.5-19-46.5-73.5,0-47.1,41.3-74.6,41.3-94.1a12.6,12.6,0,0,0-4.9-10.2c-9.1-7.7-9.4-14-16.5-14-5.2,0-11.6,12.1-5,22.8,2.2,3.6,4.1,5.8,4.1,9.1,0,7.7-12.1,28.3-20.6,28.3s-15.1-21.2-15.1-55.3c0-30.3,6.9-60.8,15.4-60.8,2.5,0,3.3,1.6,3.3,3.9s-1.1,10.7-1.1,22.8,3,14.1,5.5,14.1" fill="#0081c0"/><path d="M178.8,458.2c11.6,0,21.2-8.5,21.2-27.5V402.6c0-10.7.8-22.8,8-31.4a49.4,49.4,0,0,0-.8,11c0,23.7,13.2,39.9,13.2,62.7,0,8.5-2.5,13.2-9.1,13.2s-5.8-5.8-7.2-5.8-2.7,3.6-2.7,7.4c0,5.8,4.1,14.9,15.7,14.9,9.9,0,17.9-9.1,17.9-19.3,0-24.8-19.3-52.3-19.3-78.7,0-11.6,3-19.3,5.5-25.3,0,54.8,46.5,94.7,46.5,117.5a9.2,9.2,0,0,1-9.6,9.4,9,9,0,0,1-9.4-8.8c0-1.9-.3-2.5-1.1-2.5s-6.6,5.5-6.6,12.7c0,9.1,7.4,20.1,21.2,20.1,15.7,0,24.2-13.2,24.2-25.1,0-28.9-56.4-72.6-56.4-119.4,0-8,1.4-20.9,7.2-30.8-36.3,23.4-47.6,54.5-47.6,81.7,0,23.7-.8,35.5-12.9,35.5-6.3,0-8-5.8-10.2-5.8s-2.5,4.9-2.5,6.3c0,10.2,7.4,16,14.9,16" fill="#0081c0"/><path d="M595.8,148.3c3.5-2.3,19,1.4,39.1-8.5a15,15,0,0,1,7.1-1.9c9.7,0,7.2,11,16,11,6.9,0,15.7-5.8,20.9-5.8,8.2,0,20,25.9,20,38,0,14-21.1,22.6-46.2,22.6-36.6,0-58.6-31.9-58.6-52.6A2.9,2.9,0,0,1,595.8,148.3Zm60,35c12.1,0,21.2-5.5,21.2-8.8,0-1.1-1.6-1.9-5.2-1.9s-10.7-.3-24.2-2.5c-11.6-1.9-20.4-6.3-23.7-6.3-1.1,0-1.7.5-1.7,1.4,0,7.2,13.2,18.2,33.6,18.2" fill="#0081c0"/><path d="M184.6,561.9c-9.1,2.2-23.7,16.5-23.7,39.1,0,26.9,28.9,68.5,76.5,68.5,40.2,0,50.1-27.8,50.1-46.5,0-41.5-25.6-70.7-58.9-70.7-18.2,0-34.4,13.2-34.4,32.7s13.8,45.4,46.5,45.4c15.4,0,24.5-11,24.5-23.7s-11.3-29.4-27.8-29.4c-4.9,0-8.5,3.3-8.5,8.5s9.1,13.2,20.4,13.2a14.8,14.8,0,0,0,6.1-1.1,6.7,6.7,0,0,1,.8,3.3c0,6.3-6.1,10.2-15.4,10.2-14,0-27.5-10.5-27.5-27,0-9.9,8.5-17,20.9-17,24.5,0,39.1,21.7,39.1,43.5,0,19.5-10.7,30.8-32.7,30.8-44,0-65.5-39.6-55.9-79.8" fill="#0081c0"/><path d="M498.8,723.2c13.2,0,12.5-1.1,16.7-1.1s4.4,2.5,4.4,4.1c0,6.1-13.5,13.5-37.4,13.5-14,0-22.6-7.4-25-15.7-13.8,8.8-34.7,16.8-55.3,16.8-56.4,0-70.7-24.5-88.3-32.5-13.5-6.1-34.1,5.8-63-26.4a69.3,69.3,0,0,0,13.2,1.1c25.3,0,38.8-12.4,38.8-32.2a70.8,70.8,0,0,0-.6-7.7c7.7,3,25.3,16.2,29.5,39.6.5,2.8,11.8,5.2,19,5.2,9.9,0,22.6-4.1,24.5-20.4,33-2.7,55.3-22.3,60-47.1,11.8,3.9,25.3,14.6,28.6,20.1a49.6,49.6,0,0,1,16.5-2.5c8.8,0,18.7,1.7,30.5,5.2.6-3.6,1.1-8,6.6-8,8.3,0,6,9.1,8.8,14.3,1.4,2.8,8.3,4.4,8.3,9.9a7.1,7.1,0,0,1-7.2,7.2,12,12,0,0,1-3.3-.6c-5.5,1.9-5.8,41.5-28.9,41.5-17.1,0-32.7-14-39.6-31.6-1.9-5.2-6-8.5-9.9-8.5s-6.9.8-12.1,6.6c-14.9,16.2-39.6,30.2-70.2,30.2-9.4,0-16.8-.8-18.7-.8s-1.1.3-1.1.6c0,1.9,9.4,9.4,29.7,9.4,48.4,0,60.3-27.3,68-27.3,1.1,0,4.4,0,6.3,4.4C458.7,717.1,483.3,723.2,498.8,723.2Zm-21.3-55a11,11,0,1,0,11-11,11,11,0,0,0-11,11" fill="#0081c0"/><path d="M695.4,530.8c-3.9,0-8,3-8,10.5s6.3,13.5,9.9,15.1a16.9,16.9,0,0,0,8,2.2c8,0,14.3-2.2,14.3-8.8C719.6,541.3,707.2,530.8,695.4,530.8Zm-29.7,17.1c-5.8,0-37.7,42.7-58.3,42.7-4.9,0-9.1-9.4-9.1-16.5,0-3.9,2.5-6.6,11.3-8.6,47.3-10.7,36.8-46.2,77.3-46.2,22.3,0,47.1,15.2,47.1,49.3,0,36.3-51.7,81.4-59.4,81.4s-13.2-9.1-13.2-15.1c0-1.9.8-4.4,6.3-6.6,26.4-10.5,41.5-34.7,41.5-47.1,0-2.8-1.4-5.5-4.9-5.5s-24.7,45.7-47,45.7c-15.4,0-31.1-14-31.1-20.6,0-11,44.6-31.4,44.6-46.8,0-5.8-2.7-6.1-4.9-6.1" fill="#0081c0"/><path d="M121.1,187.1s-8,6-17.9,6C91.3,193.2,82,184.4,82,172c0-8.5,4.4-17.3,14.6-21.7a27.1,27.1,0,0,0-.3,4.7C96.3,170.6,105.1,182.4,121.1,187.1ZM179.9,240c-6,7.1-12.4,19.3-12.4,31.6,0,14.9,9.1,27.2,23.1,27.2s19.8-11.6,19.8-23.4C210.5,257,193.7,244.1,179.9,240ZM88.6,251a5.9,5.9,0,0,0-.8,3,5.9,5.9,0,0,0,5.2,5.2c2.2,0,3.6-.5,4.7-.5,6.6,0,14,4.7,24.8,4.7,6.3,0,13.8-1.9,23.1-6.6,19.8-9.9,27.5-34.4,27.5-38.5s-4.2-4.5-7.7-9.4-2.2-9-4.4-11.3-5.2-1.4-10.2-1.9c-1.7-.2-3.9-.3-6.1-.3-9.1,0-19.8,1.1-31.9,8.8C88.9,219.4,92.4,244.6,88.6,251Zm64.7-34.1c1.9,2.6,7.2,5.8,7.2,7.7,0,3.8-2.2,8.8-6.6,8.8-9.6,0-17.3-14.6-17.3-22.9,0-5.2,3-5.8,7.1-5.8a6.6,6.6,0,0,1,4.1,1.1C150.2,207.2,150.2,212.7,153.3,216.8Zm-25.3,33.6c-9.1,0-19-11.3-19-21.5,0-5.5,4.1-12.4,7.1-12.4,1.1,0,1.7.8,1.9,2.8,1.6,13.5,10.5,21.2,18.7,25,.8.5,1.4.8,1.4,1.4S132.9,250.4,127.9,250.4Zm23.4-69.4a54.2,54.2,0,0,0,2.5-16c0-13.2-6.1-33.3-24.8-33.3-10.7,0-18.4,8.5-18.4,18.7C110.6,172.3,132.3,181.1,151.3,181.1ZM80.1,291.1c0,20.9,6.3,30.8,17.6,30.8,8.8,0,20.6-6.3,34.7-18.4-10.7,2.5-19,4.1-26.4,4.1C96,307.7,88.3,303.8,80.1,291.1Zm9.6-24.5a21.2,21.2,0,0,0-.3,4.1c0,12.9,6.9,20.1,16,20.1,6.9,0,14.9-4.1,22-13.2a58,58,0,0,1-9.9.8C107.3,278.5,96.3,275.7,89.7,266.6Zm67.4-3.8c-6.3,1.6-19.5,9.4-19.5,23.1,0,9.9,7.7,16.2,17.3,16.2,5,0,8.5-1.1,10.7-2.8-7.7-7.4-10.5-15.7-10.5-23.9A36.8,36.8,0,0,1,157.1,262.8Zm9.9-75.4a11,11,0,1,0,11-11A11,11,0,0,0,167,187.4Zm14.3,24.8a11,11,0,1,0,11-11,11.1,11.1,0,0,0-11,11" fill="#0081c0"/><path d="M610.6,347.3a10.6,10.6,0,0,1,21.1,0,10.6,10.6,0,1,1-21.1,0ZM514,262.5a11,11,0,1,0,11-11A11,11,0,0,0,514,262.5Zm-9.3,38.8a15.7,15.7,0,1,0,15.7-15.7A15.8,15.8,0,0,0,504.7,301.3Zm34.7-17.6a16.8,16.8,0,1,0,16.7-16.8A16.7,16.7,0,0,0,539.4,283.7Zm1.4-35.8a10.4,10.4,0,1,0,10.4-10.4A10.5,10.5,0,0,0,540.7,247.9Zm49.8-26.4A10.5,10.5,0,1,0,601,211.1,10.5,10.5,0,0,0,590.5,221.5Zm-20.7,33.8a17.6,17.6,0,1,0,17.6-17.6A17.7,17.7,0,0,0,569.9,255.4Zm-28.3,64.4a11,11,0,1,0,11-11A11,11,0,0,0,541.6,319.8Zm36-22a11,11,0,1,0,11-11A11,11,0,0,0,577.6,297.7Zm-10.2,38.8a19,19,0,1,0,19-19A19,19,0,0,0,567.4,336.5Zm39.6-23.4A12.9,12.9,0,1,0,620,300.2,12.9,12.9,0,0,0,607.1,313.1Zm-.8-34.7a11.5,11.5,0,1,0,11.5-11.5,11.6,11.6,0,0,0-11.5,11.5" fill="#0081c0"/><path d="M634.3,639.6a81,81,0,0,1-51.7,17.9c-14.9,0-21.5-4.7-23.7-4.7s-5.8,2.7-8.8,6.3c-6.5,7.7-15.1,22-15.1,37.7,0,11,8.5,22,24.4,22,51.5,0,90-32.2,90-58.3C649.4,645.6,640.6,639.6,634.3,639.6Zm-14.3-3c2.2-1.9,2.7-4.9,2.7-8v-6.3c0-8-12.1-12.6-28.6-12.6-20.1,0-30.8,9.1-30.8,12.9v12.7c0,5.2,12.1,10.5,27,10.5C602.1,645.6,612.8,642.6,620,636.5Zm-2.2,27.2c1.4,0,3,.8,3,5.8s-2.7,14-12.6,20.3c-6.9,4.7-16.2,8.6-30,8.8,2.2-6.6,3.9-13.5,3.9-20a52.8,52.8,0,0,0-.5-6.3H585c21.8,0,31.1-8.5,32.7-8.5" fill="#0081c0"/><path d="M512.6,327.5c3,23.4,34.4,11.5,34.4,39.9,0,4.1-1.1,10.2-1.1,15.4s.5,11.3,5.2,11.3,5.8-3.3,5.8-7.7-1.1-9.9-1.1-12.9c0-9.6,6.9-11.8,11-11.8,10.5,0,18.4,10.7,34.2,10.7-3.6,17.6-39.9,12.9-39.9,32.2,0,9.6,9.6,11.8,16,11.8s7.7-.8,7.7-5.8c0-2.8-.6-5.8-.6-7.7a2.2,2.2,0,0,1,2.2-2.2c6.1,0,35.7,22.6,35.7,29.5s-31.3,12.6-40.4,12.6c-2.8,0-3.3-1.9-3.3-3s4.7-7.7,4.7-11-4.1-4.1-15.1-4.1c-5.2,0-9.1.6-9.1,4.7,0,7.4,12.1,16.5,12.1,23.4s-3.3,8.8-12.1,8.8-18.7-5.8-18.7-15.4c0-7.7,7.9-15.4,7.9-20.1,0-1.4-1.1-3.6-4.3-3.6-10.2,0-12.9,27-49,30,5.8-5.2,10.7-11,10.7-22.8,0-5.8-1.4-10.5-1.4-16.8,0-8.3,3.8-12.4,9.3-12.4,10.2,0,15.1,14.3,21.8,14.3,3.6,0,7.4-3.3,7.4-8.2,0-20.9-40.2-17.9-40.2-47.3C502.5,351.1,505.2,341.2,512.6,327.5Zm131.3,80.6c0,6.9,2.2,14.8,9.1,14.8s10.7-8.8,10.7-18.4-1.9-19.5-1.9-24c0-1.9.8-2.7,1.9-2.7,4.1.3,8,11.6,12.4,11.6s12.3-9.1,15.4-9.1c.8,0,1.1,1.1,1.1,1.4,0,4.1-6.3,13.2-6.3,16.8s16,3.6,16,6.3-16.7,4.1-24.7,7.7-12.4,7.4-12.4,12.9,5.5,6.6,13.2,6.6c18.4,0,31.3-9.9,35.5-9.9a1.3,1.3,0,0,1,1.4,1.4c0,2.8-9.4,11.8-9.4,16s17.1,10.2,16.8,12.9c-.3.8-1.4,1.1-3.3,1.1s-7.7-.8-11.3-.8-4.1.3-5,1.4.6,16.8-3.3,16.8-12.9-32.5-34.1-32.5c-3,0-5.2,2.5-5.2,6.6,0,11,10.7,23.7,20.9,29.7,4.6,3,12.3,6.1,12.3,7.7,0,3.3-17.6.3-17.6,5.8s2.2,12.4,2.2,16.8c0,1.4-.3,3-1.9,3-3.3,0-11.3-15.1-15.1-15.1s-10.5,9.1-13.5,9.1a1.5,1.5,0,0,1-1.4-1.6c0-6.3,10.2-20.6,10.2-34.7,0-6.6-.8-20.9-8.8-20.9s-14,10.5-17.4,20.9c-1.9,6-.6,29.4-5,29.4s-3-15.7-8.5-15.7-12.9,7.4-15.9,7.4c-.6,0-1.1-.3-1.1-.8,0-3.3,8-14,8-16.2,0-4.1-18.2-4.7-18.2-8s7.2-3.3,13.8-4.4c14-2.5,34.6-12.7,34.6-27,0-16-15.4-22.8-25.6-29.5-5.2-3.3-11-6-11-8.2s6.6-2.2,9.4-2.2,8.2-.3,8.2-3.6-.6-7.4-.6-11.3.3-5,1.4-5c4.1,0,9.9,13.5,12.7,13.5,4.4,0,10.5-11,14.6-11,1.4,0,1.9.8,1.9,3.3,0,10.2-5.2,21.7-5.2,31.7" fill="#0081c0"/><path d="M520.6,484.3c12.7,1.7,15.7,6.1,15.7,9.6,0,6.1-5.5,8-10.8,8s-8.3-.8-12.9-.8-12.1,1.4-17.1,7.2c3.6.6,8.8,3,8.8,8.5,0,16-44.3,2.7-44.3,43.8,0,21.7,22.6,45.4,56.7,45.4,17.6,0,28.9-5.8,28.9-12.4s-9.4-1.7-9.4-6.1c0-1.9,3.3-5.5,3.3-8.6,0-1.3-1.1-3.8-3.3-3.8-5,0-14.3,8-33.3,8-14.9,0-29.5-8.5-29.5-20.1,0-2.5,1.1-3.9,2.8-3.9s3.8,1.1,5.8,1.1,1.9-1.1,1.9-4.1,0-11.6,5.2-11.6,15.1,19.3,53.2,19.3c12.6,0,37.1-2.5,46.2-10.7-.3,30.3-24,70.2-73.5,70.2-51.5,0-79-41.3-79-79.3,0-42.1,34.4-80.3,81.5-80.3,12.1,0,22.3,4.1,22.3,9.4C539.9,480.2,522,475.8,520.6,484.3Zm84.5,14.6a16.4,16.4,0,0,1,2.8,8.8c0,7.7-5.2,14.9-5.2,22.9s6.9,16.5,17.3,16.5,19-9.1,19-19.8C639,512.7,625.7,500.3,605.1,498.9ZM514,516.5a11.1,11.1,0,0,1,3.6,8.3c0,4.1-1.9,8.5-1.9,13.2a12.1,12.1,0,0,0,12.1,12.4c7.7,0,13-6.1,13-13.2C540.7,526.7,530,516.5,514,516.5Zm36.6-46.8c28.9,5.5,44.6,27.3,44.6,47.6,0,14-8.8,26.9-24.2,26.9s-24.2-9.6-24.2-25c0-11.6,9-23.7,9-35.5A21.3,21.3,0,0,0,550.6,469.7Zm14.3,36.6a6.6,6.6,0,0,0,6.6,6.9c4.4,0,7.2-3.9,7.2-8.3s-5.2-13.8-10.2-13.8c-2.2,0-1.4,3.3-1.9,6.9s-1.6,6-1.6,8.3" fill="#0081c0"/><path d="M261.1,223.2c9.4,0,20.1-50.6,20.1-59.2,0-2.2-.8-3.9-2.7-3.9-8.5,0-20.4,48.2-20.4,58.9C258.1,221,258.6,223.2,261.1,223.2Zm67.4,15.1c6.9,0,14.6-26.4,14.6-42.9,0-3.6-.6-7.4-2.2-7.4-5.8,0-15.4,27.2-15.4,42.1C325.5,235.8,326.9,238.3,328.6,238.3Zm-44.9-24.5c3,0,6.9-3.3,14.1-11.3a71.4,71.4,0,0,0,.5-11c0-5.5-2.2-11.6-5.5-11.6-8.3,0-12.4,22-12.4,27.8C280.4,211.1,282,213.8,283.7,213.8Zm37.7-11.3c0-4.7-1.1-5.8-2.2-5.8-2.8,0-5.8,3.3-10.2,10.7.5,9.9,2.2,14.3,4.9,14.3S321.4,212.2,321.4,202.5Zm21.2-32.5c18.2,0,26.4,15.7,26.4,33.3,0,7.7-2.2,19-5.8,19s-3-6.3-3.6-12.1c-.6-7.4-1.9-9.1-4.4-9.1-4.7,0-7.7,11-7.7,21.2,0,6.3,1.1,13.5,6,13.5a10,10,0,0,0,6.9-3c-1.1,12.6-10.5,23.7-23.7,23.7-24.2,0-33.3-28.4-36-44.9-14.6,15.4-28.1,26.7-52.3,26.7-22.6,0-32.7-16.5-32.7-32.2,0-4.7,1.6-16.8,7.4-16.8s.8,22.6,14.3,22.6c3.3,0,9.3-2.8,12.7-11.8a51.2,51.2,0,0,0,3-16.2c0-7.4-1.6-12.1-7.1-12.1s-10.5,3.6-12.4,5.5c6.6-19.8,22.6-30,40.2-30,21.8,0,33.3,19.3,33.3,40.7a53.9,53.9,0,0,1-.8,9.4c9.4-15.4,22.3-27.2,36.3-27.2" fill="#0081c0"/><path d="M291.1,244.1c-11.8,0-12.4,14.3-12.4,43.2-8.8-19-23.4-39.4-40.5-39.4-11.6,0-16,7.7-16,21.2a51.4,51.4,0,0,0,.8,9.4c1.4-4.7,5.8-6.6,11.3-6.6,11.9,0,26.2,9.1,35.5,21.5-10.7-1.9-21.2-3.9-30-3.9-5.5,0-10.5.6-14.6,2.5-8,3.6-18.7,15.4-18.7,33.3a55.6,55.6,0,0,0,.8,9.1c9.6-21.5,35.2-31.1,51.7-31.1a51.9,51.9,0,0,1,7.7.6c-8.5,7.7-10.5,21.2-11,30.3-.3,4.4-1.9,4.7-5,4.7,0,9.1,7.2,22.6,7.2,29.4,0,2.5-1.4,4.7-2.7,5.2,0,12.1,12.1,20.9,12.1,28.6a6.4,6.4,0,0,1-1.4,4.4c.8,5,14.1,13.3,15.9,17.5s4.5,5.9,5.9,5.9c4.7,0,12.1-5.5,12.1-10.5a6.6,6.6,0,0,0-2.5-4.4c-5.2-3.8-8-12.1-10.2-17.6a5.2,5.2,0,0,1-5.3-4.1c-1.5-5.7-1.6-16.3-3.8-22.6-3.6-.8-5.2-2.2-5.2-9.6,0-3.6,2.2-17.6,2.2-22.6-1.6,0-3.8-1.1-3.8-4.4,0-8.8,8.8-15.7,11.3-27,15.7,11.5,19.5,23.4,19.5,33.9a72.3,72.3,0,0,1-1.9,15.7c11.6-5.8,28.9-14.3,28.9-31.7,0-10.2-4.7-21.5-35.8-25.9a97.2,97.2,0,0,1,31.9-5.5c17.6,0,27.8,5.5,30,17.9,3.6-5.5,6.3-11.8,6.3-17.6,0-13.5-11.3-22.3-25.6-22.3-16.8,0-31.6,8.8-47.6,19.5,7.2-14.9,12.1-23.7,20.9-23.7a21.4,21.4,0,0,1,4.1.6c-3.3-12.1-15.7-24-22.3-24" fill="#0081c0"/><path d="M754.8,442.5c13.8,0,24.8,17.9,24.8,38.8s-10.5,46.5-29.1,63c-.3-37.1-45.7-25.3-45.7-52.3,0-11.6,8.3-19.3,18.2-19.3s15.7,2.5,20.7,7.4a24.4,24.4,0,0,1-7.4-17.6c0-10.5,6.6-20.1,18.7-20.1" fill="#0081c0"/><path d="M509.1,181.1c7.2,6.9,13.5,9.9,21.2,9.9,3,0,6.6-.8,8.6-.8s4.1,1.1,4.1,3-2.8,8-6,10.7a27.7,27.7,0,0,0,10.7,1.9c15.6,0,33.5-9.9,33.5-34.7,3.3,4.4,5.2,13.5,5.2,17.6,0,30-22,41.5-42.4,41.5-13.2,0-19.8-4.4-21.5-4.4-5.2,0-4.9,10.5-8.5,10.2-6.3-1.1-12.1-15.1-12.1-30C501.9,197.3,504.1,188,509.1,181.1ZM550.6,161c-2.2-3.6-10.4-5.5-14.3-5.5-12.1,0-20.4,8.5-22,16.2a25.9,25.9,0,0,1-1.9-9.4c0-12.1,8.3-27,28.4-27,17.6,0,24.4,9.4,26.9,9.4s5.5-2.8,7.7-2.8,3,4.7,3,8c0,11-5,30-17.4,36.9a28.1,28.1,0,0,0-13.7-13.2,4.4,4.4,0,0,1-2.7-4.1c0-3,2.7-6.9,6-8.5" fill="#0081c0"/><path d="M317.8,101c0,9.6,34.4,56.7,41,56.7s9.6-9.6,9.6-17.9a11.3,11.3,0,0,0-1.6-6c-5-6.9-39.9-34.4-47.6-34.4A1.5,1.5,0,0,0,317.8,101ZM115.5,72.6c0,5.5-20.9,23.9-28.3,23.9-2.7,0-3.6-3.3-3.6-6.3,0-5.5,2.5-13.2,5.5-15.7s11.8-4.9,18.2-4.9C111.1,69.6,115.5,70.4,115.5,72.6Zm251.3,16c0-16.5-44.6-46.5-45.1-59.4a4.9,4.9,0,0,1,1.6-3.4c7.6-8.1,39.4-13.9,39.4-20.8,0-3.6-6.6-3.6-9.9-3.6-25.6,0-63,9.4-63,18.4S323.3,52,323.3,63.3c0,3-1.9,4.1-5,4.1-9.3,0-29.7-11.3-39.3-11.3-4.4,0-6.1,3-6.1,7.4,0,13.2,15.7,38.2,15.7,45.7,0,.8-.3,1.9-1.4,1.9-5,0-28.3-27.5-36.6-27.5-3,0-3.3,4.1-3.3,10.2v9.4c0,6.3-.3,10.2-3.3,10.2-7.2,0-10.5-20.1-17.3-20.1s-8.5,35.8-15.4,35.8-1.1-39.4-8.8-39.4-18.2,26.2-24.2,26.2c-2.2,0-2.7-2.2-2.7-4.1,0-8,4.7-20.9,4.7-28.6,0-3.9-1.1-6.1-4.4-6.1-8.5,0-27.3,13.8-34.4,13.8-1.1,0-2.5-.5-2.5-1.7,0-6.6,30-27.5,30-36.9s-41.3-3-41.3-13.5c0-8.8,29.5-17.9,29.5-27S122.2.3,108.7.3c-16.2,0-25,1.9-25,6.6,0,7.2,36.9,9.4,36.9,15.7S82.3,44.8,82.3,54.2s53.9.5,53.9,9.1-47,49.8-47,63.3c0,3,2.2,4.4,5.2,4.4,14.3,0,51.4-27.2,61.6-27.2,3.6,0,3.9,4.4,3.9,8.3,0,7.2-2.5,18.2-2.5,26.1,0,6.3,1.6,10.7,7.1,10.7,10.2,0,19.5-17.3,26.4-17.3,8.8,0,3.6,50.9,16.8,50.9,11.3,0,16-55,23.1-55s12.9,16,19.5,16c8.2,0,4.4-27.8,13.2-27.8s37.1,33,49.5,33c3.8,0,5.2-3,5.2-6.9,0-14.6-20.4-47.6-20.4-58.1,0-2.7.8-3.6,3.8-3.6,10.7,0,42.1,14.9,57,14.9C363.8,94.9,366.8,92.2,366.8,88.6ZM338.2,34.1c0,4.9,17.3,15.7,25.3,15.7,4.7,0,6-6.3,6-12.9,0-8.3-3.6-8.5-10.7-8.5C349.7,28.3,338.2,30.8,338.2,34.1ZM273.5,6c0-1.7-8.3-3.3-19.5-3.3-17.9,0-15.4,14.9-29.2,14.9S214.1,2.2,195.9,2.2c-11,0-21.2,1.9-21.2,4.4s12.9,1.9,12.9,11S159.9,30,159.9,35.8c0,1.9,2.2,2.7,4.9,2.7,6.1,0,15.7-2.7,22.6-2.7,3.9,0,7.4.8,7.4,4.4,0,6.9-14.9,19.3-14.9,24.8,0,1.7,1.4,2.2,2.7,2.2,5.5,0,14.9-14,23.7-14,14.6,0,5,31.1,12.9,31.1s4.7-30.6,16.5-30.6c9.7,0,16.8,21.2,23.4,21.2a3.1,3.1,0,0,0,3-3.3c0-5.8-8.3-17.6-8.3-25.3,0-4.7,3.3-6.9,7.7-6.9,6.3,0,14.9,3.9,19.5,3.9,1.6,0,3.3-.5,3.3-2.5,0-6.6-24.5-13.8-24.5-22.3S273.5,9.9,273.5,6" fill="#0081c0"/><path d="M761.4,50.6c0,24.5-17.8,43.2-50.1,48.4,3.6.3,6.9.3,10.2.3C759.2,99.3,773,82.3,773,68,773,60,768.6,52.8,761.4,50.6ZM714.9,78.4c0-19.5-46.7-24.5-46.7-28.9s26.1-9.6,39.6-9.9c-20.6-26.4-50-23.7-50-28.3,0-2.8,22-8.3,42.4-8.3,17.1,0,33,3.9,33,16.8,0,7.2-5.8,14.6-5.8,25.6,0,6.1,3,11.3,11,11.3s10.5-9.1,10.5-18.7c0-8-1.4-14-1.4-17.9C747.4,8.5,755.3.8,766.6.8c9.4,0,11.6,4.1,25.3,4.1-7.4,4.4-10.2,12.4-10.2,16.2,0,11.6,7.5,19.5,7.5,43.2,0,43.5-40.7,58.9-90.6,58.9A285.8,285.8,0,0,1,656,120c-2.2-.3-2.7-.8-2.7-2.2,0-3.6,19.6-5.5,19.6-23.1,0-6.9-2.2-13.5-2.2-16a2.2,2.2,0,0,1,2.2-2.2c4.1,0,12.4,16,27.8,16C704.7,92.5,714.9,91.1,714.9,78.4Zm44.8-60.8a6.9,6.9,0,1,0,6.9-6.9,6.8,6.8,0,0,0-6.9,6.9" fill="#0081c0"/><path d="M735.3,271.9c0-5.8-14.6-6.3-16-22.6-.3-2.5-1.1-6.9-4.1-6.9-4.9,0-1.1,15.1-6.6,15.1-12.7,0-16.8-24.8-21.5-24.8-1.1,0-2.4.8-2.4,4.1s.6,5,.6,8.5-.8,6.1-4.1,6.1c-7.4,0-14-17.3-20.4-17.3-1.4,0-2.7.8-2.7,2.2,0,3.3,5.5,9.3,5.5,12.4,0,6.6-17.9,3-17.9,8.5,0,2.5,2.5,3.3,5.8,3.3,5.8,0,14.9-2.5,19.6-2.5,2.8,0,6.9.5,6.9,4.1s-9.9,8.8-9.9,12.4c0,1.7,1.6,2.5,3,2.5,7.4,0,20.6-12.9,30-12.9,1.6,0,5.8.8,5.8,3.3s-9.4,9.9-9.4,15.1c0,1.4.8,3,2.5,3,4.9,0,11.5-12.9,20.9-12.9,3.6,0,8.8,1.4,11.6,1.4S735.3,272.7,735.3,271.9Zm7.2,133.5c4.4-13.8,9.9-23.4,18.9-38.3-9-4.7-33-14.6-33-30.8,0-19,23.7-33.8,28.6-33.8,2.2,0,2.8,1.9,2.8,5.5,0,9.9-4.7,25.9-4.7,34.4s5,15.1,9.4,15.1S782,341,782,324.7c0-29.2-25.6-38-33.5-38s-20.9,12.1-52.6,12.1c-59.2,0-72.6-58.6-72.6-84.2,0-1.1.3-1.4.5-1.4s7.2,7.2,25.9,7.2c9.6,0,18.5-2.5,32.5-2.5,33,0,47.6,22.9,68,52,12.3,7.7,41.8,20.1,41.8,55,0,30.8-32.8,47.9-40.7,80.9,12.6-1.4,20-24,33-24,6.6,0,9.6,5.2,9.6,13.5,0,12.1-6.9,30.3-20.1,41.5a18.6,18.6,0,0,0,.3-4.1c0-7.7-3-18.7-11.8-18.7-13.7,0-18.1,14.9-25.8,27.2-8-28.1-18.7-53.4-38-68.8s-53.1-7.2-53.1-35.8c0-7.7,5-18.7,5-27.5a12.9,12.9,0,0,0-2.2-8c26.4,9.9,17.1,27.5,33.3,45.7,10.1,11.6,38.2,22.6,54.5,70.2a51.9,51.9,0,0,0,.5-7.4c0-40.7-53.9-80.6-58.6-97.2,31.3,3.6,36.8,11.3,51.7,52.6,3,8.5,12.9,29.7,12.9,40.2" fill="#0081c0"/><path d="M591.9,114.2c-19.3,0-31.9-9.6-31.9-14.6a3.8,3.8,0,0,1,3.9-4.1c6,0,19.3,9.3,23.7,9.3,1.1,0,1.9-.5,1.9-2.2,0-5-4.7-13.2-4.7-17.3,0-1.1.8-1.9,2.5-1.9,7.4,0,18.4,3,24.2,3,1.9,0,2.5-1.1,2.5-2.2,0-6.1-17.9-17.9-17.9-21.5s22.3-8.3,22.3-13.5S588,47.6,588,42.4s5.8-10.5,5.8-13.5c0-1.4-1.1-1.9-3-1.9s-15.7,5.2-21.2,5.2c-2.7,0-6.1-.5-6.1-4.4,0-6.3,10.7-13.2,27.5-13.2,27.2,0,43.5,18.7,43.5,50.1C634.6,104.3,606.8,114.2,591.9,114.2ZM538.3,61.9c0-3-10.8-8.8-10.8-12.1,0-.5.5-.8,1.4-.8,3,0,8.3,1.1,12.4,1.1s4.1-15.4,6.8-15.4,5.2,14.6,8.3,14.6,10.2-4.1,12.9-4.1c.6,0,1.1.3,1.1.8s-6.9,9.3-6.9,11.5S579,63,579,65.2s-15.7,2.5-15.7,5,5.8,9.6,5.8,12.1a.7.7,0,0,1-.8.8c-2.2,0-10.7-3.9-13.2-3.9s-7.9,11.3-10.4,11.3c-.8,0-1.4-1.1-1.4-2.5l-.6-11a1.9,1.9,0,0,0-1.9-2.2l-11.6-.3c-1.4,0-1.9-.3-1.9-.8C527.2,71.5,538.3,63.8,538.3,61.9Zm-8,45.1c4.4,0,5.2,10.7,6.1,17.1.6,3.3,1.1,3.6,2.5,3.6,3.3,0,8.5-12.7,12.1-12.7,5.2,0,19.3,14.6,42.7,14.6,33.3,0,64.7-23.4,64.7-64.7S630.1,1.6,591.4,1.6c-18.4,0-31.9,9.1-39.1,9.1C547.9,11,541.3,0,538,0c-1.4,0-2.7,2.7-2.7,7.4,0,3,0,12.7-3.3,12.7-6.6,0-32.2-19-32.2-12.1s17,25.6,17,30.6S500,48.2,500,51.5c0,6.1,17.9,7.2,17.9,14.9s-18.7,13.8-18.7,19.5,18.7,1.4,18.7,7.2-13.8,25-13.8,30.5c0,1.4.3,1.4,1.4,1.4,5.2,0,20.9-17.9,24.8-17.9" fill="#0081c0"/><path d="M405.6,590.3a12.6,12.6,0,0,1-3,8c-3-5.5-11.6-8.3-15.4-8.2-28.3,0-17.6,41-47.9,41-12.7,0-13.8-1.7-18.4-1.7-1.9,0-3,.8-3,2.5,0,7.2,10.2,24.8,38.5,24.8s55.6-17.3,55.6-38.8a28.7,28.7,0,0,0-2.5-11.3c1.1-1.7,3.9-2.8,6.3-2.8,4.4,0,6.9,5,11,5a7.5,7.5,0,0,0,7.7-7.7c0-3.6-1.9-6.1-5.2-7.7a9.5,9.5,0,0,0,3.8-7.4c0-4.7-3.3-9.1-8.8-9.1a7.9,7.9,0,0,0-6,2.7c-.5-4.9-3.3-9.6-8.5-9.6s-7.2,3-7.2,7.7,3,8,3,12.6" fill="#0081c0"/><path d="M254.8,539.1c22,5.5,33,17.3,35.2,31.4s4.9,24.5,10.2,30c6.9,7.7,20.4,14.6,32.2,14.6,9.9,0,17.9-3.3,17.9-12.4s-13.5-32.2-33.3-32.2c-1.9,0-4.4.3-7.2.3s-6.1-.6-8.3-2.5c-4.4-3.9-5.8-24.5-14-36.9s-19-17.6-32.5-17.6c-9.6,0-20.4,5.2-20.4,12.9C234.7,531.4,237.2,534.7,254.8,539.1Zm76.8,61.6c-8.3,0-20.6-8.8-20.6-13.8s3.9-6.3,6.9-6.3c6.9,0,19.3,8.6,19.3,15.7,0,1.9-1.4,4.4-5.5,4.4" fill="#0081c0"/><path d="M306.3,386.4c0-17.6,41.8-27,41.8-48.7a36,36,0,0,0-3.9-14.6c14.6,8,25.3,21.5,25.3,32.5,0,19-19.8,27.8-19.8,39.6,0,13.8,21.2,16,21.2,33,0,14-20.1,30.3-20.1,48.4,0,14,9.9,25.6,25,27.5a63.6,63.6,0,0,1-14,1.9c-27.8,0-56.4-22.8-56.4-50.1A46.9,46.9,0,0,1,320,422.1c7.7,6.6,15.4,11,20.4,11s6.3-2.2,6.3-5.5C346.7,417.5,306.3,408.1,306.3,386.4Zm87.8,139c-9.4,4.3-13.2,3.6-13.2,13.2,0,3.6-.8,8.2-.8,10.7s.6,5.2,4.4,5.2c9.9,0,25.6-16.8,25.6-31.1,0-3.9-2.2-5.5-4.7-5.5S400.7,522.3,394,525.3Zm-1.1-19.8c0-12.4-25.6-12.7-25.6-31.4,0-4.7,3-12.7,9.1-21.2,2.5,14.3,8.2,21.8,20.6,26.4,24.5,9.1,27.8,22.8,27.8,37.4,0,24.8-17.3,55.6-61.9,55.6-35.8,0-61.4-31.9-61.4-58.9,0-7.4,1.9-15.7,6.6-15.7s5.5,3.3,8.8,6.6c12.4,12.4,25.9,15.7,45.4,15.7,17.6,0,30.5-7.1,30.5-14.6" fill="#0081c0"/><path d="M198.1,511.5a10.5,10.5,0,1,1-11.6-9.2A10.5,10.5,0,0,1,198.1,511.5Zm-51.4,10.8a18,18,0,0,0,19.8,15.4,22.6,22.6,0,0,0,9.1-2.7c2.2,8.8,9.6,14.5,19.6,13.2s17-9.3,15.9-19.5a19.8,19.8,0,0,0-1.6-6.3l2.3-.3c9.9-1.9,16.6-9.9,15.8-19.5s-10-17.3-19.2-16.1a17.3,17.3,0,0,0-9.1,3.7c-2.5-8.2-10.2-15.4-20.8-13.7s-15.9,9.7-14.9,20a18.1,18.1,0,0,0,1.4,5.5l-2.7.4c-8,1.2-16.7,9.3-15.4,20" fill="#0081c0"/></svg>