<svg xmlns="http://www.w3.org/2000/svg" viewBox="0 0 186.4 172.7"><title>bred</title><path d="M149.2,33a6.2,6.2,0,0,0-.1,1.3,5.1,5.1,0,0,0,.7,1.5c.7.9,1.5,1.6,1.5,2.8s-.6,2-.6,3.1c-1-1.4-1.8-2.4-3.5-2.8h0a4.9,4.9,0,0,1,.1,1.2c-.1,1.9-.9,3.8-1.1,5.7a10.1,10.1,0,0,1-.2,2.5,3.1,3.1,0,0,1-.7.9,1.6,1.6,0,0,1-1.2.4l-.9-.6a5.7,5.7,0,0,1-.8-1.3,4.2,4.2,0,0,0-.8-1.8.1.1,0,0,0-.1-.1c-.9,1-1,3.1-1.3,4.4a16.3,16.3,0,0,0-.8,3.7h-.1c-.9,4.9-.2,9.6.8,14.4s2.6,10.2,3.5,15.4c1.6,9.1.5,16.7-2.1,25.6-.1.3-.2.6-.4.7s-.8,0-.7-.3c-1.3,3.2-4.1,5.6-6.8,7.7s-4.3,3.1-6.5,4.4-7.7,3-7.4,5.5v.3l.5.8a7,7,0,0,0,2.3,1.5c3,1.4,5,3.2,8.2,2s6.5-3,9.8-4.3,4.4-1.6,6.6-1.2c-3.2,1.4-13.9,5.2-14.8,8.6,1.7-.5,17.5-5.9,17.8-4.9a1,1,0,0,1-.4,1.2l-1.3.4c-6.8,1.4-15.9,5.4-20.3,11l-4.4,5.7c-.5.7-1.2,1.4-2,1.3s.5-1.8,1-2.6a10.2,10.2,0,0,0,2.1-6.1c-.2-4.8-6.8-9.9-11-11.3l-1.2-.2a8.6,8.6,0,0,0-4.1.8l-2.4.8-3,.8-2.3.4a28.1,28.1,0,0,1-6.5.2,71.7,71.7,0,0,1-10.4-.6l-.9-.2c-2.5-.6-4.5-2-6.8-1.2l-1.7.9c-2.2,1.6-5.1,3.6-3.8,6.6a4.2,4.2,0,0,0,.9,1.4,28,28,0,0,0,4.7,3.8c1.1.8,2.5,1.9,2.2,3.3a36.2,36.2,0,0,0-10.1-5.3c1.9,3.6,4,7.6,3,11.6a76.5,76.5,0,0,0-5.2-10.8,12.1,12.1,0,0,0-4-4.4,25,25,0,0,0-3.8-1.5c-2.9-1.2-5.1-3.7-7.2-6,3.8,1.8,9.6,5.8,13.6,3.3a7.4,7.4,0,0,0,3.3-6.3v-.8c-.1-3.7-3.6-5.6-5.8-8.4a75.9,75.9,0,0,1-6.2-9.7c-3.2-5.5-7.9-9.7-11-15.3a15.5,15.5,0,0,1-2.4-6.6,57.2,57.2,0,0,0-1.4-7.2,50,50,0,0,0-2.6-7.4,7.8,7.8,0,0,1-.8-2.3,4.5,4.5,0,0,0-.1-1.1c-.5-1.9-3.7-2.6-3.2-4.5l3-.8A1.8,1.8,0,0,1,39,61.4a1.1,1.1,0,0,1-1.2-1.1,1.1,1.1,0,0,1,1.1-1.1L37.3,58c.6-.6,2.3-1.6,2.2-2.5s-1.8-1.8-2.3-2.3-.9-.9-.6-1.4a.8.8,0,0,1,1-.4l1,.5,1.7,1.2c0-1,1-.7,1.2-1.1a4.2,4.2,0,0,0,.3-2.3.4.4,0,0,1,.1-.3c.2-.5.9-.2,1.3.2a3.5,3.5,0,0,1-.6-2.8,4.5,4.5,0,0,1,2.5,1.8c0-1.4-.1-2.8-.1-4.1a.9.9,0,0,1,.1-.5c.2-.4.9-.4,1.3,0l.8,1.3c.3.4.8.6,1.1.9,2,1.8,2.9,4.4,4.8,6.2a19,19,0,0,0,6.7,4c5.5,2,11.6,2,17.3,2a36.2,36.2,0,0,0,8.7-.8,9.9,9.9,0,0,0-3.7-1.1c5.4.3,10.7.4,16.1.3a3.4,3.4,0,0,1-1-1.6c.3.8,7.5-.5,8.2-.9s1.1-1,1.7-1.3a30.4,30.4,0,0,1,3.7-1.7,30.2,30.2,0,0,0,7.4-3.7c1.4-1.3,2.6-2.8,3.8-4.1s2.8-6.5,4.7-9.5a20,20,0,0,1,4.3-4.4,18.4,18.4,0,0,1,2.2-1.7h.1c.9-.5.9-.2,1.2-1.2a9,9,0,0,1,.6-2.2,2.9,2.9,0,0,1,2.2-1.5,1.6,1.6,0,0,1,1.1.5c.1.2.1.4.2.5a1.3,1.3,0,0,0,1.7.3c.6-.2,1.1-.7,1.6-.9a1.3,1.3,0,0,1,1.7.2c.5.6.3,2.3,1.6,1.2s.5-.6.8-.8.8-.3,1.1,0a1.1,1.1,0,0,1,.2.8,1.3,1.3,0,0,0,.2,1.2,1.3,1.3,0,0,0,1.2-.2c.4-.1,1,0,1,.4s-.1.3-.2.5a.5.5,0,0,0,0,.5h.3l.8-.2h.4c.4,0,.6.6.4,1s-.4.8-.3,1.2a.7.7,0,0,1,.6.7c0,.7-1.1.7-1.5,1.3A5.8,5.8,0,0,0,149.2,33Z" fill="#fff"/><path d="M151.3,38.6a7.2,7.2,0,0,1-.4,1.9,5,5,0,0,0-.2,1.2c-1-1.4-1.8-2.4-3.5-2.8h0a4.9,4.9,0,0,1,.1,1.2l-.3-.3c-.9-.1-1-2.2-1.1-2.9a2.8,2.8,0,0,1,.3-1.3,2.6,2.6,0,0,1,1.3-1.2,3,3,0,0,1,1.6-.2,5.1,5.1,0,0,0,.7,1.5C150.5,36.7,151.3,37.4,151.3,38.6Z" fill="#eca414"/><path d="M78.5,146.6a36.2,36.2,0,0,0-10.1-5.3c1.9,3.6,4,7.6,3,11.6a76.5,76.5,0,0,0-5.2-10.8,12.1,12.1,0,0,0-4-4.4,25,25,0,0,0-3.8-1.5c-2.9-1.2-5.1-3.7-7.2-6,4.4,2.1,11.4,7.2,15.4,1.6a9.3,9.3,0,0,0,1.5-4.6v-.8a23.9,23.9,0,0,1,4.3,2.7,33.4,33.4,0,0,0,3.8,1.5l-1.7.9c-2.2,1.6-5.1,3.6-3.8,6.6s3.6,3.8,5.6,5.2S78.8,145.2,78.5,146.6Z" fill="#eca414"/><path d="M149.7,131.4l-1.3.4c-6.8,1.4-15.9,5.4-20.3,11l-4.4,5.7c-.5.7-1.2,1.4-2,1.3s.5-1.8,1-2.6a10.2,10.2,0,0,0,2.1-6.1c-.2-4.8-6.8-9.9-11-11.3l-1.2-.2c2.3-1,5-1.5,6.2-2l.9-.2a2.1,2.1,0,0,0,.5,1.1,7,7,0,0,0,2.3,1.5c3,1.4,5,3.2,8.2,2s6.5-3,9.8-4.3,4.4-1.6,6.6-1.2c-3.2,1.4-13.9,5.2-14.8,8.6,1.7-.5,17.5-5.9,17.8-4.9A1,1,0,0,1,149.7,131.4Z" fill="#eca414"/><path d="M107.5,66.6a56.6,56.6,0,0,0-10.1.9l-4.9,1.1-4.8,1.6c-3.1,1.3-6.1,2.9-9.1,4.4a17,17,0,0,0-4.3,2.6,3.6,3.6,0,0,0-.7,1c-.2.3-.5.7-.4,1s.5.3.9.3l1.2-.2h.2v.2a2,2,0,0,1-.5,1.8l-1.1,1.3a1.3,1.3,0,0,0-.5,1.4c.1.5.5.9.9.8l1.6-.7-1.4,1.1-2.7,2c-.5.3-.8.6-.5,1a2.3,2.3,0,0,0,1.2.9l1,.4H72.4a4.6,4.6,0,0,0-2.6.6,1.7,1.7,0,0,0-.6,2.2c.5.6,1.5.5,2.4.2a5,5,0,0,1,2.8-.6h.4l-.3.3a5.7,5.7,0,0,0-.8,1.3,4.2,4.2,0,0,0-.7,1.3c-.1.3,0,.4.1.4l.7-.2,1.6-.3,1.5-.4-1.4.7a3.7,3.7,0,0,0-1.6,4.5h-.2A12.2,12.2,0,0,0,77,98l.2-.2v.3a10.5,10.5,0,0,0,.4,1.7,2.3,2.3,0,0,0,1,1.2,1.2,1.2,0,0,0,1.4,0c.5-.3.7-.9,1.2-1.3a.9.9,0,0,1,.9-.3c.3,0,.6.3.8.5a3.8,3.8,0,0,0,.9,1.4,2.1,2.1,0,0,0,2.9-.7v0a10.1,10.1,0,0,0,.7,1.5,2,2,0,0,0,1.4.6l3.2-.8a30,30,0,0,0,6-2.8,24.9,24.9,0,0,1-5.9,2.9l-3.3.8a1.6,1.6,0,0,1-1.5-.6,5.5,5.5,0,0,1-.8-1.5h.2a2.2,2.2,0,0,1-3.2.8c-.6-.3-.8-.9-1.1-1.4a.7.7,0,0,0-1.2-.2c-.4.4-.7,1-1.2,1.3a1.5,1.5,0,0,1-1.8.1,2.5,2.5,0,0,1-1.1-1.4,11.6,11.6,0,0,1-.4-1.8h.3a15,15,0,0,1-3.4,1.6h-.2a4,4,0,0,1,1.7-5l.2.3-1.6.4-.8.2a.5.5,0,0,1-.5-.3.6.6,0,0,1,0-.6,6.1,6.1,0,0,1,.7-1.4l.9-1.4v.4a4.5,4.5,0,0,0-2.6.7,3.4,3.4,0,0,1-1.5.2,2,2,0,0,1-1.4-.6,2.3,2.3,0,0,1-.2-1.6,3,3,0,0,1,.9-1.3,5,5,0,0,1,2.9-.7v.4a3.1,3.1,0,0,1-1.5-1,1.1,1.1,0,0,1,0-1.1,1.9,1.9,0,0,1,.7-.6l2.7-2,.3.4a1.4,1.4,0,0,1-1.1-.2,4.1,4.1,0,0,1-.5-.9,2.3,2.3,0,0,1,.6-1.8l1.2-1.3a1.8,1.8,0,0,0,.4-1.4l.3.2-1.3.2h-.7a1.2,1.2,0,0,1-.6-.6,1.7,1.7,0,0,1,.4-1.3,4.3,4.3,0,0,1,.9-1,14.8,14.8,0,0,1,4.3-2.7c3.1-1.5,6-3.1,9.2-4.3a47.5,47.5,0,0,1,9.8-2.7A56.5,56.5,0,0,1,107.5,66.6Z" fill="#191919"/><path d="M141.2,31.3c1,.2,2.7.7,1.3,1.8a.7.7,0,0,1-1.3-.5c0-.5-.1-.9-.6-1.1l-.9-.2a8.6,8.6,0,0,0-3.2.5,5.9,5.9,0,0,1,3.7-.6Z" fill="#313131"/><path d="M142.1,32.2a.6.6,0,0,1,0,.6h0s0,.1.1,0a.4.4,0,0,0,.4-.4,1,1,0,0,0-.4-.5" fill="#fff"/><path d="M151.9,32.3c0,.1-.1.2-.1.3a1.8,1.8,0,0,1-.9.6,2,2,0,0,0-.9.5s-.7.9-.8.8a13.3,13.3,0,0,0-.9-2.1,13.4,13.4,0,0,0-4.3-3.2,21.1,21.1,0,0,0-5.9-1.8l-3.8-.2.6-2.2v-.2a.4.4,0,0,1,.1-.3,2.9,2.9,0,0,1,2.2-1.5,1.6,1.6,0,0,1,1.1.5c.1.2.1.4.2.5a1.3,1.3,0,0,0,1.7.3c.6-.2,1.1-.7,1.6-.9a1.3,1.3,0,0,1,1.7.2c.5.6.3,2.3,1.6,1.2s.5-.6.8-.8.8-.3,1.1,0a1.1,1.1,0,0,1,.2.8,1.3,1.3,0,0,0,.2,1.2,1.3,1.3,0,0,0,1.2-.2c.3-.1.8-.1.9.2s.1.1.1.2-.1.3-.2.5a.5.5,0,0,0,0,.5h.3l.8-.2h.4c.4,0,.6.6.4,1s-.4.8-.3,1.2.8.7.4,1.2l-.3.3c-.6.5,0,.9.4,1.1A.7.7,0,0,1,151.9,32.3Z" fill="#fc9e8c"/><path d="M93.9,142.2a9,9,0,0,1-.5-3.6l-2.7-.4c-.2,1.6.5,2.9.9,4.3v.2h.2C92.1,142.6,93.9,142,93.9,142.2Z" fill="#313131"/><path d="M93.2,144.1l1.6-.3h.5c.2,0,.3.2.2.3a2.4,2.4,0,0,1-2.3,0h.3" fill="#313131"/><path d="M64.2,23.7A4.4,4.4,0,0,1,68.8,19a4.2,4.2,0,0,1,4.3,4.4c0,2.6-1.8,4.8-3.6,6.4h3.4v3.1H63.5L67.1,28c1-1.3,2.4-3,2.4-4.8s-.2-1.2-.9-1.2-.9,1.1-.9,1.7v.5H64.2Z" fill="#7a6956"/><path d="M84,26c0,3-1,7.1-4.8,7.1S74.4,29,74.4,26s1-7,4.8-7S84,23,84,26Zm-6,0c0,1.6.1,3.9,1.2,3.9s1.2-2.3,1.2-3.9-.1-3.9-1.2-3.9S78,24.5,78,26Z" fill="#7a6956"/><path d="M87.1,32.8V22.4H85.7V19.2h5.1V32.8Z" fill="#7a6956"/><path d="M93.7,28.8a5.9,5.9,0,0,0,2.9,1,1.7,1.7,0,0,0,1.9-1.6c0-1.2-1.1-1.5-2.1-1.5a5.3,5.3,0,0,0-2.5.5l1.1-8h6.8v3.2H97.9l-.3,1.5h.5a4.1,4.1,0,0,1,4.1,4.2,5,5,0,0,1-5.1,5A7.3,7.3,0,0,1,93.3,32Z" fill="#7a6956"/><path d="M69.7,42.4H67.1V41.3l2.1-3.5h2v3.4h.6v1.2h-.6v1.3H69.7Zm0-1.2V39.1h0l-.5,1.1-.5,1Z" fill="#7a6956"/><path d="M72.4,42.2a1.5,1.5,0,0,1,1-1.4h0a1.7,1.7,0,0,1-.8-1.4c0-1.1.8-1.7,2-1.7a1.6,1.6,0,0,1,1.8,1.6,1.4,1.4,0,0,1-.8,1.3h0a1.8,1.8,0,0,1,1.1,1.6c0,.9-.9,1.6-2.2,1.6S72.4,43.2,72.4,42.2Zm2.8-.1c0-.4-.4-.6-1.1-.9a1.1,1.1,0,0,0-.3.8.6.6,0,0,0,.7.7C74.9,42.7,75.2,42.6,75.2,42.1Zm-.1-2.6c0-.5-.2-.7-.6-.7s-.5.2-.5.6.3.6.9.8A1.9,1.9,0,0,0,75.1,39.5Z" fill="#7a6956"/><path d="M79.6,37.7h1.8c1.8,0,3.1.8,3.1,3a2.7,2.7,0,0,1-3,3H79.6Zm1.7,4.7c.8,0,1.5-.3,1.5-1.7S82.1,39,81.3,39h-.1v3.4Z" fill="#7a6956"/><path d="M86.6,37.7h2l1.8,6H88.7l-.3-1.3H86.7l-.3,1.3H84.8Zm.4,3.5h1.1v-.4c-.1-.6-.3-1.3-.4-1.9h0c-.2.6-.3,1.3-.5,1.9Z" fill="#7a6956"/><path d="M92.1,41.6l-1.9-3.9H92l.4,1.2.5,1.4h0l.5-1.4.4-1.2h1.7l-1.8,3.9v2.1H92.1Z" fill="#7a6956"/><path d="M95.7,43l.9-1.1a2.8,2.8,0,0,0,1.4.6c.5,0,.7-.2.7-.5s-.3-.4-.8-.6l-.7-.3a1.7,1.7,0,0,1-1.3-1.7,2.1,2.1,0,0,1,2.3-1.8,2.7,2.7,0,0,1,2,.8l-.8,1a2.1,2.1,0,0,0-1.2-.5c-.4,0-.6.2-.6.4s.3.4.8.7l.8.2a1.8,1.8,0,0,1,1.2,1.7c0,1-.9,1.9-2.4,1.9A3.4,3.4,0,0,1,95.7,43Z" fill="#7a6956"/><path d="M150.9,40.5a5,5,0,0,0-.2,1.2c-1-1.4-1.8-2.4-3.5-2.8h0a4.9,4.9,0,0,1,.1,1.2l-.3-.3c-.9-.1-1-2.2-1.1-2.9a2.8,2.8,0,0,1,.3-1.3l1.3.8,1.6,1.5c.7.7,1.7,1.4,1.8,2.4Z" fill="#7a6956" opacity="0.2"/><path d="M146.4,37.9a1.7,1.7,0,0,1,.1-2.3,2.4,2.4,0,0,1,2.2-.9,2.8,2.8,0,0,0-2,1,2.4,2.4,0,0,0-.5,1A2.5,2.5,0,0,0,146.4,37.9Z" fill="#191919"/><path d="M151.5,32.4v.2c.1.5-.2.4-.6.6a2,2,0,0,0-.9.5s-.7.9-.8.8a13.3,13.3,0,0,0-.9-2.1,13.4,13.4,0,0,0-4.3-3.2,21.1,21.1,0,0,0-5.9-1.8l-3.8-.2c.2-.6.3-1.3.5-1.9s1.3-.6,2.2-.4,2.4-.2,3.5.2a5.3,5.3,0,0,0,2.3.8,5,5,0,0,1,1.3.4c.5.1,1.2-.1,1.7.1l.9.6c.7.1,1.8-.2,2.4.3l.7.5c.4.2.3.2.3.7s0,.6.2.8.5.2.6.6-.7,1.1.1,1.9Z" fill="#9f352d" opacity="0.4"/><path d="M139.3,54c-.9,4.9-.2,9.6.8,14.4s2.6,10.2,3.5,15.4c1.6,9.1.5,16.7-2.1,25.6-.1.3-.2.6-.4.7s-.8,0-.7-.3c-1.3,3.2-4.1,5.6-6.8,7.7s-4.3,3.1-6.5,4.4-7.7,3-7.4,5.5v.3l-2.9.6-5.1,1.1a11.1,11.1,0,0,0-3.1.9h-.1c-.6.3-1.2,1-1.9,1.2a7.5,7.5,0,0,1-3.5.4l-1.5-.5c-1.2-.8-1-2.4-.5-3.7s4.1-3.8,6.4-4.8c6.9-3.1,9.6-3.2,10.2-11.2.4-5.9-1.5-12.4-.1-18.3,2-8.2,6.1-15.6,10.2-23s5.2-12.2,7.3-19.4c.5-2,2.5-4.3,4.2-5.8s2.5-.7,4.1-.2c-.7.9.5,1,1.1,1.7a5.3,5.3,0,0,1,.8,2.5,1.6,1.6,0,0,1-1.2.4l-.9-.6a5.7,5.7,0,0,1-.8-1.3,4.2,4.2,0,0,0-.8-1.8.1.1,0,0,0-.1-.1c-.9,1-1,3.1-1.3,4.4a16.3,16.3,0,0,0-.8,3.7Z" fill="#7a6956" opacity="0.1"/><path d="M146.9,42.5a22.9,22.9,0,0,0-.7,3.4,10.1,10.1,0,0,1-.2,2.5,2.1,2.1,0,0,1-1.9,1.3l-.9-.6a5.7,5.7,0,0,1-.8-1.3c-.2-.4-.2-1-.5-1.4l-.3-.4c-.1-.6-.4-1.1-.5-1.7a6,6,0,0,1,.8-4.7.1.1,0,0,0,.1-.1h.1l.4-.5a1,1,0,0,1,.5-.4,5,5,0,0,1,1.3-.3,3.7,3.7,0,0,1,2.9.7A8.3,8.3,0,0,1,146.9,42.5Z" fill="#fc9e8c"/><path d="M146.9,42.5a7.1,7.1,0,0,1-1.5,1.2,4.5,4.5,0,0,0-1.1.3,3.3,3.3,0,0,0-1.3,1.1,15,15,0,0,0-1.1,1.3l-.3-.4c-.1-.6-.4-1.1-.5-1.7a6,6,0,0,1,.8-4.7.1.1,0,0,0,.1-.1h.1l.4-.5a1,1,0,0,1,.5-.4,5,5,0,0,1,1.3-.3,3.7,3.7,0,0,1,2.9.7A8.3,8.3,0,0,1,146.9,42.5Z" fill="#9f352d" opacity="0.4"/><path d="M83,131.8c-2.5-.6-4.5-2-6.8-1.2s-1.3,1-2.4.6-1.3-1.3-1.9-1.7-2.6-1.6-3.4-2.8-.6-1.9-1.1-2.9-3.5-3.8-5.1-5.8a75.9,75.9,0,0,1-6.2-9.7c-3.2-5.5-7.9-9.7-11-15.3a15.5,15.5,0,0,1-2.4-6.6,57.2,57.2,0,0,0-1.4-7.2,36.8,36.8,0,0,1,4.3,4.5c3.1,4,6,8.1,9.1,12.2s9.5,9.3,14.7,13.7a58.2,58.2,0,0,1,8.7,9.2c2,2.6,4,5,4.4,8.2A39.1,39.1,0,0,1,83,131.8Z" fill="#7a6956" opacity="0.1"/><path d="M100.4,143.7l2.3-1a2.5,2.5,0,0,0-1.9-.5c-1.5.2-2.9,1-4.5.9a17.8,17.8,0,0,1-.6-4.3c.9-1.2,2.7-2.1,3.9-3l4.8-3.3c3.1-2.1,6.2-3.9,9.4-5.8a28.6,28.6,0,0,0,6.2-5.1,18,18,0,0,0,1.9-2,32.5,32.5,0,0,0,2.8-5.6c.1-.3.1-.5.2-.8a25,25,0,0,0,.9-4.9c.5-6.8-1.6-14.4-1.1-21.3a59.2,59.2,0,0,1,1.8-8.8c1.6.8,3.5,1.7,4.7,0a3.2,3.2,0,0,0,.5-2.3c0-.3-.7-3.8-.5-3.8s2,.5,2.8,0-.6-2.4-.9-3.6.3-2,.2-2.9-1.1-1.7-1.3-2.7-.2-1.1-.2-1.7-1.7-.8-2-.9-1.1-1.1-1.7-1.3a12.2,12.2,0,0,0-2.7,0c-.9.6-1.9.2-2.8.6s-1.6,1.3-2.2,2.4a7.3,7.3,0,0,0-3,1.9,14.1,14.1,0,0,0-3.8,3.9c-1.6,2.4-2.4,5.3-3.4,8.1s-2,4.2-3.1,6.3a26.4,26.4,0,0,1-2.7,4.6c-4.3,6-12.2,6.3-18.8,5.5-2.8-.4-5.8-.3-8.4-1.3s-3.4-2.2-4.9-3.6l-4.6-4.3c-1.5-1.5-2.9-4.9-5.3-5s-1.5.4-2.2,1.3-2.8-1.1-3.5.3a7.3,7.3,0,0,0,.1,3.6c.2.7-1.6.3-1.8.4a1.2,1.2,0,0,0-.6,1.2c-.1,1.1.8,2.2.7,3.3s-.7.9-.7,1.8c-.2,5.4.8,9.5,3.3,12l-.9,1.5a5.1,5.1,0,0,0,.3,2.2,27.4,27.4,0,0,0,2.1,4.2,32.5,32.5,0,0,0,4.6,6.4,14.1,14.1,0,0,0,2.3,1.8,12,12,0,0,1,2.3,1.1,5.1,5.1,0,0,1,.6,2.2,18.5,18.5,0,0,0,1.8,4.4,12.9,12.9,0,0,0,1.7,3.3,15.9,15.9,0,0,0,3.2,2.6c3.3,2.3,6.7,4.8,10.7,5.5.6.1,2.2.1,2.4.9s0,3.5.5,4.8-2.7,2.5-2.2,4.5,2.1-1.1,2.7-1.1.8,1.6.7,2.3a.4.4,0,0,0,.1.3h.3a17.5,17.5,0,0,1,7.8,1.8,19.6,19.6,0,0,1,3,2l1.2.6v.4a3,3,0,0,0-.5-2.3c-.4-.7-1.2-.9-1.7-1.4s.1-1.1,1-1.6a5.2,5.2,0,0,1,2.8-.3l2.7.9a1.4,1.4,0,0,1,.8.5.7.7,0,0,0,.6.3c.1-.8-.6-2.6-1.5-2.7s-4.1-.5-2.9-1.8a2,2,0,0,1,.8-.4,2.2,2.2,0,0,0-1.4-.8c-1.5-.4-2.7.4-4.2.7.5-.8,1.9-.6,1.9-1.9s-2.4-.3-3.9.1Z" fill="#7a6956"/><path d="M77.6,112.3V101.8H76.2V98.7h5.1v13.6Z" fill="#fff"/><path d="M88.1,107.4h0a2.8,2.8,0,0,1-1.3.3c-2.2,0-3.3-2.4-3.3-4.3a4.6,4.6,0,0,1,4.7-4.9c2.9,0,4.5,2.2,4.5,4.9s-1.4,4.8-2.4,6.7l-1.1,2.2H85.3ZM87,103.3c0,.7.2,1.8,1,1.8s1-1.1,1-1.8,0-1.9-1-1.9S87,102.7,87,103.3Z" fill="#fff"/><path d="M94.1,103.2a4.4,4.4,0,0,1,4.6-4.7,4.2,4.2,0,0,1,4.3,4.4c0,2.6-1.8,4.7-3.5,6.3h3.3v3.1H93.5l3.6-4.8c1-1.3,2.3-3.1,2.3-4.8s-.2-1.2-.8-1.2-.9,1.1-.9,1.6v.6H94.1Z" fill="#fff"/><path d="M105.1,108.3a5.8,5.8,0,0,0,2.9.9c.9,0,1.9-.5,1.9-1.5s-1.1-1.6-2.1-1.6a7,7,0,0,0-2.5.5l1.1-7.9h6.8v3.1h-3.9l-.3,1.6h.5a4.1,4.1,0,0,1,4.1,4.2,4.9,4.9,0,0,1-5.1,4.9,8.3,8.3,0,0,1-3.8-1Z" fill="#fff"/><path d="M75.6,121.7h1.2v-3.1H75.7v-1a6,6,0,0,0,1.6-.5h1.1v4.6h1.1V123H75.6Z" fill="#fff"/><path d="M80.6,121.7h1.3v-3.1H80.8v-1a5.3,5.3,0,0,0,1.5-.5h1.2v4.6h1V123H80.6Z" fill="#fff"/><path d="M85.4,122.1c1.4-1.3,2.4-2.3,2.4-3.1a.7.7,0,0,0-.7-.8,1.5,1.5,0,0,0-1,.6l-.8-.9a2.7,2.7,0,0,1,2-.9,1.9,1.9,0,0,1,2.1,1.9c0,.9-.9,2-1.7,2.8h2V123H85.4Z" fill="#fff"/><path d="M92.6,116.9h1.8a3.1,3.1,0,1,1,.1,6.1H92.6Zm1.7,4.8c.9,0,1.6-.4,1.6-1.8s-.7-1.7-1.6-1.7h-.1v3.5Z" fill="#fff"/><path d="M99.7,116.9h1.9l1.9,6.1h-1.7l-.3-1.3H99.8l-.3,1.3H97.8Zm.3,3.6h1.2V120c-.2-.5-.3-1.3-.5-1.9h0c-.1.6-.3,1.4-.4,1.9Z" fill="#fff"/><path d="M105.1,120.9l-1.8-4H105l.4,1.3c.2.4.3.9.5,1.3h0c.2-.4.3-.9.5-1.3l.4-1.3h1.7l-1.8,4V123h-1.6Z" fill="#fff"/><path d="M108.7,122.2l.9-1.1a2.4,2.4,0,0,0,1.5.6c.4,0,.7-.1.7-.4s-.4-.4-.9-.6l-.7-.3a1.7,1.7,0,0,1-1.2-1.7,2,2,0,0,1,2.2-1.9,3,3,0,0,1,2,.8l-.8,1a1.7,1.7,0,0,0-1.2-.4c-.4,0-.6.1-.6.4s.3.4.9.6l.7.3a1.6,1.6,0,0,1,1.2,1.7c0,1-.9,1.9-2.4,1.9A3.7,3.7,0,0,1,108.7,122.2Z" fill="#fff"/></svg>