<?xml version="1.0" encoding="UTF-8"?>
<svg viewBox="0 0 118 131" version="1.1" xmlns="http://www.w3.org/2000/svg" xmlns:xlink="http://www.w3.org/1999/xlink">
    <!-- Generator: Sketch 51.1 (57501) - http://www.bohemiancoding.com/sketch -->
    <title>Artboard</title>
    <desc>Created with Sketch.</desc>
    <defs></defs>
    <g id="Artboard" stroke="none" stroke-width="1" fill="none" fill-rule="evenodd">
        <g id="bred-notext" fill-rule="nonzero">
            <path d="M115.2,10 C115.121068,10.4286142 115.08755,10.8643564 115.1,11.3 C115.250093,11.8347828 115.48654,12.3414549 115.8,12.8 C116.5,13.7 117.3,14.4 117.3,15.6 C117.3,16.8 116.7,17.6 116.7,18.7 C115.7,17.3 114.9,16.3 113.2,15.9 C113.282543,16.2943673 113.31613,16.6974099 113.3,17.1 C113.2,19 112.4,20.9 112.2,22.8 C112.237459,23.6384062 112.170274,24.4782125 112,25.3 C111.824318,25.6406986 111.586971,25.9458591 111.3,26.2 C110.971922,26.4924991 110.537962,26.6371523 110.1,26.6 L109.2,26 C108.876255,25.6044941 108.607176,25.167241 108.4,24.7 C108.279791,24.0450666 108.005584,23.4281003 107.6,22.9 C107.6,22.8447715 107.555228,22.8 107.5,22.8 C106.6,23.8 106.5,25.9 106.2,27.2 C105.790538,28.3980773 105.522061,29.6397821 105.4,30.9 L105.3,30.9 C104.4,35.8 105.1,40.5 106.1,45.3 C107.1,50.1 108.7,55.5 109.6,60.7 C111.2,69.8 110.1,77.4 107.5,86.3 C107.4,86.6 107.3,86.9 107.1,87 C106.9,87.1 106.3,87 106.4,86.7 C105.1,89.9 102.3,92.3 99.6,94.4 C96.9,96.5 95.3,97.5 93.1,98.8 C90.9,100.1 85.4,101.8 85.7,104.3 L85.7,104.6 L86.2,105.4 C86.8601182,106.046942 87.6418221,106.556749 88.5,106.9 C91.5,108.3 93.5,110.1 96.7,108.9 C99.9,107.7 103.2,105.9 106.5,104.6 C109.8,103.3 110.9,103 113.1,103.4 C109.9,104.8 99.2,108.6 98.3,112 C100,111.5 115.8,106.1 116.1,107.1 C116.268717,107.544232 116.101513,108.045845 115.7,108.3 L114.4,108.7 C107.6,110.1 98.5,114.1 94.1,119.7 L89.7,125.4 C89.2,126.1 88.5,126.8 87.7,126.7 C86.9,126.6 88.2,124.9 88.7,124.1 C90.0415269,122.347418 90.7783983,120.206982 90.8,118 C90.6,113.2 84,108.1 79.8,106.7 L78.6,106.5 C77.1883547,106.425651 75.7801475,106.700423 74.5,107.3 L72.1,108.1 L69.1,108.9 L66.8,109.3 C64.6483752,109.617999 62.4671052,109.685115 60.3,109.5 C56.8233709,109.552434 53.3475327,109.351905 49.9,108.9 L49,108.7 C46.5,108.1 44.5,106.7 42.2,107.5 L40.5,108.4 C38.3,110 35.4,112 36.7,115 C36.9036079,115.52203 37.209615,115.998041 37.6,116.4 C39.0249674,117.83254 40.6008124,119.106627 42.3,120.2 C43.4,121 44.8,122.1 44.5,123.5 C41.4345621,121.210705 38.0255886,119.421838 34.4,118.2 C36.3,121.8 38.4,125.8 37.4,129.8 C35.9518077,126.069535 34.2131386,122.458453 32.2,119 C31.2534245,117.223439 29.8785758,115.711106 28.2,114.6 C26.9763763,113.997169 25.7054673,113.495494 24.4,113.1 C21.5,111.9 19.3,109.4 17.2,107.1 C21,108.9 26.8,112.9 30.8,110.4 C32.9031736,109.000883 34.1473724,106.625594 34.1,104.1 L34.1,103.3 C34,99.6 30.5,97.7 28.3,94.9 C25.9907512,91.8282864 23.9181243,88.5856282 22.1,85.2 C18.9,79.7 14.2,75.5 11.1,69.9 C9.80557866,67.9125963 8.98450573,65.6546457 8.7,63.3 C8.38785032,60.8725201 7.92022249,58.4675769 7.3,56.1 C6.62844109,53.5690572 5.75910032,51.0947796 4.7,48.7 C4.31456322,47.9799449 4.0446074,47.2038219 3.9,46.4 C3.91196349,46.0306181 3.87837721,45.6611691 3.8,45.3 C3.3,43.4 0.1,42.7 0.6,40.8 L3.6,40 C3.66821123,39.2185998 4.23456942,38.5713333 5,38.4 C4.69136051,38.4281775 4.38515455,38.324848 4.15669347,38.1154253 C3.9282324,37.9060027 3.79871643,37.6099204 3.8,37.3 C3.8,36.6924868 4.29248678,36.2 4.9,36.2 L3.3,35 C3.9,34.4 5.6,33.4 5.5,32.5 C5.4,31.6 3.7,30.7 3.2,30.2 C2.7,29.7 2.3,29.3 2.6,28.8 C2.78022383,28.4286504 3.21338989,28.2553839 3.6,28.4 L4.6,28.9 L6.3,30.1 C6.3,29.1 7.3,29.4 7.5,29 C7.81391326,28.2766929 7.91787827,27.4796278 7.8,26.7 C7.79071193,26.5905094 7.82687522,26.4820196 7.9,26.4 C8.1,25.9 8.8,26.2 9.2,26.6 C8.60987323,25.7949285 8.39157219,24.7761903 8.6,23.8 C9.6191491,24.0871918 10.5043873,24.7245633 11.1,25.6 C11.1,24.2 11,22.8 11,21.5 C10.984436,21.3271782 11.0191633,21.1535417 11.1,21 C11.3,20.6 12,20.6 12.4,21 L13.2,22.3 C13.5,22.7 14,22.9 14.3,23.2 C16.3,25 17.2,27.6 19.1,29.4 C21.0325344,31.1825218 23.3139746,32.5445756 25.8,33.4 C31.3,35.4 37.4,35.4 43.1,35.4 C46.0216624,35.4855455 48.9429324,35.2169229 51.8,34.6 C50.6507883,33.9941151 49.3935614,33.620345 48.1,33.5 C53.5,33.8 58.8,33.9 64.2,33.8 C63.7223945,33.3716894 63.3757104,32.816995 63.2,32.2 C63.5,33 70.7,31.7 71.4,31.3 C72.1,30.9 72.5,30.3 73.1,30 C74.2939543,29.3512794 75.5300597,28.7833391 76.8,28.3 C79.4247255,27.411985 81.9147527,26.1669714 84.2,24.6 C85.6,23.3 86.8,21.8 88,20.5 C89.2,19.2 90.8,14 92.7,11 C93.8978227,9.32033689 95.3483132,7.83611403 97,6.6 C97.6894102,5.97866071 98.4248425,5.41037214 99.2,4.9 L99.3,4.9 C100.2,4.4 100.2,4.7 100.5,3.7 C100.605912,2.94419319 100.80753,2.20492738 101.1,1.5 C101.546881,0.672989682 102.366898,0.113887122 103.3,0 C103.717924,0.0164871598 104.112779,0.195966279 104.4,0.5 C104.5,0.7 104.5,0.9 104.6,1 C105.008914,1.51610177 105.739133,1.64496381 106.3,1.3 C106.9,1.1 107.4,0.6 107.9,0.4 C108.436798,0.0315555214 109.163368,0.117034447 109.6,0.6 C110.1,1.2 109.9,2.9 111.2,1.8 C112.5,0.7 111.7,1.2 112,1 C112.3,0.8 112.8,0.7 113.1,1 C113.26788,1.23064429 113.339591,1.51748795 113.3,1.8 C113.163845,2.20843987 113.238737,2.65779647 113.5,3 C113.90844,3.1361554 114.357796,3.06126263 114.7,2.8 C115.1,2.7 115.7,2.8 115.7,3.2 C115.7,3.6 115.6,3.5 115.5,3.7 C115.410684,3.85470054 115.410684,4.04529946 115.5,4.2 L115.8,4.2 L116.6,4 L117,4 C117.4,4 117.6,4.6 117.4,5 C117.2,5.4 117,5.8 117.1,6.2 C117.447116,6.25008306 117.703594,6.54930805 117.7,6.9 C117.7,7.6 116.6,7.6 116.2,8.2 C115.761976,8.73555362 115.423306,9.34515859 115.2,10 Z" id="Shape" fill="#FFFFFF"></path>
            <path d="M117.3,15.6 C117.253067,16.2484889 117.11851,16.8876325 116.9,17.5 C116.784738,17.8903684 116.717575,18.2933505 116.7,18.7 C115.7,17.3 114.9,16.3 113.2,15.9 C113.282543,16.2943673 113.31613,16.6974099 113.3,17.1 L113,16.8 C112.1,16.7 112,14.6 111.9,13.9 C111.893792,13.4488242 111.996714,13.0028309 112.2,12.6 C112.479735,12.0603336 112.939715,11.6357373 113.5,11.4 C114.005088,11.1885678 114.558409,11.1194026 115.1,11.2 C115.250093,11.7347828 115.48654,12.2414549 115.8,12.7 C116.5,13.7 117.3,14.4 117.3,15.6 Z" id="Shape" fill="#ECA414"></path>
            <path d="M44.5,123.6 C41.4345621,121.310705 38.0255886,119.521838 34.4,118.3 C36.3,121.9 38.4,125.9 37.4,129.9 C35.9518077,126.169535 34.2131386,122.558453 32.2,119.1 C31.2534245,117.323439 29.8785758,115.811106 28.2,114.7 C26.9763763,114.097169 25.7054673,113.595494 24.4,113.2 C21.5,112 19.3,109.5 17.2,107.2 C21.6,109.3 28.6,114.4 32.6,108.8 C33.4970922,107.425864 34.0146066,105.83882 34.1,104.2 L34.1,103.4 C35.6251381,104.144764 37.0666035,105.04987 38.4,106.1 C39.6348725,106.677071 40.9039124,107.178008 42.2,107.6 L40.5,108.5 C38.3,110.1 35.4,112.1 36.7,115.1 C38,118.1 40.3,118.9 42.3,120.3 C44.3,121.7 44.8,122.2 44.5,123.6 Z" id="Shape" fill="#ECA414"></path>
            <path d="M115.7,108.4 L114.4,108.8 C107.6,110.2 98.5,114.2 94.1,119.8 L89.7,125.5 C89.2,126.2 88.5,126.9 87.7,126.8 C86.9,126.7 88.2,125 88.7,124.2 C90.0415269,122.447418 90.7783983,120.306982 90.8,118.1 C90.6,113.3 84,108.2 79.8,106.8 L78.6,106.6 C80.9,105.6 83.6,105.1 84.8,104.6 L85.7,104.4 C85.7553026,104.807733 85.9291676,105.190236 86.2,105.5 C86.8601182,106.146942 87.6418221,106.656749 88.5,107 C91.5,108.4 93.5,110.2 96.7,109 C99.9,107.8 103.2,106 106.5,104.7 C109.8,103.4 110.9,103.1 113.1,103.5 C109.9,104.9 99.2,108.7 98.3,112.1 C100,111.6 115.8,106.2 116.1,107.2 C116.268717,107.644232 116.101513,108.145845 115.7,108.4 Z" id="Shape" fill="#ECA414"></path>
            <path d="M73.5,43.6 C70.113187,43.5972154 66.732959,43.8984238 63.4,44.5 L58.5,45.6 L53.7,47.2 C50.6,48.5 47.6,50.1 44.6,51.6 C43.0457864,52.2488765 41.5966259,53.1251131 40.3,54.2 C40.011444,54.4910564 39.7747083,54.8292502 39.6,55.2 C39.4,55.5 39.1,55.9 39.2,56.2 C39.3,56.5 39.7,56.5 40.1,56.5 L41.3,56.3 L41.5,56.3 L41.5,56.5 C41.6410123,57.1457595 41.4538664,57.8194846 41,58.3 L39.9,59.6 C39.4566255,59.9159327 39.2570748,60.4746745 39.4,61 C39.5,61.5 39.9,61.9 40.3,61.8 L41.9,61.1 L40.5,62.2 L37.8,64.2 C37.3,64.5 37,64.8 37.3,65.2 C37.588186,65.6256703 38.0106644,65.9425292 38.5,66.1 L39.5,66.5 L38.4,66.5 C37.4930877,66.4387214 36.5883497,66.6475071 35.8,67.1 C35.0648857,67.5705669 34.805574,68.5213766 35.2,69.3 C35.7,69.9 36.7,69.8 37.6,69.5 C38.4548768,69.0312954 39.428131,68.822741 40.4,68.9 L40.8,68.9 L40.5,69.2 C40.1762547,69.5955059 39.9071758,70.032759 39.7,70.5 C39.391732,70.8885984 39.1547374,71.3287313 39,71.8 C38.9,72.1 39,72.2 39.1,72.2 L39.8,72 L41.4,71.7 L42.9,71.3 L41.5,72 C39.9403516,72.9088665 39.2642042,74.8105311 39.9,76.5 L39.7,76.5 C40.8685581,76.1671197 41.9808328,75.6615403 43,75 L43.2,74.8 L43.2,75.1 C43.2858945,75.6767911 43.4196905,76.2454242 43.6,76.8 C43.7831369,77.3044098 44.1368839,77.7289062 44.6,78 C45.0183149,78.3004274 45.5816851,78.3004274 46,78 C46.5,77.7 46.7,77.1 47.2,76.7 C47.418664,76.4371686 47.76737,76.3209333 48.1,76.4 C48.4,76.4 48.7,76.7 48.9,76.9 C49.0928629,77.4274378 49.4002344,77.9055711 49.8,78.3 C50.2767261,78.5943104 50.8512909,78.6859241 51.3959055,78.5544655 C51.94052,78.4230068 52.4100258,78.079376 52.7,77.6 C52.8918987,78.1183106 53.126018,78.619995 53.4,79.1 C53.7692609,79.4768285 54.2724615,79.6924859 54.8,79.7 L58,78.9 C60.0971853,78.1909076 62.1094378,77.2518564 64,76.1 C62.1701495,77.3231825 60.1861952,78.2983465 58.1,79 L54.8,79.8 C54.2283252,79.8856475 53.6549042,79.656279 53.3,79.2 C52.9572052,78.7444829 52.6873154,78.2384395 52.5,77.7 L52.7,77.7 C52.4095817,78.2601969 51.8926029,78.6687243 51.2804412,78.8217647 C50.6682795,78.9748051 50.0198735,78.857624 49.5,78.5 C48.9,78.2 48.7,77.6 48.4,77.1 C48.3131393,76.8639065 48.1062719,76.6925781 47.8581298,76.6512211 C47.6099877,76.6098641 47.3587363,76.7048393 47.2,76.9 C46.8,77.3 46.5,77.9 46,78.2 C45.4891892,78.6303868 44.755341,78.6711562 44.2,78.3 C43.6739516,77.9841367 43.2824362,77.4858443 43.1,76.9 C42.9191151,76.3115645 42.7853593,75.7096634 42.7,75.1 L43,75.1 C41.938214,75.7737421 40.7959198,76.3112923 39.6,76.7 L39.4,76.7 C38.6295555,74.8429452 39.35728,72.7025789 41.1,71.7 L41.3,72 L39.7,72.4 L38.9,72.6 C38.6862395,72.6175923 38.4850706,72.4968909 38.4,72.3 C38.2928203,72.1143594 38.2928203,71.8856406 38.4,71.7 C38.5722439,71.2052091 38.8075136,70.7346696 39.1,70.3 L40,68.9 L40,69.3 C39.0822022,69.2625017 38.1749101,69.5067727 37.4,70 C36.9213731,70.1785032 36.4086757,70.2468629 35.9,70.2 C35.3724615,70.1924859 34.8692609,69.9768285 34.5,69.6 C34.2424414,69.1082755 34.1714062,68.5399936 34.3,68 C34.4783547,67.4939837 34.7891496,67.0450578 35.2,66.7 C36.0729126,66.1769997 37.0846237,65.9327935 38.1,66 L38.1,66.4 C37.5119767,66.2226222 36.9898962,65.8745685 36.6,65.4 C36.4035039,65.0596588 36.4035039,64.6403412 36.6,64.3 C36.7805348,64.0455634 37.0209455,63.839497 37.3,63.7 L40,61.7 L40.3,62.1 C39.9214695,62.1889888 39.5229805,62.1165362 39.2,61.9 C38.9961788,61.622201 38.828188,61.3198175 38.7,61 C38.6316699,60.3416156 38.8503053,59.6857094 39.3,59.2 L40.5,57.9 C40.8245497,57.5104923 40.9697834,57.0021743 40.9,56.5 L41.2,56.7 L39.9,56.9 L39.2,56.9 C38.9336038,56.7797444 38.7202556,56.5663962 38.6,56.3 C38.5466187,55.8298843 38.6915709,55.3587894 39,55 C39.2456729,54.6215095 39.5493894,54.2840467 39.9,54 C41.1670987,52.8590188 42.6218352,51.9455796 44.2,51.3 C47.3,49.8 50.2,48.2 53.4,47 C56.560684,45.7520467 59.846159,44.8468648 63.2,44.3 C66.6047768,43.7528266 70.0524989,43.5185154 73.5,43.6 Z" id="Shape" fill="#191919"></path>
            <path d="M107.2,8.3 C108.2,8.5 109.9,9 108.5,10.1 C108.33784,10.4205343 107.959374,10.5662965 107.624098,10.4373444 C107.288823,10.3083923 107.105575,9.9465866 107.2,9.6 C107.2,9.1 107.1,8.7 106.6,8.5 L105.7,8.3 C104.611293,8.26249216 103.525372,8.43216727 102.5,8.8 C103.635325,8.20312668 104.934235,7.99249254 106.2,8.2 L107.2,8.3 Z" id="Shape" fill="#313131"></path>
            <path d="M108.1,9.2 C108.20718,9.38564065 108.20718,9.61435935 108.1,9.8 C108.1,9.8 108.1,9.9 108.2,9.8 C108.420914,9.8 108.6,9.6209139 108.6,9.4 C108.525072,9.19399687 108.384531,9.01832055 108.2,8.9" id="Shape" fill="#FFFFFF"></path>
            <path d="M117.9,9.3 C117.9,9.4 117.8,9.5 117.8,9.6 C117.568609,9.88754061 117.254419,10.0970004 116.9,10.2 C116.561507,10.2852705 116.251226,10.4576488 116,10.7 C116,10.7 115.3,11.6 115.2,11.5 C114.960791,10.7754805 114.65968,10.0728888 114.3,9.4 C113.096806,8.05462478 111.634218,6.96618683 110,6.2 C108.132129,5.31421541 106.144225,4.70773611 104.1,4.4 L100.3,4.2 L100.9,2 L100.9,1.8 C100.890712,1.69050945 100.926875,1.5820196 101,1.5 C101.446881,0.672989682 102.266898,0.113887122 103.2,-1.42108547e-14 C103.617924,0.0164871598 104.012779,0.195966279 104.3,0.5 C104.4,0.7 104.4,0.9 104.5,1 C104.908914,1.51610177 105.639133,1.64496381 106.2,1.3 C106.8,1.1 107.3,0.6 107.8,0.4 C108.336798,0.0315555214 109.063368,0.117034447 109.5,0.6 C110,1.2 109.8,2.9 111.1,1.8 C112.4,0.7 111.6,1.2 111.9,1 C112.2,0.8 112.7,0.7 113,1 C113.16788,1.23064429 113.239591,1.51748795 113.2,1.8 C113.063845,2.20843987 113.138737,2.65779647 113.4,3 C113.80844,3.1361554 114.257796,3.06126263 114.6,2.8 C114.9,2.7 115.4,2.7 115.5,3 C115.6,3.3 115.6,3.1 115.6,3.2 C115.6,3.3 115.5,3.5 115.4,3.7 C115.310684,3.85470054 115.310684,4.04529946 115.4,4.2 L115.7,4.2 L116.5,4 L116.9,4 C117.3,4 117.5,4.6 117.3,5 C117.1,5.4 116.9,5.8 117,6.2 C117.1,6.6 117.8,6.9 117.4,7.4 L117.1,7.7 C116.5,8.2 117.1,8.6 117.5,8.8 C117.706214,8.89234314 117.855176,9.07854486 117.9,9.3 Z" id="Shape" fill="#FC9E8C"></path>
            <path d="M59.9,119.2 C59.4902425,118.046491 59.3201071,116.821516 59.4,115.6 L56.7,115.2 C56.5,116.8 57.2,118.1 57.6,119.5 L57.6,119.7 L57.8,119.7 C58.1,119.6 59.9,119 59.9,119.2 Z" id="Shape" fill="#313131"></path>
            <path d="M59.2,121.1 L60.8,120.8 L61.3,120.8 C61.5,120.8 61.6,121 61.5,121.1 C60.7832581,121.491283 59.9167419,121.491283 59.2,121.1 L59.5,121.1" id="Shape" fill="#313131"></path>
            <path d="M116.9,17.5 C116.784738,17.8903684 116.717575,18.2933505 116.7,18.7 C115.7,17.3 114.9,16.3 113.2,15.9 C113.282543,16.2943673 113.31613,16.6974099 113.3,17.1 L113,16.8 C112.1,16.7 112,14.6 111.9,13.9 C111.893792,13.4488242 111.996714,13.0028309 112.2,12.6 L113.5,13.4 L115.1,14.9 C115.8,15.6 116.8,16.3 116.9,17.3 L116.9,17.5 Z" id="Shape" fill="#7A6956" opacity="0.2"></path>
            <path d="M112.4,14.9 C111.830159,14.2239787 111.873636,13.2240124 112.5,12.6 C113.022847,11.9324172 113.859168,11.5902861 114.7,11.7 C113.923388,11.7411186 113.198862,12.1033814 112.7,12.7 C112.456933,12.9893233 112.285619,13.3319528 112.2,13.7 C112.166841,14.1103661 112.235541,14.5225701 112.4,14.9 Z" id="Shape" fill="#191919"></path>
            <path d="M117.5,9.4 L117.5,9.6 C117.6,10.1 117.3,10 116.9,10.2 C116.561507,10.2852705 116.251226,10.4576488 116,10.7 C116,10.7 115.3,11.6 115.2,11.5 C114.960791,10.7754805 114.65968,10.0728888 114.3,9.4 C113.096806,8.05462478 111.634218,6.96618683 110,6.2 C108.132129,5.31421541 106.144225,4.70773611 104.1,4.4 L100.3,4.2 C100.5,3.6 100.6,2.9 100.8,2.3 C101,1.7 102.1,1.7 103,1.9 C103.9,2.1 105.4,1.7 106.5,2.1 C107.194183,2.54156734 107.981633,2.81546296 108.8,2.9 C109.24953,2.97349604 109.68691,3.10807425 110.1,3.3 C110.6,3.4 111.3,3.2 111.8,3.4 L112.7,4 C113.4,4.1 114.5,3.8 115.1,4.3 L115.8,4.8 C116.2,5 116.1,5 116.1,5.5 C116.1,6 116.1,6.1 116.3,6.3 C116.5,6.5 116.8,6.5 116.9,6.9 C117,7.3 116.2,8 117,8.8 L117.5,9.4 Z" id="Shape" fill="#9F352D" opacity="0.4"></path>
            <path d="M105.3,31 C104.4,35.9 105.1,40.6 106.1,45.4 C107.1,50.2 108.7,55.6 109.6,60.8 C111.2,69.9 110.1,77.5 107.5,86.4 C107.4,86.7 107.3,87 107.1,87.1 C106.9,87.2 106.3,87.1 106.4,86.8 C105.1,90 102.3,92.4 99.6,94.5 C96.9,96.6 95.3,97.6 93.1,98.9 C90.9,100.2 85.4,101.9 85.7,104.4 L85.7,104.7 L82.8,105.3 L77.7,106.4 C76.6283324,106.547342 75.5839582,106.850548 74.6,107.3 L74.5,107.3 C73.9,107.6 73.3,108.3 72.6,108.5 C71.4816377,108.909323 70.2818778,109.046438 69.1,108.9 L67.6,108.4 C66.4,107.6 66.6,106 67.1,104.7 C67.6,103.4 71.2,100.9 73.5,99.9 C80.4,96.8 83.1,96.7 83.7,88.7 C84.1,82.8 82.2,76.3 83.6,70.4 C85.6,62.2 89.7,54.8 93.8,47.4 C97.9,40 99,35.2 101.1,28 C101.6,26 103.6,23.7 105.3,22.2 C107,20.7 107.8,21.5 109.4,22 C108.7,22.9 109.9,23 110.5,23.7 C110.972071,24.4530715 111.247175,25.3127699 111.3,26.2 C110.971922,26.4924991 110.537962,26.6371523 110.1,26.6 L109.2,26 C108.876255,25.6044941 108.607176,25.167241 108.4,24.7 C108.279791,24.0450666 108.005584,23.4281003 107.6,22.9 C107.6,22.8447715 107.555228,22.8 107.5,22.8 C106.6,23.8 106.5,25.9 106.2,27.2 C105.790538,28.3980773 105.522061,29.6397821 105.4,30.9 L105.3,31 Z" id="Shape" fill="#7A6956" opacity="0.1"></path>
            <path d="M112.9,19.5 C112.58098,20.6139906 112.346975,21.7505885 112.2,22.9 C112.237459,23.7384062 112.170274,24.5782125 112,25.4 C111.681781,26.1728083 110.935595,26.6833563 110.1,26.7 L109.2,26.1 C108.876255,25.7044941 108.607176,25.267241 108.4,24.8 C108.2,24.4 108.2,23.8 107.9,23.4 L107.6,23 C107.5,22.4 107.2,21.9 107.1,21.3 C106.706068,19.6900838 106.995626,17.988928 107.9,16.6 C107.955228,16.6 108,16.5552285 108,16.5 L108.1,16.5 L108.5,16 C108.618321,15.8154689 108.793997,15.6749279 109,15.6 C109.417986,15.4423755 109.855211,15.3414775 110.3,15.3 C111.322067,15.1160161 112.374405,15.3700286 113.2,16 C113.350859,17.1747085 113.248568,18.3680995 112.9,19.5 Z" id="Shape" fill="#FC9E8C"></path>
            <path d="M112.9,19.5 C112.456669,19.966104 111.952052,20.3697979 111.4,20.7 C111.022097,20.752956 110.652464,20.853765 110.3,21 C109.777892,21.2466173 109.329633,21.6259134 109,22.1 C108.609011,22.5121532 108.241753,22.9461858 107.9,23.4 L107.6,23 C107.5,22.4 107.2,21.9 107.1,21.3 C106.706068,19.6900838 106.995626,17.988928 107.9,16.6 C107.955228,16.6 108,16.5552285 108,16.5 L108.1,16.5 L108.5,16 C108.618321,15.8154689 108.793997,15.6749279 109,15.6 C109.417986,15.4423755 109.855211,15.3414775 110.3,15.3 C111.322067,15.1160161 112.374405,15.3700286 113.2,16 C113.350859,17.1747085 113.248568,18.3680995 112.9,19.5 Z" id="Shape" fill="#9F352D" opacity="0.4"></path>
            <path d="M49,108.8 C46.5,108.2 44.5,106.8 42.2,107.6 C39.9,108.4 40.9,108.6 39.8,108.2 C38.7,107.8 38.5,106.9 37.9,106.5 C37.3,106.1 35.3,104.9 34.5,103.7 C33.7,102.5 33.9,101.8 33.4,100.8 C32.9,99.8 29.9,97 28.3,95 C25.9907512,91.9282864 23.9181243,88.6856282 22.1,85.3 C18.9,79.8 14.2,75.6 11.1,70 C9.80557866,68.0125963 8.98450573,65.7546457 8.7,63.4 C8.38785032,60.9725201 7.92022249,58.5675769 7.3,56.2 C8.85783989,57.575878 10.296317,59.081261 11.6,60.7 C14.7,64.7 17.6,68.8 20.7,72.9 C23.8,77 30.2,82.2 35.4,86.6 C38.6259586,89.3411356 41.5432192,92.426055 44.1,95.8 C46.1,98.4 48.1,100.8 48.5,104 C48.765343,105.588178 48.9323276,107.191231 49,108.8 Z" id="Shape" fill="#7A6956" opacity="0.1"></path>
            <path d="M66.4,120.7 L68.7,119.7 C68.1614388,119.281029 67.4750288,119.100394 66.8,119.2 C65.3,119.4 63.9,120.2 62.3,120.1 C61.9252898,118.696519 61.7237913,117.252446 61.7,115.8 C62.6,114.6 64.4,113.7 65.6,112.8 L70.4,109.5 C73.5,107.4 76.6,105.6 79.8,103.7 C82.096171,102.299957 84.1833957,100.583046 86,98.6 C86.6835617,97.9829177 87.3187599,97.3142879 87.9,96.6 C89.0113801,94.8277942 89.9490635,92.9524276 90.7,91 C90.8,90.7 90.8,90.5 90.9,90.2 C91.3624019,88.6007072 91.6638985,86.9592255 91.8,85.3 C92.3,78.5 90.2,70.9 90.7,64 C91.076281,61.0253157 91.6780126,58.083517 92.5,55.2 C94.1,56 96,56.9 97.2,55.2 C97.6528094,54.5246946 97.8315807,53.7023467 97.7,52.9 C97.7,52.6 97,49.1 97.2,49.1 C97.4,49.1 99.2,49.6 100,49.1 C100.8,48.6 99.4,46.7 99.1,45.5 C98.8,44.3 99.4,43.5 99.3,42.6 C99.2,41.7 98.2,40.9 98,39.9 C97.8,38.9 97.8,38.8 97.8,38.2 C97.8,37.6 96.1,37.4 95.8,37.3 C95.5,37.2 94.7,36.2 94.1,36 C93.2027721,35.9001031 92.2972279,35.9001031 91.4,36 C90.5,36.6 89.5,36.2 88.6,36.6 C87.7,37 87,37.9 86.4,39 C85.2588543,39.3767484 84.2283669,40.0293904 83.4,40.9 C81.891962,41.9407454 80.6012312,43.2654428 79.6,44.8 C78,47.2 77.2,50.1 76.2,52.9 C75.2,55.7 74.2,57.1 73.1,59.2 C72.3576024,60.8205524 71.4529866,62.3617498 70.4,63.8 C66.1,69.8 58.2,70.1 51.6,69.3 C48.8,68.9 45.8,69 43.2,68 C40.6,67 39.8,65.8 38.3,64.4 L33.7,60.1 C32.2,58.6 30.8,55.2 28.4,55.1 C26,55 26.9,55.5 26.2,56.4 C25.5,57.3 23.4,55.3 22.7,56.7 C22.4321606,57.8895201 22.4665401,59.1271827 22.8,60.3 C23,61 21.2,60.6 21,60.7 C20.5741883,60.940394 20.3368282,61.4151143 20.4,61.9 C20.3,63 21.2,64.1 21.1,65.2 C21,66.3 20.4,66.1 20.4,67 C20.2,72.4 21.2,76.5 23.7,79 L22.8,80.5 C22.7372154,81.2464662 22.8396426,81.9975986 23.1,82.7 C23.6785251,84.1575133 24.3811044,85.562672 25.2,86.9 C26.4680185,89.2120476 28.0127078,91.3611804 29.8,93.3 C30.5022914,93.9779985 31.273092,94.5812338 32.1,95.1 C32.9035528,95.3839526 33.6745699,95.7526999 34.4,96.2 C34.7634847,96.8786479 34.9686117,97.6307803 35,98.4 C35.4082742,99.9379749 36.013268,101.416849 36.8,102.8 C37.2046058,103.976207 37.7771995,105.087712 38.5,106.1 C39.4492996,107.101881 40.5250083,107.975894 41.7,108.7 C45,111 48.4,113.5 52.4,114.2 C53,114.3 54.6,114.3 54.8,115.1 C55,115.9 54.8,118.6 55.3,119.9 C55.8,121.2 52.6,122.4 53.1,124.4 C53.6,126.4 55.2,123.3 55.8,123.3 C56.4,123.3 56.6,124.9 56.5,125.6 C56.4907119,125.709491 56.5268752,125.81798 56.6,125.9 L56.9,125.9 C59.6041506,125.889297 62.2739928,126.505415 64.7,127.7 C65.7593251,128.273077 66.7635731,128.942576 67.7,129.7 L68.9,130.3 L68.9,130.7 C69.0536022,129.897232 68.8730182,129.066546 68.4,128.4 C68,127.7 67.2,127.5 66.7,127 C66.2,126.5 66.8,125.9 67.7,125.4 C68.587976,125.044373 69.5568389,124.940566 70.5,125.1 L73.2,126 C73.5164817,126.069094 73.7992098,126.245799 74,126.5 C74.1359409,126.69556 74.3619874,126.808583 74.6,126.8 C74.7,126 74,124.2 73.1,124.1 C72.2,124 69,123.6 70.2,122.3 C70.4330508,122.107983 70.7065562,121.971231 71,121.9 C70.6513971,121.465763 70.1510951,121.179876 69.6,121.1 C68.1,120.7 66.9,121.5 65.4,121.8 C65.9,121 67.3,121.2 67.3,119.9 C67.3,118.6 64.9,119.6 63.4,120 L66.4,120.7 Z" id="Shape" fill="#7A6956"></path>
        </g>
    </g>
</svg>