<svg xmlns="http://www.w3.org/2000/svg" xmlns:xlink="http://www.w3.org/1999/xlink" viewBox="0 0 186.4 172.7"><defs><clipPath id="a"><path d="M152.4,114.2l.9-2.5a1.8,1.8,0,0,0-2.2.4c.4-.4-.3-1.2-.9-1.1s-1,.6-1.5,1a1.3,1.3,0,0,1-1.6.6,19.5,19.5,0,0,1,1-4c-1.5,0-2.5,1.5-3.3,2.7a35.3,35.3,0,0,1-6,6.8,2.2,2.2,0,0,1,.1-1.6,12.5,12.5,0,0,1,.8-1.2,1.2,1.2,0,0,0-.1-1.3.6.6,0,0,0-.9.1c.1-.9.3-1.8.5-2.8a4.4,4.4,0,0,0-3,1.4l-5.2,4.1,1.8-3c.4-.7.7-1.8,0-2.1s-.8.2-1.2.4a32.5,32.5,0,0,0-3.9,3.5c.1-.5-.6-1-1.2-.9a2.8,2.8,0,0,0-1.4,1,2.2,2.2,0,0,1-1.5,1c.1-.6-.7-.9-1.2-.7a5,5,0,0,0-1.4,1,2.7,2.7,0,0,1-1.5.5,2.2,2.2,0,0,1-1.9-.6c-1.1-1.4.6-4.3,1-5.7a36.7,36.7,0,0,0,1.3-6.6,41.1,41.1,0,0,0-.5-13.1c-1.7-8.9-6.9-16.1-10.4-24.3a40.5,40.5,0,0,1-2.5-6.9c-.4-1.6-.6-3.3-1-5a19.4,19.4,0,0,1-5.1,1.8c.1.7.1,1.4.2,2.1.2,3.4.4,7.5-1,10.7-.2.4-.4.9-.9,1a1.1,1.1,0,0,1-1-.4,3,3,0,0,1-.4-1c-1-2.7-1.3-5.6-1.9-8.5s-1.1-10,.8-14.5h-.1a9.3,9.3,0,0,0-.5-1,4.5,4.5,0,0,1,.3,1.1c.2.6-.7.8-.9.2a26.7,26.7,0,0,0-.9-2.6,4.9,4.9,0,0,1,0,1.7c0,.4-.5.4-.8.2a1,1,0,0,1-.4-.5c.1.5.1.9.2,1.4a.5.5,0,0,1-.5.5c0,.3.1.6.1,1s-.6.6-.9.2l-.3-.5c.2,5.7-.7,11.1-3.7,16.1-5.6,9.6-11.2,19.5-12.7,30.6a64.7,64.7,0,0,0-.2,14.6c.2,2.3,1,4.6.8,7s-.3,2.1-1.4,2.4-3.8-1.2-4.8-2.1a5.7,5.7,0,0,0-1.1-1.1,1.4,1.4,0,0,0-1.5-.1.7.7,0,0,0,0,1.3,3.7,3.7,0,0,1-2.5-1.9c-.2-.3-.4-.7-.7-.7s-.5.4-.8.5-3.6-2.4-4.9-2.7l.3,2.6a13.3,13.3,0,0,0-6.5-5.7v2a11.6,11.6,0,0,0-4.7-3.2,14.3,14.3,0,0,0,1.5,3.9c-1.4-.5-2.5-1.8-3.6-2.9s-2.5-2.2-4.1-2.2l1.2,2a26.5,26.5,0,0,0-3.9-2.3,14.9,14.9,0,0,0,1.7,3.9L35,106.8c-.9-.6-1.9-1.2-2.8-.8l2.6,3.6-4.2-2.9c-.1,1.9,2.9,2.9,2.5,4.7L30.6,110a73,73,0,0,0,13.6,15.2,31.6,31.6,0,0,0,5.3,3.7c3.9,2,8.5,2.5,12.6,4.3s6.7,4,10.2,5.8,6.4,2.8,9.6,4.2a50.8,50.8,0,0,1,7.6,4.2c2.1,1.6,4.8,7.4,1.9,9.1s-3.4,1.7-4.1,3.3c.1-.2,1.7-.3,1.9-.3a19.4,19.4,0,0,0,4.8-1.6,3.6,3.6,0,0,1,.2,1,.2.2,0,0,1,0,.3.1.1,0,0,1-.1.1,13.1,13.1,0,0,1-3.3,1.2c-.5.1-2.1,1-2.6.7a6.7,6.7,0,0,0,1.8,1.1,17.2,17.2,0,0,1,2.4.4c.8.4.5.8.6,1.6h0c.3,1,1.4,1.6,1.9,2.5a5.4,5.4,0,0,1,.2,3.1c0,.2-.1.4,0,.5s.2.3.4.3l.3-.3c.2-.2.5-.6.8-.6s.5.6.5,1a1.7,1.7,0,0,0,.5,1.7,1.1,1.1,0,0,0,1.2-.2,1.7,1.7,0,0,0,.6-1c.2-.4.5-1,1-1s.6.3.8.7a1.6,1.6,0,0,0,.5,1,1.2,1.2,0,0,0,1.4-.1,2.6,2.6,0,0,0,.6-1.3c.1-.5.3-1.1.8-1s.5.6.8.7a.8.8,0,0,0,1-.3,2.5,2.5,0,0,0,.2-1.2c0-.4.1-1,.5-1.1h.4a.3.3,0,0,1,.1-.2v-.3c0-.1,0-.1.1-.2h0c0-.7-.1-1.5-.1-2.2s.1-.7.2-1l.3-1.2h0c0-.2.1-.3.1-.4a22.6,22.6,0,0,0,.1-3.7,15.2,15.2,0,0,1,1.2-5.9c.7-1.8,1.8-3.4,2.2-5.3s.1-3.4,1.4-5,6-3.3,8.9-4.4A79.2,79.2,0,0,0,142.4,127a68.2,68.2,0,0,0,8.8-7.3c2.2-2.1,5.6-4.4,5.8-7.6Z" fill="none"/></clipPath></defs><title>slaughter</title><path d="M110.7,65.7l-2,.8-.8.4.5-1.2v-.2h-.2a1.4,1.4,0,0,0-1.1.2h.1a.6.6,0,0,0-.6-.5c-.4.1-.6.4-.9.6a1,1,0,0,1-1,.4,8.6,8.6,0,0,1,.6-2.3h0c-.9,0-1.5.9-2,1.6a21.8,21.8,0,0,1-3.4,4h-.2v-.5a.6.6,0,0,1,.1-.4,4.3,4.3,0,0,1,.4-.7v-.2h0v-.2a.8.8,0,0,0-.2-.4.3.3,0,0,0-.5.1l.3-1.6h0a2.9,2.9,0,0,0-1.9.8l-1.5,1.3-1.5,1.2,1-1.7c.2-.2.2-.4.3-.7h0c0-.2,0-.3-.1-.4h-.2a.7.7,0,0,0-.7.2A22.5,22.5,0,0,0,93,67.8h0c.1-.3-.3-.5-.7-.5a1.8,1.8,0,0,0-.8.7c-.3.2-.5.5-.9.5s-.4-.5-.7-.4-.6.4-.9.6l-.8.4a1.3,1.3,0,0,1-1.2-.5,1.4,1.4,0,0,1-.2-.7,9.9,9.9,0,0,1,.8-2.6l.3-1.1a27.4,27.4,0,0,0,.5-2.8c.1-.7.1-1.4.2-2.1a29.4,29.4,0,0,0-.5-5.9A13.7,13.7,0,0,0,87,49.7v-.3l-.7-1.6a3.6,3.6,0,0,1-.4-.9L85,45.2h0c-1-2.2-2.2-4.1-3.1-6.3a36.1,36.1,0,0,1-1.6-4.2c-.3-1.3-.4-2.6-.8-3.8h0a6.8,6.8,0,0,1-.2-1.4h.5a3.3,3.3,0,0,0,2.1-.9A10.5,10.5,0,0,0,84,29.5a.7.7,0,0,0-.1-.6,5,5,0,0,0-1.4-1.5,4.3,4.3,0,0,0,.2-1.1V21.1a41.4,41.4,0,0,0,1.9-4.9,2.5,2.5,0,0,0,.1-1.2c0-.1-.1-.3-.2-.3l-.3.2a6.1,6.1,0,0,0-.7,1.4,8,8,0,0,1-.8,1.6V7.8H81.5v11l-1.7.8V18.3a25.1,25.1,0,0,1,.4-2.7c0-.2,0-1.4-.2-1.5s-.8.6-.8.8a5,5,0,0,0-.4,1.3,31.1,31.1,0,0,0-.4,3.2c-.1.1-.1.3-.1.6h-.4a3.1,3.1,0,0,0,.3-1.3l-.9.9-.2.2a1.2,1.2,0,0,1-.9-.8,14.1,14.1,0,0,1-.1-2V7.8H74.8v0H73.5V16h-.1c-.3,0-.3.3-.2.5a.9.9,0,0,0,.3.7v3.9h-.4a3.1,3.1,0,0,1-1.2-1.6h0c-.1-.5-.1-1-.2-1.5a2.2,2.2,0,0,0-.5-.8l-.2-.3-1.2-2.4c-.2,0-.2.3-.2.6s.5,2.2.7,3.4l.3,1.4c.1.6.1,1.2.2,1.7h-.1l-.7-.2a11.8,11.8,0,0,1-1.9-1.1V7.8H66.8V19.2l-1-1.1a3.4,3.4,0,0,0-.9-.8h-.3a1.6,1.6,0,0,0,.3.9l.5.7.9,1,.5.7v.3l-1.9.2-1.1.3h0l1.1.3,1.9.5v4.2a3.1,3.1,0,0,0,.2.8,2.5,2.5,0,0,0-1.2.8,2.8,2.8,0,0,0,1.3-.4,3,3,0,0,0,2.7,1.7h1.5a7.6,7.6,0,0,1-.1,1.4,5.2,5.2,0,0,1-.2,1.1,14.4,14.4,0,0,1-1.9,5.1c-.6,1.2-1.3,2.4-2,3.6s-.1.3-.2.4l-2,3.7h0l-1.2,2.7h0a50.5,50.5,0,0,0-1.8,5.5c-.1.8-.3,1.6-.4,2.5a18.4,18.4,0,0,0-.3,3.3,33.7,33.7,0,0,0,.2,5.5c.1,1.2.5,2.5.5,3.7a.9.9,0,0,1-.1.5c0,.6-.1,1.2-.8,1.4s-2.3-.7-2.8-1.3l-.7-.6a.9.9,0,0,0-1-.1.8.8,0,0,0-.2.5v.3a2.2,2.2,0,0,1-1.3-1.2c-.1-.1-.2-.4-.4-.4s-.4.3-.5.4-2.2-1.5-2.9-1.7h0c0,.5.1,1,.1,1.4a7.8,7.8,0,0,0-3.7-3.2c0-.1-.1-.1-.2-.1V65l-.2-.2A6.8,6.8,0,0,0,44.7,63h0a10.9,10.9,0,0,0,.9,2.3,7.6,7.6,0,0,1-2.2-1.8A3.8,3.8,0,0,0,41,62.3h0l.6,1.1-2.3-1.4h0a14.7,14.7,0,0,0,1,2.2l-.5-.3-2.4-1.6a1.7,1.7,0,0,0-1.6-.5h-.1l1.5,2-2.4-1.6h0c-.1,1.1,1.5,1.7,1.5,2.6v.2l-1.5-.9v.2h-.1A43.8,43.8,0,0,0,42,72.8a3.9,3.9,0,0,0,1,.8,15,15,0,0,0,2.5,1.9h0l.6.3c2.3,1.2,5,1.6,7.4,2.5h.2l.6.3,1.2.6h.2c1.4.8,2.7,1.8,4.1,2.5l1.8.8,4,1.7A29.1,29.1,0,0,1,70.1,87a4.2,4.2,0,0,1,1.2,1.4v.2a2,2,0,0,0-.1,1.3c.1.5.3.9.4,1.4a1.9,1.9,0,0,1-.3,1h.1c-1,.6-2.1,1-2.5,2h0c.1-.2,1-.2,1.2-.2a13.1,13.1,0,0,0,2.8-.9c.1,0,.1.1.1.2v.4h0l-.8.4-1.2.3c-.3.1-1.3.6-1.6.4l.2.2h-.2l.5.4.6.3,1.5.2h0c.5.2.3.4.3.9h0c.1.3.4.5.6.8l.6.6a4.3,4.3,0,0,1,.2,1.1c0,.3-.1.5-.1.7v.4a.2.2,0,0,0,.4,0c.2-.1.3-.3.5-.3h.2a.4.4,0,0,1,.1.3h0v.2a.8.8,0,0,0,.3.9.9.9,0,0,0,.7-.1,2.1,2.1,0,0,0,.4-.6c.1-.3.3-.7.6-.7s.4.3.4.5l.4.6h0a.6.6,0,0,0,.8-.1,2,2,0,0,0,.4-.8c0-.2.2-.6.4-.6s.3.4.5.5a.5.5,0,0,0,.6-.2,1.4,1.4,0,0,0,.2-.6v-.2h0c0-.2,0-.5.3-.5h.2V99h0a.1.1,0,0,0,.1-.1h0V96.8c.1-.2.1-.4.2-.6h0c.1,0,.1-.1.1-.2s.1-.6.1-.8V93.2a10.7,10.7,0,0,1,.6-3.1h.1c.4-1.1,1-2.1,1.3-3.2s.1-2.1.8-3A6.3,6.3,0,0,1,87.3,82l2.3-.8a29.9,29.9,0,0,0,3.8-1.5l1.3-.6.7-.4,1-.5a46.2,46.2,0,0,0,5.5-3.5,44.2,44.2,0,0,0,5.3-4.4c.6-.6,1.5-1.3,2.2-2.1a4.1,4.1,0,0,0,1.3-2.4h0ZM81.5,26.1a.6.6,0,0,1-.1.4l-.5-.6c-.1-.2-.3-.4-.3-.6h0c0-.3.2-.5.3-.8l.6-.9Zm-1.7-4.8,1.7-1.2h0a2.1,2.1,0,0,0-.4.6l-.8.8c-.1.1-.1.2-.2.2h-.2c.1-.1.1-.1.1-.2h-.2Zm-.4,5.8c.2-.2.7.1.9.2l.5.3a4.2,4.2,0,0,1-1.2.4h-.4C79.2,27.7,79.2,27.2,79.4,27.1Zm-3.3-.5a7.8,7.8,0,0,0,.2,1.4h-.7A3.1,3.1,0,0,0,76.1,26.6Zm-1.4-7.3h.1a6.1,6.1,0,0,0,0,1.9h-.1Zm0,5.9c.1-.1.1-.1.1-.2v1.7a.6.6,0,0,1-.1-.4Zm-.9,2.3a.4.4,0,0,0,.1.3h-.2C73.7,27.7,73.7,27.6,73.8,27.5Zm-.5,3.7c0-.6.1-1.3.1-2a3.4,3.4,0,0,0,1.4-.5H75l.6.3h.8v.5c.1.7.2,2.9.3,3a5.3,5.3,0,0,0,.1,1.3c0,.9.1,1.8.1,2.8a11,11,0,0,1-.7,3.6c-.1.2-.3.5-.5.5a.5.5,0,0,1-.6-.2c-.2-.1-.2-.3-.3-.6A41.9,41.9,0,0,1,73.7,35a20.9,20.9,0,0,1-.4-2.8v-1Zm-5.2-5.1V22.4h.4c0,.1.1.1.2.2l1.1,1,.4.6c.6,1-1,1.9-2,2.4A.9.9,0,0,1,68.1,26.1ZM70,28a3,3,0,0,1-1.4-.6l-.2-.3h.2c.6-.1,2-.9,2.5-.5s0,.1.1.2.1.8.2,1.3Z" fill="#191919"/><path d="M93.6,77.6h0l-.3.2-1.9,1.2a18.3,18.3,0,0,1,1.3-1.6h-.5l-.6.2-.3.2h-.1l-.9.7-.4.3-1.2.8.6-1.3a1.9,1.9,0,0,0,.2-.7h0l-.8.5-1.2.7a4.1,4.1,0,0,0,.5-.9h0a1.9,1.9,0,0,0-1,.3l-.4.2-.6.6h-.1l-.6.5h0a3.8,3.8,0,0,1-1.3.9,11.9,11.9,0,0,0,.8-2h0a6.8,6.8,0,0,0-2.6,1.8V78.7h0a6.9,6.9,0,0,0-3.4,2.9.1.1,0,0,0-.1.1c.1-.4.1-.9.2-1.3h0c-.7.2-2.2,1.8-2.6,1.5s-.3-.3-.5-.3-.3.2-.4.4a1.8,1.8,0,0,1-1.1,1v-.3a.4.4,0,0,0-.2-.4.8.8,0,0,0-.8.1l-.6.5A3.4,3.4,0,0,1,70.1,84c-.5-.2-.6-.7-.7-1.3v-.4c0-1.1.3-2.2.4-3.3s.2-3.3.2-4.9-.1-2-.3-3c-.8-5.9-3.8-11.3-6.8-16.4a17.4,17.4,0,0,1-1-1.9,12.8,12.8,0,0,1-.7-2.8c-.1-.3-.1-.6-.2-.9s-.1-1-.1-1.3h1.4a2.3,2.3,0,0,0,1.4-.4h0a2.7,2.7,0,0,0,1-1.1,2.5,2.5,0,0,0,1.1.4,1.8,1.8,0,0,0-1-.7,2.2,2.2,0,0,0,.1-.8v-.5h0V41.4l2-.5.9-.2-.7-.2a7.8,7.8,0,0,0-2.2-.3V40l.5-.6.8-1a2.1,2.1,0,0,0,.7-1.4c-.4.1-.7.5-1,.8l-1,1V13.1H63.8V39.7a9.5,9.5,0,0,1-1.7,1l-.6.2h-.1c0-.5.1-1,.1-1.5l.3-1.3.6-3.1c.1-.2,0-.5-.2-.5s-.7,1.4-1,2.2-.1.1-.1.2a1.6,1.6,0,0,0-.6.8,4.9,4.9,0,0,1-.1,1.2h0a3.6,3.6,0,0,1-1.1,1.4H59V37l.3-.6c0-.2,0-.4-.2-.4H59V13.1H57.9V37.3c-.1.1-.1.1-.1.2V13.1H56.7V36.9c-.2.5,0,1.3-.2,1.8a1.4,1.4,0,0,1-.7.8l-.2-.2-.8-.9a5,5,0,0,0,.2,1.2h-.3c0-.3-.1-.5-.1-.7a27,27,0,0,0-.4-2.8,3.5,3.5,0,0,0-.3-1.1c-.1-.2-.4-.9-.7-.8s-.2,1.2-.2,1.4.3,1.6.3,2.4v1.1a9.4,9.4,0,0,0-1.5-.6V13.1H50.7V37.7a10.1,10.1,0,0,1-.7-1.5,7.5,7.5,0,0,0-.6-1.3h-.3a.2.2,0,0,0-.2.2,3.6,3.6,0,0,0,.2,1.1,28.5,28.5,0,0,0,1.6,4.4v4.6a3,3,0,0,0,.2,1,5.8,5.8,0,0,0-1.3,1.4c0,.1-.1.3,0,.5a11.8,11.8,0,0,0,1.9-1.1,2.4,2.4,0,0,0,1.9.8h.4a5,5,0,0,1-.2,1.2h0a21.7,21.7,0,0,0-.7,3.5c-.4,1.3-.9,2.5-1.4,3.7s-2.6,5-3.8,7.6c0,.2-.1.3-.2.5a.8.8,0,0,1-.2.4,21.5,21.5,0,0,0-1.4,4.5,23.7,23.7,0,0,0-.4,5.3v.9h0a2.8,2.8,0,0,1,.1.9c.2,1.2.4,2.4.7,3.6a14.7,14.7,0,0,1,.7,1.7c0,.2.1.4.1.6a.8.8,0,0,1-.2.6,1.5,1.5,0,0,1-1.1.4,1.1,1.1,0,0,1-.7-.3l-.7-.5h-.1c-.3-.1-.7.1-.6.4a1.2,1.2,0,0,1-.8-.6c-.2-.2-.5-.5-.8-.5s-.5.1-.6.3h0l-2.2-1.9c-.1-.1-.4-.3-.6-.2s-.2.3-.2.5a1.9,1.9,0,0,0,.2.7l.9,1.5-2.7-2.2a2,2,0,0,0-1.6-.7h0l.3,1.3a.5.5,0,0,0-.5,0,.5.5,0,0,0-.2.4c0,.1.1.3.1.4l.4.6a.6.6,0,0,1,.1.4v.4a18.9,18.9,0,0,1-3.2-3.7c-.5-.6-1-1.4-1.8-1.4h0a16,16,0,0,1,.5,2.1.8.8,0,0,1-.8-.3c-.3-.3-.5-.6-.8-.6a.6.6,0,0,0-.6.5h.1a1.3,1.3,0,0,0-1.2-.1h0c.2.4.3.9.5,1.3l-2.5-1.1h0c.1,1.7,2,2.9,3.1,4a36.4,36.4,0,0,0,4.8,4,46.3,46.3,0,0,0,9.5,5.3h0l1.5.5c1.4.5,3.3.9,4.4,2l.4.4c.6.8.4,1.7.7,2.7a16.9,16.9,0,0,0,1.2,2.8,6.7,6.7,0,0,1,.6,2.8v1.6a1.7,1.7,0,0,0,.1.7v.3h.1c0,.2.1.4.1.6a1.1,1.1,0,0,1,.1.5v1.2h0v.2h.2c.2,0,.2.2.2.4v.3a.9.9,0,0,0,.1.5.5.5,0,0,0,.6.2c.1-.1.2-.4.4-.4s.4.3.5.5a.9.9,0,0,0,.3.7.6.6,0,0,0,.7.1c.2-.1.2-.4.3-.6s.2-.3.4-.3h0c.3,0,.4.3.5.6h0a2.1,2.1,0,0,0,.4.6h.6c.3-.1.3-.4.3-.8h0c0-.2.1-.4.2-.4a.9.9,0,0,1,.5.3.2.2,0,0,0,.2.2l.2-.2v-.2h0a2.3,2.3,0,0,1,.1-1.6c.3-.5.8-.8,1-1.4h0c.1-.4-.1-.7.3-.9l1.3-.2a3.3,3.3,0,0,0,1-.6h0c-.3.2-1.2-.2-1.4-.3a9.5,9.5,0,0,1-1.8-.6v-.6a.1.1,0,0,1,.1-.1,10.4,10.4,0,0,0,2.5.8c.1,0,1,0,1.1.2h0c-.4-.9-1.4-1.3-2.2-1.8h0a1,1,0,0,1-.2-.9,5.3,5.3,0,0,1,.3-1.2,1.6,1.6,0,0,0-.1-1.2v-.2A4.7,4.7,0,0,1,62,99.4a20.2,20.2,0,0,1,4.1-2.2L69,95.9l.8-.3,1.4-.7.9-.5.8-.5a22,22,0,0,1,2.6-1.5,3.4,3.4,0,0,1,1.2-.6A54.3,54.3,0,0,1,82,90.1l1.5-.6a28.3,28.3,0,0,0,2.8-2c1.1-.9,2.2-2,3.2-3a45.4,45.4,0,0,0,3.9-4.8c0-.1.1-.2.2-.4a.1.1,0,0,1-.1.1h.1l-1.4.7h0c.1-.7,1.1-1.2,1.3-2A.4.4,0,0,0,93.6,77.6ZM61.9,43.2c.1-.1.2-.3.4-.4l1-1h.5v3.8C62.8,45,61.4,44.2,61.9,43.2Zm-.8,2.3v-.2c.5-.3,1.7.4,2.3.5h.2l-.3.2a1.7,1.7,0,0,1-1.2.5H60.9A5.2,5.2,0,0,1,61.1,45.5Zm-2.4.8c.1,0,.1.1.1.2h-.2A.3.3,0,0,0,58.7,46.3Zm-.8-7.4v1.8c0-.1,0-.1-.1-.1a4.3,4.3,0,0,0,0-1.6ZM57.8,44a.3.3,0,0,0,.1.2v.9c0,.2,0,.3-.1.4V44Zm-1.1,1.4a3.5,3.5,0,0,0,.3,1.1h-.5A5,5,0,0,1,56.7,45.4ZM56,52a3.7,3.7,0,0,0,.1-1.1,17.6,17.6,0,0,0,.2-2.7c0-.2.1-.3.1-.4l.6-.2a.8.8,0,0,0,.6-.2h.2a2.8,2.8,0,0,0,1.2.4,12.1,12.1,0,0,1,.1,1.9v.8a20.6,20.6,0,0,1-.3,2.6,36.3,36.3,0,0,1-1,4.5c-.1.2-.1.4-.3.6l-.5.2a.9.9,0,0,1-.4-.6,6.6,6.6,0,0,1-.6-3.2A20.9,20.9,0,0,1,56,52ZM51.8,39.6a8.3,8.3,0,0,1,1.5,1.1h-.2a.1.1,0,0,1,.1.1c0,.1,0,.1-.1.1s-.2,0-.2-.1l-.7-.8-.4-.5Zm.1,5.7a.4.4,0,0,1-.1-.3V42.6a4.1,4.1,0,0,1,.5.9.9.9,0,0,1,.3.7h0a.5.5,0,0,1-.3.5Zm1.6,1.3a2,2,0,0,1-1.1-.3l.5-.3c.2-.1.6-.3.8-.1s.1.5.1.7h-.3Z" fill="#d6b780"/><path d="M186.4,82l-2.3,1.1c.1-.4.3-.8.4-1.2h0a.9.9,0,0,0-1.1.2h0a.4.4,0,0,0-.5-.4c-.3,0-.5.3-.7.5s-.6.4-.9.3a11.7,11.7,0,0,1,.5-2h0c-.7.1-1.2.8-1.7,1.4a14.3,14.3,0,0,1-3,3.5v-.4l.2-.4.3-.6c.1-.1.1-.2.1-.4a.4.4,0,0,0-.1-.3H177l.3-1.3h0a2.6,2.6,0,0,0-1.6.7l-2.5,2.1a10.9,10.9,0,0,0,.8-1.5c.2-.1.2-.4.3-.6a.5.5,0,0,0-.3-.5l-.6.2-2,1.8h0a.6.6,0,0,0-.6-.5,1.3,1.3,0,0,0-.7.6l-.8.5c.1-.3-.3-.5-.6-.4s-.5.4-.7.5a1.1,1.1,0,0,1-.8.3,1.4,1.4,0,0,1-.9-.3,1.4,1.4,0,0,1-.2-.7v-.2c.2-.7.6-1.5.7-2l.6-2.7a1.3,1.3,0,0,1,.1-.6c0-.6.1-1.2.1-1.8a28.9,28.9,0,0,0-.4-5c-.9-4.5-3.5-8.2-5.3-12.4a20.9,20.9,0,0,1-1.3-3.5c-.3-1.1-.4-2.2-.7-3.3h0c-.1-.4-.1-.8-.2-1.2h.4a2.3,2.3,0,0,0,1.8-.8,8.1,8.1,0,0,0,1.8,1c.1-.1,0-.3-.1-.4a3.7,3.7,0,0,0-1.2-1.3,1.6,1.6,0,0,0,.2-1V44.1a29,29,0,0,0,1.6-4.1,1.8,1.8,0,0,0,.1-1c0-.2,0-.3-.2-.3h-.2a7.5,7.5,0,0,0-.6,1.3,9.1,9.1,0,0,1-.7,1.4v-19h-1V42.2a5.9,5.9,0,0,0-1.4.6v-1a18.1,18.1,0,0,1,.3-2.3c0-.2,0-1.2-.2-1.3s-.6.5-.7.7l-.3,1c-.2.9-.2,1.9-.4,2.8a1.1,1.1,0,0,1-.1.5h-.3a2.6,2.6,0,0,0,.3-1.1,6,6,0,0,0-.8.8h-.2a1.3,1.3,0,0,1-.7-.6c-.1-.6,0-1.3-.1-1.8V22.5h-1.1V41.3c0-.1,0-.2-.1-.2V22.5h-1V39.8h-.1c-.2,0-.2.3-.2.5l.3.5v3.4l-.4-.2a3.2,3.2,0,0,1-1-1.3h0c-.1-.4,0-.9-.1-1.2a2.2,2.2,0,0,0-.5-.8.3.3,0,0,1-.1-.2l-1-2.1c-.2.1-.2.3-.2.5l.6,2.9.3,1.2a7.6,7.6,0,0,0,.1,1.5h-.1l-.6-.2-1.6-1V22.5h-1.1v20l-.6-.6c0-.1-.1-.1-.2-.2s0-.1-.1-.1a2,2,0,0,0-.8-.8h-.1a.9.9,0,0,0,.1.5,2.2,2.2,0,0,0,.5.8l.8,1,.2.2c.1.1.2.2.2.3v.3h-.4l-1.4.2h-.2l-.7.2h.7l1.2.4h.8v3.5h0c0,.3.1.5.1.7a1.6,1.6,0,0,0-.8.6h.1l.9-.3a2.5,2.5,0,0,0,2.2,1.4H153a3.8,3.8,0,0,0-.1,1.2c-.1.3-.1.6-.2.9a14.6,14.6,0,0,1-1.6,4.4L149,61.2c-2,3.8-3.8,7.7-4.4,12l-.3,2.8c0,1.6.1,3.1.2,4.7a2,2,0,0,0,.1.7,19.7,19.7,0,0,1,.3,2.4v.4c-.1.5-.2,1.1-.7,1.3s-2-.7-2.4-1.1-.4-.5-.6-.6-.6-.2-.8,0-.2.2-.2.3a.4.4,0,0,0,.1.3,2.3,2.3,0,0,1-1.2-1h0a.3.3,0,0,0-.3-.3c-.2,0-.3.2-.4.3s-.6-.2-1-.5-1.2-.9-1.5-.9h0c0,.4.1.8.1,1.3a6.7,6.7,0,0,0-3.3-2.9h0v.9c-.1-.2-.3-.3-.5-.5a4.5,4.5,0,0,0-1.9-1.1h0a6.4,6.4,0,0,0,.8,1.9c-.8-.2-1.3-.9-1.9-1.4a2.7,2.7,0,0,0-2-1.1h0a3.5,3.5,0,0,0,.5.8L125.8,79h0a5.6,5.6,0,0,0,.4,1.2,4.3,4.3,0,0,1,.4.7l-2.5-1.7h0l-1-.5h-.4l1.3,1.8-2.1-1.4h0c0,.8,1.3,1.4,1.3,2.2h0l-1.3-.7h0a39.9,39.9,0,0,0,7,7.8,15.7,15.7,0,0,0,2.6,1.9c2.1,1,4.4,1.2,6.5,2.1a27.7,27.7,0,0,1,3.7,2.2h.3l1.2.7c1.5.8,3.1,1.4,4.6,2.1h.2a19,19,0,0,1,4,2.1,6.2,6.2,0,0,1,.9,1.2c0,.1,0,.1-.1.2a1.4,1.4,0,0,0,0,1.1l.3,1.2a1.9,1.9,0,0,1-.2.8h.2l-.2.2a3.9,3.9,0,0,0-2.1,1.7c0-.1,0-.1.1-.1a.1.1,0,0,0-.1.1l1-.2a9.5,9.5,0,0,0,2.4-.7h.1v.4h-.1c-.4.4-1.1.4-1.6.6s-1.1.5-1.3.3v.2h-.1c.3.2.5.5.9.6l1.2.2c.4.2.3.4.3.8h0c.2.5.7.8,1,1.2v.3a1.5,1.5,0,0,1,.1.7,1.3,1.3,0,0,0-.1.6h0v.2h.4c.1-.1.2-.3.4-.3s.2.2.2.4h0v.5h0c.1.1.2.3.3.3h.6l.3-.5h0c.1-.2.2-.5.5-.5s.3.2.4.4.1.4.3.5a.5.5,0,0,0,.7-.1,3.3,3.3,0,0,0,.3-.6c0-.3.2-.6.4-.5s.3.2.4.3a.4.4,0,0,0,.5-.1.9.9,0,0,0,.1-.5V111h0c0-.2.1-.4.3-.4h.2v-.2h0a.4.4,0,0,0,.1-.3h0c0-.3-.1-.5-.1-.7s.1-.4.1-.6.1-.4.2-.6h0v-.2a1.7,1.7,0,0,0,.1-.7v-1.5a6.6,6.6,0,0,1,.6-2.7,21.8,21.8,0,0,0,1.1-2.7c.3-.9.1-1.7.7-2.5s3.1-1.7,4.6-2.3a41.5,41.5,0,0,0,10.4-5.5,27.9,27.9,0,0,0,4.2-3.5l.3-.2c1.1-1.1,2.9-2.3,3-3.9h0ZM161.6,48.4a.4.4,0,0,1-.1.3l-.4-.5-.3-.5h0c0-.2.2-.4.3-.6a5.6,5.6,0,0,1,.5-.8Zm-1.4-4.1a7.1,7.1,0,0,1,1.4-1h0l-.4.5-.6.7h-.4Zm-.4,4.9c.2-.1.6.1.8.2l.4.2-1.1.4h-.2C159.7,49.7,159.6,49.3,159.8,49.2Zm-2.8-.4c0,.4.1.8.1,1.2a.1.1,0,0,0-.1-.1h-.4A3,3,0,0,0,157,48.8Zm-1.2-6.2a.1.1,0,0,1,.1.1,4.3,4.3,0,0,0,0,1.6h-.1Zm0,5c.1,0,.1-.1.1-.2v1.5c-.1-.1-.1-.2-.1-.4Zm-.8,2v.2H155Zm-.4,3.1a11.1,11.1,0,0,1,.2-1.7,2.1,2.1,0,0,0,1.1-.4h.2l.5.2.7.2v.3c0,.7.2,2.5.2,2.6s.1.7.1,1.1.1,1.6.1,2.4a10,10,0,0,1-.6,3c-.1.2-.2.5-.5.5a.4.4,0,0,1-.4-.2c-.2-.1-.2-.3-.3-.5A32.9,32.9,0,0,1,155,56a9.5,9.5,0,0,1-.3-2.5,1.1,1.1,0,0,0-.1-.5Zm-4.4-4.3V45.2h.5l.9.9c.2.1.3.3.4.4s-.8,1.7-1.8,2.1Zm1.6,1.6-1.2-.5c0-.1-.1-.2-.2-.3h.2c.5-.2,1.7-.8,2.1-.5s.1.1.1.2A4.3,4.3,0,0,1,153,50Z" fill="#d6b780"/><path d="M64.5,77.2l-2.1,1.3,1.3-1.7h0a1.5,1.5,0,0,0-1.4.4l-2.5,1.6a6.4,6.4,0,0,0,.8-1.9h0L58.7,78l.5-.9h0a2.4,2.4,0,0,0-2,1.1,8.8,8.8,0,0,1-1.5,1.2l-.4.2c.1-.1.2-.2.2-.3a4.4,4.4,0,0,0,.6-1.6h0a5.4,5.4,0,0,0-1.8,1.1l-.6.6v-.9h-.2a6.7,6.7,0,0,0-3.1,2.9,5.3,5.3,0,0,1,.1-1.3h0c-.6.2-2.1,1.7-2.5,1.5s-.2-.3-.4-.3a.3.3,0,0,0-.3.3l-.3.4a2.4,2.4,0,0,1-.9.6.4.4,0,0,0,.1-.3l-.2-.4a.8.8,0,0,0-.8.1l-.6.5-.2.3a2.9,2.9,0,0,1-2.2.8c-.5-.1-.6-.7-.7-1.2h0v-.4a29.1,29.1,0,0,1,.4-3.1,36.9,36.9,0,0,0,.1-4.7V72.8c-.1-.6-.1-1.2-.2-1.7a24.4,24.4,0,0,0-2-7,70.3,70.3,0,0,0-4.5-8.6,14.6,14.6,0,0,1-1.6-4.4c-.1-.3-.1-.6-.2-.9a3.8,3.8,0,0,0-.1-1.2h1.4A2.5,2.5,0,0,0,37,47.5a4.5,4.5,0,0,0,1.1.3,3.1,3.1,0,0,0-.9-.7v-.7h0a6.6,6.6,0,0,0,.1-1.4,1.5,1.5,0,0,1-.1-.7V42.8l2.8-.6a8.6,8.6,0,0,0-2.8-.4v-.3l.5-.5.8-1a2.2,2.2,0,0,0,.6-1.3,1.6,1.6,0,0,0-.9.7,4.7,4.7,0,0,1-1,1V30.7h-1V41.2l-1.6,1-.6.2h-.1a7.6,7.6,0,0,0,.1-1.5l.3-1.2.6-2.9c0-.2,0-.5-.2-.5l-1,2.1c0,.1-.1.1-.1.2l-.5.7a4.9,4.9,0,0,0-.1,1.2h0a2.8,2.8,0,0,1-1.1,1.3h-.3V38.7l.3-.6c0-.1,0-.4-.2-.4h-.1v-7h-1V39a.1.1,0,0,0-.1.1V30.7H29.4v7.9c-.1.5,0,1.2-.1,1.7a1.2,1.2,0,0,1-.7.7.2.2,0,0,1-.2-.2l-.8-.7a1.9,1.9,0,0,0,.3,1h-.4v-.6c-.2-.9-.2-1.8-.4-2.7l-.3-1c-.1-.2-.4-.8-.7-.7s-.2,1.1-.2,1.3a16,16,0,0,1,.3,2.3v1a5.9,5.9,0,0,0-1.4-.6V30.7h-1v8.6a5.4,5.4,0,0,1-.7-1.3,5.2,5.2,0,0,0-.6-1.3h-.2c-.2,0-.2.1-.2.2a2.1,2.1,0,0,0,.1,1.1A20.5,20.5,0,0,0,23.8,42v4.4a1.8,1.8,0,0,0,.2,1,4.9,4.9,0,0,0-1.3,1.2c0,.2-.1.4,0,.5a8.1,8.1,0,0,0,1.8-1,2.3,2.3,0,0,0,1.8.8h.4c-.1.4-.1.8-.2,1.2h0c-.3,1.1-.4,2.2-.7,3.3A20.9,20.9,0,0,1,24.5,57c-1.8,4.2-4.5,7.9-5.3,12.4a20.7,20.7,0,0,0-.4,5c0,.6.1,1.2.1,1.8s.4,2.2.7,3.3a11.4,11.4,0,0,1,.7,2.2.8.8,0,0,1-.2.6,1.2,1.2,0,0,1-1,.4,1.1,1.1,0,0,1-.7-.3,1.8,1.8,0,0,0-.7-.5c-.3-.1-.7.1-.6.4l-.8-.5a1.3,1.3,0,0,0-.7-.6.6.6,0,0,0-.6.5h0a17.1,17.1,0,0,0-2-1.8l-.6-.2a.5.5,0,0,0-.3.5c.1.2.1.4.3.6a10.9,10.9,0,0,0,.8,1.5l-2.5-2.1a2.6,2.6,0,0,0-1.6-.7h0l.3,1.3c-.1-.1-.4-.2-.5,0a.4.4,0,0,0-.1.3c0,.2,0,.3.1.4l.3.6c.1.1.1.3.2.4s-.1.2-.1.4a16.4,16.4,0,0,1-3-3.5c-.5-.6-1-1.4-1.7-1.4h0a11.7,11.7,0,0,1,.5,2c-.3.1-.6-.1-.9-.3s-.4-.5-.7-.6a.5.5,0,0,0-.5.5H3a.9.9,0,0,0-1.1-.2h0c.1.4.3.8.4,1.2L0,79.9H0c.1,1.6,1.9,2.8,3,3.8a32.3,32.3,0,0,0,4.5,3.8,41.5,41.5,0,0,0,10.4,5.5l2.9,1a3.7,3.7,0,0,1,1.7,1.3c.6.8.4,1.6.7,2.5a21.8,21.8,0,0,0,1.1,2.7,6.6,6.6,0,0,1,.6,2.7v1.5a1.7,1.7,0,0,0,.1.7v.2h0l.2.6V108h.1v.2h.2c.2,0,.3.2.3.4h0v.2a.6.6,0,0,0,.1.4.4.4,0,0,0,.5.2l.4-.4c.2,0,.4.3.4.6l.3.6a.6.6,0,0,0,.7.1c.2-.1.2-.3.3-.5s.2-.4.4-.4.4.3.5.5l.3.6a.6.6,0,0,0,.6,0c.3-.1.3-.4.3-.7h0c0-.2,0-.4.2-.4s.3.2.4.3h.2c.1,0,.2,0,.2-.1v-.2h0c0-.2-.1-.5-.1-.7h0a1.9,1.9,0,0,1,.2-.8l.3-.3c.2-.3.6-.6.7-.9h0c0-.4-.1-.6.2-.8H33l1.2-.2c.4-.1.6-.4.9-.6h0c-.2.2-1.1-.2-1.3-.3a4.9,4.9,0,0,1-1.7-.6h0v-.6a6.8,6.8,0,0,0,2.4.8l1,.2h0a4.2,4.2,0,0,0-2.1-1.6l-.2-.2h.2a2,2,0,0,1-.2-.9l.3-1.1a1.4,1.4,0,0,0,0-1.1l-.2-.2a6.9,6.9,0,0,1,1-1.2,19,19,0,0,1,4-2.1,34.9,34.9,0,0,1,3.4-1.5l1.3-.6h.1c1.8-.9,3.4-2.2,5.2-3s4.4-1.1,6.5-2.2a15.1,15.1,0,0,0,2.6-1.8,38.7,38.7,0,0,0,4.1-4c1-1.2,2-2.5,2.9-3.8h0l-1.3.7v-.2c0-.8,1.4-1.3,1.3-2.2ZM34.4,44.6a.8.8,0,0,1,.4-.4l.9-.9h.5v3.2a.8.8,0,0,1-.1.4C35.2,46.3,33.9,45.5,34.4,44.6Zm-.8,2.2v-.2c.5-.3,1.7.3,2.2.5H36l-.3.3a1.8,1.8,0,0,1-1.1.4H33.4A3.6,3.6,0,0,1,33.6,46.8Zm-2.2.7v.3h-.1C31.3,47.6,31.3,47.6,31.4,47.5Zm-.8-7v1.7a.1.1,0,0,1-.1-.1,7.5,7.5,0,0,0,0-1.5A.1.1,0,0,1,30.6,40.5Zm-.1,4.8c0,.1,0,.1.1.2v.9c0,.1-.1.3-.1.4V45.3Zm-1.1,1.4a4.2,4.2,0,0,0,.4,1h-.6A3.6,3.6,0,0,0,29.4,46.7ZM28.8,53a4.1,4.1,0,0,1,.1-1.1c0-.1.2-2,.2-2.6v-.4h.7l.5-.2h.2l1.1.4a10.3,10.3,0,0,1,.1,1.7v.8a9.5,9.5,0,0,1-.3,2.5,32.9,32.9,0,0,1-.9,4.3c-.1.2-.1.4-.3.5l-.4.2a.8.8,0,0,1-.5-.5,10,10,0,0,1-.6-3C28.7,54.5,28.8,53.7,28.8,53Zm-4-11.8a7.1,7.1,0,0,1,1.4,1h-.4l-.6-.8a1,1,0,0,1-.4-.5Zm0,5.4V44.1a5.6,5.6,0,0,1,.5.8c.1.2.3.4.3.6h0l-.3.5Zm1.7,1.2a1.8,1.8,0,0,1-1.1-.3l.4-.2c.2-.1.6-.3.8-.2s.1.5.1.7h-.2Z" fill="#7a6956"/><path d="M167.8,80a4.9,4.9,0,0,1,.4-1.1h0a.8.8,0,0,0-.8,0h-.2c0-.2-.3-.4-.5-.4a1.8,1.8,0,0,0-.7.5c-.2.2-.5.4-.7.3a11.6,11.6,0,0,1,.4-1.8h0c-.7.1-1.1.7-1.5,1.3a16.4,16.4,0,0,1-2.8,3.1v-.3a.6.6,0,0,1,.1-.4l.3-.5a.4.4,0,0,0,.1-.3c0-.2,0-.3-.1-.4s-.3,0-.4.1.1-.8.2-1.2h0c-.5-.1-1,.3-1.4.6l-1.4,1.2-.9.7.7-1.2h.1a1.4,1.4,0,0,0,.2-.6c0-.2-.1-.4-.3-.4s-.3,0-.5.2l-.8.6a9.4,9.4,0,0,0-1,1h0l-.2-.3h-.4c-.2,0-.3.1-.5.3h-.1c-.2.2-.4.5-.7.5s-.3-.4-.6-.3-.4.3-.6.4a.9.9,0,0,1-.7.3h-.1a.8.8,0,0,1-.7-.3.7.7,0,0,1-.2-.6,9.5,9.5,0,0,1,.6-2,15.9,15.9,0,0,0,.6-3,9.2,9.2,0,0,0,.1-1.6,17.8,17.8,0,0,0-.3-4.6c-.6-3-2.1-5.6-3.5-8.3-.4-1-.9-1.9-1.3-2.9a17.5,17.5,0,0,1-1.2-3.2c-.3-1-.3-2-.6-2.9h0a.1.1,0,0,1-.1-.1c0-.3-.1-.7-.1-1h.4a2,2,0,0,0,1.6-.7,5.1,5.1,0,0,0,1.6.9c.1-.1,0-.3,0-.4a3,3,0,0,0-.8-.8c0-.1,0-.1-.1-.1l-.3-.3a1.1,1.1,0,0,0,.2-.8v-4a3,3,0,0,0,.4-.8c.1-.2.1-.4.2-.6l.9-2.4a2.8,2.8,0,0,0,.1-.9.2.2,0,0,0-.2-.2c-.1,0-.2,0-.2.1l-.4.6a4.3,4.3,0,0,1-.1.5l-.5.9c0,.1-.1.2-.2.4V13.8h-.9V43l-1.3.5v-.9a15.2,15.2,0,0,1,.3-2.1c0-.2,0-1.1-.2-1.2s-.5.5-.6.7a2.9,2.9,0,0,0-.2.9,21.7,21.7,0,0,0-.4,2.5,4.3,4.3,0,0,0-.1.5h-.3a1.2,1.2,0,0,0,.2-1,2.3,2.3,0,0,1-.7.7.3.3,0,0,1-.1.2.9.9,0,0,1-.6-.6,10,10,0,0,1-.2-1.6V13.8h-.9v0h-1v27h-.1c-.1,0-.2.2-.1.4s.1.3.2.5v3h-.3a3.4,3.4,0,0,1-.9-1.2h0a4.5,4.5,0,0,1-.1-1.1,1.8,1.8,0,0,0-.5-.7.3.3,0,0,0-.1-.2l-.9-1.9c-.2.1-.2.3-.1.5a23.8,23.8,0,0,0,.5,2.6,4.3,4.3,0,0,1,.2,1.1,6.2,6.2,0,0,1,.1,1.3h0l-.5-.2-1.5-.9V13.8h-1V43.2a3,3,0,0,1-.8-.8c-.3-.3-.5-.6-.9-.7a2.3,2.3,0,0,0,.6,1.2l.7.8.4.5v.3a7.3,7.3,0,0,0-2.5.4l2.5.5v3.2h0a1.3,1.3,0,0,0,.1.6,3.1,3.1,0,0,0-.9.7l1-.4a2.2,2.2,0,0,0,2.1,1.3h1.2a3.4,3.4,0,0,0-.1,1.1c-.1.3-.1.5-.2.8a11.9,11.9,0,0,1-1.4,4l-2.1,3.6A30.8,30.8,0,0,0,132,71a22.8,22.8,0,0,0-.2,2.6,29.5,29.5,0,0,0,.1,4.2,28.9,28.9,0,0,1,.4,2.9v.2c.1.1,0,.1,0,.2a1.1,1.1,0,0,1-.6,1.1c-.6.2-1.8-.6-2.2-1l-.5-.5a.6.6,0,0,0-.7-.1.5.5,0,0,0-.2.4v.2a1.9,1.9,0,0,1-1.1-.9.3.3,0,0,0-.3-.3l-.4.3h-.1c-.4,0-1.6-1.2-2.1-1.3h0v.2c0,.3.1.6.1.9a4.9,4.9,0,0,0-1.1-1.4,6.2,6.2,0,0,0-1.9-1.2h0v.9A4.8,4.8,0,0,0,119,77h0a8.7,8.7,0,0,0,.7,1.7,3.4,3.4,0,0,1-1.6-1.3,3,3,0,0,0-1.9-1h0l.4.9-1.7-1.1h0a12.2,12.2,0,0,0,.7,1.7l-1.9-1.3-.3-.2a1.6,1.6,0,0,0-1.3-.4h0l1.2,1.5-1.6-1-.3-.2h0a1.1,1.1,0,0,0,.3.8c.4.4.9.8.9,1.2h0l-.8-.4-.4-.2a.1.1,0,0,0,.1.1h-.1l.4.6a37.5,37.5,0,0,0,5.7,6.2c.1.1.2.1.2.2l2.4,1.7c1.9.9,4,1.2,5.9,2s3.1,1.8,4.7,2.6,2.9,1.3,4.4,2l2.3,1.1,1.2.9a1.9,1.9,0,0,1,.7.6c.1.2.2.3.2.5h0a1.2,1.2,0,0,0-.1,1l.3,1.1a3.1,3.1,0,0,1-.2.8h0c-.7.4-1.6.8-1.9,1.5h.1c-.1,0-.1,0-.1.1l.9-.2a8.1,8.1,0,0,0,2.2-.7.3.3,0,0,0,.1.2.4.4,0,0,1-.1.3h0a3.8,3.8,0,0,1-1.5.5c-.2.1-.9.5-1.2.3h0a2.6,2.6,0,0,0,.9.5l1.1.2c.3.2.2.4.3.7h0c.1.5.6.7.8,1.1a1.5,1.5,0,0,1,.2.9.7.7,0,0,1-.1.5v.2h0l.2.2.2-.2.3-.3c.2,0,.2.2.2.4h0v.2a.8.8,0,0,0,.3.7.4.4,0,0,0,.5-.1.5.5,0,0,0,.3-.4c.1-.3.2-.6.5-.6a.4.4,0,0,1,.3.4c.1.2.1.4.3.5a.5.5,0,0,0,.6-.1.9.9,0,0,0,.3-.6c.1-.2.2-.5.4-.5s.2.3.4.4.3,0,.4-.2.1-.2.1-.4v-.2h0c0-.2.1-.4.2-.4h.2c0-.1,0-.1.1-.1h0v-.2h0V103c.1-.2.1-.4.2-.5h0a2,2,0,0,0,.1-.7v-1.4a5.9,5.9,0,0,1,.5-2.3h0a17.5,17.5,0,0,0,1.1-2.4c.1-.5.1-1,.2-1.4a1.8,1.8,0,0,1,.4-.9c.9-1.3,2.8-1.6,4.1-2.1a37.5,37.5,0,0,0,9.5-5,17.6,17.6,0,0,0,3-2.4l1.1-1c1-1,2.6-2,2.7-3.5h0ZM147.4,48.6a.4.4,0,0,1-.1.3l-.4-.5a.8.8,0,0,1-.2-.5h0a1.4,1.4,0,0,1,.2-.6l.5-.8Zm-1.3-3.7.6-.5.4-.3h0l.3-.2h0a.1.1,0,0,0-.1.1l-.2.3H147l-.5.6h-.2c-.1,0-.1,0-.1-.1h-.1Zm-.4,4.4c.2-.1.6.1.8.2l.3.2a1.2,1.2,0,0,1-.9.3h-.2C145.7,49.8,145.6,49.4,145.7,49.3Zm-2.5-.4c.1.4.1.7.2,1.1h-.5A1.7,1.7,0,0,0,143.2,48.9Zm-1-5.6h0v1.4h0Zm0,4.6c0-.1,0-.1.1-.2v1c0,.1-.1.2-.1.3V47.9Zm-.8,1.8h.1a.1.1,0,0,1-.1.1Zm-.3,2.8a9.2,9.2,0,0,1,.1-1.6,1.7,1.7,0,0,0,1-.3h.2l.5.2h.6v.3a14.4,14.4,0,0,0,.2,2.4v1a14.1,14.1,0,0,1,.1,2.1,6.6,6.6,0,0,1-.5,2.8c-.1.1-.2.4-.4.4a.6.6,0,0,1-.5-.2c-.1-.1-.1-.3-.2-.4s-.5-2.6-.8-4-.2-1.4-.3-2.2v-.7Zm-4-3.9V45.7h.4l.9.9.3.4c.4.8-.8,1.5-1.6,1.8Zm1.4,1.4a2.3,2.3,0,0,1-1-.4c-.1-.1-.2-.2-.2-.3h.1c.5-.1,1.6-.7,2-.4h0a3.6,3.6,0,0,1,.2,1Z" fill="#191919"/><path d="M161.1,80.3l-2.7,1.2a4.2,4.2,0,0,1,.4-1,.6.6,0,0,1,.1-.4h-.3a1.2,1.2,0,0,0-1,.2h0a.5.5,0,0,0-.3-.4H157a2.8,2.8,0,0,0-.9.7h0c-.3.2-.6.4-.9.3h0a15.5,15.5,0,0,1,.5-2.3h0c-.9,0-1.4.9-1.9,1.6l-1.4,1.8a15.8,15.8,0,0,1-2.2,2.3.9.9,0,0,1-.1-.5c0-.1.1-.3.1-.4l.5-.7a.7.7,0,0,0,.1-.5.6.6,0,0,0-.1-.4c-.2-.1-.5-.1-.6.1l.3-1.6h0a2.5,2.5,0,0,0-1.8.8l-3,2.5,1-1.7a1.9,1.9,0,0,0,.2-.8.4.4,0,0,0-.2-.5.6.6,0,0,0-.7.2,6.9,6.9,0,0,0-1.3,1.1,5.2,5.2,0,0,0-1.1,1h0a.7.7,0,0,0-.7-.6c-.4.1-.6.4-.9.7a2.4,2.4,0,0,1-.8.6c0-.4-.5-.6-.8-.5s-.5.4-.8.6a.5.5,0,0,1-.4.2h0l-.5.2a1.2,1.2,0,0,1-1.1-.5c-.1,0-.1-.1-.1-.2a.7.7,0,0,1-.1-.5,11.2,11.2,0,0,1,.8-2.6,26.6,26.6,0,0,0,.7-3.9,14.9,14.9,0,0,0,.2-2.1,29.8,29.8,0,0,0-.4-5.9,31.4,31.4,0,0,0-2.8-7.4c-1.1-2.4-2.4-4.7-3.5-7.1a21,21,0,0,1-1.5-4.2c-.3-1.2-.4-2.6-.8-3.8h-.1c-.1-.5-.1-.9-.2-1.4h.5a2.9,2.9,0,0,0,2.1-.9,22.5,22.5,0,0,0,2.1,1.2c.2-.2.1-.4,0-.6a5.4,5.4,0,0,0-1.5-1.5,2,2,0,0,0,.3-1.1V35.7a40.9,40.9,0,0,0,1.8-4.9,5,5,0,0,0,.2-1.2c0-.1-.1-.3-.2-.3s-.2.1-.3.2A3.5,3.5,0,0,0,134,31a10.9,10.9,0,0,1-.8,1.5V6.9h-1.3V33.4l-1.6.8V32.9c0-.9.3-1.7.3-2.7s.1-1.4-.2-1.5-.7.6-.8.8a6.1,6.1,0,0,0-.3,1.3,30.6,30.6,0,0,0-.5,3.2,1.5,1.5,0,0,1-.1.6h-.4a2.1,2.1,0,0,0,.3-1.3l-.9.9a.2.2,0,0,1-.2.2,1.1,1.1,0,0,1-.8-.8c-.2-.6,0-1.5-.2-2V6.9h-1.2V32.3c-.1,0-.1-.1-.1-.2V6.9h-1.3V30.6h-.1c-.2,0-.2.3-.2.5l.3.7v3.9h-.4a4.8,4.8,0,0,1-1.2-1.6h0c-.1-.5,0-1-.1-1.5a1.6,1.6,0,0,0-.6-.8c0-.1-.1-.2-.1-.3L120.3,29c-.2,0-.2.3-.2.6s.4,2.2.7,3.4l.3,1.4c0,.6.1,1.2.1,1.7h0l-.7-.3-2-1.1V6.9h-1.2V33.8a11.4,11.4,0,0,1-1.1-1.1,1.9,1.9,0,0,0-1.1-.9,2.7,2.7,0,0,0,.8,1.6l.9,1a1.8,1.8,0,0,0,.5.7v.3a11.3,11.3,0,0,0-3.2.5l3.2.8v4.2a2.5,2.5,0,0,0,.1.8,2.8,2.8,0,0,0-1.1.8,3.8,3.8,0,0,0,1.3-.4,2.9,2.9,0,0,0,2.6,1.7h1.6c0,.3-.1.9-.1,1.4s-.1.7-.2,1.1a13.7,13.7,0,0,1-1.9,5.1c-3.4,5.8-6.7,11.8-7.7,18.4a28.3,28.3,0,0,0-.2,2.9v.4c-.1,1.2,0,2.4,0,3.6v.6a2.8,2.8,0,0,1,.1.9v.4h0c.1,1.2.5,2.4.5,3.6v.5c-.1.6-.2,1.2-.8,1.4s-2.3-.7-2.9-1.3l-.7-.6a1,1,0,0,0-.9-.1.8.8,0,0,0-.2.5.4.4,0,0,0,.1.3,2.6,2.6,0,0,1-1.4-1.1c-.1-.2-.2-.5-.4-.5s-.3.3-.5.4-2.2-1.5-2.9-1.7h0c.1.5.1,1,.2,1.5a7.4,7.4,0,0,0-4-3.4h0a3.7,3.7,0,0,1,.1,1.1,10.7,10.7,0,0,0-1.6-1.4l-1.3-.6h0l.3,1L96,80a3.8,3.8,0,0,1-1.3-.9l-.8-.9-.4-.3-.2-.2-.6-.4-.5-.2a1.1,1.1,0,0,0-.8-.1h0l.2.3a3,3,0,0,1,.4.8l-.8-.6-1.4-.8h0a7.8,7.8,0,0,0,.5,1.4l.4.8-.8-.5-.6-.5-.6-.3-.8-.6a1.8,1.8,0,0,0-1.7-.5h0l.8,1a6.1,6.1,0,0,0,.7,1l-1.1-.8-1.4-.8h0a2,2,0,0,0,.8,1.4c.4.4.8.8.8,1.2v.2l-1.5-.8h0a.1.1,0,0,0-.1-.1h.1l2,2.8c.7.8,1.4,1.7,2.2,2.5a34.1,34.1,0,0,0,3.9,3.7,11.4,11.4,0,0,0,3.2,2.2c2.3,1.3,5.1,1.6,7.6,2.6l1.3.7c1.6.8,3.1,1.9,4.8,2.8A57.9,57.9,0,0,0,116,99l1.7.8c.8.5,1.7.9,2.5,1.5l.4.3a5.8,5.8,0,0,1,1.2,1.4l-.2.2a1.5,1.5,0,0,0,0,1.3,7,7,0,0,1,.3,1.4,1.2,1.2,0,0,1-.2,1h0c-.9.5-2,1-2.4,2h0c0-.2,1-.2,1.1-.2a14,14,0,0,0,2.9-.9v.8a7,7,0,0,1-1.9.6c-.3.1-1.3.7-1.6.4l.2.2h-.2c.4.3.6.6,1.1.7a9.9,9.9,0,0,1,1.5.3c.4.2.2.4.3.9h0c.2.6.8.9,1.1,1.4a2.2,2.2,0,0,1,.2,1.1,1.5,1.5,0,0,1-.1.7v.4l.3.2.2-.2a.9.9,0,0,1,.5-.3c.2,0,.2.2.2.4h0a1.4,1.4,0,0,0,.3.9.8.8,0,0,0,.7-.1l.5-.6c.1-.3.2-.7.5-.7s.4.3.5.5.1.5.3.6a.6.6,0,0,0,.8-.1,2,2,0,0,0,.4-.8c.1-.2.2-.6.5-.6s.3.4.5.5a.5.5,0,0,0,.6-.2,1.3,1.3,0,0,0,.1-.6v-.3c0-.2.1-.5.3-.5h.3v-.2h0V112c0-.2.1-.4.1-.6a1.4,1.4,0,0,1,.2-.7h0v-.2a2.2,2.2,0,0,0,.1-.8v-1.8c0-.3.1-.6.1-.9a7.9,7.9,0,0,1,.6-2.2c.4-1.1,1.1-2.1,1.4-3.2s0-2.1.8-3,2.9-1.9,4.6-2.4l.8-.3,1.9-.7.8-.3a47.1,47.1,0,0,0,9.5-5.5,37.5,37.5,0,0,0,5.3-4.4c1.3-1.2,3.4-2.6,3.5-4.5h0ZM131.9,40.7v.4l-.6-.6a1.1,1.1,0,0,1-.2-.6h0a1.6,1.6,0,0,1,.3-.8,4.1,4.1,0,0,1,.5-.9Zm0-6h0l-.4.6-.7.8-.3.2a.1.1,0,0,1-.1-.1v-.2h-.2Zm-2.1,7c.2-.2.8.1,1,.2l.4.3a3.4,3.4,0,0,1-1.2.4h-.3C129.7,42.3,129.6,41.9,129.8,41.7Zm-3.3-.5a6.8,6.8,0,0,1,.2,1.4h-.6A2.8,2.8,0,0,0,126.5,41.2Zm-1.3-7.3h.1a12.1,12.1,0,0,0-.1,1.9h0Zm0,5.9v1.1a.6.6,0,0,1-.1.4V39.8Zm-1,2.3a.4.4,0,0,1,.1.3h-.2A.8.8,0,0,0,124.2,42.1Zm-.3,1.7a2.9,2.9,0,0,0,1.3-.5h.2l.7.3h.8v.5c0,.7.2,2.9.2,3a6.2,6.2,0,0,1,.1,1.3,26.2,26.2,0,0,1,.1,2.8,8.9,8.9,0,0,1-.7,3.6c-.1.2-.2.5-.5.6a.9.9,0,0,1-.6-.3l-.3-.6a41.8,41.8,0,0,1-1-5.1,20.9,20.9,0,0,1-.4-2.8v-1A14.1,14.1,0,0,1,123.9,43.8Zm-5.4-3.1V37h.4c.1,0,.2,0,.2.1a5.7,5.7,0,0,1,1.1,1.1,1.2,1.2,0,0,1,.5.5c.5,1-1,1.9-2.1,2.4S118.5,40.9,118.5,40.7Zm1.9,1.9a2.6,2.6,0,0,1-1.3-.6l-.3-.3h.2c.6-.2,2-1,2.5-.6v.2a5.1,5.1,0,0,1,.2,1.3Z" fill="#7a6956"/><path d="M181.1,84.7c-1.5-.5-5,1.5-6.2,2.1-3,1.3-5.8,3.1-8.9,3.9s-8.5,2.2-12.7,2.9l-4.2.4a34.3,34.3,0,0,0-5.7.6l-.6.2-1.1.2a13.3,13.3,0,0,1-4.3-.4H137a19.4,19.4,0,0,0-4.3-1.2,112.8,112.8,0,0,0-13,0h-.9c-4.6,0-8.9,0-13.3.3a64.1,64.1,0,0,0-12.1,1.7,49.8,49.8,0,0,1-12.2.8H71.9c.5.2.3.4.3.9h0c.1.3.4.5.6.8l.6.6a4.3,4.3,0,0,1,.2,1.1c0,.3-.1.5-.1.7v.4a.2.2,0,0,0,.4,0c.2-.1.3-.3.5-.3h.2a87.2,87.2,0,0,0,.3,8.8c.2,2.3,1,4.6.8,7s-.3,2.1-1.4,2.4-3.8-1.2-4.8-2.1a5.7,5.7,0,0,0-1.1-1.1,1.5,1.5,0,0,0-1.6-.1.8.8,0,0,0,.1,1.3,4.1,4.1,0,0,1-2.5-1.9c-.1-.2-.2-.5-.4-.6h-.3c-.3,0-.5.4-.8.5s-3.6-2.4-4.9-2.7l.3,2.6a9.1,9.1,0,0,0-1.1-1.6h.4c.3-.1.3-.4.3-.8h0c0-.2.1-.4.2-.4a.9.9,0,0,1,.5.3.2.2,0,0,0,.2.2l.2-.2v-.2h0a2.3,2.3,0,0,1,.1-1.6c.3-.5.8-.8,1-1.4h0c.1-.4-.1-.7.3-.9l1.3-.2a3.3,3.3,0,0,0,1-.6h0c-.3.2-1.2-.2-1.4-.3a9.5,9.5,0,0,1-1.8-.6v-.6a.1.1,0,0,1,.1-.1,10.4,10.4,0,0,0,2.5.8c.1,0,1,0,1.1.2h0c-.4-.9-1.4-1.3-2.2-1.8h0a1,1,0,0,1-.2-.9,5.3,5.3,0,0,1,.3-1.2,1.6,1.6,0,0,0-.1-1.2v-.2A4.7,4.7,0,0,1,62,99.4a20.2,20.2,0,0,1,4.1-2.2L69,95.9c-6.7-.5-13.3.6-20,.4l.4.4c.6.8.4,1.7.7,2.7a16.9,16.9,0,0,0,1.2,2.8,6.7,6.7,0,0,1,.6,2.8v1.6a1.7,1.7,0,0,0,.1.7v.3h.1c0,.2.1.4.1.6a1.1,1.1,0,0,1,.1.5v.4l-.5-.2v2a11.6,11.6,0,0,0-4.7-3.2,14.3,14.3,0,0,0,1.5,3.9c-1.4-.5-2.5-1.8-3.6-2.9s-2.5-2.2-4.1-2.2l1.2,2a26.5,26.5,0,0,0-3.9-2.3,14.9,14.9,0,0,0,1.7,3.9L35,106.8a5,5,0,0,0-2.1-1H33l1.2-.2c.4-.1.6-.4.9-.6h0c-.2.2-1.1-.2-1.3-.3a4.9,4.9,0,0,1-1.7-.6h0v-.6a6.8,6.8,0,0,0,2.4.8l1,.2h0a4.2,4.2,0,0,0-2.1-1.6l-.2-.2h.2a2,2,0,0,1-.2-.9l.3-1.1a1.4,1.4,0,0,0,0-1.1l-.2-.2a6.9,6.9,0,0,1,1-1.2,19,19,0,0,1,4-2.1,34.9,34.9,0,0,1,3.4-1.5c-.5-.3-.9-.7-1.5-1-2.8-1.7-6.9-1-10-.4a26.7,26.7,0,0,1-4.7.7c-1.2,0-3.1-.4-4.2,0l-.6.4a3.7,3.7,0,0,1,1.7,1.3c.6.8.4,1.6.7,2.5a21.8,21.8,0,0,0,1.1,2.7,6.6,6.6,0,0,1,.6,2.7v1.5a1.7,1.7,0,0,0,.1.7v.2h0l.2.6V108h.1v.2h.2c.2,0,.3.2.3.4h0v.2a.6.6,0,0,0,.1.4.4.4,0,0,0,.5.2l.4-.4c.2,0,.4.3.4.6l.3.6a.6.6,0,0,0,.7.1c.2-.1.2-.3.3-.5s.2-.4.4-.4.4.3.5.5l.3.6a.6.6,0,0,0,.6,0c.3-.1.3-.4.3-.7a86.6,86.6,0,0,0,8.7,10.5,44,44,0,0,0,5,4.6,27.3,27.3,0,0,0,5.2,3.7c3.9,2,8.5,2.5,12.6,4.3s6.7,4,10.2,5.8l1.3.6h0a86.2,86.2,0,0,0,17.6.8c10.3-.3,20.8-2,31-3.4l3.3-.5h0l1.6-.7,1.7-.7,3.3-1.7,1.3-.7,1.3-.7.9-.5,1.5-.9.9-.5,1.2-.9,1.2-.7,2-1.5a68.2,68.2,0,0,0,8.8-7.3c2.1-2.1,5.4-4.2,5.8-7.3h0c.1-.2.2-.5.5-.5s.3.2.4.4.1.4.3.5a.5.5,0,0,0,.7-.1,3.3,3.3,0,0,0,.3-.6c0-.3.2-.6.4-.5s.3.2.4.3a.4.4,0,0,0,.5-.1.9.9,0,0,0,.1-.5V111h0c0-.2.1-.4.3-.4h.2v-.2h0a.4.4,0,0,0,.1-.3h0c0-.3-.1-.5-.1-.7s.1-.4.1-.6.1-.4.2-.6h0v-.2a1.7,1.7,0,0,0,.1-.7v-1.5a6.6,6.6,0,0,1,.6-2.7,21.8,21.8,0,0,0,1.1-2.7c.3-.9.1-1.7.7-2.5s3.1-1.7,4.6-2.3a41.5,41.5,0,0,0,10.4-5.5,27.9,27.9,0,0,0,4.2-3.5A9.3,9.3,0,0,0,181.1,84.7Zm-49.6,26.7a1.4,1.4,0,0,1,.2-.7h0v-.2a2.2,2.2,0,0,0,.1-.8v-1.8c0-.3.1-.6.1-.9a7.9,7.9,0,0,1,.6-2.2c.4-1.1,1.1-2.1,1.4-3.2s0-2.1.8-3,2.9-1.9,4.6-2.4c.1.2.2.3.2.5h0a1.2,1.2,0,0,0-.1,1l.3,1.1a3.1,3.1,0,0,1-.2.8h0c-.7.4-1.6.8-1.9,1.5h.1c-.1,0-.1,0-.1.1l.9-.2a8.1,8.1,0,0,0,2.2-.7.3.3,0,0,0,.1.2.4.4,0,0,1-.1.3h0a3.8,3.8,0,0,1-1.5.5c-.2.1-.9.5-1.2.3h0a2.6,2.6,0,0,0,.9.5l1.1.2c.3.2.2.4.3.7h0c.1.5.6.7.8,1.1a1.5,1.5,0,0,1,.2.9.7.7,0,0,1-.1.5v.2h0l.2.2.2-.2.3-.3c.2,0,.2.2.2.4h0v.2a.8.8,0,0,0,.3.7.4.4,0,0,0,.5-.1.5.5,0,0,0,.3-.4c.1-.3.2-.6.5-.6a.4.4,0,0,1,.3.4c.1.2.1.4.3.5a.5.5,0,0,0,.6-.1.9.9,0,0,0,.3-.6c.1-.2.2-.5.4-.5s.2.3.4.4.3,0,.4-.2.1-.2.1-.4v-.2h0c0-.2.1-.4.2-.4h.2c0-.1,0-.1.1-.1h0v-.2h0V103c.1-.2.1-.4.2-.5h0a2,2,0,0,0,.1-.7v-1.4a5.9,5.9,0,0,1,.5-2.3h.2a19,19,0,0,1,4,2.1,6.2,6.2,0,0,1,.9,1.2c0,.1,0,.1-.1.2a1.4,1.4,0,0,0,0,1.1l.3,1.2a1.9,1.9,0,0,1-.2.8h.2l-.2.2a3.9,3.9,0,0,0-2.1,1.7c0-.1,0-.1.1-.1a.1.1,0,0,0-.1.1l1-.2a9.5,9.5,0,0,0,2.4-.7h.1v.4h-.1c-.4.4-1.1.4-1.6.6s-1.1.5-1.3.3v.2h-.1c.3.2.5.5.9.6l1.2.2c.4.2.3.4.3.8h0c.2.5.7.8,1,1.2v.3a1.5,1.5,0,0,1,.1.7,1.3,1.3,0,0,0-.1.6h0v.2h.4c.1-.1.2-.3.4-.3s.2.2.2.4h0v.5a1.8,1.8,0,0,1-1.6-.5l-.3-.5a2,2,0,0,1-.7-.6l-2,1c.1-.4-.5-1-1-.9s-1,.6-1.5,1a1.3,1.3,0,0,1-1.6.6,19.5,19.5,0,0,1,1-4c-1.5,0-2.5,1.5-3.3,2.7a35.3,35.3,0,0,1-6,6.8,2.2,2.2,0,0,1,.1-1.6,12.5,12.5,0,0,1,.8-1.2,1.2,1.2,0,0,0-.1-1.3.6.6,0,0,0-.9.1h0c.2-.8.3-1.7.5-2.6a4.4,4.4,0,0,0-3,1.4l-5.2,4.1,1.8-3c.4-.7.7-1.8,0-2s-.8.1-1.2.3l-.2.2V112C131.4,111.8,131.5,111.6,131.5,111.4Zm-9.7-8.4-.2.2a1.5,1.5,0,0,0,0,1.3,7,7,0,0,1,.3,1.4,1.2,1.2,0,0,1-.2,1h0c-.9.5-2,1-2.4,2h0c0-.2,1-.2,1.1-.2a14,14,0,0,0,2.9-.9v.8a7,7,0,0,1-1.9.6c-.3.1-1.3.7-1.6.4l.2.2h-.2c.4.3.6.6,1.1.7a9.9,9.9,0,0,1,1.5.3c.4.2.2.4.3.9h0c.2.6.8.9,1.1,1.4a2.2,2.2,0,0,1,.2,1.1,1.5,1.5,0,0,1-.1.7v.4l.3.2.2-.2a.9.9,0,0,1,.5-.3c.2,0,.2.2.2.4h0a2.2,2.2,0,0,1-1.5,1c.1-.5-.7-.9-1.2-.7a5,5,0,0,0-1.4,1,2.7,2.7,0,0,1-1.5.5,2.2,2.2,0,0,1-1.9-.6c-1.1-1.4.6-4.3,1-5.7a36.7,36.7,0,0,0,1.3-6.6c.2-1.1.2-2.2.3-3.3l.4.3A5.8,5.8,0,0,1,121.8,103Z" fill="#7a6956" opacity="0.1"/><path d="M157,112.3h0c-.4,3.1-3.7,5.2-5.8,7.3a68.2,68.2,0,0,1-8.8,7.3l-2,1.5-1.2.7-1.2.9-.9.5-1.5.9-.9.5-1.3.7-1.3.7-3.3,1.7-1.7.7-1.6.7-1.4.6-2.2.8c-2.9,1.1-6.9,1.7-8.9,4.4s-.9,3.2-1.3,5-1.6,3.5-2.3,5.3a15.2,15.2,0,0,0-1.2,5.9,22.6,22.6,0,0,1-.1,3.7c0,.1-.1.2-.1.4l-.3,1.2c-.1.3-.1.6-.2,1s.1.3.1.5v1.6h0v.5a.3.3,0,0,0-.1.2H107c-.4.1-.5.6-.5,1h0v.7h0v.2a.8.8,0,0,1-.2.4.8.8,0,0,1-1,.3c-.3-.2-.4-.6-.8-.7s-.7.5-.8,1a2.6,2.6,0,0,1-.6,1.3,1.2,1.2,0,0,1-1.4.1,1.6,1.6,0,0,1-.5-1c-.2-.4-.4-.7-.8-.7s-.8.6-.9,1.1a3.1,3.1,0,0,1-.7.9,1.1,1.1,0,0,1-1.2.2l-.2-.2c-.1-.1-.1-.1-.1-.2h-.1v-.5c0-.1-.1-.2-.1-.4h0v-.5h0c0-.1-.1-.2-.1-.3h-.4c-.3,0-.6.4-.8.7l-.3.2c-.2,0-.4-.1-.4-.3v-.3h0V170c0-.4.1-.8.1-1.3v-.3a3.3,3.3,0,0,0-.3-1.5c-.5-.9-1.6-1.5-1.9-2.5h0c-.1-.5,0-.9-.1-1.2a.7.7,0,0,0-.5-.4,20,20,0,0,0-2.4-.4,6.7,6.7,0,0,1-1.8-1.1c.5.3,2.1-.6,2.6-.7a13.1,13.1,0,0,0,3.3-1.2h.1a.2.2,0,0,0,0-.3v-.2a2.4,2.4,0,0,0-.2-.8,19.4,19.4,0,0,1-4.8,1.6c-.2,0-1.8.1-1.9.3.7-1.6,2.5-2.4,4.1-3.3l.6-.5h0a2.6,2.6,0,0,0,.6-1.3,7.7,7.7,0,0,0-1.1-4.8,7.6,7.6,0,0,0-2-2.5,43.2,43.2,0,0,0-7.6-4.2l-1.2-.5-4-1.7-2.1-.9-1-.5h0l-1.3-.6c-3.5-1.8-6.6-4.3-10.2-5.8s-8.7-2.3-12.6-4.3a27.3,27.3,0,0,1-5.2-3.7,44,44,0,0,1-5-4.6,86.6,86.6,0,0,1-8.7-10.5h0l2.5,1.4c.3-1.1-.7-1.9-1.6-2.7a2.7,2.7,0,0,1-.9-2l1.4.9,2.8,2-2.1-3h0l-.5-.6.7-.2a5,5,0,0,1,2.1,1l4.9,3.3a14.9,14.9,0,0,1-1.7-3.9,26.5,26.5,0,0,1,3.9,2.3l-1.2-2c1.6,0,3,1.1,4.1,2.2s2.2,2.4,3.6,2.9a14.3,14.3,0,0,1-1.5-3.9,11.6,11.6,0,0,1,4.7,3.2v-2l.5.2a14.6,14.6,0,0,1,3.8,2.7l.5.5h0a2,2,0,0,1,.6.7,9.1,9.1,0,0,1,1.1,1.6L58,112c1.3.3,4.1,3.2,4.9,2.7s.5-.5.8-.5H64c.2.1.3.4.4.6a4.1,4.1,0,0,0,2.5,1.9.8.8,0,0,1-.1-1.3,1.5,1.5,0,0,1,1.6.1,5.7,5.7,0,0,1,1.1,1.1c1,.9,3.4,2.6,4.8,2.1s1.3-1.4,1.4-2.4-.6-4.7-.8-7a87.2,87.2,0,0,1-.3-8.8c0-1.1.1-2.1.2-3.2a4.9,4.9,0,0,1,.1-1.2,5.9,5.9,0,0,1,.2-1.4,20,20,0,0,1,.4-2.4,58.5,58.5,0,0,1,3.3-10.8,143.2,143.2,0,0,1,9-17.4.1.1,0,0,0,.1-.1,28.6,28.6,0,0,0,3.2-8.7h0c.2-1.4.3-2.8.4-4.3h0v-.6h0v-.4a10.8,10.8,0,0,0,0-1.8l.3.5c.3.4,1,.3,1-.2a4.4,4.4,0,0,1-.2-1,.5.5,0,0,0,.5-.5c-.1-.5-.1-.9-.2-1.4l.4.5c.3.2.8.2.8-.2a4.9,4.9,0,0,0,0-1.7,26.7,26.7,0,0,1,.9,2.6c.2.6,1.1.4.9-.2l-.3-1.1.5.9h.1a.1.1,0,0,0-.1.1,18.9,18.9,0,0,0-.9,3.4h0a10.1,10.1,0,0,0-.3,2.5h0c-.1,1-.1,2-.1,3a37.1,37.1,0,0,0,.6,5.3c.4,1.5.6,3.1.9,4.6a.7.7,0,0,0,.1.5,5,5,0,0,0,.2,1.2,18.7,18.7,0,0,0,.7,2.2,3,3,0,0,0,.4,1,1.1,1.1,0,0,0,1,.4c.5-.1.7-.6.9-1l.3-.7a13.6,13.6,0,0,0,.4-1.7h0a32.4,32.4,0,0,0,.3-8.2,9.6,9.6,0,0,1,0-2.4,6.1,6.1,0,0,1,.8-2.6c.8-1.4,2.2-.9,2.8.3a25.6,25.6,0,0,1,1.1,2.4,19.6,19.6,0,0,1,1.2,3.4,33.9,33.9,0,0,0,1.7,5.1l.2.3.3.8.3.8a3.6,3.6,0,0,1,.4.9c.7,1.6,1.5,3.1,2.3,4.6s1.3,2.7,2,4a67.3,67.3,0,0,1,3.8,8.2,28.6,28.6,0,0,1,1.9,6.5,10.8,10.8,0,0,1,.3,1.9,31.2,31.2,0,0,1,.5,4.4h0v3.5c-.1,1.1-.1,2.2-.3,3.3a36.7,36.7,0,0,1-1.3,6.6c-.4,1.4-2.1,4.3-1,5.7a2.2,2.2,0,0,0,1.9.6,2.7,2.7,0,0,0,1.5-.5,5,5,0,0,1,1.4-1c.5-.2,1.3.2,1.2.7a2.2,2.2,0,0,0,1.5-1h0a2.3,2.3,0,0,1,1.4-1c.6-.1,1.3.4,1.2.9a29.1,29.1,0,0,1,3.7-3.3l.2-.2c.4-.2.8-.5,1.2-.3s.4,1.3,0,2l-1.8,3,5.2-4.1a4.4,4.4,0,0,1,3-1.4c-.2.9-.3,1.8-.5,2.6h0a.6.6,0,0,1,.9-.1,1.2,1.2,0,0,1,.1,1.3,12.5,12.5,0,0,0-.8,1.2,2.2,2.2,0,0,0-.1,1.6,35.3,35.3,0,0,0,6-6.8c.8-1.2,1.8-2.7,3.3-2.7a19.5,19.5,0,0,0-1,4,1.3,1.3,0,0,0,1.6-.6c.5-.4.9-.9,1.5-1s1.1.5,1,.9v.2a2,2,0,0,1,2.2-.4l-.9,2.5,3.4-1.6.9-.3h.3Z" fill="#fff"/><path d="M157,112.3h0c-.4,3.1-3.7,5.2-5.8,7.3a68.2,68.2,0,0,1-8.8,7.3l-2,1.5-1.2.7-1.2.9-.9.5-1.5.9-.9.5-1.3.7-1.3.7-3.3,1.7-1.7.7-1.6.7h0l-1.4.6-2.2.8c-2.9,1.1-6.9,1.7-8.9,4.4s-.9,3.2-1.3,5-1.6,3.5-2.3,5.3a15.2,15.2,0,0,0-1.2,5.9,22.6,22.6,0,0,1-.1,3.7c0,.1-.1.2-.1.4l-.3,1.2c-.1.3-.1.6-.2,1s.1.3.1.5v1.5h0v.5a.3.3,0,0,0-.1.2H107c-.4.1-.5.6-.5,1h0v.7h0v.2a.8.8,0,0,1-.2.4.8.8,0,0,1-1,.3c-.3-.2-.4-.6-.8-.7s-.7.5-.8,1a2.6,2.6,0,0,1-.6,1.3,1.2,1.2,0,0,1-1.4.1,1.6,1.6,0,0,1-.5-1c-.2-.4-.4-.7-.8-.7s-.8.6-.9,1.1a3.1,3.1,0,0,1-.7.9,1.1,1.1,0,0,1-1.2.2l-.2-.2c-.1-.1-.1-.1-.1-.2h-.1v-.5c0-.1-.1-.2-.1-.4h0c0-.2.1-.3.1-.4h0c0-.1-.1-.2-.1-.3h-.4c-.3,0-.6.4-.8.7l-.3.2c-.2,0-.4-.1-.4-.3v-.3h0v-.3c0-.4.1-.8.1-1.2v-.3a3.3,3.3,0,0,0-.3-1.5c-.5-.9-1.6-1.5-1.9-2.5h0c-.1-.5,0-.9-.1-1.2a.7.7,0,0,0-.5-.4,20,20,0,0,0-2.4-.4,6.7,6.7,0,0,1-1.8-1.1c.5.3,2.1-.6,2.6-.7a13.1,13.1,0,0,0,3.3-1.2h.1v-.6a2.4,2.4,0,0,0-.2-.8,19.4,19.4,0,0,1-4.8,1.6c-.2,0-1.8.1-1.9.3.7-1.6,2.5-2.4,4.1-3.3l.6-.5h0a2.6,2.6,0,0,0,.6-1.3,7.7,7.7,0,0,0-1.1-4.8,7.6,7.6,0,0,0-2-2.5,43.2,43.2,0,0,0-7.6-4.2l-1.2-.5-4-1.7-2.1-.9-1-.5h0l-1.3-.6c-3.5-1.8-6.6-4.3-10.2-5.8s-8.7-2.3-12.6-4.3a27.3,27.3,0,0,1-5.2-3.7,44,44,0,0,1-5-4.6l2.2,1.4c3.4,2.2,8.2,5.9,12.2,7s6.1.8,8.8.8,3.3-.5,5-.6c3.5-.3,3.3.9,6,2.7,6.3,4.3,18-.4,24.8-.4s13.9,1.8,18.6-1.8,12.9-5,19.5-7.9,9.9-7.1,14.8-9.9l2-1a2,2,0,0,0,.7.6l.3.5a1.8,1.8,0,0,0,1.6.5l.7-.2h.5Z" fill="#7a6956" opacity="0.1"/><path d="M92,42.8h.1a2.5,2.5,0,0,1,1.1,1.4,4.9,4.9,0,0,1,.1-1.7,2.8,2.8,0,0,0-1.3.3Z" fill="#fff"/><path d="M98.4,0V46.3a3.9,3.9,0,0,1-3.9,3.8H88.9A3.9,3.9,0,0,1,85,46.3V0" fill="none" stroke="#7b7266" stroke-miterlimit="10" stroke-width="2.06"/><path d="M109.4,0V46.3a3.8,3.8,0,0,1-3.8,3.8H99.9a3.8,3.8,0,0,1-3.8-3.8V0" fill="none" stroke="#7b7266" stroke-miterlimit="10" stroke-width="2.06"/><path d="M96.6,159.5a2.1,2.1,0,0,1,1,.6l.8.6a10.5,10.5,0,0,1,1.4,1.7l-.9-.6-.8-.7Z" fill="#191919"/><path d="M96.6,162.9a17.6,17.6,0,0,1,1.4-2.3l.9-1.1.9-1a5.2,5.2,0,0,1-.6,1.3,7.6,7.6,0,0,1-.8,1.1A11.2,11.2,0,0,1,96.6,162.9Z" fill="#191919"/><path d="M92.9,162.5a8.9,8.9,0,0,0,.8-1.7,11.6,11.6,0,0,0,.4-1.8v-1.9a4.9,4.9,0,0,0-.6-1.7,4.5,4.5,0,0,1,.8,1.7,12.1,12.1,0,0,1,0,1.9,5.8,5.8,0,0,1-.4,1.9A8.6,8.6,0,0,1,92.9,162.5Z" fill="#191919"/><path d="M107.6,165.3v1.5h0c-.1,0-.1.1-.1.2v.2c0,.1,0,.2-.1.2H107c-.4,0-.5.6-.5,1.1h0v.5a1,1,0,0,1-.2.7.8.8,0,0,1-1,.3c-.3-.2-.4-.7-.8-.7s-.7.5-.8,1a2.7,2.7,0,0,1-.6,1.2,1.1,1.1,0,0,1-1.4.2c-.3-.2-.4-.7-.5-1s-.4-.8-.8-.8-.8.6-.9,1.1a2.6,2.6,0,0,1-.7,1,1.1,1.1,0,0,1-1.2.2,2,2,0,0,1-.6-1.3h0c0-.2.1-.3.1-.4h0c0-.4-.1-.8-.5-.8s-.6.4-.8.6l-.3.3c-.2,0-.4-.1-.4-.3v-.2h0v-.3c0-.4.1-.8.1-1.2v-1l-.3-.9c-.5-1-1.6-1.5-1.9-2.5l.5.4a19.2,19.2,0,0,0,3.1,1.8,9.4,9.4,0,0,0,6.2-.1,16,16,0,0,0,4.9-2.8c-.1.4-.1.7-.2,1.1h0C107.5,165,107.6,165.1,107.6,165.3Z" fill="#fc9e8c"/><path d="M107.5,43.2a2.5,2.5,0,0,0-.6,1.4h0a3.1,3.1,0,0,0,.5,1c1.5,1.9,3.9,2.9,5,5,.2.3.4.6.2.9-2.3-.8-4.1-2.5-6.2-3.6-.3-.2-1.2-.6-1.5-.3a.2.2,0,0,0-.2.2,4.8,4.8,0,0,0,0,1.2c0,1,0,2,.1,3l.3,1.4c.2.9.1,2.6.9,3.2s-1.1.4-1.1.2-.2-1.2-.8-1.1-.2.7-.7.6-.5-1.8-1.2-1.4-.5,1.5-1,1.8-1.2-2.1-1.2-3.9V51.6c.1-1.2.2-2.5.4-3.8v-1a10.1,10.1,0,0,0-.2-3,30.5,30.5,0,0,0-4.5-11.6,11.3,11.3,0,0,1-1.2-2.1c-.1-.4,0-.9.4-.9s.3.1.4.3a33.2,33.2,0,0,1,3.2,4.2l1.4,2.2a13.7,13.7,0,0,0,1.3,2c1.7,1.5,1.9-2.3,2-3.1s.4-3.6.8-5.3a8,8,0,0,1,.5-2.1c.2-.4.9-1.6,1.4-1.4s.3,2.2.3,2.5-.6,3.1-.6,4.6,0,3.4.1,5.1.1.6.3.6l.4-.2,1.3-1.5a14.1,14.1,0,0,0,1.9-3.4,21.6,21.6,0,0,0,2.2-3.9,7.2,7.2,0,0,1,1.2-2.5c.1-.1.2-.3.4-.3a.7.7,0,0,1,.4.5,6.5,6.5,0,0,1-.2,2A60.3,60.3,0,0,1,107.5,43.2Z" fill="#eca414"/><path d="M101.5,37.5a39.7,39.7,0,0,0-2.8,3,13.3,13.3,0,0,0-1.6,3.4c0,.1-.1.3-.1.4s-.9,2.1-1.2,3.2-.1.3-.2.4a21.3,21.3,0,0,0-.7,4.4v.2c-.1.8.5,2.6-.1,3.2s-.4-.1-.8-.1-.4.5-1.1-.3-.5.1-1.3.9-.6-2.1-.3-3.6.2-1.3.2-1.6a12.2,12.2,0,0,0-.1-3.3c-.1-.2-.1-.5-.2-.7a.4.4,0,0,0-.1-.3c-.9-.7-3.2.6-4.2.9l-1.9.5a8.6,8.6,0,0,1-2.7.9,6.2,6.2,0,0,1,2.8-1.7c1.4-.6,5.7-2.3,4.5-4.5a2.8,2.8,0,0,0-.7-.9,69.8,69.8,0,0,1-5.8-6.3l-1.5-1.8a4.9,4.9,0,0,1-1.3-2.7,4,4,0,0,1,1.9,1.5A21,21,0,0,0,90,38.3c.2.1.5.2.7,0s-.1-1.7-.2-2.3a24.6,24.6,0,0,1-.7-2.9c-.4-1.9-.8-3.8-1.1-5.7-.1-.3-.1-.9.3-1,.7,1.4,1.3,2.8,2,4.1s.8,2.9,1.4,4.3,2.3,3.5,4.3,3.3a9.5,9.5,0,0,0,2.1-.9l1.5-.8,1.1-1,1.5-1.6A5.7,5.7,0,0,1,101.5,37.5Z" fill="#eca414"/><path d="M95.8,47.5c-.1.1-.1.3-.2.4a21.3,21.3,0,0,0-.7,4.4H92.6l-1.3.2c.1-.7.2-1.3.2-1.6a12.2,12.2,0,0,0-.1-3.3h.4a15,15,0,0,1,3.7-.3Z" fill="#5b3321" opacity="0.2"/><path d="M100,52.9h.2a7.2,7.2,0,0,1,2.1-.5l2.4-.2h.1c-.1-1-.1-2-.1-3a4.8,4.8,0,0,1,0-1.2h-2.2l-2.1-.2Z" fill="#5b3321" opacity="0.2"/><path d="M97.9,47.8a3.5,3.5,0,0,1-3.5,2.3c-3.5.3-9.1.8-9.4-4V42" fill="none" stroke="#7b7266" stroke-miterlimit="10" stroke-width="2.06"/><path d="M109.4,45.9a3.9,3.9,0,0,1-4.2,4.2c-2,.1-5.3.6-7.1-.4" fill="none" stroke="#7b7266" stroke-miterlimit="10" stroke-width="2.06"/><g clip-path="url(#a)"><path d="M102.5,112h-.1c.1-.1-.1-.2,0-.2S102.5,111.9,102.5,112Z" fill="#7a6956" opacity="0.5"/><path d="M95.8,100.2h-.2c-.2-.1-.1-.4-.1-.5s.1-.3.3-.2S95.9,100,95.8,100.2Z" fill="#7a6956" opacity="0.5"/><path d="M103.1,114.5c.1.6-.4.9-.9,1.2s-.8,0-1-.2-.7-.6-.1-.9.1-.6.3-.8a1.2,1.2,0,0,1,.8-.2c.2.1.3.3.6.3S102.8,114.5,103.1,114.5Z" fill="#7a6956" opacity="0.5"/><path d="M102.5,114.3c-.2,0,0-.2,0-.2S102.3,114.2,102.5,114.3Z" fill="#7a6956" opacity="0.5"/><path d="M102.3,114.3c-.3-.3-.4.1-.6.1s.1,0,.2.2-.2-.2-.3.1.1.2.3.1-.6,0-.6.1.1-.2.3-.3-.2-.2-.2-.3.2,0,.3-.3v.2h.1c.1,0,0,0,0,.1s.2-.2.2-.3,0,.2.2.2.1-.1.2-.1Z" fill="#7a6956" opacity="0.5"/><path d="M102.3,114.4h.2c-.2.2.2.2-.1.3s.2.3.4.2l-.2.2c-.1-.1,0-.1,0-.1s-.2.2-.1.3h-.3c-.1,0,.2.1.1-.1s-.1.3-.2.4-.4-.4-.6-.2l.4-.4c.2.1-.2.3.1.3h.1c0-.1.2-.1.2-.3s-.2-.1-.4-.2.5-.1.5-.3S102.2,114.3,102.3,114.4Z" fill="#7a6956" opacity="0.5"/><path d="M102.6,114.8h0Z" fill="#7a6956" opacity="0.5"/><polygon points="101.6 114.5 101.7 114.3 101.7 114.3 101.6 114.5" fill="#7a6956" opacity="0.5"/><path d="M91.9,101.4v0Z" fill="#7a6956" opacity="0.5"/><path d="M101.4,114.5c-.4,0,.2.1-.1.2s-.3-.1,0-.3Z" fill="#7a6956" opacity="0.5"/><path d="M91.5,102.7c-.1.1-.4-.1-.3-.2S91.6,102.5,91.5,102.7Z" fill="#7a6956" opacity="0.5"/><path d="M88.7,100.8c-.1,0-.3-.1-.3-.2S88.7,100.7,88.7,100.8Z" fill="#7a6956" opacity="0.5"/><path d="M100.3,119.5c.3.2,0,.4.1.6s0,.7-.5.9-.6-.2-1,.2-1.2-.5-1.1-1.3.6-.5.2-.9h.5c.1-.1.1-.3.2-.4s.6.3.7,0,.3.3.6.2S100.6,119,100.3,119.5Z" fill="#7a6956" opacity="0.5"/><rect x="99.6" y="119.2" width="0.1" height="0.03" transform="translate(-51.9 84.9) rotate(-37.4)" fill="#7a6956" opacity="0.5"/><path d="M99.4,119.2c-.1.3-.1-.1-.3.1s-.2-.1-.1-.3.1.2.2.2h.2Z" fill="#7a6956" opacity="0.5"/><polygon points="99.7 119.8 99.7 119.6 99.8 119.7 99.7 119.8" fill="#7a6956" opacity="0.5"/><path d="M99.8,120.3h0Z" fill="#7a6956" opacity="0.5"/><polygon points="98.8 119.3 99 119.4 98.8 119.3 98.8 119.3" fill="#7a6956" opacity="0.5"/><polygon points="98.7 119.6 98.8 119.5 98.8 119.6 98.7 119.6" fill="#7a6956" opacity="0.5"/><path d="M98.6,119.6h0Z" fill="#7a6956" opacity="0.5"/><path d="M98.9,120.1h0Z" fill="#7a6956" opacity="0.5"/><path d="M98.7,120.2h0Z" fill="#7a6956" opacity="0.5"/><path d="M91.5,119.6c-.1-.1-.4-.1-.3-.3a.2.2,0,0,1,.4-.1C91.7,119.3,91.7,119.6,91.5,119.6Z" fill="#7a6956" opacity="0.5"/><path d="M96.6,116.3a.5.5,0,0,1-.6.4c-.2,0-.3-.3-.6-.2s-.1-.3-.1-.4.1-.5.3-.6.8-.2.9.1A.9.9,0,0,1,96.6,116.3Z" fill="#7a6956" opacity="0.5"/><path d="M96,115.8a.2.2,0,0,1,0-.3c.1.3.3,0,.4.2Z" fill="#7a6956" opacity="0.5"/><path d="M96.3,115.9h0Z" fill="#7a6956" opacity="0.5"/><path d="M96,116.5h0c.1,0,.2-.2.3-.1S96.2,116.8,96,116.5Z" fill="#7a6956" opacity="0.5"/><path d="M95.6,116.1s.4,0,.4.2-.2.2-.5.1h.2c-.3,0-.1-.3-.2-.4h.1a.1.1,0,0,0,.1-.1h.1C96,115.9,95.6,115.9,95.6,116.1Z" fill="#7a6956" opacity="0.5"/><path d="M95.6,115.7h-.1c.1.1.2,0,.2.1Z" fill="#7a6956" opacity="0.5"/><path d="M131.6,106.8h-.1c.3-.1-.1-.3,0-.4S131.8,106.7,131.6,106.8Z" fill="#7a6956" opacity="0.5"/><path d="M126.4,83.8H126c-.3-.3.1-.6.1-.8s.3-.5.6-.2A.7.7,0,0,1,126.4,83.8Z" fill="#7a6956" opacity="0.5"/><path d="M131.4,111.2c-.2,1.2-1.1,1.3-2.1,1.6s-1.3-.4-1.6-.8-.8-1.4.2-1.6.5-.8.9-1.1a1.8,1.8,0,0,1,1.6.1c.2.3.3.6.8.7S130.8,111.1,131.4,111.2Z" fill="#7a6956" opacity="0.5"/><path d="M130.5,110.7c-.3-.2,0-.4.2-.4S130.3,110.4,130.5,110.7Z" fill="#7a6956" opacity="0.5"/><path d="M130.1,110.5c-.2-.6-.6,0-1.1,0s.3.1.4.4-.3-.5-.6-.1.1.5.4.3-.9-.3-1.1,0,.4-.3.7-.5-.2-.3-.2-.5.5.1.7-.3a.4.4,0,0,0-.1.3h.2c.4.4.4-.2.5-.4s-.1.3.1.5.3-.1.4-.1Z" fill="#7a6956" opacity="0.5"/><path d="M130.1,110.8h.3c-.4.2.2.5-.3.4s.2.6.5.6l-.4.2v-.2c-.2-.1-.4.4-.2.5l-.6-.3c-.1,0,.3.2.3-.1s-.4.4-.6.5-.5-.8-1-.5l.9-.5c.4.2-.3.4.1.5l.2-.2h-.1c.2-.2.6-.1.6-.5s-.2-.2-.5-.4.8,0,.9-.4S130,110.5,130.1,110.8Z" fill="#7a6956" opacity="0.5"/><path d="M130.4,111.6h0Z" fill="#7a6956" opacity="0.5"/><polygon points="128.8 110.4 129.2 110.2 129.2 110.3 128.8 110.4" fill="#7a6956" opacity="0.5"/><path d="M119.2,84l-.2.3Z" fill="#7a6956" opacity="0.5"/><path d="M128.5,110.5c-.5-.3.4.3-.3.3s-.4-.5.2-.5Z" fill="#7a6956" opacity="0.5"/><path d="M118,85.8c-.2.2-.7-.3-.3-.4S118.3,85.5,118,85.8Z" fill="#7a6956" opacity="0.5"/><path d="M114.3,81.3c-.2,0-.4-.3-.4-.5S114.4,81.1,114.3,81.3Z" fill="#7a6956" opacity="0.5"/><path d="M124.3,118.3c.3.3-.3.6-.1.9s-.4,1.3-1.3,1.3-1-.7-1.9-.2-1.6-1.4-1-2.7,1.1-.4.7-1.3a1.1,1.1,0,0,0,.8.2c.2-.1.3-.6.5-.5s.8.7,1.2.3.4.6.8.6S124.9,117.6,124.3,118.3Z" fill="#7a6956" opacity="0.5"/><rect x="123.2" y="117.5" width="0.2" height="0.04" transform="translate(-33.5 51) rotate(-20.6)" fill="#7a6956" opacity="0.5"/><path d="M122.8,117.2c-.3.6-.1-.2-.5,0s-.2-.1.1-.4-.1.2.1.4h.5l-.2.2Z" fill="#7a6956" opacity="0.5"/><polygon points="123.2 118.4 123.2 118.1 123.3 118.3 123.2 118.4" fill="#7a6956" opacity="0.5"/><path d="M123,119.3c-.1,0-.1-.1,0-.2Z" fill="#7a6956" opacity="0.5"/><polygon points="121.9 117 122 117.3 121.8 117.2 121.9 117" fill="#7a6956" opacity="0.5"/><polygon points="121.5 117.6 121.7 117.4 121.6 117.6 121.5 117.6" fill="#7a6956" opacity="0.5"/><path d="M121.3,117.5v0Z" fill="#7a6956" opacity="0.5"/><path d="M121.6,118.5h0Z" fill="#7a6956" opacity="0.5"/><path d="M121.2,118.5l-.2.2Z" fill="#7a6956" opacity="0.5"/><path d="M109.6,114c-.2-.2-.7-.4-.4-.7a.4.4,0,0,1,.7.1C110,113.6,109.9,114,109.6,114Z" fill="#7a6956" opacity="0.5"/><path d="M119.7,111.1c-.4.3-.7.5-1.2.3s-.4-.6-.9-.5-.1-.6,0-.9.4-.8.9-.8,1.3.1,1.4.7S119.8,110.7,119.7,111.1Z" fill="#7a6956" opacity="0.5"/><path d="M118.9,109.9c-.2-.2,0-.4.2-.4s.5,0,.5.4A.6.6,0,0,1,118.9,109.9Z" fill="#7a6956" opacity="0.5"/><path d="M119.4,110.2h0Z" fill="#7a6956" opacity="0.5"/><path d="M118.7,111.1v-.2h.5C119.1,110.9,118.9,111.6,118.7,111.1Z" fill="#7a6956" opacity="0.5"/><path d="M118,110.2c.1-.1.8.1.7.5s-.5.3-.8,0h.3c-.6-.1-.1-.6-.1-.8h0c.2,0,.3,0,.4-.2h.1C118.8,110.1,118.3,109.9,118,110.2Z" fill="#7a6956" opacity="0.5"/><path d="M118.2,109.6v-.2c.1.1.3-.1.3.1Z" fill="#7a6956" opacity="0.5"/><polygon points="80.1 132.7 80.2 132.7 80.2 132.7 80.1 132.7" fill="#7a6956" opacity="0.5"/><path d="M71.7,127.5a.5.5,0,0,1-.6.4,1,1,0,0,1-.5-.6c0-.2.3-.2.4-.3S71.7,127.2,71.7,127.5Z" fill="#7a6956" opacity="0.5"/><polygon points="79.4 133.2 79.5 133.2 79.4 133.2 79.4 133.2" fill="#7a6956" opacity="0.5"/><polygon points="79.9 133.6 79.9 133.5 79.9 133.5 79.9 133.6" fill="#7a6956" opacity="0.5"/><polygon points="79.4 133.8 79.5 133.8 79.5 133.9 79.4 133.8" fill="#7a6956" opacity="0.5"/><polygon points="79.4 134 79.4 133.9 79.4 134 79.4 134" fill="#7a6956" opacity="0.5"/><polygon points="79.5 134.4 79.6 134.3 79.5 134.3 79.5 134.4" fill="#7a6956" opacity="0.5"/><polygon points="78.9 134 78.9 133.9 78.9 133.9 78.9 134" fill="#7a6956" opacity="0.5"/><path d="M72.6,129.2a3.4,3.4,0,0,1,.9.8h-.3c-.2-.4-.7-.5-.8-.9S72.7,129,72.6,129.2Z" fill="#7a6956" opacity="0.5"/><polygon points="79.6 134.5 79.6 134.5 79.6 134.5 79.6 134.5" fill="#7a6956" opacity="0.5"/><path d="M73,129.6h-.1c.1-.2-.1,0-.1-.1H73Z" fill="#7a6956" opacity="0.5"/><path d="M72.8,129.4h-.1c-.1-.1.2,0,.1-.1Z" fill="#7a6956" opacity="0.5"/><path d="M73.2,129.8h0Z" fill="#7a6956" opacity="0.5"/><path d="M76,132.4c-.1,0-.1,0,0-.1Z" fill="#7a6956" opacity="0.5"/><path d="M78.9,134.8v-.2C79,134.6,78.9,134.7,78.9,134.8Z" fill="#7a6956" opacity="0.5"/><rect x="75.4" y="132.1" width="0.1" height="0.04" transform="translate(-75.4 112.4) rotate(-52.8)" fill="#7a6956" opacity="0.5"/><path d="M55.3,119.5c0,.4-.3.5-.4.8s-.5,0-.7-.1a5.9,5.9,0,0,0-1.4.6c-.1-.1.3-.2.3-.5s-.4-.4-.6-.6-.7.1-.9-.1,1.3-.9,2.1-.8,1.1-.2,1.4.3S55.2,119.4,55.3,119.5Z" fill="#7a6956" opacity="0.5"/><path d="M74.6,134.1h0Z" fill="#7a6956" opacity="0.5"/><path d="M73.1,133c-.1,0-.1.2-.3.2S73,132.9,73.1,133Z" fill="#7a6956" opacity="0.5"/><path d="M74.2,133.9h0Z" fill="#7a6956" opacity="0.5"/><path d="M73,133h0Z" fill="#7a6956" opacity="0.5"/><path d="M57.5,121.7a6.5,6.5,0,0,1,.5,2c-.1.1-.1.3-.3.2s-.1-.2-.2-.3a11.8,11.8,0,0,0-.4-2,.3.3,0,0,1,.1-.5C57.5,121,57.5,121.5,57.5,121.7Z" fill="#7a6956" opacity="0.5"/><path d="M72.8,133h0Z" fill="#7a6956" opacity="0.5"/><path d="M72.6,133.2h0Z" fill="#7a6956" opacity="0.5"/><path d="M72.6,133.2h0C72.7,133.1,72.6,133.1,72.6,133.2Z" fill="#7a6956" opacity="0.5"/><path d="M58.1,124.9c-.1-.3.1-.1.1-.2S58.2,125,58.1,124.9Z" fill="#7a6956" opacity="0.5"/><path d="M63.6,131.1l-.4.2c-.1,0-.3.1-.4-.1a.5.5,0,0,1,.3-.4h.3Z" fill="#7a6956" opacity="0.5"/><path d="M63.3,131c.1,0,.1.1,0,.1h-.1c.2,0,0-.1,0-.1Z" fill="#7a6956" opacity="0.5"/><path d="M71.7,137.6c.1.6-.5.8-.8,1.3s-.8.2-1.2.1l.3-.2h.2c.1-.1.3,0,.2-.2l.4.2c-.1-.3.3-.1.1-.4s0,.2.1.2a1.6,1.6,0,0,0,.6-.8c-.1,0-.1.2-.2.1s-.3-.3-.1-.5h-.4c-.1.2.2.1.2.3s-.1.3-.4.3l.3-.3c-.2,0-.2-.2-.3-.2v.2c-.1-.1-.3.1-.4.1h-.1c-.5.1-.4.6-.8.6s.4-.2.3-.5a1.6,1.6,0,0,1,1.4-.8C71.4,137.1,71.6,137.5,71.7,137.6Z" fill="#7a6956" opacity="0.5"/><rect x="63.1" y="131.1" width="0.1" height="0.04" transform="translate(-79.5 102.3) rotate(-52.8)" fill="#7a6956" opacity="0.5"/><path d="M71.3,137.5h0Z" fill="#7a6956" opacity="0.5"/><path d="M71.3,137.8h-.1c.1-.1,0-.2,0-.3S71.2,137.8,71.3,137.8Z" fill="#7a6956" opacity="0.5"/><path d="M71.1,137.7h0Z" fill="#7a6956" opacity="0.5"/><path d="M70.7,137.5h0Z" fill="#7a6956" opacity="0.5"/><path d="M71.3,137.9h0Z" fill="#7a6956" opacity="0.5"/><path d="M71.3,138.2c0-.2-.1,0-.1,0s0-.2.1-.2S71.3,138.1,71.3,138.2Z" fill="#7a6956" opacity="0.5"/><rect x="70.7" y="137.9" width="0.2" height="0.02" transform="translate(-81.9 111) rotate(-52.8)" fill="#7a6956" opacity="0.5"/><path d="M70.5,137.8h0Z" fill="#7a6956" opacity="0.5"/><path d="M70.4,137.7Z" fill="#7a6956" opacity="0.5"/><polygon points="71.1 138.3 71.2 138.3 71.2 138.4 71.1 138.3" fill="#7a6956" opacity="0.5"/><polygon points="73.5 140.2 73.6 140.2 73.6 140.2 73.5 140.2" fill="#7a6956" opacity="0.5"/><path d="M70.7,138h0Z" fill="#7a6956" opacity="0.5"/><path d="M65,134.1a1.1,1.1,0,0,1-1.1.3,1.3,1.3,0,0,1,.2-.9h.6A.5.5,0,0,1,65,134.1Z" fill="#7a6956" opacity="0.5"/><path d="M69.4,137.8c-.3.5-.8.4-1.3.5s0-.3-.2-.2a1.1,1.1,0,0,0,.1-1,.5.5,0,0,1,.5-.3c.4-.2.3.5.7.3S69.5,137.5,69.4,137.8Z" fill="#7a6956" opacity="0.5"/><path d="M70.4,138.3h0Z" fill="#7a6956" opacity="0.5"/><path d="M70.7,138.6h0Z" fill="#7a6956" opacity="0.5"/><path d="M68.8,137.3h.1c-.1.2-.6.4-.4.5h.1c0,.1.2.2.1.4v-.2h-.1c-.1.1-.1.3-.3.2s.1-.2.1-.3-.1,0-.2,0h.1l.4-.2c-.2,0,.1-.2.1-.4s.1.2.2.2Z" fill="#7a6956" opacity="0.5"/><path d="M68.4,137.1h0Z" fill="#7a6956" opacity="0.5"/><polygon points="69.9 138.2 70 138.3 69.9 138.3 69.9 138.2" fill="#7a6956" opacity="0.5"/><polygon points="73.2 140.8 73.2 140.7 73.2 140.7 73.2 140.8" fill="#7a6956" opacity="0.5"/><path d="M68.7,137.5h-.1v-.2C68.7,137.4,68.6,137.5,68.7,137.5Z" fill="#7a6956" opacity="0.5"/><path d="M68.5,137.3h0Z" fill="#7a6956" opacity="0.5"/><path d="M68.8,137.6h0Z" fill="#7a6956" opacity="0.5"/><path d="M64.1,134h0Z" fill="#7a6956" opacity="0.5"/><path d="M69,137.6h0Z" fill="#7a6956" opacity="0.5"/><path d="M68.3,137.3Z" fill="#7a6956" opacity="0.5"/><polygon points="69 137.8 69 137.7 69 137.8 69 137.8" fill="#7a6956" opacity="0.5"/><polygon points="66.3 135.8 66.4 135.8 66.4 135.8 66.3 135.8" fill="#7a6956" opacity="0.5"/><polygon points="68.8 137.8 68.9 137.7 68.9 137.8 68.8 137.8" fill="#7a6956" opacity="0.5"/><polygon points="66.4 136 66.5 135.9 66.4 136 66.4 136" fill="#7a6956" opacity="0.5"/><path d="M69.9,138.6h0Z" fill="#7a6956" opacity="0.5"/><path d="M72.5,141.9h0Z" fill="#7a6956" opacity="0.5"/><path d="M55,131.2a1,1,0,0,1-.5.6c-.4,0-.9,0-1.1-.4V131c.2-.2.2-.6.6-.6S55.1,130.7,55,131.2Z" fill="#7a6956" opacity="0.5"/><path d="M62.7,137.3c-.1.3-.4.3-.6.4a.7.7,0,0,1-.6-.3.6.6,0,0,1-.1-.4.7.7,0,0,1,.6-.4A.6.6,0,0,1,62.7,137.3Z" fill="#7a6956" opacity="0.5"/><polygon points="82.7 91.3 82.6 91.3 82.7 91.2 82.7 91.3" fill="#7a6956" opacity="0.5"/><path d="M83.8,100.9c.3-.1.5,0,.7.3a1,1,0,0,1-.2.7c-.1.1-.3-.1-.5-.1S83.6,101.1,83.8,100.9Z" fill="#7a6956" opacity="0.5"/><polygon points="83.6 91.5 83.5 91.5 83.5 91.5 83.6 91.5" fill="#7a6956" opacity="0.5"/><polygon points="83.6 91 83.5 91 83.5 91 83.6 91" fill="#7a6956" opacity="0.5"/><polygon points="84 91.2 84 91.1 84 91.1 84 91.2" fill="#7a6956" opacity="0.5"/><polygon points="84.2 91.1 84.1 91.1 84.1 91.1 84.2 91.1" fill="#7a6956" opacity="0.5"/><polygon points="84.4 90.8 84.3 90.8 84.3 90.8 84.4 90.8" fill="#7a6956" opacity="0.5"/><polygon points="84.4 91.5 84.3 91.5 84.4 91.5 84.4 91.5" fill="#7a6956" opacity="0.5"/><path d="M84.6,99.2a2,2,0,0,1,.1-1.1c.1-.1.1,0,.2.1s0,.9-.2,1.2S84.4,99.3,84.6,99.2Z" fill="#7a6956" opacity="0.5"/><polygon points="84.5 90.6 84.4 90.6 84.4 90.6 84.5 90.6" fill="#7a6956" opacity="0.5"/><path d="M84.7,98.7c0-.1,0,0,.1-.1s0,.1-.1.3v-.2Z" fill="#7a6956" opacity="0.5"/><path d="M84.6,98.9h.1c0,.2-.1,0-.1.1Z" fill="#7a6956" opacity="0.5"/><path d="M84.7,98.4h0Z" fill="#7a6956" opacity="0.5"/><path d="M85,94.7h0Z" fill="#7a6956" opacity="0.5"/><rect x="85.1" y="95.3" width="0.1" height="0.04" transform="translate(-1.5 1.4) rotate(-0.9)" fill="#7a6956" opacity="0.5"/><path d="M85.6,94.8h-.1A.1.1,0,0,0,85.6,94.8Z" fill="#7a6956" opacity="0.5"/><path d="M87.2,94.7h0Z" fill="#7a6956" opacity="0.5"/><path d="M87.2,96.5h0Z" fill="#7a6956" opacity="0.5"/><path d="M87.2,95.1v.2A.3.3,0,0,1,87.2,95.1Z" fill="#7a6956" opacity="0.5"/><path d="M87.3,96.6h0Z" fill="#7a6956" opacity="0.5"/><path d="M87.9,115.5a5.5,5.5,0,0,1,1.3-1.7c.1,0,.3-.1.3.1v.4a9.3,9.3,0,0,0-1.3,1.5c-.1.1-.2.4-.4.2S87.8,115.5,87.9,115.5Z" fill="#7a6956" opacity="0.5"/><path d="M87.4,96.8h0Z" fill="#7a6956" opacity="0.5"/><path d="M87.6,96.8h0Z" fill="#7a6956" opacity="0.5"/><path d="M87.7,96.9h-.2C87.5,96.8,87.6,96.9,87.7,96.9Z" fill="#7a6956" opacity="0.5"/><path d="M90,113c-.1.3-.1,0-.2,0Z" fill="#7a6956" opacity="0.5"/><path d="M91.6,94.8c.4-.4,1-.1,1.5-.1s.6.5.8.8-.3-.1-.4-.1h.1c-.1.1-.1,0-.2,0h0c-.1,0-.2-.3-.2-.1s-.2-.2-.2-.4-.2-.1-.2.2.1-.1,0-.2a1.2,1.2,0,0,0-1,0c.1.1.2,0,.2.1s0,.4-.3.3l.3.4c.2-.2,0-.3.1-.4s.3-.1.5.1h-.5c.2.1,0,.2.1.3v-.2c0,.2.2.2.4.3h0c.3.3.7-.1,1,.2s-.4-.2-.6.1a1.6,1.6,0,0,1-1.5-.6C91.4,95.3,91.6,95,91.6,94.8Z" fill="#7a6956" opacity="0.5"/><path d="M91.8,95.2c-.1-.1-.1,0-.1-.1Z" fill="#7a6956" opacity="0.5"/><path d="M92,95h.1c-.1-.1-.1.1-.2.1Z" fill="#7a6956" opacity="0.5"/><path d="M92,95.2h0Z" fill="#7a6956" opacity="0.5"/><path d="M92.1,95.7c.1.1.1-.1,0,0Z" fill="#7a6956" opacity="0.5"/><path d="M92.1,95h0Z" fill="#7a6956" opacity="0.5"/><path d="M92.3,94.8c-.1.1.1.1,0,.1h-.2C92.1,94.8,92.2,94.8,92.3,94.8Z" fill="#7a6956" opacity="0.5"/><rect x="92.3" y="95.3" width="0.2" height="0.02" transform="translate(-1.5 1.5) rotate(-0.9)" fill="#7a6956" opacity="0.5"/><path d="M92.5,95.6c0,.1-.1,0-.1,0Z" fill="#7a6956" opacity="0.5"/><path d="M92.5,95.7h0Z" fill="#7a6956" opacity="0.5"/><polygon points="92.5 94.9 92.4 94.9 92.5 94.8 92.5 94.9" fill="#7a6956" opacity="0.5"/><polygon points="92.5 91.9 92.4 91.8 92.4 91.8 92.5 91.9" fill="#7a6956" opacity="0.5"/><path d="M92.5,95.4c.1.1.1.1,0,.1S92.5,95.4,92.5,95.4Z" fill="#7a6956" opacity="0.5"/><path d="M92.9,102.2a.8.8,0,0,1,.9.6c-.2.3-.5.3-.8.4s-.3-.3-.3-.4S92.6,102.2,92.9,102.2Z" fill="#7a6956" opacity="0.5"/><path d="M93.1,96.5c.6-.1.8.4,1.2.7s-.2.2-.1.3-.5.2-.7.5-.4,0-.6-.2.2-.5-.2-.7A.5.5,0,0,1,93.1,96.5Z" fill="#7a6956" opacity="0.5"/><path d="M92.9,95.4h0Z" fill="#7a6956" opacity="0.5"/><path d="M93,95h0Z" fill="#7a6956" opacity="0.5"/><path d="M93.1,97.2H93c.3,0,.7.2.7,0h-.1c.1-.1,0-.3.1-.3h0c-.1,0,0,.1,0,.2s.3-.1.3.1-.2,0-.2.1,0,0,0,.2h0c-.1-.2-.3,0-.3-.2s-.3.1-.4.1.1-.1-.1-.2Z" fill="#7a6956" opacity="0.5"/><path d="M93.2,97.6c.1.1,0,.2.1.2S93.2,97.6,93.2,97.6Z" fill="#7a6956" opacity="0.5"/><polygon points="93.2 95.9 93.1 95.8 93.2 95.8 93.2 95.9" fill="#7a6956" opacity="0.5"/><polygon points="93.2 91.8 93.1 91.8 93.1 91.8 93.2 91.8" fill="#7a6956" opacity="0.5"/><path d="M93.4,97.2h-.2C93.2,97.2,93.4,97.3,93.4,97.2Z" fill="#7a6956" opacity="0.5"/><path d="M93.3,97.5h0Z" fill="#7a6956" opacity="0.5"/><path d="M93.4,97h0Z" fill="#7a6956" opacity="0.5"/><path d="M93.5,102.9Z" fill="#7a6956" opacity="0.5"/><path d="M93.3,96.9h0Z" fill="#7a6956" opacity="0.5"/><path d="M93.4,97.6h0a.1.1,0,0,1-.1.1Z" fill="#7a6956" opacity="0.5"/><polygon points="93.4 96.8 93.3 96.8 93.3 96.8 93.4 96.8" fill="#7a6956" opacity="0.5"/><polygon points="93.5 100.1 93.4 100.1 93.4 100 93.5 100.1" fill="#7a6956" opacity="0.5"/><polygon points="93.5 96.9 93.4 96.9 93.4 96.9 93.5 96.9" fill="#7a6956" opacity="0.5"/><polygon points="93.6 99.9 93.5 99.9 93.5 99.9 93.6 99.9" fill="#7a6956" opacity="0.5"/><path d="M93.5,95.6v.2C93.5,95.7,93.4,95.7,93.5,95.6Z" fill="#7a6956" opacity="0.5"/><path d="M94.4,91.6h.1A.1.1,0,0,1,94.4,91.6Z" fill="#7a6956" opacity="0.5"/><path d="M96.8,111.6h.7c.3.3.6.7.4,1.1l-.3.3c-.3-.1-.6.1-.8-.2S96.3,111.9,96.8,111.6Z" fill="#7a6956" opacity="0.5"/><path d="M96.8,102c.3-.1.5.1.7.2a.8.8,0,0,1,.1.7l-.2.2a.7.7,0,0,1-.7-.2A.6.6,0,0,1,96.8,102Z" fill="#7a6956" opacity="0.5"/><path d="M105.4,82.2c-.1.3-.2.5-.5.6a.8.8,0,0,1-.6-.4c-.1-.2.2-.3.2-.4S105.3,82,105.4,82.2Z" fill="#7a6956" opacity="0.5"/><polygon points="114.2 85 114.3 84.9 114.2 84.9 114.2 85" fill="#7a6956" opacity="0.5"/><polygon points="114.7 85.1 114.7 85 114.8 85.1 114.7 85.1" fill="#7a6956" opacity="0.5"/><polygon points="114.4 85.5 114.5 85.5 114.5 85.5 114.4 85.5" fill="#7a6956" opacity="0.5"/><polygon points="114.4 85.7 114.4 85.6 114.4 85.6 114.4 85.7" fill="#7a6956" opacity="0.5"/><polygon points="114.7 86 114.7 85.9 114.7 85.9 114.7 86" fill="#7a6956" opacity="0.5"/><polygon points="114 85.8 114 85.7 114 85.7 114 85.8" fill="#7a6956" opacity="0.5"/><path d="M106.7,83.5c.4,0,.7.3,1.1.4s-.1.2-.2.2-.9-.3-1.1-.6S106.7,83.3,106.7,83.5Z" fill="#7a6956" opacity="0.5"/><polygon points="114.8 86.1 114.8 86 114.8 86 114.8 86.1" fill="#7a6956" opacity="0.5"/><path d="M107.2,83.8h0c0-.2-.1,0-.2,0l.2-.2C107.1,83.7,107.2,83.7,107.2,83.8Z" fill="#7a6956" opacity="0.5"/><path d="M107,83.6h-.1c-.1,0,.1,0,0-.1Z" fill="#7a6956" opacity="0.5"/><path d="M107.5,83.8V84C107.4,83.9,107.4,83.8,107.5,83.8Z" fill="#7a6956" opacity="0.5"/><path d="M114.2,86.5h-.1C114.2,86.3,114.2,86.4,114.2,86.5Z" fill="#7a6956" opacity="0.5"/><rect x="110.2" y="85.2" width="0.1" height="0.04" transform="translate(-4.5 164.3) rotate(-72.3)" fill="#7a6956" opacity="0.5"/><path d="M110.5,85.8h-.1v-.2Z" fill="#7a6956" opacity="0.5"/><path d="M87.8,80.2c.1.3-.1.6-.2.9s-.4.1-.6.1a5.2,5.2,0,0,0-1.1,1c-.1-.1.3-.3.1-.6s-.5-.2-.7-.3-.6.4-.9.2.9-1.2,1.7-1.5.9-.5,1.4-.1S87.7,80.1,87.8,80.2Z" fill="#7a6956" opacity="0.5"/><path d="M110.1,87.3h0Z" fill="#7a6956" opacity="0.5"/><path d="M108.4,86.8c-.1,0,0,.2-.2.2S108.3,86.8,108.4,86.8Z" fill="#7a6956" opacity="0.5"/><path d="M109.7,87.3h0Z" fill="#7a6956" opacity="0.5"/><path d="M108.3,86.8h0Z" fill="#7a6956" opacity="0.5"/><path d="M90.5,81.5a6.2,6.2,0,0,1,1.1,1.7c-.1.1,0,.3-.2.3s-.2-.2-.3-.3a14,14,0,0,0-1-1.6c-.1-.2-.3-.3-.1-.5S90.4,81.3,90.5,81.5Z" fill="#7a6956" opacity="0.5"/><path d="M108.1,86.9Z" fill="#7a6956" opacity="0.5"/><path d="M108,87.1h0Z" fill="#7a6956" opacity="0.5"/><path d="M107.9,87.1h0c-.1,0,0-.1,0-.1S107.9,87.1,107.9,87.1Z" fill="#7a6956" opacity="0.5"/><path d="M92,84.2c-.1-.1.1-.1.1-.2S92.2,84.3,92,84.2Z" fill="#7a6956" opacity="0.5"/><path d="M99.1,88.1c-.1.1-.1.3-.3.3s-.2.2-.4.1a.6.6,0,0,1,.1-.4l.3-.2Z" fill="#7a6956" opacity="0.5"/><path d="M98.8,88.1c.1,0,.1.1,0,.1h-.1c.2-.1,0-.2-.1-.2Z" fill="#7a6956" opacity="0.5"/><path d="M108.6,91.4c.3.5-.2,1-.3,1.5s-.7.4-1.1.4.2-.1.2-.2h.1c0-.1.1-.1.1-.2h0c.1-.1.3-.1.1-.2h.5c-.2-.2.2-.1-.1-.3h.2a1,1,0,0,0,.2-.9c0,.1,0,.2-.1.2s-.4-.1-.2-.4l-.4.2c0,.2.3.1.3.2s0,.3-.3.4.1-.2.2-.4-.2-.1-.3,0h.1c-.1-.1-.2.2-.3.3h-.1c-.4.2-.2.7-.5.8s.2-.3,0-.5a1.8,1.8,0,0,1,1.1-1.3C108.2,91.1,108.4,91.4,108.6,91.4Z" fill="#7a6956" opacity="0.5"/><rect x="98.7" y="88.3" width="0.1" height="0.04" transform="translate(-15.4 155.5) rotate(-72.3)" fill="#7a6956" opacity="0.5"/><path d="M108.2,91.5h0Z" fill="#7a6956" opacity="0.5"/><path d="M108.3,91.8c0,.1-.1,0-.1,0s0-.1,0-.2S108.2,91.8,108.3,91.8Z" fill="#7a6956" opacity="0.5"/><path d="M108.1,91.7h0Z" fill="#7a6956" opacity="0.5"/><path d="M107.7,91.6c-.1.1,0,.1-.1.1A.1.1,0,0,1,107.7,91.6Z" fill="#7a6956" opacity="0.5"/><path d="M108.3,91.9h-.1S108.2,91.8,108.3,91.9Z" fill="#7a6956" opacity="0.5"/><path d="M108.4,92.1c0-.2-.1.1-.1,0v-.2C108.5,91.9,108.4,92,108.4,92.1Z" fill="#7a6956" opacity="0.5"/><rect x="107.8" y="92" width="0.2" height="0.02" transform="translate(-12.6 166.8) rotate(-72.3)" fill="#7a6956" opacity="0.5"/><path d="M107.6,92h0Z" fill="#7a6956" opacity="0.5"/><path d="M107.5,92h0Z" fill="#7a6956" opacity="0.5"/><polygon points="108.3 92.3 108.3 92.2 108.3 92.3 108.3 92.3" fill="#7a6956" opacity="0.5"/><polygon points="111.1 93.2 111.2 93.2 111.2 93.2 111.1 93.2" fill="#7a6956" opacity="0.5"/><path d="M107.8,92.1c-.1.1-.1.1-.1,0Z" fill="#7a6956" opacity="0.5"/><path d="M101.3,90.4a.9.9,0,0,1-.9.6,2.5,2.5,0,0,1-.1-.9l.5-.2C101.1,90,101.4,90.1,101.3,90.4Z" fill="#7a6956" opacity="0.5"/><path d="M106.6,92.4c-.1.5-.7.6-1,.8s-.2-.2-.3-.1-.1-.6-.3-.9a.5.5,0,0,1,.4-.5c.3-.3.4.4.8.1S106.6,92.1,106.6,92.4Z" fill="#7a6956" opacity="0.5"/><path d="M107.7,92.5h0Z" fill="#7a6956" opacity="0.5"/><path d="M108,92.7h0Z" fill="#7a6956" opacity="0.5"/><path d="M105.9,92h.1c-.1.2-.5.5-.3.6v-.2c0,.2.2.2.2.3h-.1c0-.1-.1,0-.1,0s-.1.2-.3.2.1-.1,0-.2h-.1c.2-.1.1-.3.3-.3s0-.3,0-.4.1.1.2,0Z" fill="#7a6956" opacity="0.5"/><path d="M105.5,92.1h0Z" fill="#7a6956" opacity="0.5"/><polygon points="107.1 92.6 107.2 92.6 107.2 92.7 107.1 92.6" fill="#7a6956" opacity="0.5"/><polygon points="110.9 93.9 110.9 93.8 110.9 93.8 110.9 93.9" fill="#7a6956" opacity="0.5"/><path d="M105.8,92.4a.1.1,0,0,0-.1-.1h0C105.8,92.2,105.8,92.4,105.8,92.4Z" fill="#7a6956" opacity="0.5"/><path d="M105.6,92.2h0Z" fill="#7a6956" opacity="0.5"/><path d="M106,92.4c-.1-.1,0,0,0-.1Z" fill="#7a6956" opacity="0.5"/><path d="M100.5,90.6c-.1,0-.1.1-.1,0h.1Z" fill="#7a6956" opacity="0.5"/><path d="M106.1,92.4h0Z" fill="#7a6956" opacity="0.5"/><path d="M105.4,92.2h0c-.1-.1,0-.1,0-.1Z" fill="#7a6956" opacity="0.5"/><polygon points="106.2 92.5 106.2 92.4 106.2 92.5 106.2 92.5" fill="#7a6956" opacity="0.5"/><polygon points="103.1 91.5 103.1 91.5 103.1 91.5 103.1 91.5" fill="#7a6956" opacity="0.5"/><polygon points="106 92.5 106 92.5 106.1 92.5 106 92.5" fill="#7a6956" opacity="0.5"/><polygon points="103.2 91.7 103.3 91.6 103.2 91.7 103.2 91.7" fill="#7a6956" opacity="0.5"/><path d="M107.3,92.9h-.2S107.2,92.8,107.3,92.9Z" fill="#7a6956" opacity="0.5"/><path d="M110.7,95.1h0Z" fill="#7a6956" opacity="0.5"/><path d="M91.3,91a1.5,1.5,0,0,1-.3.7c-.4.1-.8.3-1.1,0s-.1-.2-.2-.4.1-.6.4-.7S91.2,90.5,91.3,91Z" fill="#7a6956" opacity="0.5"/><path d="M100.2,94.1c.1.3-.2.4-.3.5s-.6.1-.7-.1-.2-.1-.2-.3a.7.7,0,0,1,.4-.5A.5.5,0,0,1,100.2,94.1Z" fill="#7a6956" opacity="0.5"/><path d="M153.9,122.9h-.1c.2-.3-.3-.3-.2-.4S154,122.7,153.9,122.9Z" fill="#7a6956" opacity="0.5"/><path d="M137.4,105.9l-.2.3c-.5-.1-.3-.6-.4-.8s0-.6.4-.4S137.5,105.6,137.4,105.9Z" fill="#7a6956" opacity="0.5"/><path d="M48.5,109c.4,1.1-.2,1.7-.9,2.5s-1.4.3-1.9.1-1.3-.8-.6-1.5,0-1,.2-1.4a1.9,1.9,0,0,1,1.4-.7c.4.1.6.3,1,.2S48,109.2,48.5,109Z" fill="#7a6956" opacity="0.5"/><path d="M155,126.8c-.4,0-.2-.3-.1-.4S154.6,126.6,155,126.8Z" fill="#7a6956" opacity="0.5"/><path d="M154.6,126.8c-.6-.3-.5.4-1,.6s.3-.1.5.1-.5-.2-.5.3.3.4.5,0-1,.3-.9.6a2.6,2.6,0,0,0,.3-.8c0-.2-.3-.2-.4-.3s.4-.2.4-.6a.4.4,0,0,0,.1.3c-.1-.1.1-.2.1-.3s0,.1,0,.1.3-.3.3-.6,0,.4.3.4.2-.2.3-.3Z" fill="#7a6956" opacity="0.5"/><path d="M47.2,109.3h.2c-.2.3.5.3,0,.5s.5.4.8.2l-.3.4v-.2c-.3,0-.2.5.1.5h-.6c-.1,0,.3,0,.1-.2s-.1.5-.2.6-.9-.4-1.1.1l.5-.8c.4-.1-.1.5.3.3v-.2h0c0-.3.4-.4.2-.7s-.3-.1-.6-.1.6-.4.5-.8S46.9,109.1,47.2,109.3Z" fill="#7a6956" opacity="0.5"/><path d="M155.3,127.6h0Z" fill="#7a6956" opacity="0.5"/><polygon points="153.4 127.5 153.6 127.1 153.7 127.1 153.4 127.5" fill="#7a6956" opacity="0.5"/><path d="M131.4,109.8v0Z" fill="#7a6956" opacity="0.5"/><path d="M153.2,127.7c-.6,0,.4,0-.1.4s-.6-.2-.1-.6Z" fill="#7a6956" opacity="0.5"/><path d="M131.3,112c-.1.3-.8.1-.6-.2S131.4,111.6,131.3,112Z" fill="#7a6956" opacity="0.5"/><path d="M125.7,110.1a.7.7,0,0,1-.6-.3C125.3,109.6,125.7,109.8,125.7,110.1Z" fill="#7a6956" opacity="0.5"/><rect x="44.7" y="118.6" width="0.2" height="0.04" transform="translate(-76.3 81) rotate(-52)" fill="#7a6956" opacity="0.5"/><path d="M44.3,118.7c0,.6-.2-.2-.5.3s-.2-.1-.1-.5.1.2.4.3l.3-.4v.3Z" fill="#7a6956" opacity="0.5"/><polygon points="45.2 119.4 45.1 119.2 45.2 119.3 45.2 119.4" fill="#7a6956" opacity="0.5"/><path d="M45.6,120.3c-.1.1-.1,0-.2-.1Z" fill="#7a6956" opacity="0.5"/><polygon points="43.4 119 43.7 119.1 43.4 119.1 43.4 119" fill="#7a6956" opacity="0.5"/><polygon points="43.4 119.7 43.5 119.4 43.5 119.6 43.4 119.7" fill="#7a6956" opacity="0.5"/><path d="M43.2,119.7v0Z" fill="#7a6956" opacity="0.5"/><path d="M43.9,120.4h0Z" fill="#7a6956" opacity="0.5"/><path d="M43.6,120.6v0Z" fill="#7a6956" opacity="0.5"/><path d="M31.3,122.8c-.3,0-.8,0-.7-.4s.4-.4.6-.3S31.6,122.7,31.3,122.8Z" fill="#7a6956" opacity="0.5"/><path d="M38.4,115a1.2,1.2,0,0,1-.8,1c-.4.1-.7-.4-1.1-.1s-.4-.4-.4-.7-.1-.9.3-1.2,1.2-.6,1.6-.1S38.3,114.6,38.4,115Z" fill="#7a6956" opacity="0.5"/><path d="M37.1,114.4c-.2-.1-.2-.3,0-.5s.4-.2.6.2S37.2,114.4,37.1,114.4Z" fill="#7a6956" opacity="0.5"/><path d="M37.7,114.4h0Z" fill="#7a6956" opacity="0.5"/><path d="M37.5,115.6v-.3h-.1l.4-.4C37.8,115.2,38,115.9,37.5,115.6Z" fill="#7a6956" opacity="0.5"/><path d="M36.5,115.1c.1-.1.8-.3.9.2s-.3.4-.7.3v-.2c-.5.2-.3-.4-.4-.6h.1c.1,0,.2-.1.2-.3h.1C37.2,114.7,36.6,114.8,36.5,115.1Z" fill="#7a6956" opacity="0.5"/><path d="M36.4,114.5h-.1c.1,0,.2-.2.3-.1Z" fill="#7a6956" opacity="0.5"/><path d="M108.4,122.5h-.1c.3-.1,0-.4.1-.4S108.6,122.5,108.4,122.5Z" fill="#7a6956" opacity="0.5"/><path d="M109.7,102.8h-.3c-.2-.3.2-.5.3-.7s.4-.2.5.1S110,102.7,109.7,102.8Z" fill="#7a6956" opacity="0.5"/><path d="M107.2,126.1c-.5.8-1.2.8-2.1.7s-1-.6-1.1-1-.3-1.3.6-1.3.6-.5,1-.6a1.3,1.3,0,0,1,1.2.5,1.5,1.5,0,0,0,.5.7C107.2,125.4,106.7,125.8,107.2,126.1Z" fill="#7a6956" opacity="0.5"/><path d="M106.6,125.4c-.2-.2.1-.3.2-.3S106.5,125.1,106.6,125.4Z" fill="#7a6956" opacity="0.5"/><path d="M106.3,125.2c0-.6-.5-.2-.8-.3s.2.1.1.4-.1-.5-.4-.2-.1.4.3.3-.7-.4-.9-.2.4-.2.6-.3,0-.3,0-.4.4.1.6-.1v.2h.3c0,.1-.1,0-.1.1s.3-.1.5-.2-.2.2-.1.4.2,0,.4,0Z" fill="#7a6956" opacity="0.5"/><path d="M106.2,125.4h.3c-.4.1,0,.5-.4.3s.1.6.3.6H106c0-.1.1-.1.2-.1s-.5.2-.4.3l-.3-.3c-.1-.1.2.2.2-.1s-.4.2-.5.3-.3-.8-.7-.7h.8c.3.2-.4.1,0,.3h.1c.2-.1.4.1.5-.2l-.3-.4c0,.5.7.1.8-.2S106.2,125.1,106.2,125.4Z" fill="#7a6956" opacity="0.5"/><path d="M106.3,126.1h0Z" fill="#7a6956" opacity="0.5"/><polygon points="105.3 124.8 105.6 124.7 105.6 124.8 105.3 124.8" fill="#7a6956" opacity="0.5"/><path d="M104,101.2l-.3.2Z" fill="#7a6956" opacity="0.5"/><path d="M105,124.8c-.3-.4.3.3-.3.1s-.2-.4.3-.3Z" fill="#7a6956" opacity="0.5"/><path d="M102.6,102.4c-.3.1-.6-.4-.2-.4S102.8,102.3,102.6,102.4Z" fill="#7a6956" opacity="0.5"/><path d="M100.6,97.9c-.1-.1-.2-.4-.1-.5S100.8,97.7,100.6,97.9Z" fill="#7a6956" opacity="0.5"/><path d="M99.7,130c.3.4-.3.4-.2.7s-.7,1-1.4.8-.7-.8-1.5-.6-.9-1.6-.1-2.5,1,0,.8-.8a1.5,1.5,0,0,0,.7.3c.2,0,.3-.4.5-.3s.5.8.9.5.1.6.5.7S100.4,129.6,99.7,130Z" fill="#7a6956" opacity="0.5"/><rect x="99" y="129.1" width="0.2" height="0.04" transform="translate(-8.7 7.2) rotate(-4)" fill="#7a6956" opacity="0.5"/><path d="M98.8,128.8c-.4.4,0-.2-.4-.1s-.1-.2.2-.4-.1.2,0,.4h.2Z" fill="#7a6956" opacity="0.5"/><polygon points="98.8 129.8 98.9 129.7 98.9 129.8 98.8 129.8" fill="#7a6956" opacity="0.5"/><path d="M98.5,130.5c-.1,0-.1,0,0-.1Z" fill="#7a6956" opacity="0.5"/><polygon points="98.1 128.4 98.2 128.7 98 128.5 98.1 128.4" fill="#7a6956" opacity="0.5"/><polygon points="97.7 128.8 97.9 128.7 97.8 128.8 97.7 128.8" fill="#7a6956" opacity="0.5"/><path d="M97.5,128.7h0Z" fill="#7a6956" opacity="0.5"/><path d="M97.5,129.5h0Z" fill="#7a6956" opacity="0.5"/><path d="M89,123c-.2-.2-.5-.4-.2-.6s.5,0,.6.2S89.2,123.1,89,123Z" fill="#7a6956" opacity="0.5"/><path d="M97.8,123.1a1.1,1.1,0,0,1-1.1,0c-.3-.1-.1-.6-.5-.7s0-.4.2-.6.5-.6.9-.5,1,.4,1,.9S98,122.8,97.8,123.1Z" fill="#7a6956" opacity="0.5"/><path d="M97.5,122c-.1-.2,0-.4.2-.3s.4.1.3.5A.4.4,0,0,1,97.5,122Z" fill="#7a6956" opacity="0.5"/><path d="M97.8,122.3h0Z" fill="#7a6956" opacity="0.5"/><path d="M97,122.9h.5C97.3,122.8,97,123.4,97,122.9Z" fill="#7a6956" opacity="0.5"/><path d="M96.7,122c.1,0,.6.3.4.6s-.5.1-.7-.2h.3c-.5-.2.1-.4.1-.6h0c.1.1.3.1.3-.1s.1.2.2,0S96.9,121.8,96.7,122Z" fill="#7a6956" opacity="0.5"/><path d="M97,121.6v-.2c.1.1.2,0,.2.2Z" fill="#7a6956" opacity="0.5"/><path d="M91.1,83.6c-.5.8-1.3.8-2.1.8s-1-.7-1.1-1.1-.3-1.3.6-1.2.6-.6,1-.7a1.5,1.5,0,0,1,1.2.5c.1.3.1.5.4.7S90.6,83.3,91.1,83.6Z" fill="#7a6956" opacity="0.5"/><path d="M90.5,82.9c-.2-.2,0-.2.2-.3S90.4,82.6,90.5,82.9Z" fill="#7a6956" opacity="0.5"/><path d="M90.2,82.7c-.1-.5-.5-.1-.9-.3s.2.1.2.4-.1-.4-.4-.2-.1.4.2.4-.7-.5-.8-.3.4-.2.6-.2,0-.3,0-.5.3.2.6,0-.2.1-.1.2.2-.1.2-.1,0,0-.1.1.4-.1.5-.2-.2.2,0,.5.2-.1.3-.1Z" fill="#7a6956" opacity="0.5"/><path d="M90.1,82.9h.2c-.3,0,.1.4-.3.2s.1.6.3.7H90c-.1-.2-.4.2-.3.3l-.3-.3c-.1-.1.2.2.2,0s-.4.1-.6.2-.2-.8-.6-.7h.8c.3.2-.4.2,0,.4h.1c.2-.2.4,0,.5-.3s-.1-.2-.3-.4.7.1.8-.2S90.1,82.6,90.1,82.9Z" fill="#7a6956" opacity="0.5"/><polygon points="89.2 82.3 89.5 82.2 89.5 82.3 89.2 82.3" fill="#7a6956" opacity="0.5"/><path d="M82.7,86.4c-.4.3,0-.3-.4-.2s-.2-.2.2-.3-.1.2,0,.4h.2Z" fill="#7a6956" opacity="0.5"/><polygon points="82 86 82.1 86.2 81.9 86 82 86" fill="#7a6956" opacity="0.5"/><polygon points="81.6 86.4 81.8 86.2 81.6 86.4 81.6 86.4" fill="#7a6956" opacity="0.5"/><path d="M81.7,80.6a.9.9,0,0,1-1.1,0c-.3-.1-.2-.5-.5-.6s0-.5.2-.7a1.3,1.3,0,0,1,.9-.5c.4.2,1,.4.9.9S81.8,80.4,81.7,80.6Z" fill="#7a6956" opacity="0.5"/><path d="M81.3,79.5a.3.3,0,0,1,.3-.3c-.1.4.4.1.3.5S81.4,79.6,81.3,79.5Z" fill="#7a6956" opacity="0.5"/><path d="M81.7,79.9h0Z" fill="#7a6956" opacity="0.5"/><path d="M80.8,80.4h.1l.5.2C81.2,80.4,80.9,80.9,80.8,80.4Z" fill="#7a6956" opacity="0.5"/><path d="M80.6,79.5s.5.3.3.6-.4.1-.6-.2h.3c-.5-.2.1-.5.1-.6h0c.1.1.3.1.3,0s.1.1.1,0S80.8,79.4,80.6,79.5Z" fill="#7a6956" opacity="0.5"/><path d="M80.9,79.1v-.2l.2.2Z" fill="#7a6956" opacity="0.5"/></g><path d="M107.6,165.3v.6h0c-.6.6-1.6.6-2.1,1.6s.1.6-.4.9h-.6c-.4.1-.7.1-1,.5s-.1,1.1-.7,1.3-.7,0-1.1-.3-1.2-1.3-2.2-.9-.8.8-1.4.6-.5-.4-.8-.7-.9-1-1.4-1.2h-.7l-.3-.9c-.5-1-1.6-1.5-1.9-2.5l.5.4a19.2,19.2,0,0,0,3.1,1.8,9.4,9.4,0,0,0,6.2-.1,16,16,0,0,0,4.9-2.8c-.1.4-.1.7-.2,1.1h0C107.5,165,107.6,165.1,107.6,165.3Z" fill="#9f352d" opacity="0.4"/><path d="M139.2,111.3c-.2.9-.3,1.8-.5,2.6h0c-.6.7-1.5.7-2.8,1s-2.2,1.7-3.5,2.9-7.3,1.9-10.4,3.8a4.8,4.8,0,0,1-3.9.9c-1.7-.1-4.2-.4-4.9-2.2s0-2.6-.1-3.8-.5-2.7-.6-4.2-.5-6.7.2-9.7c.3-1.5.5-1.6,2.2-2a18.4,18.4,0,0,0,2.8-.9,4.8,4.8,0,0,0,2.5-2v3.5c-.1,1.1-.1,2.2-.3,3.3a36.7,36.7,0,0,1-1.3,6.6c-.4,1.4-2.1,4.3-1,5.7a2.2,2.2,0,0,0,1.9.6,2.7,2.7,0,0,0,1.5-.5,5,5,0,0,1,1.4-1c.5-.2,1.3.2,1.2.7a2.2,2.2,0,0,0,1.5-1h0a2.3,2.3,0,0,1,1.4-1c.6-.1,1.3.4,1.2.9a29.1,29.1,0,0,1,3.7-3.3l.2-.2c.4-.2.8-.5,1.2-.3s.4,1.3,0,2l-1.8,3,5.2-4.1A4.4,4.4,0,0,1,139.2,111.3Z" fill="#7a6956" opacity="0.1"/><path d="M94.3,159a3.2,3.2,0,0,1-.1,1.4,6.2,6.2,0,0,1-1.3,2.7.7.7,0,0,0-.5-.4,20,20,0,0,0-2.4-.4,6.7,6.7,0,0,1-1.8-1.1c.5.3,2.1-.6,2.6-.7a13.1,13.1,0,0,0,3.3-1.2h.1v-.6a2.4,2.4,0,0,0-.2-.8,19.4,19.4,0,0,1-4.8,1.6c-.2,0-1.8.1-1.9.3.7-1.6,2.5-2.4,4.1-3.3l.6-.5-.7.3a2.2,2.2,0,0,0,.4-1.6c.1.1.2,0,.3,0h.9l.4.4a2.5,2.5,0,0,0,.4.9,4.2,4.2,0,0,1,.4,1.2c0,.2.1.5.1.7A4.1,4.1,0,0,1,94.3,159Z" fill="#eca414"/><path d="M93.3,155.1h-.1a3.2,3.2,0,0,1-1.2.8h0l-.7.3a2.2,2.2,0,0,0,.4-1.6h0a14.1,14.1,0,0,0-.6-2.2c0-.2-.1-.4-.1-.6a2.5,2.5,0,0,1,.3-1.7l.2-.2a.9.9,0,0,1,.6-.4.9.9,0,0,1,.9.4c0,.1.1.3.1.4s.3,1.6.4,2.4h0A3,3,0,0,1,93.3,155.1Z" fill="#fc9e8c"/><path d="M93.2,155.2a4,4,0,0,1-1.9,1.1,2.5,2.5,0,0,0,.4-1.7,14.1,14.1,0,0,0-.6-2.2c0-.2-.1-.4-.1-.6l.4.2c.6.2,1.1.1,1.6.4l.5.4A2.8,2.8,0,0,1,93.2,155.2Z" fill="#9f352d" opacity="0.4"/><path d="M94.3,159a4.1,4.1,0,0,0-.1-1.1c0-.2-.1-.5-.1-.7a4.2,4.2,0,0,0-.4-1.2l-.3-.7-.4.2-.6.3h-.1l-.4.3-.5.4c-1.6.9-3.4,1.7-4.1,3.3.1-.2,1.7-.3,1.9-.3a19.4,19.4,0,0,0,4.8-1.6,2.4,2.4,0,0,1,.2.8v.4Z" fill="#7a6956" opacity="0.2"/><path d="M81.6,117.9c-.5,2.2-.9,4.1-3.1,4.7a17.2,17.2,0,0,1-9-.3,5.1,5.1,0,0,1-2.8-2.6c-.5-1-.6-2-1.2-3a12,12,0,0,1-1.5-2.4c.2.1.3.4.4.6a4.1,4.1,0,0,0,2.5,1.9.8.8,0,0,1-.1-1.3,1.5,1.5,0,0,1,1.6.1,5.7,5.7,0,0,1,1.1,1.1c1,.9,3.4,2.6,4.8,2.1s1.3-1.4,1.4-2.4-.6-4.7-.8-7a87.2,87.2,0,0,1-.3-8.8h-.2c-.2,0-.3.2-.5.3a.2.2,0,0,1-.4,0v-.4c0-.2.1-.4.1-.7a4.3,4.3,0,0,0-.2-1.1l-.6-.6a3.9,3.9,0,0,1,2-.6A2.6,2.6,0,0,1,77,98.5a5,5,0,0,1,.5,3.3,19.9,19.9,0,0,0-.2,2.2c0,2.3,1,4.2,2.2,6.2S82.2,114.8,81.6,117.9Z" fill="#7a6956" opacity="0.1"/></svg>