<?xml version="1.0" encoding="UTF-8" standalone="no"?>
<svg width="30px" height="30px" viewBox="0 0 30 30" version="1.1" xmlns="http://www.w3.org/2000/svg" xmlns:xlink="http://www.w3.org/1999/xlink">
    <!-- Generator: Sketch 49.1 (51147) - http://www.bohemiancoding.com/sketch -->
    <title>FB</title>
    <desc>Created with Sketch.</desc>
    <defs>
        <polygon id="path-1" points="0 0 30 0 30 30 0 30"></polygon>
    </defs>
    <g id="Mockups" stroke="none" stroke-width="1" fill="none" fill-rule="evenodd">
        <g id="Desktop-HD" transform="translate(-983.000000, -22.000000)">
            <g id="Navigation-Bar" transform="translate(-4.000000, 0.000000)">
                <g id="FB" transform="translate(987.000000, 22.000000)">
                    <mask id="mask-2" fill="white">
                        <use xlink:href="#path-1"></use>
                    </mask>
                    <g id="Clip-2"></g>
                    <path d="M28.3442865,0 L1.6557135,0 C0.741193133,0 0,0.741190356 0,1.6557073 L0,28.3441803 C0,29.2585848 0.741193133,30 1.6557135,30 L16.024002,30 L16.024002,18.3823976 L12.11436,18.3823976 L12.11436,13.8547743 L16.024002,13.8547743 L16.024002,10.5158208 C16.024002,6.64103861 18.3905595,4.53110774 21.8472128,4.53110774 C23.5030387,4.53110774 24.9260755,4.65430225 25.3407345,4.70938009 L25.3407345,8.75883775 L22.9433783,8.75996178 C21.0635308,8.75996178 20.6994537,9.65323442 20.6994537,10.964087 L20.6994537,13.8547743 L25.1829191,13.8547743 L24.5992042,18.3823976 L20.6994537,18.3823976 L20.6994537,30 L28.3442865,30 C29.2586945,30 30,29.2585848 30,28.3441803 L30,1.6557073 C30,0.741190356 29.2586945,0 28.3442865,0" id="Fill-1" fill="#FEFEFE" mask="url(#mask-2)"></path>
                </g>
            </g>
        </g>
    </g>
</svg>