<?xml version="1.0" encoding="UTF-8" standalone="no"?>
<svg width="62px" height="71px" viewBox="0 0 62 71" version="1.1" xmlns="http://www.w3.org/2000/svg" xmlns:xlink="http://www.w3.org/1999/xlink">
    <!-- Generator: Sketch 50.2 (55047) - http://www.bohemiancoding.com/sketch -->
    <title>FAN</title>
    <desc>Created with Sketch.</desc>
    <defs>
        <polygon id="path-1" points="0 0 61.0448653 0 61.0448653 70.9999716 0 70.9999716"></polygon>
    </defs>
    <g id="Mockups" stroke="none" stroke-width="1" fill="none" fill-rule="evenodd">
        <g id="Mobile" transform="translate(-125.000000, -2814.000000)">
            <g id="Scrolling-Page" transform="translate(-58.000000, 0.000000)">
                <g id="Take-Action" transform="translate(0.000000, 2156.000000)">
                    <g id="FAN-Action" transform="translate(0.000000, 602.000000)">
                        <g id="FAN" transform="translate(183.000000, 56.000000)">
                            <mask id="mask-2" fill="white">
                                <use xlink:href="#path-1"></use>
                            </mask>
                            <g id="Clip-2"></g>
                            <path d="M37.916075,4.0640116 L30.977325,4.0640116 C30.3164917,4.0640116 29.7799176,4.6007716 29.7799176,5.2653316 C29.7799176,5.9298916 30.3164917,6.4666516 30.977325,6.4666516 L37.916075,6.4666516 C38.5740843,6.4666516 39.1106583,5.9298916 39.1106583,5.2653316 C39.1106583,4.6007716 38.5740843,4.0640116 37.916075,4.0640116 Z M34.445288,60.9520516 C32.9118157,60.9520516 31.6692231,62.2016516 31.6692231,63.7437716 C31.6692231,65.2858916 32.9118157,66.5354916 34.445288,66.5354916 C35.9787602,66.5354916 37.2213528,65.2858916 37.2213528,63.7437716 C37.2213528,62.2016516 35.9787602,60.9520516 34.445288,60.9520516 Z M59.1700565,36.0821716 C59.0457972,37.5618116 57.8483898,38.6750916 56.3770472,38.6750916 C56.3036213,38.6750916 56.2217231,38.6750916 56.139825,38.6694116 L52.861075,38.3996116 L52.2821398,38.3541716 L50.6328806,38.2206916 L50.5509824,38.2121716 C49.8082509,38.1525316 49.1304731,37.8003716 48.6390843,37.2266916 C48.2917231,36.8063716 48.0686213,36.3150516 47.9951954,35.7896516 C47.9641306,35.5823316 47.9556583,35.3721716 47.9726028,35.1620116 C47.9782509,35.1108916 47.9782509,35.0512516 47.9951954,34.9972916 C48.1872324,33.6766916 49.2942694,32.6429316 50.6328806,32.5690916 C50.6837139,32.5634116 50.7373713,32.5634116 50.7882046,32.5634116 C50.8616306,32.5634116 50.9378806,32.5634116 51.0028343,32.5690916 L52.2821398,32.6741716 L52.861075,32.7196116 L56.5916769,33.0263316 C57.9585287,33.1370916 59.0147324,34.2134516 59.1559361,35.5368916 C59.1559361,35.5510916 59.1644083,35.5596116 59.1559361,35.5738116 C59.1559361,35.5880116 59.1644083,35.6107316 59.1644083,35.6249316 L59.1700565,35.9032516 L59.1700565,36.0821716 Z M52.2821398,42.0149316 L52.861075,42.0972916 L54.6684824,42.3443716 C55.9675565,42.5318116 56.9192694,43.6592916 56.9192694,44.9458116 C56.9192694,45.0594116 56.9107972,45.1786916 56.8966769,45.2979716 C56.7046398,46.6583316 55.5439454,47.6296116 54.1855657,47.5472516 C54.117788,47.5472516 54.044362,47.5387316 53.968112,47.5330516 L52.861075,47.3740116 L52.2821398,47.3001716 L50.6328806,47.0672916 L48.8424176,46.8230516 C48.5430657,46.7832916 48.2550102,46.6867316 47.9951954,46.5532516 C47.6591306,46.3800116 47.3626028,46.1272516 47.1253806,45.8205316 C46.7017694,45.2610516 46.5210287,44.5709316 46.6113991,43.8836516 C46.7300102,43.0259716 47.2665843,42.3074516 47.9951954,41.9268916 C48.3566769,41.7309316 48.7661676,41.6201716 49.1982509,41.6201716 C49.2490843,41.6201716 49.2942694,41.6201716 49.3394546,41.6286916 C49.4128806,41.6286916 49.4806583,41.6343716 49.5399639,41.6428916 L50.6328806,41.7934116 L52.2821398,42.0149316 Z M48.3284361,28.5249316 C48.2013528,28.4141716 48.0912139,28.2948916 47.9951954,28.1670916 C47.6308898,27.7183716 47.4134361,27.1674116 47.3767231,26.5823716 C47.3400102,25.8666916 47.5715843,25.1850916 47.9951954,24.6540116 C48.4244546,24.1030516 49.0626954,23.7054516 49.7997787,23.6003716 C49.8732046,23.5946916 49.9494546,23.5861716 50.0144083,23.5861716 L50.6328806,23.5492516 L52.2821398,23.4441716 L52.861075,23.4129316 L55.6117231,23.2425316 C55.6625565,23.2425316 55.721862,23.2340116 55.7811676,23.2340116 C56.5182509,23.2340116 57.2016769,23.5265316 57.7071861,24.0036516 C58.2126954,24.4836116 58.5459361,25.1566916 58.5911213,25.9036116 C58.6730194,27.3832516 57.6478806,28.6612516 56.1906583,28.8714116 C56.1172324,28.8770916 56.0353343,28.8856116 55.9534361,28.8912916 L52.861075,29.0787316 L52.2821398,29.1156516 L50.6328806,29.2150516 L50.3561213,29.2292516 C49.621862,29.2746916 48.8932509,29.0276116 48.3284361,28.5249316 Z M47.9951954,19.7976116 C47.5320472,19.4766916 47.1677417,19.0194516 46.9672324,18.4656516 C46.5210287,17.2416116 46.9841769,15.8954516 47.9951954,15.1712516 C48.1872324,15.0349316 48.401862,14.9241716 48.6390843,14.8332916 L50.6328806,14.1034116 L52.2821398,13.4956516 L52.861075,13.2883316 L53.9031583,12.9049316 C54.2081583,12.7856516 54.5272787,12.7345316 54.8605194,12.7345316 C56.0438065,12.7345316 57.1113065,13.4729316 57.5151491,14.5890516 C58.0488991,16.0743716 57.3146398,17.6676116 55.834825,18.2128916 L52.861075,19.3119716 L52.2821398,19.5192916 L50.6328806,20.1270516 L50.5792231,20.1469316 C50.2742231,20.2605316 49.9494546,20.3201716 49.621862,20.3201716 C49.0259824,20.3201716 48.4611676,20.1327316 47.9951954,19.7976116 Z M59.9297324,32.8019716 C59.7151028,32.5548916 59.4835287,32.3390516 59.2378343,32.1374116 L59.229362,32.1374116 C59.1644083,32.0834516 59.0966306,32.0323316 59.0232046,31.9783716 C58.3538991,31.5069316 57.5659824,31.2172516 56.7328806,31.1576116 L53.7026491,30.9105316 L56.063575,30.7600116 C56.1991306,30.7543316 56.3262139,30.7458116 56.4504731,30.7230916 C56.8684361,30.6634516 57.2609824,30.5526916 57.6337602,30.3936516 C58.1166769,30.1920116 58.5459361,29.9080116 58.9271861,29.5643716 C59.952325,28.6470516 60.5397324,27.2781716 60.449362,25.7843316 C60.3815843,24.5347316 59.8167694,23.3845316 58.8820009,22.5467316 C58.8057509,22.4814116 58.732325,22.4189316 58.6504269,22.3678116 C57.7438991,21.6492916 56.636862,21.2999716 55.493112,21.3738116 L52.861075,21.5300116 L52.2821398,21.5669316 L52.1494083,21.5754516 L52.2821398,21.5243316 L52.861075,21.3141716 L56.481538,19.9765316 C57.3061676,19.6783316 57.9895935,19.1614516 58.5092231,18.5252916 C59.5061213,17.2785316 59.8563065,15.5518116 59.2688991,13.9443716 C59.0457972,13.3252516 58.7040843,12.7799716 58.2720009,12.3227316 C57.9670009,12.0018116 57.6168157,11.7263316 57.2383898,11.5019716 C56.5323713,11.0901716 55.721862,10.8516116 54.8605194,10.8516116 C54.309825,10.8516116 53.776075,10.9481716 53.2620935,11.1356116 L52.861075,11.2832916 L52.861075,5.9639716 C52.861075,2.6752516 50.2007972,-2.84e-05 46.9305194,-2.84e-05 L21.9600565,-2.84e-05 C18.6897787,-2.84e-05 16.0295009,2.6752516 16.0295009,5.9639716 L16.0295009,9.5878116 L16.9303806,8.4518116 C17.3229269,7.9519716 17.7691306,7.5089316 18.2605194,7.1368916 L18.2605194,5.9639716 C18.2605194,3.9163316 19.9238991,2.2407316 21.9600565,2.2407316 L46.9305194,2.2407316 C48.9666769,2.2407316 50.6328806,3.9163316 50.6328806,5.9639716 L50.6328806,12.1068916 L48.0008435,13.0696516 L47.9951954,13.0696516 L47.9951954,7.8554116 L28.7519546,7.8554116 C29.5991769,8.5426916 30.2684824,9.3634516 30.7457509,10.2750916 L45.5862602,10.2750916 L45.5862602,14.9980116 L45.5947324,14.9468916 L45.7048713,14.9156516 C45.6596861,14.9752916 45.6145009,15.0434516 45.5862602,15.1030916 C45.577788,15.1116116 45.5721398,15.1172916 45.5721398,15.1258116 L45.5721398,15.1343316 C45.5721398,15.1343316 45.5721398,15.1400116 45.5636676,15.1400116 C44.9621398,16.1879716 44.7616306,17.4432516 45.0807509,18.6672916 C45.1174639,18.8178116 45.1626491,18.9683316 45.2134824,19.1160116 C45.3179731,19.3943316 45.4365843,19.6556116 45.5862602,19.9026916 C46.1369546,20.8285316 46.989825,21.5300116 47.9951954,21.8963716 C48.1420472,21.9560116 48.2917231,22.0014516 48.438575,22.0468916 C48.2917231,22.1065316 48.1420472,22.1803716 47.9951954,22.2627316 C46.7441306,22.9358116 45.846075,24.1626916 45.5862602,25.5826916 C45.5326028,25.8496516 45.5128343,26.1279716 45.5128343,26.4119716 C45.5128343,26.5000116 45.5128343,26.5994116 45.5184824,26.6959716 C45.5269546,26.8748916 45.5495472,27.0538116 45.5862602,27.2327316 C45.7641769,28.2721716 46.2838065,29.2150516 47.0858435,29.9307316 C47.331538,30.1494116 47.5913528,30.3425316 47.868112,30.4987316 C47.9132972,30.5214516 47.9500102,30.5441716 47.9951954,30.5668916 C48.3510287,30.7600116 48.7379269,30.9020116 49.1304731,30.9928916 C48.7209824,31.1490916 48.3425565,31.3592516 47.9951954,31.6205316 C46.9446398,32.4043716 46.2245009,33.6227316 46.114362,35.0143316 C46.0098713,36.2610916 46.4024176,37.4794516 47.2129269,38.4365316 C47.4303806,38.6892916 47.6591306,38.9136516 47.9132972,39.1096116 C47.941538,39.1323316 47.9641306,39.1550516 47.9951954,39.1692516 C48.4188065,39.4901716 48.8932509,39.7372516 49.4072324,39.8934516 C49.0203343,39.8707316 48.6475565,39.9076516 48.2832509,39.9900116 C48.1872324,40.0127316 48.0912139,40.0354516 47.9951954,40.0666916 C47.0067694,40.3506916 46.151075,40.9925316 45.5862602,41.8530516 C45.236075,42.3812916 44.9988528,42.9890516 44.9084824,43.6450916 C44.8124639,44.3266916 44.8802417,44.9969316 45.0948713,45.6274116 C45.2134824,45.9767316 45.3772787,46.3146916 45.5862602,46.6270916 L45.5862602,56.7176116 L23.3043157,56.7176116 L23.3043157,28.3914516 L23.2986676,28.3999716 C22.6801954,29.1838116 21.8499176,30.3056116 20.8982046,31.5466916 L20.8982046,59.1372916 L47.9951954,59.1372916 L47.9951954,48.4134516 C48.1957046,48.4730916 48.401862,48.5185316 48.6108435,48.5469316 L50.6328806,48.8252516 L50.6328806,65.0359716 C50.6328806,67.0836116 48.9666769,68.7563716 46.9305194,68.7563716 L21.9600565,68.7563716 C19.9238991,68.7563716 18.2605194,67.0836116 18.2605194,65.0359716 L18.2605194,41.4100116 C19.8137602,38.3768916 19.960612,35.1989316 19.7826954,32.9666916 C19.7007972,31.8960116 19.5370009,31.0440116 19.426862,30.5299716 L20.8982046,28.4510916 L23.3043157,25.0516116 L28.3594083,17.9146916 C29.376075,16.4861716 29.7799176,14.7452516 29.489038,13.0043316 C29.3252417,12.0018116 28.9468157,11.0759716 28.3678806,10.2750916 C27.964038,9.6786916 27.4528806,9.1618116 26.8513528,8.7216116 C26.3288991,8.3467316 25.7640843,8.0570516 25.1710287,7.8554116 C24.151538,7.5032516 23.0614454,7.4066916 21.9685287,7.5912916 C21.6042231,7.6509316 21.254038,7.7418116 20.912325,7.8554116 C20.912325,7.8554116 20.9038528,7.8610916 20.8982046,7.8610916 C19.8871861,8.2047316 18.9806583,8.8039716 18.2605194,9.5878116 C18.0600102,9.7979716 17.8792694,10.0138116 17.7154731,10.2466916 L16.0295009,12.5925316 L11.1240843,19.4170516 L4.05825093,29.2434516 C3.93963981,29.4166916 3.86338981,29.6183316 3.84926944,29.8256516 L2.67445463,48.0470916 L0.169500926,52.0543316 C-0.155267593,52.5768916 5.64814815e-05,53.2641716 0.519686111,53.5936116 C0.706075,53.7128916 0.912232407,53.7640116 1.11556574,53.7640116 C1.48551944,53.7640116 1.849825,53.5850916 2.05880648,53.2414516 L3.298575,51.2534516 L4.71061204,48.9956516 C4.81510278,48.8394516 4.86593611,48.6605316 4.88288056,48.4730916 L6.05769537,30.2970916 L11.9120009,22.1519716 L16.0295009,16.4180116 L18.2605194,13.3110516 L19.5228806,11.5530916 C19.8956583,11.0390516 20.3616306,10.6130516 20.8982046,10.3120116 C21.3359361,10.0592516 21.8188528,9.8860116 22.3328343,9.8036516 C23.3043157,9.6389316 24.2786213,9.8121716 25.1201954,10.2750916 C25.2670472,10.3574516 25.4082509,10.4483316 25.5494546,10.5448916 C26.4870472,11.2179716 27.1026954,12.2176516 27.2890843,13.3706916 C27.4811213,14.5208916 27.2156583,15.6654116 26.5463528,16.6054516 L23.3043157,21.1863716 L20.8982046,24.5886916 L18.2605194,28.3176116 L17.3144546,29.6467316 C17.1139454,29.9250516 17.0546398,30.2828916 17.1506583,30.6123316 C17.1676028,30.6492516 17.7606583,32.8076516 17.5545009,35.5738116 C17.4274176,37.2096516 17.0179269,39.0641716 16.0295009,40.8136116 C15.6595472,41.4923716 15.1907509,42.1569316 14.6174639,42.7874116 C14.2672787,43.1679716 14.239038,43.7189316 14.507325,44.1392516 C14.5496861,44.2216116 14.6174639,44.3039716 14.6908898,44.3692916 C15.0721398,44.7129316 15.614362,44.7583716 16.0295009,44.4914116 L16.0295009,65.0359716 C16.0295009,68.3246916 18.6897787,70.9999716 21.9600565,70.9999716 L46.9305194,70.9999716 C50.2007972,70.9999716 52.861075,68.3246916 52.861075,65.0359716 L52.861075,49.1234516 L53.739362,49.2427316 C53.8579731,49.2654516 53.9765843,49.2739716 54.0951954,49.2796516 C54.5865843,49.3108916 55.0610287,49.2512516 55.4987602,49.1319716 L55.5072324,49.1319716 C57.1197787,48.6747316 58.3623713,47.3001716 58.5995935,45.5280116 C58.7633898,44.3863316 58.4583898,43.2418116 57.7580194,42.3074516 C57.5744546,42.0688916 57.3739454,41.8587316 57.1564917,41.6570916 L57.1508435,41.6570916 C56.5182509,41.1032916 55.7444546,40.7454516 54.8972324,40.6346916 L52.861075,40.3506916 L52.2821398,40.2683316 L51.7314454,40.1916516 L52.2821398,40.2370916 L52.861075,40.2825316 L55.9816769,40.5352916 C56.1172324,40.5523316 56.2499639,40.5523316 56.3770472,40.5523316 C56.7921861,40.5523316 57.2016769,40.4983716 57.588575,40.3932916 C58.2268157,40.2228916 58.8142231,39.9246916 59.3112602,39.5214116 C60.2799176,38.7347316 60.9238065,37.5760116 61.0282972,36.2326916 C61.132788,34.9830916 60.7402417,33.7647316 59.9297324,32.8019716 Z M33.3297787,50.2963716 L35.6342231,50.2963716 L35.6342231,47.9789316 L33.3297787,47.9789316 L33.3297787,50.2963716 Z M28.650288,50.2963716 L30.9519083,50.2963716 L30.9519083,47.9789316 L28.650288,47.9789316 L28.650288,50.2963716 Z M37.9386676,50.2963716 L40.243112,50.2963716 L40.243112,47.9789316 L37.9386676,47.9789316 L37.9386676,50.2963716 Z" id="Fill-1" fill="#000000" fill-rule="evenodd" mask="url(#mask-2)"></path>
                        </g>
                    </g>
                </g>
            </g>
        </g>
    </g>
</svg>