<?xml version="1.0" encoding="UTF-8" standalone="no"?>
<svg width="36px" height="37px" viewBox="0 0 36 37" version="1.1" xmlns="http://www.w3.org/2000/svg" xmlns:xlink="http://www.w3.org/1999/xlink">
    <!-- Generator: Sketch 49.1 (51147) - http://www.bohemiancoding.com/sketch -->
    <title>IG</title>
    <desc>Created with Sketch.</desc>
    <defs>
        <polygon id="path-1" points="3.57142857e-05 0.0114204056 35.9886429 0.0114204056 35.9886429 36.1777778 3.57142857e-05 36.1777778"></polygon>
    </defs>
    <g id="Mockups" stroke="none" stroke-width="1" fill="none" fill-rule="evenodd">
        <g id="Desktop-HD" transform="translate(-1027.000000, -19.000000)">
            <g id="Navigation-Bar" transform="translate(-4.000000, 0.000000)">
                <g id="IG" transform="translate(1031.000000, 19.000000)">
                    <g id="Group-3">
                        <mask id="mask-2" fill="white">
                            <use xlink:href="#path-1"></use>
                        </mask>
                        <g id="Clip-2"></g>
                        <path d="M17.9943214,0.0114204056 C13.1073929,0.0114204056 12.4945357,0.0322369841 10.5753214,0.120240864 C8.65996429,0.2080294 7.35196429,0.513745979 6.20732143,0.960799947 C5.02410714,1.42285621 4.02053571,2.04118037 3.02017857,3.04647755 C2.01975,4.05184651 1.40453571,5.06030206 0.944678571,6.24935938 C0.499821429,7.3996548 0.195678571,8.71411406 0.10825,10.6389298 C0.0206785714,12.5676934 3.57142857e-05,13.1834335 3.57142857e-05,18.0945668 C3.57142857e-05,23.0057001 0.0206785714,23.6215119 0.10825,25.5502756 C0.195678571,27.4750195 0.499821429,28.7895506 0.944678571,29.9397742 C1.40453571,31.1288315 2.01975,32.1373589 3.02017857,33.142656 C4.02053571,34.148025 5.02410714,34.7662774 6.20732143,35.2284772 C7.35196429,35.6754594 8.65996429,35.981176 10.5753214,36.0690363 C12.4945357,36.1569684 13.1073929,36.177785 17.9943214,36.177785 C22.8813214,36.177785 23.4940357,36.1569684 25.4133214,36.0690363 C27.3286786,35.981176 28.6366786,35.6754594 29.7813214,35.2284772 C30.9646071,34.7662774 31.9681071,34.148025 32.9684643,33.142656 C33.9688929,32.1373589 34.5841071,31.1289033 35.0439643,29.9397742 C35.4888214,28.7895506 35.7930357,27.4750195 35.8803929,25.5502756 C35.9679643,23.6215119 35.9886786,23.0057001 35.9886786,18.0945668 C35.9886786,13.1835052 35.9679643,12.5676934 35.8803929,10.6389298 C35.7930357,8.71411406 35.4888214,7.3996548 35.0439643,6.24935938 C34.5841071,5.06030206 33.9688929,4.05184651 32.9684643,3.04647755 C31.9681071,2.04118037 30.9646071,1.42285621 29.7813214,0.960799947 C28.6366786,0.513745979 27.3286786,0.2080294 25.4133214,0.120240864 C23.4940357,0.0322369841 22.8813214,0.0114204056 17.9943214,0.0114204056 M17.9943214,3.26964563 C22.7990357,3.26964563 23.3681071,3.28802164 25.2655357,3.37502058 C27.0199643,3.45548743 27.97275,3.7500779 28.6068214,3.9977234 C29.44675,4.32576397 30.04625,4.71761811 30.6758929,5.35037032 C31.3055357,5.9831943 31.6954643,6.58558302 32.0219643,7.42965938 C32.2683214,8.06686203 32.5614643,9.02435286 32.6415357,10.7874453 C32.7280357,12.6942439 32.7463929,13.2661973 32.7463929,18.0945668 C32.7463929,22.9230081 32.7280357,23.4949615 32.6415357,25.4016883 C32.5614643,27.1648525 32.2683214,28.1223433 32.0219643,28.759546 C31.6954643,29.6035506 31.3055357,30.2060111 30.6758929,30.8387633 C30.04625,31.4715872 29.44675,31.8634414 28.6068214,32.191482 C27.97275,32.4390557 27.0199643,32.7337179 25.2655357,32.814113 C23.3683929,32.9011119 22.7993929,32.9195597 17.9943214,32.9195597 C13.18925,32.9195597 12.62025,32.9011119 10.7231071,32.814113 C8.96867857,32.7337179 8.01582143,32.4390557 7.38175,32.191482 C6.54189286,31.8634414 5.94239286,31.4715872 5.31275,30.8387633 C4.68310714,30.2060111 4.29310714,29.6035506 3.96667857,28.759546 C3.72032143,28.1223433 3.42717857,27.1648525 3.34710714,25.4017601 C3.26053571,23.4949615 3.24225,22.9230081 3.24225,18.0945668 C3.24225,13.2661973 3.26053571,12.6942439 3.34710714,10.7874453 C3.42717857,9.02435286 3.72032143,8.06686203 3.96667857,7.42965938 C4.29310714,6.58558302 4.68310714,5.9831943 5.31275,5.3504421 C5.94239286,4.71761811 6.54189286,4.32576397 7.38175,3.9977234 C8.01582143,3.7500779 8.96867857,3.45548743 10.7230357,3.37502058 C12.6205357,3.28802164 13.1896071,3.26964563 17.9943214,3.26964563" id="Fill-1" fill="#FFFFFF" mask="url(#mask-2)"></path>
                    </g>
                    <path d="M18.0000348,23.8421089 C14.7735468,23.8421089 12.1578911,21.2264532 12.1578911,17.9999652 C12.1578911,14.7734773 14.7735468,12.1578911 18.0000348,12.1578911 C21.2265227,12.1578911 23.8421785,14.7734773 23.8421785,17.9999652 C23.8421785,21.2264532 21.2265227,23.8421089 18.0000348,23.8421089 M18.0000348,9 C13.0294749,9 9,13.0294053 9,17.9999652 C9,22.9705947 13.0294749,27 18.0000348,27 C22.9705947,27 27,22.9705947 27,17.9999652 C27,13.0294053 22.9705947,9 18.0000348,9" id="Fill-4" fill="#FFFFFF"></path>
                    <path d="M29,9 C29,10.1045981 28.1046129,11 27.0000331,11 C25.8954533,11 25,10.1045981 25,9 C25,7.89540192 25.8954533,7 27.0000331,7 C28.1046129,7 29,7.89540192 29,9" id="Fill-6" fill="#FFFFFF"></path>
                </g>
            </g>
        </g>
    </g>
</svg>