<?xml version="1.0" encoding="utf-8"?>
<!-- Generator: Adobe Illustrator 22.1.0, SVG Export Plug-In . SVG Version: 6.00 Build 0)  -->
<svg version="1.1" id="Layer_1" xmlns="http://www.w3.org/2000/svg" xmlns:xlink="http://www.w3.org/1999/xlink" x="0px" y="0px"
	 viewBox="0 0 336.5 118.9" style="enable-background:new 0 0 336.5 118.9;" xml:space="preserve">
<style type="text/css">
	.st0{fill:#E7E6E6;}
	.st1{fill:#FFFFFF;}
	.st2{fill:#191919;}
	.st3{fill:#9F352D;}
	.st4{fill:#FC9E8C;}
	.st5{fill:#E8CFB1;}
	.st6{fill:#FC4D40;}
	.st7{fill:#ECA414;}
	.st8{fill:none;stroke:#191919;stroke-width:0.8266;stroke-miterlimit:10;}
	.st9{fill:#7A6956;}
	.st10{fill:#D6B780;}
	.st11{fill-rule:evenodd;clip-rule:evenodd;fill:#191919;}
	.st12{fill-rule:evenodd;clip-rule:evenodd;fill:#FFFFFF;}
	.st13{fill:none;stroke:#A7A9AC;stroke-width:0.8352;stroke-miterlimit:10;}
	.st14{fill:#313131;}
	.st15{opacity:0.1;fill:#7A6956;}
	.st16{fill:none;stroke:#A7A9AC;stroke-width:2.059;stroke-miterlimit:10;}
	.st17{fill:none;stroke:#7B7266;stroke-width:2.0589;stroke-miterlimit:10;}
	.st18{opacity:0.2;fill:#5B3321;}
	.st19{opacity:0.5;clip-path:url(#SVGID_2_);fill:#7A6956;}
	.st20{opacity:0.4;fill:#9F352D;}
	.st21{opacity:0.2;fill:#7A6956;}
	.st22{fill:#59595C;}
	.st23{opacity:0.5;clip-path:url(#SVGID_4_);fill:#7A6956;}
</style>
<g>
	<path class="st2" d="M225.5,95.6h1.5v20.3h-1.5V95.6z M236.7,102.6v4.1c0,2,0.9,3.3,3,3.3c2.1,0,3-1.3,3-3.3v-4.1h-1.4v4
		c0,1.1-0.3,2.2-1.6,2.2c-1.4,0-1.6-1-1.6-2.2v-4H236.7z M245.7,102.6h-1.4v7.1h1.4v-3.3c0-1.3,0-2.9,1.8-2.9c1.4,0,1.6,0.8,1.6,2
		v4.1h1.4v-4.3c0-1.7-0.5-3.1-2.5-3.1c-0.9,0-1.7,0.4-2.2,1.2h0V102.6z M253.5,102.6h-1.4v7.1h1.4V102.6z M252.8,99.3
		c-0.4,0-0.8,0.3-0.8,0.8c0,0.4,0.3,0.8,0.8,0.8c0.4,0,0.8-0.3,0.8-0.8C253.5,99.6,253.2,99.3,252.8,99.3 M257.3,103.9h1.3v-1.3
		h-1.3v-2.7h-1.4v2.7h-0.7v1.3h0.7v5.9h1.4V103.9z M266.3,106.4v-0.2c0-2.1-1.1-3.8-3.3-3.8c-2.3,0-3.5,1.6-3.5,3.8
		c0,2.1,1.3,3.8,3.5,3.8c1.4,0,2.6-0.7,3.3-2l-1.2-0.7c-0.5,0.9-1.1,1.4-2.1,1.4c-1.3,0-2.1-1.1-2.2-2.4H266.3z M260.9,105.3
		c0.2-1,1-1.8,2-1.8c1.1,0,1.8,0.7,2,1.8H260.9z M273.4,109.7h1.4V96.5h-1.4v7.3h0c-0.6-0.9-1.4-1.4-2.5-1.4c-2.1,0-3.4,1.8-3.4,3.7
		c0,2,1.2,3.9,3.4,3.9c1,0,1.9-0.5,2.4-1.4h0V109.7z M273.5,106.2c0,1.4-0.8,2.6-2.3,2.6c-1.4,0-2.3-1.3-2.3-2.6
		c0-1.3,0.8-2.6,2.3-2.6C272.6,103.6,273.5,104.8,273.5,106.2 M282.7,96.5h-1.4v13.2h1.4V107l0.5-0.5l2.5,3.3h1.8l-3.4-4.2l3.1-3
		h-1.8l-2.7,2.7V96.5z M290,102.6h-1.4v7.1h1.4V102.6z M289.4,99.3c-0.4,0-0.8,0.3-0.8,0.8c0,0.4,0.3,0.8,0.8,0.8
		c0.4,0,0.8-0.3,0.8-0.8C290.1,99.6,289.8,99.3,289.4,99.3 M293.4,102.6H292v7.1h1.4v-3.3c0-1.3,0-2.9,1.8-2.9c1.4,0,1.6,0.8,1.6,2
		v4.1h1.4v-4.3c0-1.7-0.5-3.1-2.5-3.1c-0.9,0-1.7,0.4-2.2,1.2h0V102.6z M306.7,102.6h-1.4v1.2h0c-0.6-0.9-1.4-1.4-2.5-1.4
		c-2.1,0-3.4,1.8-3.4,3.7c0,2,1.2,3.9,3.4,3.9c1,0,1.9-0.5,2.4-1.4h0v1.4c0,1.5-0.4,2.6-2,2.6c-1.3,0-2.1-0.7-2.1-2h-1.4
		c0,2,1.5,3.2,3.4,3.2c2.8,0,3.5-1.8,3.5-4.2V102.6z M305.4,106.2c0,1.4-0.8,2.6-2.3,2.6c-1.4,0-2.3-1.3-2.3-2.6
		c0-1.3,0.8-2.6,2.3-2.6C304.6,103.6,305.4,104.8,305.4,106.2 M314,109.7h1.4V96.5H314v7.3h0c-0.6-0.9-1.4-1.4-2.5-1.4
		c-2.1,0-3.4,1.8-3.4,3.7c0,2,1.2,3.9,3.4,3.9c1,0,1.9-0.5,2.4-1.4h0V109.7z M314,106.2c0,1.4-0.8,2.6-2.3,2.6
		c-1.4,0-2.3-1.3-2.3-2.6c0-1.3,0.8-2.6,2.3-2.6C313.2,103.6,314,104.8,314,106.2 M324.3,106.2c0-2.2-1.7-3.8-3.8-3.8
		c-2.1,0-3.8,1.6-3.8,3.8c0,2.2,1.7,3.8,3.8,3.8C322.6,110,324.3,108.3,324.3,106.2 M318,106.2c0-1.4,1.1-2.5,2.4-2.5
		c1.4,0,2.4,1.1,2.4,2.5c0,1.3-1.1,2.5-2.4,2.5C319.1,108.7,318,107.5,318,106.2 M327,102.6h-1.4v7.1h1.4v-3.5
		c0-1.1,0.1-2.6,1.6-2.6c1.3,0,1.3,1.4,1.3,2.4v3.8h1.4v-3.5c0-1.1,0.1-2.6,1.6-2.6c1.2,0,1.3,1.2,1.3,2.1v4h1.4v-4.3
		c0-1.6-0.5-3.1-2.4-3.1c-0.9,0-1.8,0.5-2.2,1.3c-0.5-0.8-1.1-1.3-2.1-1.3c-0.8,0-1.5,0.5-1.9,1.1h0V102.6z M29.9,90.1
		c-0.1,0.1-0.2,0.7-0.2,0.8c-0.1,0.7,0.1,1.5,0.4,2.1c0.1,0.1,0.2,0.3,0.2,0.5c-0.1,0.2-0.9,0.2-1.1,0.2c-0.5,0-0.9-0.1-1.3-0.2
		c-0.9-0.3-1.6-0.5-2.5-0.8c-2.2-0.7-4.4-1.2-6.8-1.7c-2.6-0.6-5.4-0.5-7.9,0.6c-1,0.4-1.9,0.1-2.9,0.3c-0.7,0.1-1.5,0.7-1.7,1.4
		c0,0.1-0.1,0.1-0.2,0.2c-0.1,0.1-0.1,0.2-0.2,0.3c0,0,0,0.1,0,0.1c-0.1,0.2-0.1,0.4,0,0.6c0,0.1,0.1,0.3,0.2,0.4
		c0,0,0.1,0.1,0.2,0.1c0,0,0-0.1,0-0.1C6,94.7,6,94.5,6,94.3c0-0.2,0.1-0.4,0.2-0.5c0,0,0.1,0.2,0.2,0.3c0.1,0.1,0.1,0.1,0.2,0.2
		c0.1,0.1,0.3,0.2,0.5,0.3c0.1,0,0.3,0.1,0.4,0.1c0.1,0,0.2,0,0.4,0c0,0,0,0,0,0c0,0,0,0,0,0c0.1,0.4-0.2,1-0.3,1.4
		c-0.1,0.4-0.3,0.9-0.4,1.4c-0.3,1.8-0.2,3.5,0.5,5.1c0.2,0.4,0.4,0.7,0.6,1c0.4,0.6,0.7,1.1,0.9,1.8c0.1,0.4,0.2,1,0,1.4
		c-0.2,0.5-0.6,1-0.7,1.6c0,0.5,0.1,0.9,0.2,1.3c0.2,0.6,0.4,1.1,0.3,1.8c-0.1,0.4-0.2,0.8-0.1,1.2c0,0.1,0.1,0.6,0.3,0.4
		c0.1-0.1,0.1-0.2,0.2-0.2c0.1,0,0.2,0.1,0.2,0.2c0.1,0.4,0,0.9,0.1,1.4c0.1,0.6,0.4,1.3,1,1.6c0.1,0,0.4,0.1,0.5,0
		c0.2-0.2-0.2-0.9,0.2-1c0.2-0.1,0.5,0.5,0.6,0.6c0.2,0.2,0.4,0.2,0.3-0.2c-0.1-0.4-0.1-0.8-0.3-1.2c-0.1-0.3-0.1-0.6-0.2-0.9
		c-0.1-0.3-0.2-0.7-0.2-1c-0.1-0.4,0-0.7-0.1-1.1c-0.1-0.4-0.2-0.7-0.2-1.1c0-0.4,0.1-0.8,0.2-1.1c0.1-0.2,0.2-0.5,0.3-0.7
		c0.3-0.4,0.6-0.8,1-1.2c0.2-0.2,0.4-0.5,0.6-0.6c0,0,0.2,0.7,0.2,0.7c0,0.3,0,0.6-0.1,0.9c-0.1,0.3-0.3,0.6-0.2,1
		c0.1,0.6,0.7,1,0.7,1.6c0,0.3-0.1,0.5-0.1,0.8c0,0.3,0,0.6,0.1,0.9c0,0.1,0.2,0.5,0.4,0.3c0.1-0.1,0-0.3,0.1-0.3
		c0.2-0.1,0.4,0.3,0.4,0.5c0.2,0.5,0.2,1.1,0.5,1.6c0.3,0.5,0.8,0.7,1.3,0.7c0.1,0,0.1,0,0.1,0c0.2-0.1,0.1-0.5,0-0.6
		c0-0.1,0-0.3,0.2-0.3c0.2,0.1,0.5,0.6,0.8,0.5c0.3-0.1-0.3-1.5-0.4-1.7c-0.2-0.5-0.4-0.9-0.5-1.4c-0.2-0.5-0.4-0.9-0.5-1.4
		c-0.1-0.4-0.1-0.8,0-1.2c0.1-0.4,0.4-0.8,0.6-1.2c0.2-0.5,0.5-0.9,0.6-1.4c0.1-0.3,0.2-0.8,0.6-0.8c0.3,0,0.8,0.4,1,0.6
		c0.4,0.2,0.7,0.5,1.1,0.7c0.9,0.4,1.8,0.7,2.8,0.9c1,0.3,2,0.5,3,0.7c0.6,0.1,1.3,0.2,1.9,0.3c0.3,0,0.6,0,0.9,0
		c0.4,0.1,0.4,0.7,0.4,1c0.1,0.5,0.2,1,0.3,1.5c0.2,1,0.4,2.1,0.5,3.2c0,0.3,0.1,0.7,0,1c0,0.1-0.3,0.5,0,0.5c0.2,0,0.3-0.2,0.5-0.1
		c0.1,0.1,0.1,0.4,0.1,0.5c0,0.4,0,0.8,0.1,1.2c0.1,0.5,0.3,0.8,0.7,1.1c0.2,0.1,0.8,0.4,0.9,0c0-0.2-0.1-0.5,0.2-0.5
		c0.1,0,0.3,0.1,0.4,0.2c0.1,0.1,0.4,0.3,0.5,0.2c0.2-0.1-0.1-0.6-0.1-0.8c-0.1-0.3-0.2-0.6-0.2-0.9c0-0.2,0-0.5-0.1-0.7
		c0-0.4-0.1-0.8-0.2-1.1c0-0.1-0.1-0.3-0.1-0.4c-0.1-0.3-0.1-0.7,0-1c0-0.3,0-0.6,0-0.9c0-0.7,0.1-1.4,0.2-2c0-0.2,0.1-0.4,0.1-0.6
		c0-0.2,0-0.5,0.2-0.6c0.2-0.1,0.4,0,0.5,0c0.2,0,0.5,0,0.7,0c0.4,0.2,0.3,0.8,0.3,1.4c0,0.4,0,0.9,0.1,1.3c0.1,0.4,0.3,0.7,0.4,1.1
		c0.1,0.4,0,0.7,0,1.1c0,0.4-0.1,0.8-0.1,1.2c0,0.1,0,0.1,0,0.2c0.1,0.1,0.3,0.1,0.4,0.1c0.1-0.1,0.3-0.1,0.4,0
		c0.2,0.2,0.2,0.6,0.3,0.8c0.1,0.3,0.2,0.6,0.4,0.8c0.2,0.2,0.5,0.2,0.8,0.3c0.2,0.1,0.9,0.6,1.1,0.3c0.1-0.2-0.3-0.4-0.1-0.6
		c0.1-0.1,0.3,0.1,0.4,0.1c0.1,0,0.1,0.1,0.2,0.1c0.3,0-0.1-0.7-0.1-0.9c-0.1-0.2-0.2-0.4-0.3-0.7c-0.1-0.2,0-0.5-0.1-0.7
		c0-0.7-0.5-1.2-0.6-1.8c0-0.3-0.1-0.7-0.1-1c0-0.6,0-1.3,0.1-1.9c0-0.3,0.1-0.6,0.1-0.9c0-0.4-0.1-1.2,0.2-1.3
		c1.2-0.5,2.4-0.8,3.5-1.2c0.6-0.2,1.1-0.4,1.7-0.7c0.3-0.1,0.6-0.2,0.9-0.3c0.3,0,0.7,0,1.1-0.1c0.2-0.1,0.5-0.3,0.8-0.4
		c0.4-0.3,0.8-0.6,1.2-0.8c0.3-0.2,0.7-0.3,0.9-0.5c0.3-0.2,0.5-0.5,0.7-0.7c0.4-0.6,0.6-1.6,0.1-2.2c-0.2-0.3-0.9-0.5-1.5-0.5
		c-0.2,0-0.3,0.1-0.5,0.1c-0.2,0-0.3-0.1-0.4-0.2c-0.5-0.4-0.5-1.2-0.6-1.7c-0.1-0.3,0-0.6-0.2-0.8c-0.1-0.2-0.3-0.4-0.4-0.7
		c-0.1-0.2-0.2-0.4-0.3-0.6c-0.2-0.4-0.3-0.9,0-1.3c0.1-0.2,0.4-0.3,0.6-0.4c0.2-0.1,0.4-0.3,0.6-0.5c0.4-0.4,0.8-0.8,1.1-1.3
		c0.2-0.4,0.2-0.8,0.2-1.3c0-0.8,0.2-1.5,0.1-2.3c-0.1-0.5-0.3-1-0.4-1.5c0-0.1-0.1-0.2-0.2-0.3c-0.1-0.1-0.4,0-0.5,0.1
		c-0.3,0.2-0.6,0.5-0.9,0.8c-0.3,0.2-0.7,0.3-1,0.5c-0.2,0.1-0.4,0.3-0.6,0.5c-0.3,0.3-0.6,0.6-0.8,1c-0.3,0.5-0.5,1-0.9,1.3
		c-0.4,0.3-0.6,0.5-1.1,0.4c-0.4,0-0.8-0.1-1.2-0.2c-0.6-0.1-1.2-0.2-1.8-0.2c-0.6,0-1.2,0.1-1.7,0.2c-0.4,0.1-0.8,0.1-1.1,0.2
		c-0.4,0.1-0.7,0.3-1.1,0.1c-0.2-0.1-0.3-0.3-0.5-0.4c-0.5-0.5-1.2-1-1.9-1.1c-0.4,0-0.8,0-1.1-0.3c-0.3-0.2-0.5-0.5-0.7-0.8
		C30.1,90.3,30,90.1,29.9,90.1C29.9,90.1,29.9,90.1,29.9,90.1 M7.4,92.6c0.2-0.2,0.5-0.2,0.8-0.2c0,0,0.1,0,0.1,0
		c0.1,0,0.3,0,0.4,0.1c0.1,0.1,0.2,0.1,0.3,0.2c0,0-0.1,0.2-0.1,0.2c0,0-0.1,0.1-0.1,0.1c-0.1,0.1-0.2,0.2-0.2,0.3c0,0,0,0,0,0
		c0,0,0,0,0,0c-0.1-0.2-0.1-0.3-0.3-0.4c-0.1-0.1-0.2-0.1-0.3-0.2C7.7,92.7,7.6,92.7,7.4,92.6C7.5,92.6,7.3,92.6,7.4,92.6
		C7.3,92.6,7.4,92.6,7.4,92.6 M6.8,93.8C6.5,93,7.7,93,7.9,93.5C8.1,94.3,7,94.1,6.8,93.8 M63.1,103.8v-1.9h-1.6v-3.2h-2v3.2h-0.9
		v1.9h0.9v6.9h2v-6.9H63.1z M64.8,110.7h2v-4.3c0-1.1,0.1-1.9,0.4-2.3c0.3-0.4,0.8-0.7,1.5-0.7c0.6,0,1,0.2,1.2,0.5
		c0.3,0.3,0.4,0.8,0.4,1.5v5.2h2v-5.4c0-1.2-0.3-2.1-0.8-2.7c-0.6-0.6-1.4-1-2.4-1c-0.9,0-1.7,0.3-2.4,1v-4.5h-2V110.7z M82.5,106.3
		c0-1.5-0.4-2.6-1.1-3.4c-0.8-0.8-1.8-1.2-3.1-1.2c-1.3,0-2.3,0.4-3.1,1.3c-0.8,0.9-1.2,2-1.2,3.4c0,1.4,0.4,2.5,1.2,3.4
		c0.8,0.8,1.9,1.3,3.2,1.3c0.5,0,0.9,0,1.3-0.1c0.4-0.1,0.8-0.2,1.1-0.5c0.3-0.2,0.7-0.5,1-0.8c0.3-0.3,0.6-0.7,0.8-1.2l-1.7-1
		c-0.4,0.7-0.8,1.1-1.1,1.3c-0.3,0.2-0.8,0.4-1.3,0.4c-0.7,0-1.2-0.2-1.6-0.6c-0.4-0.4-0.7-1-0.7-1.7h6.3L82.5,106.3z M76.3,105.1
		c0.1-0.3,0.2-0.5,0.3-0.7c0.1-0.2,0.3-0.4,0.5-0.5c0.2-0.1,0.4-0.3,0.6-0.3c0.2-0.1,0.5-0.1,0.7-0.1c1.1,0,1.8,0.5,2.1,1.6H76.3z
		 M89.9,110.7h2v-4.3c0-1.1,0.1-1.9,0.4-2.3c0.3-0.4,0.8-0.7,1.5-0.7c0.6,0,1,0.2,1.2,0.5c0.3,0.3,0.4,0.8,0.4,1.5v5.2h2v-5.4
		c0-1.2-0.3-2.1-0.8-2.7c-0.6-0.6-1.4-1-2.4-1c-0.9,0-1.7,0.3-2.4,1v-7.2h-2V110.7z M99.6,101.8v5.1c0,0.8,0.1,1.4,0.3,1.8
		c0.2,0.5,0.5,0.9,0.9,1.2c0.7,0.6,1.6,0.9,2.6,0.9c1.1,0,1.9-0.3,2.6-0.9c0.4-0.4,0.7-0.8,0.9-1.2c0.2-0.5,0.3-1.1,0.3-1.8v-5.1h-2
		v5.1c0,1.5-0.6,2.2-1.7,2.2c-1.2,0-1.7-0.7-1.7-2.2v-5.1H99.6z M109.1,110.7h2v-4.6c0-0.9,0.1-1.6,0.4-2c0.3-0.4,0.7-0.6,1.3-0.6
		c0.9,0,1.4,0.8,1.4,2.4v4.9h2.1v-4.6c0-0.9,0.1-1.6,0.4-2c0.3-0.4,0.7-0.6,1.2-0.6c0.5,0,0.8,0.2,1,0.5c0.2,0.4,0.3,1,0.3,1.8v4.9
		h2.1v-5.5c0-2.4-1-3.6-3-3.6c-1.1,0-2,0.4-2.6,1.3c-0.6-0.9-1.4-1.3-2.4-1.3c-0.4,0-0.8,0.1-1.1,0.2c-0.3,0.1-0.6,0.4-1,0.8v-0.8
		h-2V110.7z M129.8,102.9c-0.8-0.8-1.7-1.3-2.8-1.3c-1.2,0-2.2,0.4-3,1.3c-0.8,0.9-1.2,2-1.2,3.3c0,1.4,0.4,2.5,1.2,3.4
		c0.8,0.9,1.8,1.3,3,1.3c1,0,1.9-0.4,2.7-1.2v0.9h2.1v-8.9h-2.1V102.9z M124.9,106.2c0-0.8,0.2-1.5,0.7-2c0.5-0.5,1.1-0.8,1.8-0.8
		c0.7,0,1.4,0.3,1.8,0.8c0.5,0.5,0.7,1.2,0.7,2.1c0,0.8-0.2,1.5-0.7,2.1c-0.5,0.5-1.1,0.8-1.8,0.8c-0.7,0-1.3-0.3-1.8-0.8
		C125.2,107.8,124.9,107.1,124.9,106.2 M133.9,110.7h2.1v-4.3c0-1.1,0.1-1.9,0.4-2.3c0.3-0.4,0.8-0.7,1.4-0.7c0.6,0,1.1,0.2,1.3,0.5
		c0.2,0.3,0.4,0.9,0.4,1.8v4.9h2.1v-5.4c0-1.2-0.2-2.1-0.7-2.7c-0.6-0.6-1.4-1-2.4-1c-0.9,0-1.7,0.4-2.4,1.1v-0.8h-2.1V110.7z
		 M151.6,106.3c0-1.5-0.4-2.6-1.1-3.4c-0.8-0.8-1.8-1.2-3.1-1.2c-1.3,0-2.3,0.4-3.1,1.3c-0.8,0.9-1.2,2-1.2,3.4
		c0,1.4,0.4,2.5,1.2,3.4c0.8,0.8,1.9,1.3,3.2,1.3c0.5,0,0.9,0,1.3-0.1c0.4-0.1,0.8-0.2,1.1-0.5c0.3-0.2,0.7-0.5,1-0.8
		c0.3-0.3,0.6-0.7,0.8-1.2l-1.7-1c-0.4,0.7-0.8,1.1-1.1,1.3c-0.3,0.2-0.8,0.4-1.3,0.4c-0.7,0-1.2-0.2-1.6-0.6
		c-0.4-0.4-0.7-1-0.7-1.7h6.3L151.6,106.3z M145.3,105.1c0.1-0.3,0.2-0.5,0.3-0.7c0.1-0.2,0.3-0.4,0.5-0.5c0.2-0.1,0.4-0.3,0.6-0.3
		c0.2-0.1,0.5-0.1,0.7-0.1c1.1,0,1.8,0.5,2.1,1.6H145.3z M161,95.3h-2v15.4h2V95.3z M171.4,106.3c0-1.5-0.4-2.6-1.1-3.4
		c-0.8-0.8-1.8-1.2-3.1-1.2c-1.3,0-2.3,0.4-3.1,1.3c-0.8,0.9-1.2,2-1.2,3.4c0,1.4,0.4,2.5,1.2,3.4c0.8,0.8,1.9,1.3,3.2,1.3
		c0.5,0,0.9,0,1.3-0.1c0.4-0.1,0.8-0.2,1.1-0.5c0.3-0.2,0.7-0.5,1-0.8c0.3-0.3,0.6-0.7,0.8-1.2l-1.7-1c-0.4,0.7-0.8,1.1-1.1,1.3
		c-0.3,0.2-0.8,0.4-1.3,0.4c-0.7,0-1.2-0.2-1.6-0.6c-0.4-0.4-0.7-1-0.7-1.7h6.3L171.4,106.3z M165.2,105.1c0.1-0.3,0.2-0.5,0.3-0.7
		c0.1-0.2,0.3-0.4,0.5-0.5c0.2-0.1,0.4-0.3,0.6-0.3c0.2-0.1,0.5-0.1,0.7-0.1c1.1,0,1.8,0.5,2.1,1.6H165.2z M179.7,102.9
		c-0.8-0.8-1.7-1.3-2.8-1.3c-1.2,0-2.2,0.4-3,1.3c-0.8,0.9-1.2,2-1.2,3.3c0,1.4,0.4,2.5,1.2,3.4c0.8,0.9,1.8,1.3,3,1.3
		c1,0,1.9-0.4,2.7-1.2v0.9h2.1v-8.9h-2.1V102.9z M174.8,106.2c0-0.8,0.2-1.5,0.7-2c0.5-0.5,1.1-0.8,1.8-0.8c0.7,0,1.4,0.3,1.8,0.8
		c0.5,0.5,0.7,1.2,0.7,2.1c0,0.8-0.2,1.5-0.7,2.1c-0.5,0.5-1.1,0.8-1.8,0.8c-0.7,0-1.3-0.3-1.8-0.8
		C175.1,107.8,174.8,107.1,174.8,106.2 M192.2,101.8h-2v1c-0.7-0.8-1.7-1.2-2.8-1.2c-1.3,0-2.3,0.5-3.1,1.4c-0.7,0.9-1.1,2-1.1,3.3
		c0,1.3,0.4,2.4,1.2,3.3c0.8,0.9,1.8,1.3,3,1.3c1.1,0,2-0.4,2.8-1.2v1.2c0,1.8-0.7,2.7-2.2,2.7c-0.8,0-1.4-0.3-1.9-0.8
		c-0.2-0.2-0.3-0.6-0.4-1h-2.1c0.1,1.2,0.6,2.1,1.4,2.7c0.8,0.6,1.7,1,2.9,1c1.4,0,2.5-0.5,3.3-1.4c0.4-0.5,0.7-1.1,0.9-1.7
		c0-0.2,0.1-0.5,0.1-0.8c0-0.3,0-0.7,0-1.1V101.8z M190.3,106.3c0,0.8-0.2,1.5-0.6,2c-0.5,0.6-1.1,0.9-1.9,0.9
		c-0.8,0-1.4-0.3-1.8-0.8c-0.4-0.5-0.6-1.2-0.6-2c0-0.8,0.2-1.5,0.6-2c0.4-0.6,1.1-0.9,1.8-0.9c0.7,0,1.3,0.3,1.8,0.8
		C190,104.7,190.3,105.4,190.3,106.3 M194.2,101.8v5.1c0,0.8,0.1,1.4,0.3,1.8c0.2,0.5,0.5,0.9,0.9,1.2c0.7,0.6,1.6,0.9,2.6,0.9
		c1.1,0,1.9-0.3,2.6-0.9c0.4-0.4,0.7-0.8,0.9-1.2c0.2-0.5,0.3-1.1,0.3-1.8v-5.1h-2v5.1c0,1.5-0.6,2.2-1.7,2.2
		c-1.2,0-1.7-0.7-1.7-2.2v-5.1H194.2z M211.9,106.3c0-1.5-0.4-2.6-1.1-3.4c-0.8-0.8-1.8-1.2-3.1-1.2c-1.3,0-2.3,0.4-3.1,1.3
		c-0.8,0.9-1.2,2-1.2,3.4c0,1.4,0.4,2.5,1.2,3.4c0.8,0.8,1.9,1.3,3.2,1.3c0.5,0,0.9,0,1.3-0.1c0.4-0.1,0.8-0.2,1.1-0.5
		c0.3-0.2,0.7-0.5,1-0.8c0.3-0.3,0.6-0.7,0.8-1.2l-1.7-1c-0.4,0.7-0.8,1.1-1.1,1.3c-0.3,0.2-0.8,0.4-1.3,0.4c-0.7,0-1.2-0.2-1.6-0.6
		c-0.4-0.4-0.7-1-0.7-1.7h6.3L211.9,106.3z M205.6,105.1c0.1-0.3,0.2-0.5,0.3-0.7c0.1-0.2,0.3-0.4,0.5-0.5c0.2-0.1,0.4-0.3,0.6-0.3
		c0.2-0.1,0.5-0.1,0.7-0.1c1.1,0,1.8,0.5,2.1,1.6H205.6z M214.2,104.3h0.5v-2.1h0.8v-0.4h-2.1v0.4h0.8V104.3z M215.9,104.3h0.5v-1.1
		l-0.1-0.9h0l0.6,1.6h0.4l0.6-1.6h0l-0.1,0.9v1.1h0.5v-2.6h-0.6l-0.4,1l-0.2,0.6h0l-0.2-0.6l-0.4-1h-0.6V104.3z M108.2,28.7
		c0-3.2-2.2-4.5-5.1-4.5h-1.4v9.1h0.8C105.5,33.3,108.2,32.1,108.2,28.7z M65.3,47.3L65.3,47.3c-0.5,1.7-1,3.5-1.5,5.1l-0.5,1.9h3.9
		l-0.5-1.9C66.2,50.8,65.7,49,65.3,47.3z M336.5,0v76.7H0V0H336.5z M47.7,54.4h-9.5V13H27.6c-4,2.5-7.8,4-13.9,5.2V27h10v27.4H12.5
		v11.5h35.2V54.4z M56.2,35.5h2.7V20.2h-2.7V35.5z M71.9,60.6l-5-15.4h-3.2l-5,15.4h2.8l1.2-4.2h5.2l1.2,4.2H71.9z M74.3,20.2h-2.6
		v6.7c0,1.7,0.2,3.7,0.4,5.2H72l-1.6-3.3l-4.8-8.6h-2.8v15.4h2.6v-6.7c0-1.7-0.2-3.6-0.4-5.2h0.1l1.6,3.3l4.8,8.6h2.8V20.2z
		 M123.4,50.6c0-7.1-3.7-11.5-10.8-12v-0.1c6.1,0,9.9-4.6,9.9-10.6c0-11.5-9.9-15.1-18.3-15.1H87.3v53.1h19.3
		C119.4,65.7,123.4,57.2,123.4,50.6z M144.6,12.7h-14.4v53.1h14.4V12.7z M178.2,53.2h-10.8V12.7h-14.4v53.1h25.1V53.2z M209.1,53.2
		h-10.8V12.7H184v53.1h25.1V53.2z M229.3,12.7H215v53.1h14.4V12.7z M276.7,39.2c0-12.9-5.7-27.4-20.3-27.4
		c-14.6,0-20.3,14.5-20.3,27.4s5.7,27.4,20.3,27.4C271,66.7,276.7,52.2,276.7,39.2z M321,12.7h-13.8v13.5c0,6.1,1.1,12.2,1.6,18.3
		l-0.1,0.1l-11.5-32h-13.7v53.1h13.8V50.2c0-5-0.6-9.9-1-14.9l0.1-0.1l10.7,30.6H321V12.7z M102.8,44.1h-1.1v10.2h1.2
		c3.2,0,6-1.5,6-5.1C108.9,45.6,106.1,44.1,102.8,44.1z M256.4,25.1c-5.4,0-5.6,10.8-5.6,14.1c0,3.3,0.2,14.1,5.6,14.1
		c5.4,0,5.6-10.8,5.6-14.1C262.1,35.9,261.8,25.1,256.4,25.1z"/>
</g>
</svg>
