<svg xmlns="http://www.w3.org/2000/svg" viewBox="0 0 1000 100"><title>green</title><rect x="665" y="26.1" width="4.4" height="60.98" fill="#fff"/><path d="M703.1,47.2V59.1c0,3.5.9,6.5,5,6.5s5-3,5-6.5V47.2h4.1V59.6c0,5.9-2.8,9.9-9.1,9.9s-9.1-4-9.1-9.9V47.2Z" fill="#fff"/><path d="M726,50.1h.1a7.4,7.4,0,0,1,6.5-3.5c6.1,0,7.6,4.1,7.6,9.3V68.7h-4.1V56.4c0-3.6-.5-6.1-4.7-6.1S726,55,726,58.9v9.8h-4.1V47.2H726Z" fill="#fff"/><path d="M749.6,68.7h-4.1V47.2h4.1Zm-2.3-31.4a2.3,2.3,0,1,1,0,4.6,2.3,2.3,0,1,1,0-4.6" fill="#fff"/><polygon points="761 68.7 756.8 68.7 756.8 51.1 754.6 51.1 754.6 47.2 756.8 47.2 756.8 39 761 39 761 47.2 765 47.2 765 51.1 761 51.1 761 68.7" fill="#fff"/><path d="M771.6,58.7c0,3.7,2.5,7.1,6.5,7.1s4.8-1.6,6.4-4.2l3.5,2a11.2,11.2,0,0,1-10,5.9c-6.6,0-10.6-5-10.6-11.3s3.6-11.6,10.5-11.6S788,51.6,788,58v.7Zm12.2-3.1c-.5-3.3-2.6-5.4-5.9-5.4a6.2,6.2,0,0,0-6.1,5.4Z" fill="#fff"/><path d="M809.4,65.4h-.1a9.1,9.1,0,0,1-7.3,4.1c-6.6,0-10.3-5.5-10.3-11.6s3.9-11.3,10.1-11.3a8.8,8.8,0,0,1,7.5,4.2h.1V28.9h4.1V68.7h-4.1Zm.2-7.4c0-4.2-2.5-7.7-7-7.7s-6.8,3.7-6.8,7.7,2.5,7.8,6.8,7.8,7-3.6,7-7.8" fill="#fff"/><polygon points="837.5 55.3 845.6 47.2 851.1 47.2 841.9 56.2 852 68.7 846.6 68.7 838.9 59 837.5 60.4 837.5 68.7 833.4 68.7 833.4 28.9 837.5 28.9 837.5 55.3" fill="#fff"/><path d="M859.4,68.7h-4.1V47.2h4.1Zm-1.9-31.4a2.3,2.3,0,0,1,2.3,2.3,2.3,2.3,0,0,1-2.3,2.3,2.3,2.3,0,0,1-2.3-2.3,2.4,2.4,0,0,1,2.3-2.3" fill="#fff"/><path d="M869.7,50.1h0a7.4,7.4,0,0,1,6.5-3.5c6.1,0,7.7,4.1,7.7,9.3V68.7h-4.2V56.4c0-3.6-.5-6.1-4.7-6.1s-5.3,4.7-5.3,8.6v9.8h-4.2V47.2h4.2Z" fill="#fff"/><path d="M909.7,68.3c0,7.4-2.1,12.8-10.5,12.8-6,0-10.3-3.7-10.4-9.8H893c0,3.9,2.6,6.1,6.4,6.1s6.1-3.5,6.1-7.9V65.4h0a9.1,9.1,0,0,1-7.4,4.1c-6.6,0-10.2-5.5-10.2-11.6s3.9-11.3,10.1-11.3a8.6,8.6,0,0,1,7.5,4.3h0V47.2h4.2ZM905.8,58c0-4.2-2.6-7.7-7-7.7S892,54,892,58s2.4,7.8,6.8,7.8,7-3.6,7-7.8" fill="#fff"/><path d="M931.6,65.4h-.1a9.1,9.1,0,0,1-7.3,4.1c-6.7,0-10.3-5.5-10.3-11.6s3.9-11.3,10.1-11.3a8.8,8.8,0,0,1,7.5,4.2h.1V28.9h4.1V68.7h-4.1Zm.2-7.4c0-4.2-2.5-7.7-7-7.7S918,54,918,58s2.4,7.8,6.8,7.8,7-3.6,7-7.8" fill="#fff"/><path d="M962.6,58a11.5,11.5,0,1,1-11.5-11.4A11.4,11.4,0,0,1,962.6,58m-18.9,0a7.5,7.5,0,0,0,7.4,7.5,7.5,7.5,0,0,0,0-15,7.5,7.5,0,0,0-7.4,7.5" fill="#fff"/><path d="M970.8,49.9h.1a7.3,7.3,0,0,1,5.7-3.3,6.9,6.9,0,0,1,6.2,3.8,7.7,7.7,0,0,1,6.6-3.8c5.7,0,7.1,4.4,7.1,9.3V68.7h-4.1V56.6c0-2.8-.4-6.3-4-6.3s-4.7,4.6-4.7,7.9V68.7h-4.2V57.3c0-2.8-.1-7-3.9-7s-4.8,4.5-4.8,7.9V68.7h-4.1V47.2h4.1Z" fill="#fff"/><path d="M76.3,9.6h0c.3,0,.6.6.8.8a9.6,9.6,0,0,0,2.2,2.3c1.1.8,2.1.7,3.4.8s4.2,1.7,5.7,3.2a4.2,4.2,0,0,0,1.5,1.2,5.7,5.7,0,0,0,3.4-.3l3.3-.6a31.5,31.5,0,0,1,5.2-.5,33.1,33.1,0,0,1,5.5.7l3.6.6a4,4,0,0,0,3.3-1.4,16.6,16.6,0,0,0,2.6-3.9,13,13,0,0,1,2.6-3.1,9,9,0,0,1,1.9-1.5,16.8,16.8,0,0,0,3-1.5,28.5,28.5,0,0,1,2.6-2.3,2,2,0,0,1,1.5-.3,1.6,1.6,0,0,1,.5.9c.4,1.5,1,2.9,1.3,4.4s-.2,4.7-.3,7.1a10.7,10.7,0,0,1-.7,3.9,14.1,14.1,0,0,1-3.3,4L124,25.5a7,7,0,0,0-1.7,1.3c-.9,1.1-.6,2.7-.1,4a16.2,16.2,0,0,0,1,1.8,9.9,9.9,0,0,1,1.3,2,18.4,18.4,0,0,1,.5,2.5c.3,1.7.3,4,1.8,5.2a1.5,1.5,0,0,0,1.2.7c.5.1,1-.2,1.6-.2a5.4,5.4,0,0,1,4.5,1.4c1.3,1.9.8,4.8-.4,6.6a10.5,10.5,0,0,1-2,2.2c-.9.6-2,.9-2.9,1.5L125.2,57a7.7,7.7,0,0,1-2.4,1.2c-1.2.3-2.4.1-3.4.3a9.2,9.2,0,0,0-2.7.8c-1.7.7-3.3,1.4-5.1,2L101,65c-.8.4-.6,2.5-.6,3.9a24.8,24.8,0,0,1-.3,2.7,27.3,27.3,0,0,0-.1,5.7,15.6,15.6,0,0,0,.2,3.1c.3,1.9,1.6,3.4,1.7,5.5a16.4,16.4,0,0,0,.2,2.2,18.6,18.6,0,0,0,1,2c.1.3,1.3,2.6.4,2.5s-.4-.2-.7-.3-.9-.6-1.3-.3.5,1.2.3,1.8-2.7-.6-3.2-.8a6.3,6.3,0,0,1-2.4-.9A5.5,5.5,0,0,1,95,89.7c-.2-.7-.2-2-.8-2.4a1.2,1.2,0,0,0-1.3,0c-.3.2-.9.3-1.1-.2a.4.4,0,0,1,0-.5,22,22,0,0,0,.4-3.6,19,19,0,0,0,.1-3.4,21.9,21.9,0,0,0-1.2-3.3,16.3,16.3,0,0,1-.3-3.8c-.1-1.8.4-3.6-.9-4.2H87.7a4.3,4.3,0,0,0-1.6,0c-.7.3-.5,1.1-.6,1.7a9.9,9.9,0,0,0-.2,1.7,41.8,41.8,0,0,0-.5,6.1,14.2,14.2,0,0,1-.2,2.9,7,7,0,0,0,.2,2.9,5.6,5.6,0,0,0,.4,1.2,17.5,17.5,0,0,1,.6,3.3,7.5,7.5,0,0,0,.2,2.1,12.8,12.8,0,0,0,.7,2.8c.2.5,1,1.9.3,2.3s-1.2-.4-1.5-.7-.7-.6-1.1-.5-.5,1.1-.6,1.6-1.9.4-2.5,0a4.3,4.3,0,0,1-2.2-3.2,10.2,10.2,0,0,1-.3-3.5c0-.5.2-1.2-.2-1.6s-1,.4-1.4.3-.2-1.2-.1-1.6a7.1,7.1,0,0,0,.1-2.9,60.6,60.6,0,0,0-1.5-9.5c-.3-1.5-.7-2.9-.9-4.4s0-2.8-1.3-3a21.1,21.1,0,0,0-2.6-.2l-5.7-.9a65.5,65.5,0,0,1-9-2.1,47.7,47.7,0,0,1-8.3-2.8,37.9,37.9,0,0,1-3.4-2c-.8-.6-2-1.8-3.1-1.8s-1.6,1.5-1.8,2.5A21.7,21.7,0,0,1,37.7,63a19.5,19.5,0,0,0-1.8,3.5,7.8,7.8,0,0,0-.2,3.7,31.2,31.2,0,0,0,1.5,4.3,27.3,27.3,0,0,0,1.6,4.3c.3.6,2.3,4.7,1.3,5s-1.5-1.4-2.2-1.6-.6.6-.5.9.4,1.5-.1,1.8h-.5a5,5,0,0,1-3.9-2.1c-.9-1.5-.9-3.2-1.5-4.7s-.7-1.7-1.3-1.4-.2.6-.4.9-1-.5-1.1-.9a8.6,8.6,0,0,1-.2-2.8,20,20,0,0,1,.4-2.4c.1-1.8-1.6-3.2-2.1-4.9a5.8,5.8,0,0,1,.6-2.9,6.3,6.3,0,0,0,.3-2.7,12.4,12.4,0,0,0-.4-2.2,6.1,6.1,0,0,0-2,1.9c-.9,1.2-2,2.4-2.9,3.7a7.5,7.5,0,0,0-1,2c-.2,1.1-.5,2.3-.6,3.4a12.7,12.7,0,0,0,.5,3.4c.1,1.1,0,2.2.2,3.3s.4,2,.6,3.1a11.1,11.1,0,0,0,.7,2.6,24.9,24.9,0,0,1,.9,3.7c.1.9-.4.9-1.1.4s-1.3-1.9-1.9-1.7.2,2.3-.4,2.9-1.2.2-1.6,0c-1.9-.7-2.7-2.8-3-4.7s.1-2.8-.3-4.1a.8.8,0,0,0-.8-.7c-.3,0-.4.3-.5.5s-.9-.6-.9-1a9.4,9.4,0,0,1,.4-3.7c.4-1.9-.2-3.5-.9-5.3a7.5,7.5,0,0,1-.7-3.9c.2-1.9,1.4-3.2,2.1-4.8a8.2,8.2,0,0,0-.1-4.4A17.4,17.4,0,0,0,11.1,50a22.8,22.8,0,0,1-1.7-3A26.7,26.7,0,0,1,7.8,31.5c.3-1.4.7-2.8,1.1-4.1s1-2.9.9-4.2H8.5l-1.2-.2a2.9,2.9,0,0,1-1.4-.8l-.6-.6c0-.1-.5-.8-.4-.8a1.6,1.6,0,0,0-.8,1.5,4.9,4.9,0,0,0,.6,1.7.3.3,0,0,1,.1.2c-.1,0-.5-.3-.5-.4a2.6,2.6,0,0,1-.7-1.1,3.1,3.1,0,0,1,0-1.9c.1,0,.1-.1.1-.2l.6-.8c.3-.2.4-.2.5-.6a6.5,6.5,0,0,1,5.1-4.2c3-.4,5.9.4,8.8-.9a36.4,36.4,0,0,1,23.7-1.8c7,1.7,13.7,3.2,20.4,5.2,2.5.8,4.8,1.6,7.4,2.3a18.5,18.5,0,0,0,4.1.7c.5,0,2.9.2,3.1-.5s-.2-1-.4-1.4a9.6,9.6,0,0,1-1.4-6.4c.1-.3.3-2.3.7-2.5M8.4,17.1c0,.1-.1.1-.1.2h.4a5.3,5.3,0,0,1,1.2.3l1,.5a2.4,2.4,0,0,1,.9,1.3h0a.1.1,0,0,0,.1-.1,7.1,7.1,0,0,0,.7-.9l.3-.3.4-.7a2.4,2.4,0,0,0-1.1-.6,2.7,2.7,0,0,0-1.2-.3h-.3a3.8,3.8,0,0,0-2.3.6M6.7,20.7c.5,1.1,3.9,1.7,3.3-.7s-4.4-1.6-3.3.7" fill="#fff" fill-rule="evenodd"/><polygon points="171.4 50.7 171.4 71.7 165.2 71.7 165.2 50.7 162.6 50.7 162.6 45 165.2 45 165.2 35.2 171.4 35.2 171.4 45 176.1 45 176.1 50.7 171.4 50.7" fill="#fff"/><path d="M181.4,33.6h6.2V47.2a10.4,10.4,0,0,1,7.3-2.9,9.1,9.1,0,0,1,7.2,2.9c1.5,1.7,2.3,4.4,2.3,8.1V71.7h-6.2V55.9a7.8,7.8,0,0,0-1.1-4.6,4.4,4.4,0,0,0-3.7-1.5,5.1,5.1,0,0,0-4.5,2c-.9,1.4-1.3,3.7-1.3,7V71.7h-6.2Z" fill="#fff"/><path d="M234.7,59.8H215.6a8.5,8.5,0,0,0,2.1,5.2,6.6,6.6,0,0,0,4.9,1.9,5.9,5.9,0,0,0,3.8-1.1,16.4,16.4,0,0,0,3.4-4l5.2,2.9a24.5,24.5,0,0,1-2.6,3.5,10.9,10.9,0,0,1-2.9,2.4,12.2,12.2,0,0,1-3.3,1.4,15.3,15.3,0,0,1-3.8.4,12.7,12.7,0,0,1-9.6-3.8,14.4,14.4,0,0,1-3.6-10.2c0-4.3,1.1-7.7,3.5-10.3a11.9,11.9,0,0,1,9.3-3.8c4,0,7.1,1.2,9.3,3.7s3.4,5.9,3.4,10.3Zm-6.3-5.1c-.9-3.2-2.9-4.9-6.2-4.9a4.6,4.6,0,0,0-2.1.4,5.1,5.1,0,0,0-1.8.9,7,7,0,0,0-1.4,1.6,7.2,7.2,0,0,0-.9,2Z" fill="#fff"/><path d="M257,25.4h6.2V47.2a10.2,10.2,0,0,1,7.2-2.9,9.1,9.1,0,0,1,7.2,2.9c1.6,1.7,2.3,4.4,2.3,8.1V71.7h-6.1V55.9c0-2.1-.4-3.7-1.2-4.6a4.1,4.1,0,0,0-3.6-1.5c-2.2,0-3.7.7-4.6,2s-1.2,3.7-1.2,7V71.7H257Z" fill="#fff"/><path d="M292.1,45V60.3c0,4.4,1.8,6.6,5.3,6.6s5.2-2.2,5.2-6.6V45h6.2V60.4A18.4,18.4,0,0,1,308,66a9.3,9.3,0,0,1-2.7,3.7,11.7,11.7,0,0,1-7.9,2.7,11.5,11.5,0,0,1-7.9-2.7,9.3,9.3,0,0,1-2.7-3.7,13.8,13.8,0,0,1-.8-5.6V45Z" fill="#fff"/><path d="M314.8,45h6.1v2.5a12.8,12.8,0,0,1,3.1-2.6,8.1,8.1,0,0,1,3.3-.6,8.2,8.2,0,0,1,7.2,3.9,9.1,9.1,0,0,1,7.8-3.9c6,0,9,3.6,9,10.9V71.7h-6.1V56.9a11.9,11.9,0,0,0-1-5.5,3.5,3.5,0,0,0-3.1-1.6,4.1,4.1,0,0,0-3.7,1.9c-.8,1.3-1.2,3.4-1.2,6.2V71.7H330V56.9c0-4.7-1.3-7.1-4.1-7.1a4.2,4.2,0,0,0-3.8,2c-.8,1.3-1.2,3.3-1.2,6.1V71.7h-6.1Z" fill="#fff"/><path d="M377,45h6.2V71.7H377V68.9a11.9,11.9,0,0,1-8.2,3.5,11.7,11.7,0,0,1-9.1-4,14.8,14.8,0,0,1-3.6-10.2,14,14,0,0,1,3.6-9.9,11.5,11.5,0,0,1,9-4,10.9,10.9,0,0,1,8.3,3.8ZM362.4,58.2a9.2,9.2,0,0,0,2.1,6.3,6.6,6.6,0,0,0,5.3,2.4,7.2,7.2,0,0,0,5.5-2.3,9.3,9.3,0,0,0,2.1-6.2,9.1,9.1,0,0,0-2.1-6.2,6.9,6.9,0,0,0-5.5-2.4,6.8,6.8,0,0,0-5.3,2.4,9,9,0,0,0-2.1,6" fill="#fff"/><path d="M389.2,45h6.2v2.5a10,10,0,0,1,7.3-3.2,9.2,9.2,0,0,1,7.3,2.9c1.4,1.6,2.2,4.4,2.2,8.1V71.7H406V56.8c0-2.6-.4-4.5-1.1-5.5s-2-1.5-3.9-1.5a4.7,4.7,0,0,0-4.3,2c-.9,1.4-1.3,3.7-1.3,7V71.7h-6.2Z" fill="#fff"/><path d="M442.5,59.8H423.4a8.5,8.5,0,0,0,2.1,5.2,6.6,6.6,0,0,0,4.9,1.9,5.9,5.9,0,0,0,3.8-1.1,14.5,14.5,0,0,0,3.3-4l5.2,2.9a24.1,24.1,0,0,1-2.5,3.5,10.9,10.9,0,0,1-2.9,2.4A12.2,12.2,0,0,1,434,72a15.8,15.8,0,0,1-3.8.4,12.7,12.7,0,0,1-9.6-3.8A14.4,14.4,0,0,1,417,58.4c0-4.3,1.1-7.7,3.5-10.3s5.4-3.8,9.3-3.8,7.1,1.2,9.3,3.7,3.4,5.9,3.4,10.3Zm-6.3-5.1c-.9-3.2-3-4.9-6.2-4.9a4.6,4.6,0,0,0-2.1.4,5.1,5.1,0,0,0-1.8.9,7,7,0,0,0-1.4,1.6,7.2,7.2,0,0,0-.9,2Z" fill="#fff"/><rect x="464.8" y="25.4" width="6.2" height="46.22" fill="#fff"/><path d="M502.3,59.8H483.2a8,8,0,0,0,2.2,5.2,6.3,6.3,0,0,0,4.8,1.9,5.7,5.7,0,0,0,3.8-1.1,16.4,16.4,0,0,0,3.4-4l5.2,2.9a24.5,24.5,0,0,1-2.6,3.5,10.5,10.5,0,0,1-2.8,2.4,13.6,13.6,0,0,1-3.3,1.4,16.1,16.1,0,0,1-3.9.4,12.7,12.7,0,0,1-9.6-3.8,14.4,14.4,0,0,1-3.6-10.2,14.9,14.9,0,0,1,3.5-10.3,12.1,12.1,0,0,1,9.4-3.8c3.9,0,7,1.2,9.3,3.7s3.4,5.9,3.4,10.3ZM496,54.7a5.9,5.9,0,0,0-6.2-4.9,5.2,5.2,0,0,0-2.1.4,6.1,6.1,0,0,0-1.8.9,10.7,10.7,0,0,0-1.4,1.6,7,7,0,0,0-.8,2Z" fill="#fff"/><path d="M527.2,45h6.2V71.7h-6.2V68.9a11.9,11.9,0,0,1-8.2,3.5,11.6,11.6,0,0,1-9.1-4,14.8,14.8,0,0,1-3.6-10.2,14,14,0,0,1,3.6-9.9,11.5,11.5,0,0,1,9-4,10.9,10.9,0,0,1,8.3,3.8ZM512.6,58.2a9.2,9.2,0,0,0,2.1,6.3,6.6,6.6,0,0,0,5.3,2.4,7.3,7.3,0,0,0,5.5-2.3,9.3,9.3,0,0,0,2.1-6.2,9.1,9.1,0,0,0-2.1-6.2,6.9,6.9,0,0,0-5.5-2.4,6.8,6.8,0,0,0-5.3,2.4,9,9,0,0,0-2.1,6" fill="#fff"/><path d="M565,71c0,1.3-.1,2.4-.1,3.4a16.4,16.4,0,0,1-.4,2.5,11.1,11.1,0,0,1-2.6,5.2,12.6,12.6,0,0,1-9.9,4.1,12.8,12.8,0,0,1-8.8-2.9,11.8,11.8,0,0,1-4.1-8.2h6.2a6.3,6.3,0,0,0,1.2,3.1,6.8,6.8,0,0,0,5.6,2.5c4.5,0,6.7-2.8,6.7-8.3V68.7a11.2,11.2,0,0,1-8.4,3.7,11.6,11.6,0,0,1-9-3.9,14.9,14.9,0,0,1-3.5-10,15.2,15.2,0,0,1,3.3-9.9,11.1,11.1,0,0,1,9.2-4.3,10.7,10.7,0,0,1,8.4,3.7V45H565Zm-5.9-12.6a8.8,8.8,0,0,0-2.1-6.2,6.8,6.8,0,0,0-5.4-2.4,6.6,6.6,0,0,0-5.5,2.6,9.2,9.2,0,0,0-1.9,6,9.2,9.2,0,0,0,1.9,6,6.4,6.4,0,0,0,5.5,2.5,6.9,6.9,0,0,0,5.6-2.5,9.8,9.8,0,0,0,1.9-6" fill="#fff"/><path d="M577.2,45V60.3c0,4.4,1.7,6.6,5.2,6.6s5.2-2.2,5.2-6.6V45h6.2V60.4A18.4,18.4,0,0,1,593,66a9.3,9.3,0,0,1-2.7,3.7,12.9,12.9,0,0,1-15.8,0,9.3,9.3,0,0,1-2.7-3.7,15.8,15.8,0,0,1-.8-5.6V45Z" fill="#fff"/><path d="M624.1,59.8H605a7.5,7.5,0,0,0,2.1,5.2,6.5,6.5,0,0,0,4.8,1.9,6,6,0,0,0,3.9-1.1,16.5,16.5,0,0,0,3.3-4l5.2,2.9a24.1,24.1,0,0,1-2.5,3.5,12.8,12.8,0,0,1-2.9,2.4,12.2,12.2,0,0,1-3.3,1.4,16.1,16.1,0,0,1-3.9.4,12.7,12.7,0,0,1-9.5-3.8c-2.5-2.6-3.7-6-3.7-10.2A14.9,14.9,0,0,1,602,48.1a12.1,12.1,0,0,1,9.4-3.8c3.9,0,7,1.2,9.3,3.7s3.4,5.9,3.4,10.3Zm-6.3-5.1c-.9-3.2-3-4.9-6.3-4.9a5.2,5.2,0,0,0-2.1.4,7.6,7.6,0,0,0-1.8.9,6.5,6.5,0,0,0-1.3,1.6,7.2,7.2,0,0,0-.9,2Z" fill="#fff"/><path d="M631,46h-2.5V44.7H635V46h-2.5v6.4H631Zm5.2-1.3H638l1.2,2.9.7,1.9h.1l.7-1.9,1.1-2.9h1.8v7.7h-1.3v-6h-.1l-1.8,4.8h-1.1l-1.9-4.8h-.1l.2,2.6v3.4h-1.4Z" fill="#fff"/></svg>