<svg xmlns="http://www.w3.org/2000/svg" viewBox="0 0 186.4 172.7"><title>filth</title><path d="M52.7,41.9a2.2,2.2,0,0,0,1.8-1.4,7.1,7.1,0,0,0,.2-2.5,37.8,37.8,0,0,1,.5-6.7l-1.3,1V30.6a2.1,2.1,0,0,0-1.9,1.2,1.3,1.3,0,0,1-.9-1.5,4.4,4.4,0,0,0-2.5,1.5,3.8,3.8,0,0,0-1.4,1.9,1.9,1.9,0,0,1-.2.8c-.2.7-1.1.8-1.8.9l-2.3.3c0-.1,0-1.5.2-1.4a2.4,2.4,0,0,1,1.6.7,3.2,3.2,0,0,0-.7-1.9c-.7-1-1.1-.9-1-2.2a1.7,1.7,0,0,0-.5-1.4c-.3-.1-.6-.1-.8-.3s-.4-.6-.8-.7-.5-.1-.7-.1l-3.4.4a2.1,2.1,0,0,0-1,.4c-.5.5-.1,1.3-.3,2a3.3,3.3,0,0,1-.6,1,5.2,5.2,0,0,0-.9,3.8,2.7,2.7,0,0,1,0,.9,4.1,4.1,0,0,1-.5.9c-.7,1-.6,2.5-1.3,3.5a6.1,6.1,0,0,1-1.3,1.5c-1.8,1.9-2.6,4.7-3,7.3a3.7,3.7,0,0,0,0,1.8c.2,1.1,1.2,2,1.6,3.1s.4,2.1,1.1,2.8,2,1,2.8,1.8a3.2,3.2,0,0,0,.8.9l1.2.5a3,3,0,0,1,.8.8c1.1,1.1,2.4,2.5,1.8,4.2a24.2,24.2,0,0,0-1,3.6,2.2,2.2,0,0,1-.3,1.4c-.4.8-1.5,1-2.4,1.1a31.3,31.3,0,0,1-5.3.1.8.8,0,0,0,.4.7h.9l3.6.2-2.6,2.5L35.6,74l1.7-.5c1.4-.1,2.7.8,3.8,1.7a6.3,6.3,0,0,1-1.6-4.6,20.5,20.5,0,0,1,1-4.8,8.8,8.8,0,0,1,.5-1.5,5.4,5.4,0,0,0,.5-1.1c.1-.5,0-1,.1-1.5a1.3,1.3,0,0,1,1.7-.7,3.3,3.3,0,0,0,1,.6c.5.2,1,0,1.4.2s.4.9.6,1.4a8.3,8.3,0,0,0,.9,1.6c.9,1.6.3,3.4-.2,5.1A8.4,8.4,0,0,1,45.9,72a5.1,5.1,0,0,1-3.1,1.3,18.6,18.6,0,0,0-3.4.6l6.5-.2a.8.8,0,0,1-.2,1,2.4,2.4,0,0,1-.8.6,3.5,3.5,0,0,0-1.2,1.5c1.9.1,3.2-2,5-2.4a4.1,4.1,0,0,1,1.9,0,22,22,0,0,1,3.7.7l-3.6-2-1.1-.8a4.3,4.3,0,0,1-.5-1.6,15.7,15.7,0,0,1,.3-6.1,9.5,9.5,0,0,0,4.1-5.1,19.6,19.6,0,0,0,1.2-6.4,5,5,0,0,0-.1-2.1,6.7,6.7,0,0,1-.6-1.2c-.4-1.2,0-2.5-.2-3.7S52.5,43.4,52.7,41.9Z" fill="#7a6956"/><path d="M104.4,36.6l1.3-.4c0-4.7.1-9.5.2-14.2a5,5,0,0,1-.2-1.2h-1c-2.4.3-5.1.2-6.6-1.9a14,14,0,0,1-1-1.6c-.4-.8-.8-1.5-1.1-2.2a10.5,10.5,0,0,0-1.2-2.9A8,8,0,0,0,93.5,11a2.3,2.3,0,0,0-1-.7c-.2-.4-.4-.7-.8-.8s-.7,0-1-.2-.7-.1-.9,0-.4.3-.6.4-.7.1-.7.3-.1.4-.1.6-.4.6-.4,1,.1.7,0,1-.4.6-.3,1.2.6,0,1,0a6.8,6.8,0,0,1-.2,1.4,1.2,1.2,0,0,0,.2.8c.4.6,1.1.3,1.6,0a21.7,21.7,0,0,1,.7,3.1c.1,2.4-.6,5-.4,7.4a4.7,4.7,0,0,0,.3,1.7.4.4,0,0,0,.1.3,6.9,6.9,0,0,0,1,1.9c.1.3.4.5.6.8a9.8,9.8,0,0,0,2.2,1.7c1.1.7,2.2,1.3,3.3,2.1l1.6,1.1a3.8,3.8,0,0,1,1.4,1.1,3.6,3.6,0,0,1-.2,1.5h-.4c-.4-.1-.7-.3-1-.2h-.2a.6.6,0,0,0-.6.1l.5.3c.1.2.5.2.6.5s-.9-.4-1.5-.3a.5.5,0,0,0-.5.3h.3c.5.5-.8.6-1,.6s-.5.7-.5,1h.2l.3-.2.9-.3h1c.3.2.6.3.3.6s-.4.2-.5.4a1,1,0,0,0-.2.9v-.2L99,42l1.1-.7a6.3,6.3,0,0,1,2.7-.6h.1c0-.3-.1-.7.3-.8s.8.7.9.4-.6-1-.8-1.6a8.8,8.8,0,0,0,.2-1.7C103.6,36.6,104.2,36.6,104.4,36.6Z" fill="#191919"/><path d="M73.1,23a3.8,3.8,0,0,1-1.6-1.2,19.1,19.1,0,0,1-2.4-3.4A19.4,19.4,0,0,0,67.6,16a3.9,3.9,0,0,0-2.3-1.5.5.5,0,0,0-.4-.8h-.5c-.2.1-.4,0-.6,0a1.9,1.9,0,0,0-1.7,1.6,1.3,1.3,0,0,1-.1.6l-.3.4a1.9,1.9,0,0,0-.5,1.6l1.5-.2a2.1,2.1,0,0,0,.4,1.7,1.3,1.3,0,0,0,1.6.4,10.1,10.1,0,0,1,1,5.4c-.3,2.4-1.4,4.8-.9,7.2A5.4,5.4,0,0,0,67.6,36l.7.3a3.9,3.9,0,0,1,.8,1.4c.4,1,1,2.1,2,2.1a9.8,9.8,0,0,1-1.2,3.4A3.4,3.4,0,0,1,67.4,45a11.4,11.4,0,0,0-2.6.9,8.9,8.9,0,0,0,3.6-.4,2.8,2.8,0,0,1,2-.1,12.2,12.2,0,0,0,1.7.7l-.3-.4c-.2-.1-.5-.3-.2-.5h.1a.9.9,0,0,1,.7.1,5.5,5.5,0,0,0,1.8.2,3.1,3.1,0,0,0-1.3-.6H71.5a.1.1,0,0,1-.1-.1A10.4,10.4,0,0,1,72,43a4,4,0,0,1,.7-1.8A10.2,10.2,0,0,0,73.9,37h3.2c.2,0,.2.2.3.3a7.3,7.3,0,0,1,.7,5.6l-.3.6-.7.4-2.6.8a9.1,9.1,0,0,0,1.7.1,3.2,3.2,0,0,0,.9-.3c.2-.1.8-.2.9-.4L76.7,46a5.2,5.2,0,0,0,1.3-.6,6.9,6.9,0,0,1,6.7-.2c-.2-1.7-2.7-1.1-3.7-1.5a2.6,2.6,0,0,1-1.1-1.6,4.5,4.5,0,0,1-.2-2.8,4.8,4.8,0,0,1,1.2-1.7,14.4,14.4,0,0,0,2.9-5.8,3.3,3.3,0,0,0,0-2.2c-.4-1.4-2-2.1-2.9-3.3l-.6-1.2c-.9-1.2-2.5-1.5-3.9-1.7Z" fill="#191919"/><path d="M117.8,43.1l.8.6a9,9,0,0,0-4-.9l2.3,1.7c-1.7-.1-3.1-1.6-4.8-1.8h-3.7c-.3,0-1.6-.1-1.8.2s1.2-.3,1.8-.4l1-.4,1.1-.6.3-.2c.5-.7-.1-2.2-.3-2.9s-1-1.8-.7-2.8a16.3,16.3,0,0,1-4.9.4h-1.3a.4.4,0,0,1-.1.3,4.1,4.1,0,0,1-.5,1.9c-.4.9-1.1,1.8-.7,2.7s1.1,1,1.8,1.3l2.6,1.3c-.9.2-1.8-.4-2.8-.7a9.7,9.7,0,0,0-3.4.1l-1.1.5a14.2,14.2,0,0,1-4,.8,3,3,0,0,1,1.6-.8h1.1c.4-.2.7-.6.1-.8a.9.9,0,0,0-.7.1H96.2l-2.7.4a6.9,6.9,0,0,1,2.8-1.1c1-.1,2.2,0,3-.6a6.4,6.4,0,0,0,1-1.8,24.4,24.4,0,0,0,1-2.4c-.2-.6-.4-1.2-.7-1.9A2.4,2.4,0,0,0,100,34l-1.1-.5a4.2,4.2,0,0,1-1.7-1.8,16,16,0,0,0-1-2.3l-.5-.9a4.3,4.3,0,0,1,0-1.6,6.5,6.5,0,0,1,.6-2.4c.8-1.4,2.6-1.8,3.8-2.8a4.2,4.2,0,0,0,1.8-2.9,9.9,9.9,0,0,0-.2-1.7l-.3-2c0-.2,0-.3-.1-.4l-.3-.3c-.3-.4.3-.9.3-1.3a1.5,1.5,0,0,0-.3-.7,1.1,1.1,0,0,1,.4-1.4l.5-.3a.8.8,0,0,0,.4-.4V9.6a.6.6,0,0,1,.4-.7c.2.1.1.4.1.6a1.1,1.1,0,0,0,.9,1,6.9,6.9,0,0,1,1.3.5c.6.3.8,1,1.1,1.7s.9,2.8,1.2,4.2a6.1,6.1,0,0,0,1.4,2.9l1.4.7,3.8,1.8a6,6,0,0,1,2.1,1.7,6.4,6.4,0,0,1,.6,2.8V30a3.4,3.4,0,0,1-.1,1,3.8,3.8,0,0,1-1.1,1.4,11.7,11.7,0,0,0-2.1,2.4,5.3,5.3,0,0,0-.8,1.7,1.3,1.3,0,0,0-.1.6,3,3,0,0,0,.2,1c.3,1.1.4,2.4,1.2,3.1a7.2,7.2,0,0,0,2.4,1Z" fill="#191919"/><path d="M94.9,27.7a2,2,0,0,0,1.7-1.4,4.4,4.4,0,0,0,.2-2.3,33.4,33.4,0,0,1,.6-6.2l-1.3.9V17.1a2,2,0,0,0-1.8,1.2,1.2,1.2,0,0,1-.8-1.4,4.1,4.1,0,0,0-2.4,1.3A4,4,0,0,0,89.8,20a1.7,1.7,0,0,1-.1.7,2.2,2.2,0,0,1-1.7.9l-2.2.2c0-.1,0-1.4.2-1.3a2.1,2.1,0,0,1,1.5.7,3.5,3.5,0,0,0-.6-1.8c-.7-.9-1.1-.9-1-2.1a1.1,1.1,0,0,0-.4-1.2l-.8-.3c-.2-.2-.4-.6-.7-.7s-.4-.1-.7-.1l-3.1.3c-.3.1-.7.1-.9.4s-.1,1.2-.3,1.9a4.7,4.7,0,0,1-.6.9,4.9,4.9,0,0,0-.9,3.5,2.2,2.2,0,0,1,.1.8c-.1.3-.4.6-.5.9s-.6,2.2-1.3,3.2a14.9,14.9,0,0,1-1.2,1.4A12.6,12.6,0,0,0,71.8,35a5,5,0,0,0-.1,1.7c.2,1.1,1.1,1.9,1.5,2.9s.4,1.9,1,2.7,1.9.8,2.6,1.6a5,5,0,0,0,.7.8c.3.3.8.3,1.1.5a4.6,4.6,0,0,1,.7.7c1.1,1.1,2.3,2.4,1.7,4a13.5,13.5,0,0,0-.9,3.3,5,5,0,0,1-.3,1.3,2.5,2.5,0,0,1-2.3,1,26.9,26.9,0,0,1-4.9.1c-.1.2.1.5.4.6l.7.2h3.5l-2.5,2.3,4.1-1.5a4.2,4.2,0,0,1,1.6-.4c1.3-.1,2.4.8,3.5,1.6a5.6,5.6,0,0,1-1.4-4.3,18,18,0,0,1,.9-4.5,7.8,7.8,0,0,1,.5-1.4,3.1,3.1,0,0,0,.5-1,3.4,3.4,0,0,1,.1-1.4,1.1,1.1,0,0,1,1.5-.6c.4.2.6.5,1,.6s.9-.1,1.3.2.4.8.5,1.3a7.5,7.5,0,0,0,.9,1.5c.8,1.4.2,3.2-.3,4.7a5.7,5.7,0,0,1-1,1.9,4.7,4.7,0,0,1-2.9,1.2,16.5,16.5,0,0,0-3.2.6l6.1-.2a1,1,0,0,1-.2.9,2.4,2.4,0,0,1-.8.6A3,3,0,0,0,86.3,60c1.7.1,2.9-1.9,4.7-2.2a3.3,3.3,0,0,1,1.7,0,18.6,18.6,0,0,1,3.4.7l-3.3-1.9a3.5,3.5,0,0,1-1-.8,3.4,3.4,0,0,1-.5-1.4,15.6,15.6,0,0,1,.4-5.7A8.5,8.5,0,0,0,95.5,44a17.2,17.2,0,0,0,1.2-5.9,4.5,4.5,0,0,0-.1-2c-.1-.4-.4-.7-.5-1.1s0-2.3-.1-3.4S94.7,29,94.9,27.7Z" fill="#d6b780"/><path d="M126.5,43.1a1.7,1.7,0,0,1-1.6-1.3,5.6,5.6,0,0,1-.3-2.2,30.8,30.8,0,0,0-.4-6.1l1.2.9V32.9a1.9,1.9,0,0,1,1.8,1.1,1.3,1.3,0,0,0,.8-1.3,3.2,3.2,0,0,1,2.2,1.2,3.8,3.8,0,0,1,1.3,1.8,1.7,1.7,0,0,0,.1.7,2.1,2.1,0,0,0,1.7.9l2.1.2c0-.1,0-1.3-.3-1.3a2.1,2.1,0,0,0-1.4.7,4.5,4.5,0,0,1,.7-1.8c.6-.8,1-.8.9-1.9s0-1,.4-1.2l.8-.3c.2-.2.3-.6.6-.7h.7l3,.4a1.7,1.7,0,0,1,1,.3c.4.5,0,1.2.2,1.8a2.1,2.1,0,0,0,.6,1,4.5,4.5,0,0,1,.8,3.4c0,.2-.1.5-.1.8s.4.5.5.8.6,2.2,1.2,3.2a12.7,12.7,0,0,0,1.1,1.3,11.2,11.2,0,0,1,2.7,6.6,4.2,4.2,0,0,1,.1,1.6c-.2,1-1.1,1.8-1.5,2.7s-.4,1.9-1,2.6-1.8.8-2.5,1.6a5,5,0,0,1-.7.8l-1.1.5a1.6,1.6,0,0,0-.7.7c-1,1-2.2,2.2-1.6,3.7a19.8,19.8,0,0,1,.8,3.3,6.1,6.1,0,0,0,.3,1.3,2.9,2.9,0,0,0,2.2,1,38.4,38.4,0,0,0,4.8,0,1,1,0,0,1-.4.7h-4.1l2.4,2.3-4-1.6-1.5-.4c-1.2-.1-2.4.8-3.4,1.6a6.3,6.3,0,0,0,1.4-4.2,13.8,13.8,0,0,0-.9-4.4,6.5,6.5,0,0,0-.4-1.3,3.1,3.1,0,0,1-.5-1,2.9,2.9,0,0,0-.1-1.3,1,1,0,0,0-1.4-.6c-.4.1-.6.4-1,.5s-.9,0-1.3.2-.3.8-.5,1.3-.6.9-.8,1.4-.3,3.1.2,4.6a6.4,6.4,0,0,0,1,1.8,4.6,4.6,0,0,0,2.8,1.3,9.9,9.9,0,0,1,3,.5l-5.9-.2a1,1,0,0,0,.2.9l.8.6a3.5,3.5,0,0,1,1.1,1.3c-1.7.1-2.9-1.8-4.6-2.2h-1.7a19.4,19.4,0,0,0-3.3.7l3.2-1.8a2.7,2.7,0,0,0,1-.8,3.4,3.4,0,0,0,.5-1.4,14.6,14.6,0,0,0-.3-5.5,8.5,8.5,0,0,1-3.7-4.6,22.1,22.1,0,0,1-1.1-5.7,4,4,0,0,1,.2-1.9c.1-.4.4-.7.5-1.1s0-2.2.1-3.3S126.7,44.4,126.5,43.1Z" fill="#d6b780"/><path d="M167.1,86.4l1,.7a13.6,13.6,0,0,0-5.3-1.1,34,34,0,0,0,3,2.3c-2.3-.2-4.1-2.1-6.4-2.4a26.6,26.6,0,0,0-4.9-.1c-.4,0-2.1-.2-2.4.1s1.6-.3,2.4-.5l1.4-.5,1.4-.8.5-.3c.6-.8-.2-3-.5-3.8s-1.3-2.4-.9-3.7a29.4,29.4,0,0,1-6.6.5h-1.7a.7.7,0,0,1-.1.5,7.1,7.1,0,0,1-.6,2.5c-.6,1.2-1.5,2.4-1,3.6s1.5,1.4,2.3,1.8l3.6,1.7c-1.3.2-2.5-.6-3.7-.9s-3.1-.1-4.6.1a9.4,9.4,0,0,0-1.5.6,23.6,23.6,0,0,1-5.4,1.2,3.8,3.8,0,0,1,2.3-1.1,7,7,0,0,0,1.4-.3c.5-.2.9-.7.2-1s-.7.1-1,.1h-1.8a22.3,22.3,0,0,0-3.6.5,7.3,7.3,0,0,1,3.7-1.4c1.4-.2,3,0,4-.9a5.8,5.8,0,0,0,1.4-2.4c.5-1.1,1-2.1,1.4-3.2l-.9-2.4a3.6,3.6,0,0,0-.8-1.5,5.6,5.6,0,0,0-1.6-.7,5.4,5.4,0,0,1-2.2-2.5c-.4-.9-.8-2-1.3-2.9a6.7,6.7,0,0,1-.6-1.2,4.5,4.5,0,0,1-.1-2.3,8.7,8.7,0,0,1,.7-3.1c1.1-1.8,3.5-2.4,5.2-3.7a5.9,5.9,0,0,0,2.3-4,14.9,14.9,0,0,0-.2-2.1,27,27,0,0,0-.4-2.8c0-.2,0-.4-.2-.5l-.3-.4c-.4-.5.4-1.1.3-1.8a1.8,1.8,0,0,0-.4-.9,1.6,1.6,0,0,1,.5-1.8l.8-.4a1.2,1.2,0,0,0,.5-.5v-1a.7.7,0,0,1,.5-.9c.3.2.2.5.1.8s.6,1.1,1.2,1.4a8.5,8.5,0,0,1,1.7.6,4.2,4.2,0,0,1,1.5,2.2c.6,1.9,1.2,3.7,1.7,5.7a7.7,7.7,0,0,0,1.7,3.8l2,1a45.9,45.9,0,0,1,5,2.4,6.3,6.3,0,0,1,2.8,2.3,6.2,6.2,0,0,1,.7,3.6c.1,1.4.1,2.9.1,4.3a5.7,5.7,0,0,1-.1,1.3,5.8,5.8,0,0,1-1.5,1.9,16.9,16.9,0,0,0-2.8,3.2,7.2,7.2,0,0,0-1,2.2,2.9,2.9,0,0,0-.2.9,3.5,3.5,0,0,0,.3,1.4c.4,1.4.5,3.1,1.6,4.1a10.7,10.7,0,0,0,3.1,1.3A9,9,0,0,1,167.1,86.4Z" fill="#7a6956"/><path d="M52.3,40.9a2.3,2.3,0,0,1-2-1.7,8,8,0,0,1-.3-2.7,37.8,37.8,0,0,0-.5-7.5L51,30.2v-2a2.6,2.6,0,0,1,2.2,1.4,1.4,1.4,0,0,0,.9-1.6,4.3,4.3,0,0,1,2.8,1.6,4.1,4.1,0,0,1,1.6,2.1c.1.3.1.6.2.9s1.2.9,2,1l2.6.4c0-.2,0-1.7-.3-1.7a2.6,2.6,0,0,0-1.7.9A4.4,4.4,0,0,1,62,31c.9-1,1.3-1,1.2-2.4a1.6,1.6,0,0,1,.5-1.5,4.7,4.7,0,0,1,.9-.3c.4-.3.5-.7.9-.9h.8l3.7.5a1.7,1.7,0,0,1,1.2.4c.5.6.1,1.5.3,2.2a4.5,4.5,0,0,0,.6,1.2,5.7,5.7,0,0,1,1.1,4.2,2.8,2.8,0,0,0-.1.9,6,6,0,0,0,.6,1.1c.8,1.1.7,2.7,1.4,3.9a11.4,11.4,0,0,0,1.5,1.6c2,2.2,2.8,5.2,3.3,8.1a6.9,6.9,0,0,1,.1,2c-.3,1.3-1.4,2.2-1.9,3.4s-.4,2.4-1.2,3.2-2.2,1-3.1,1.9a4.4,4.4,0,0,1-.8,1c-.4.3-1,.4-1.4.7a3.4,3.4,0,0,0-.9.8c-1.3,1.3-2.7,2.8-2,4.6a31.1,31.1,0,0,1,1.1,4.1,3.7,3.7,0,0,0,.3,1.5c.5,1,1.7,1.2,2.8,1.3a37.5,37.5,0,0,0,5.8.1c.1.3-.2.6-.5.7a1.3,1.3,0,0,1-.9.2l-4.1.2,2.9,2.7-4.9-1.9-1.8-.5c-1.6-.1-3,.9-4.2,1.9a6.6,6.6,0,0,0,1.7-5.1,17.3,17.3,0,0,0-1.1-5.4,9.8,9.8,0,0,0-.5-1.6,6.7,6.7,0,0,1-.6-1.2c-.1-.6.1-1.2-.1-1.7a1.4,1.4,0,0,0-1.8-.8c-.5.2-.8.6-1.2.7s-1.1,0-1.6.3-.4,1-.6,1.5a6.7,6.7,0,0,1-1.1,1.8c-.9,1.7-.3,3.8.4,5.6a4.9,4.9,0,0,0,1.1,2.3,5.1,5.1,0,0,0,3.5,1.5,15.9,15.9,0,0,1,3.8.7l-7.3-.2a.8.8,0,0,0,.2,1l1,.8a4.2,4.2,0,0,1,1.3,1.6c-2.1.1-3.5-2.2-5.6-2.7a5,5,0,0,0-2.1,0l-4.1.8,4-2.2a3.8,3.8,0,0,0,1.2-1,3.2,3.2,0,0,0,.6-1.7A19.4,19.4,0,0,0,56,66a10.2,10.2,0,0,1-4.6-5.6A24.9,24.9,0,0,1,50,53.3a5.8,5.8,0,0,1,.2-2.3,8.4,8.4,0,0,0,.6-1.4c.5-1.3,0-2.7.2-4.1S52.5,42.4,52.3,40.9Z" fill="#7a6956"/><path d="M132.1,34.5a2,2,0,0,0,1.6-1.2,8.2,8.2,0,0,0,.2-2.2,29.8,29.8,0,0,1,.4-5.9l-1.2.9V24.6a2,2,0,0,0-1.7,1.1,1.1,1.1,0,0,1-.7-1.3,3.8,3.8,0,0,0-2.2,1.3,2.6,2.6,0,0,0-1.2,1.7,6.4,6.4,0,0,0-.2.7c-.2.5-1,.7-1.6.8l-2,.2c0-.1,0-1.3.2-1.3a2.7,2.7,0,0,1,1.4.7,4.9,4.9,0,0,0-.6-1.7c-.7-.8-1-.8-.9-1.9a1.5,1.5,0,0,0-.5-1.2l-.7-.2c-.2-.2-.3-.6-.6-.7h-.7l-2.9.4a1.4,1.4,0,0,0-.9.3c-.4.5-.1,1.2-.2,1.8a4.7,4.7,0,0,1-.6.9,4.2,4.2,0,0,0-.8,3.3,1.7,1.7,0,0,1,.1.7,2.2,2.2,0,0,1-.5.8c-.6.9-.5,2.2-1.1,3.1a6.9,6.9,0,0,1-1.1,1.3,11.9,11.9,0,0,0-2.7,6.4,7.5,7.5,0,0,0,0,1.5c.2,1,1.1,1.7,1.5,2.7a7.5,7.5,0,0,0,.9,2.5c.6.7,1.8.8,2.4,1.5a5,5,0,0,0,.7.8c.3.2.7.2,1.1.5a1.2,1.2,0,0,1,.6.6c1.1,1,2.2,2.2,1.6,3.7a15.7,15.7,0,0,0-.8,3.1,3.5,3.5,0,0,1-.3,1.2,2.2,2.2,0,0,1-2.1,1,23.7,23.7,0,0,1-4.6.1.6.6,0,0,0,.4.6h3.9l-2.3,2.2,3.9-1.5,1.4-.4c1.2-.1,2.3.8,3.3,1.5a5.6,5.6,0,0,1-1.4-4,21,21,0,0,1,.9-4.2,5,5,0,0,1,.4-1.3,3.1,3.1,0,0,0,.5-1,2.5,2.5,0,0,1,.1-1.2,1.1,1.1,0,0,1,1.4-.7,4.7,4.7,0,0,0,.9.6c.4.1.9-.1,1.3.2s.3.8.4,1.2a11,11,0,0,0,.9,1.4c.7,1.3.2,2.9-.3,4.4a4.4,4.4,0,0,1-.9,1.8,4.5,4.5,0,0,1-2.7,1.2,10.5,10.5,0,0,0-3,.5l5.7-.2a.8.8,0,0,1-.1.9l-.8.5a4.1,4.1,0,0,0-1,1.3c1.6.1,2.7-1.7,4.4-2.1h1.6a18.3,18.3,0,0,1,3.2.7l-3.1-1.8-1-.7a2.3,2.3,0,0,1-.4-1.4,13.5,13.5,0,0,1,.2-5.3,8.7,8.7,0,0,0,3.6-4.4,21.4,21.4,0,0,0,1.1-5.6,5.3,5.3,0,0,0-.1-1.8l-.6-1.1c-.3-1,.1-2.2-.1-3.2S131.9,35.8,132.1,34.5Z" fill="#7a6956"/><path d="M105.1,30.5a4.8,4.8,0,0,0,2.3-1.9,35,35,0,0,0,3.1-5.3,31.8,31.8,0,0,1,1.8-3.7,6.2,6.2,0,0,1,3.2-2.6.8.8,0,0,1,.5-1.2c.2-.1.5,0,.8,0h.8a2.8,2.8,0,0,1,2.8,2.1,1.5,1.5,0,0,0,.2.9l.5.6a2.4,2.4,0,0,1,.9,2.3,5.5,5.5,0,0,0-2.2-.2,3.9,3.9,0,0,1-.4,2.6,1.9,1.9,0,0,1-2.3.7,15.3,15.3,0,0,0-.7,8.2c.7,3.5,2.7,6.9,2.2,10.5a7.8,7.8,0,0,1-3.7,5.6,3.3,3.3,0,0,0-1,.6,4.5,4.5,0,0,0-.9,2.1c-.5,1.5-1.3,3.2-2.8,3.4a18,18,0,0,0,2.2,4.9,5.9,5.9,0,0,0,4,2.3,17,17,0,0,1,3.9.9,11.8,11.8,0,0,1-5.3-.1c-1.2-.2-2-.4-3,.2a17.9,17.9,0,0,1-2.4,1.2l.5-.7c.1-.1.5-.5.2-.7H110c-.3-.1-.6.1-1,.2a11,11,0,0,1-2.6.6,4,4,0,0,1,1.9-1.1l.9-.2,1-.2a.1.1,0,0,0,.1-.1c.1,0,.1-.1.1-.2s-.8-1.4-1-2.2a8.5,8.5,0,0,0-1.3-2.5,16.7,16.7,0,0,1-2.3-6.1l-4.2.5-.6.2-.3.5a10.4,10.4,0,0,0-.3,8.3,2.6,2.6,0,0,0,.5.9,1.5,1.5,0,0,0,1.1.4l3.9,1c-.8,0-1.6.3-2.5.3A3.7,3.7,0,0,1,102,63c-.2-.1-1.1-.2-1.3-.4l2.1,2.3a5.2,5.2,0,0,1-2.1-.7,9.6,9.6,0,0,0-9.7.5c-.1-2.5,3.8-1.8,5.2-2.7a3.7,3.7,0,0,0,1.4-2.4,5.8,5.8,0,0,0,0-4.1,9.5,9.5,0,0,0-2-2.4,20.6,20.6,0,0,1-5.1-8.2,6.2,6.2,0,0,1-.3-3.3c.5-2.1,2.8-3.3,3.8-5.2a15.1,15.1,0,0,1,.9-1.8c1.1-1.9,3.4-2.5,5.5-3A39.9,39.9,0,0,0,105.1,30.5Z" fill="#d6b780"/><path d="M60.3,90.9l-1.4-.6a2.1,2.1,0,0,1,1.2-.3,23,23,0,0,0,2.8.6,11,11,0,0,0,.4-2.7A9.2,9.2,0,0,0,60.8,86l-3-2.1c-1.9-1.3-3.9-2.5-5.9-3.7A15.5,15.5,0,0,1,48,77a7.4,7.4,0,0,1-1.2-1.3A16.6,16.6,0,0,1,45,72.2c-.1-.2,0-.3-.1-.5a14.5,14.5,0,0,1-.6-3c-.3-4.4,1-9.1.7-13.5a30,30,0,0,0-1.2-5.5c-.9.5-2.1,1-2.9-.1a2.2,2.2,0,0,1-.3-1.4c0-.2.4-2.4.3-2.4s-1.3.3-1.8,0,.4-1.5.6-2.3-.2-1.2-.1-1.8.7-1.1.8-1.7.1-.7.1-1.1,1.1-.5,1.3-.6l1.1-.8a8.6,8.6,0,0,1,1.6,0c.6.4,1.2.2,1.8.4a2.3,2.3,0,0,1,1.4,1.5,4.7,4.7,0,0,1,1.9,1.2A9.6,9.6,0,0,1,52,43.1a26.1,26.1,0,0,1,2.2,5.1,28.1,28.1,0,0,0,1.9,3.9,14.6,14.6,0,0,0,1.7,3c2.7,3.7,7.7,3.9,11.9,3.4,1.7-.2,3.6-.1,5.3-.8a8.1,8.1,0,0,0,3-2.2c1-1,2-1.8,3-2.7s1.8-3.1,3.3-3.2,1,.2,1.4.8,1.7-.7,2.1.2a4.5,4.5,0,0,1,0,2.3c-.1.4,1,.1,1.2.2s.3.5.4.8-.6,1.3-.5,2,.4.6.4,1.2q.3,5.1-2.1,7.5l.6,1a2.2,2.2,0,0,1-.2,1.4,13.4,13.4,0,0,1-1.3,2.7,15.8,15.8,0,0,1-2.9,3.9A5.3,5.3,0,0,1,82,74.8c-.5.3-1.1.3-1.5.7s-.3,1-.4,1.4A12.8,12.8,0,0,1,79,79.6a15.1,15.1,0,0,1-1.1,2.2,15.6,15.6,0,0,1-2,1.6c-2.1,1.4-4.2,3-6.7,3.5-.4,0-1.4,0-1.6.5s0,2.2-.3,3.1S69,92,68.7,93.3s-1.3-.8-1.7-.7-.5,1-.5,1.4v.2h-.2a12.2,12.2,0,0,0-4.9,1.2,10,10,0,0,0-1.9,1.2l-.7.4v.2a2.2,2.2,0,0,1,.3-1.4c.3-.5.8-.6,1.1-.9s0-.7-.6-1a3.2,3.2,0,0,0-1.7-.2,12.7,12.7,0,0,0-1.8.6c-.2,0-.3.1-.5.3s-.1.2-.3.2a1.9,1.9,0,0,1,.9-1.8c.3,0,2.6-.2,1.8-1.1l-.5-.2a1.1,1.1,0,0,1,.9-.5,5.7,5.7,0,0,1,2.6.4c-.2-.5-1.2-.3-1.1-1.1s1.5-.3,2.4,0" fill="#d6b780"/><path d="M79,87.1l1.4-.5a1.9,1.9,0,0,0-1.2-.4,21.4,21.4,0,0,1-2.7.6,10.9,10.9,0,0,1-.4-2.6,8.4,8.4,0,0,1,2.4-1.8l2.9-2a54.3,54.3,0,0,1,5.7-3.5,19,19,0,0,0,3.7-3.1l1.1-1.2a18,18,0,0,0,1.7-3.4.9.9,0,0,0,.1-.5,13.6,13.6,0,0,0,.6-2.9c.3-4.1-1-8.7-.7-12.8a31.6,31.6,0,0,1,1.1-5.3c.9.4,2.1.9,2.9-.1a3.2,3.2,0,0,0,.3-1.4,9.3,9.3,0,0,1-.4-2.3c.7-.1,1.2.4,1.7,0s-.3-1.4-.5-2.1.2-1.2.1-1.8-.6-1-.8-1.6-.1-.6-.1-1-1-.5-1.2-.6L95.6,36a7.5,7.5,0,0,0-1.5,0c-.6.4-1.2.2-1.7.4s-1,.8-1.4,1.4A4.4,4.4,0,0,0,89.2,39a10,10,0,0,0-2.3,2.3,29.6,29.6,0,0,0-2,4.9A26.9,26.9,0,0,1,83,50a25.4,25.4,0,0,1-1.6,2.8C78.8,56.4,74,56.6,70,56.1c-1.7-.2-3.5-.1-5.1-.7A12.3,12.3,0,0,1,62,53.2l-2.8-2.6c-.9-.9-1.7-3-3.1-3.1a1.7,1.7,0,0,0-1.4.8c-.7-.2-1.7-.6-2.1.3a3.1,3.1,0,0,0,.1,2.1c.1.4-1,.2-1.2.2a.8.8,0,0,0-.3.8c0,.6.5,1.3.5,1.9s-.5.6-.5,1.2c-.1,3.2.5,5.7,2,7.2a7.3,7.3,0,0,0-.5.9,2.9,2.9,0,0,0,.1,1.3c.3.9.9,1.7,1.3,2.6a20.7,20.7,0,0,0,2.8,3.8,6.9,6.9,0,0,0,1.3,1.1,6.7,6.7,0,0,1,1.5.6,5.8,5.8,0,0,1,.3,1.4,11.9,11.9,0,0,0,1.1,2.6,6.1,6.1,0,0,0,1.1,2.1,7,7,0,0,0,1.9,1.5c1.9,1.4,4,2.9,6.4,3.3.4.1,1.3.1,1.4.5a27.2,27.2,0,0,0,.4,3c-.3.9-1.7,1.4-1.4,2.7s1.3-.7,1.6-.7.5.9.5,1.4a.3.3,0,0,0,.1.2h.1a9.6,9.6,0,0,1,4.7,1.1l1.9,1.1.6.4a1,1,0,0,1,.1.3,2.4,2.4,0,0,0-.3-1.5c-.3-.4-.7-.5-1-.8s0-.7.5-.9a2.5,2.5,0,0,1,1.7-.2l1.7.5.4.3c.2.1.2.2.4.2s-.4-1.5-.9-1.6-2.5-.3-1.7-1.1l.4-.2c-.1-.3-.5-.5-.8-.6a7.4,7.4,0,0,0-2.5.5c.2-.5,1.1-.4,1.1-1.1s-1.4-.2-2.3,0" fill="#d6b780"/><path d="M124.1,72.1a6.2,6.2,0,0,0,2.4-.8c.1-8.5.3-17,.3-25.5l-.3-2.2-1.9.2c-4.2.5-9.1.3-11.8-3.5a28.2,28.2,0,0,1-1.8-2.9c-.6-1.3-1.4-2.6-1.9-4a20.7,20.7,0,0,0-2.2-5.1,13.7,13.7,0,0,0-2.3-2.5,5.2,5.2,0,0,0-1.9-1.1,3.2,3.2,0,0,0-1.4-1.6c-.6-.2-1.2.1-1.8-.3a4.9,4.9,0,0,0-1.7,0c-.4.1-.7.6-1.1.8s-1.2.2-1.2.6-.2.6-.1,1.1-.8,1-.9,1.6a12.3,12.3,0,0,1,.2,1.9c-.2.7-.8,1.1-.6,2.2s1.1-.1,1.8,0a24,24,0,0,1-.4,2.4,2.5,2.5,0,0,0,.3,1.5c.8,1,2,.5,3,0a45.6,45.6,0,0,1,1.2,5.6c.3,4.3-1,9-.7,13.4a11.3,11.3,0,0,0,.6,3.1.8.8,0,0,0,.1.4,19.5,19.5,0,0,0,1.7,3.6l1.2,1.3a17.2,17.2,0,0,0,3.9,3.1l6,3.7,3,2.1c.7.6,1.9,1.1,2.4,1.9a11.2,11.2,0,0,1-.3,2.7h-.7c-.7-.1-1.3-.5-1.8-.4H115a1.9,1.9,0,0,0-1.2.4l1,.4c.1.5.9.4,1.1.9s-1.7-.7-2.6-.5a1.5,1.5,0,0,0-.9.6.6.6,0,0,1,.5.2c.8.8-1.5,1-1.8,1.1s-1.1,1.2-1,1.7l.4-.2.5-.3,1.7-.5a2.8,2.8,0,0,1,1.8.2c.5.2,1.1.4.6.9s-.8.5-1.1.9a1.9,1.9,0,0,0-.3,1.5v-.3l.7-.4a13.2,13.2,0,0,1,2-1.2,10.4,10.4,0,0,1,4.9-1.1h.1c.1,0,.1-.1.1-.2s-.1-1.2.5-1.4,1.5,1.3,1.7.7-1.1-1.8-1.4-2.8a27.2,27.2,0,0,0,.3-3.1C122.7,72.1,123.7,72.2,124.1,72.1Z" fill="#e8cfb1"/><path d="M55.9,87.2l-1.4,1a17.9,17.9,0,0,1,7.1-1.6,30.5,30.5,0,0,1-4,3.1c3-.2,5.5-2.8,8.5-3.2s4.4-.2,6.5-.2,2.8-.1,3.2.3-2.1-.5-3.2-.7a4.8,4.8,0,0,1-1.8-.8l-1.9-.9-.6-.5c-.9-1.1.2-3.9.6-5s1.7-3.2,1.2-4.9a42.6,42.6,0,0,0,8.7.7h2.4V75a9,9,0,0,0,.9,3.3c.8,1.5,2,3.2,1.3,4.8s-2,1.8-3.1,2.4l-4.7,2.3c1.7.2,3.3-.8,4.9-1.3s4-.1,6.1.2a8,8,0,0,1,2,.7A24.4,24.4,0,0,0,95.7,89a4.9,4.9,0,0,0-3-1.4,12.5,12.5,0,0,1-1.9-.3c-.7-.3-1.2-1.1-.2-1.4a4.9,4.9,0,0,1,1.2.1h2.4a39.7,39.7,0,0,1,4.8.7,10.9,10.9,0,0,0-4.9-1.9c-1.9-.2-3.9,0-5.3-1.1a8.4,8.4,0,0,1-1.9-3.3q-.9-1.9-1.8-4.2l1.2-3.2a5,5,0,0,1,1.1-1.9,8.1,8.1,0,0,1,2.1-1A6.7,6.7,0,0,0,92.3,67c.7-1.3,1.2-2.7,1.9-4a8,8,0,0,0,.8-1.6,7.1,7.1,0,0,0,.1-2.9,10,10,0,0,0-1-4.2c-1.5-2.4-4.6-3.2-6.9-5a7.5,7.5,0,0,1-3-5.2,14.6,14.6,0,0,1,.2-2.9l.6-3.6a.8.8,0,0,1,.2-.7c.1-.2.3-.3.5-.5s-.6-1.5-.5-2.4.4-.8.5-1.2a1.9,1.9,0,0,0-.7-2.4l-1-.5c-.2-.2-.5-.4-.6-.7v-.9l.3-.5a1.1,1.1,0,0,0-.8-1.1c-.3.2-.2.7-.1,1.1s-.8,1.4-1.5,1.7a9.9,9.9,0,0,0-2.4.9,5.3,5.3,0,0,0-1.9,2.9c-.8,2.5-1.6,5-2.2,7.5s-1,3.9-2.4,5.1a12.3,12.3,0,0,1-2.5,1.4c-2.3.9-4.6,2-6.8,3.1a10,10,0,0,0-3.7,3,9.2,9.2,0,0,0-.9,4.9c-.1,1.9-.1,3.8-.1,5.7a3.7,3.7,0,0,0,.1,1.8,8.2,8.2,0,0,0,2.1,2.5,24.7,24.7,0,0,1,3.7,4.2,10.8,10.8,0,0,1,1.3,2.9,5.3,5.3,0,0,1,.3,1.2,5.8,5.8,0,0,1-.4,1.8c-.6,1.9-.7,4.1-2.2,5.4s-2.8,1.3-4.2,1.8Z" fill="#e8cfb1"/><path d="M51.2,132.7c-2.3,1.5-4.4,3.7-4.9,6.4,8.7-3.7,17.4-7.4,26.7-8.6l-.7.2c3.4-.9-.7-1.7-1.9-1.8a37.5,37.5,0,0,0-6.7-.1A27.8,27.8,0,0,0,51.2,132.7Z" fill="#fff"/><path d="M76.4,130.9a26.6,26.6,0,0,0-11.9.2c-1.9.4-3.9,1-5.8,1.6l-5.6,2.1,5.5-2.5a38.6,38.6,0,0,1,5.8-1.7,30.8,30.8,0,0,1,6.1-.7A17,17,0,0,1,76.4,130.9Z" fill="#191919"/><path d="M83.7,129.7a1.1,1.1,0,0,0-1.1.3,1.1,1.1,0,0,0-.2,1.2l3.5-1.2c.3-.1.6-.2.6-.5s-.1-.5-.4-.5h-.8a13.3,13.3,0,0,1-2.8.3" fill="#fff"/><path d="M43.6,102.2l-1.4.5a3.2,3.2,0,0,0,1.4.3,1.5,1.5,0,0,0,1.2-.5.4.4,0,0,0,.1-.3l-.3-.2h-1" fill="#fff"/><path d="M36.5,107.3a1.1,1.1,0,0,0-1,1.2l2-.2h.4a.6.6,0,0,0,0-.9c-.2-.3-.6-.3-.9-.3H36" fill="#fff"/><path d="M127.6,137.7c-.4-.2-1.1.1-1.1.6l2.7-.7h.2c.2-.2-.1-.5-.3-.6a2.2,2.2,0,0,0-1.8.1,1.4,1.4,0,0,0-.2-.6,1,1,0,0,0,0,1.3" fill="#fff"/><path d="M149,123.3a.8.8,0,0,0-.7.8H151a.8.8,0,0,0,.4-.7c-.1-.4-.7-.5-1.1-.4a2.5,2.5,0,0,1-1.2.1" fill="#fff"/><path d="M144.7,140.5a.3.3,0,0,0-.4-.2c-.2,0-.3.2-.4.3s1.8.5,2.4-.1.2-.4.1-.5h-1.8" fill="#fff"/><path d="M160.3,112.6a9,9,0,0,0-2.1.8,3.7,3.7,0,0,0,3.4-.1c.2-.3-.2-.7-.5-.8a1.4,1.4,0,0,0-1.1.3" fill="#fff"/><path d="M73.8,150.4a2.3,2.3,0,0,0-1.8.2c-.2.1-.5.4-.3.6l1.9-.2.7-.2a.7.7,0,0,0,.3-.8,3.7,3.7,0,0,1-1.5-.3" fill="#fff"/><path d="M99.3,152.8a2.4,2.4,0,0,0-1.3,1.6l1.7.4h.6c.5-.2.5-.9.5-1.5s-1.4-.2-1.4-.8h-.7" fill="#fff"/><path d="M136.1,146.4c2.3-.9.7-2.8-1-3.1-3.4-.6-6.5.6-9.6,1.8a18.3,18.3,0,0,1-7.4,1.3c-1.1,0-6.5-1.5-6.9-1,3.2,2.4,8.4,3.2,12.3,3.3A28.5,28.5,0,0,0,136.1,146.4Z" fill="#fff"/><path d="M81.3,147.5a2.4,2.4,0,0,1,.2-2.7l.7-.4a2.8,2.8,0,0,1,2.9.6c.7.9.4,2.3.5,3.6a5.2,5.2,0,0,0,1.2,2.6c.5.5,1.8,1.6.5,2s-1.9-.8-2.5-1.2A10.4,10.4,0,0,1,81.3,147.5Z" fill="#fff"/><path d="M37.8,105.2l-4.7-1.3-2.2-.7a2,2,0,0,1-1-.8.9.9,0,0,1,0-1.2c.2-.2.4-.2.7-.3s2.3.8,3.4,1.5a19.2,19.2,0,0,0,4.2,1.6,1.6,1.6,0,0,1,1.2.7,7.3,7.3,0,0,1-3.6-.1" fill="#fff"/><path d="M165.7,97.6c.5-1.3.5-2.8,1.4-3.8a1.3,1.3,0,0,1,1.6-.5c.6.4.5,1.3.3,2a6.8,6.8,0,0,1-1.6,3.3,6.1,6.1,0,0,1-2.2,1.3c-.6.2-1.4.6-1.9.1S165.1,98.7,165.7,97.6Z" fill="#fff"/><path d="M48.6,148.4a.6.6,0,0,0,.1.4,10.3,10.3,0,0,1,2.4-.5.9.9,0,0,0-.4-1.4,3.2,3.2,0,0,0-1.7-.3,1.7,1.7,0,0,1-.3,1.2c-.4-.1-.8.4-.5.6l-.4.3" fill="#fff"/><path d="M112.3,154.4a3.3,3.3,0,0,0,2.9-.6,1.8,1.8,0,0,0-1.9-1.3c-.3,0-.5,0-.6.2l-.2.5a.9.9,0,0,1-.6.8" fill="#fff"/><path d="M75.5,160.6a3.3,3.3,0,0,0,4.4-.1l-1.8-.7-.5-.2-.4.2a5.7,5.7,0,0,1-2.2.7" fill="#fff"/><path d="M64.9,121.3a.9.9,0,0,0,.8,1,2.4,2.4,0,0,0,1.4-.5,1.3,1.3,0,0,0-.6-1c-.6-.2-1.2.6-1.8.4" fill="#fff"/><path d="M25.4,92.3c.1-.1-.1-.2-.1-.1s0,.2.1.3a4.2,4.2,0,0,0,2.7.4l.5-.2a.9.9,0,0,0,0-1c-.1-.3-.4-.4-.7-.6s-1.7.1-2.4.5a.3.3,0,0,0,.2.5" fill="#fff"/><path d="M51.9,107.4a.9.9,0,0,0,1.3,1,1.2,1.2,0,0,0,.2-1.6,2,2,0,0,0-1.6-.7c-.3,0-.7.1-.7.4s.2.4.3.6,0,.6-.2.6" fill="#fff"/><path d="M45.4,55.8A4.9,4.9,0,0,0,47.6,54a31,31,0,0,0,2.9-5,22.6,22.6,0,0,1,1.7-3.5,5.3,5.3,0,0,1,3-2.3.8.8,0,0,1,.4-1.2,2.1,2.1,0,0,1,.8,0h.8a2.5,2.5,0,0,1,2.5,1.9c.1.3.1.6.2.8l.6.6a3,3,0,0,1,.8,2.1,7.4,7.4,0,0,0-2.1-.1,3.4,3.4,0,0,1-.4,2.4,2.1,2.1,0,0,1-2.2.7A14.1,14.1,0,0,0,56,58c.7,3.3,2.5,6.4,2.1,9.8A7.3,7.3,0,0,1,54.6,73l-.9.6a4.6,4.6,0,0,0-.9,2c-.4,1.4-1.1,2.9-2.6,3.1a17.5,17.5,0,0,0,2.1,4.6,5.2,5.2,0,0,0,3.8,2.2,11.9,11.9,0,0,1,3.6.9,14,14,0,0,1-5-.1,3.4,3.4,0,0,0-2.8.1,11.3,11.3,0,0,1-2.2,1.1c-.1,0,.4-.5.4-.6s.5-.5.2-.7h-.2l-.9.2a12.2,12.2,0,0,1-2.6.6,3.6,3.6,0,0,1,1.8-1l.9-.2.9-.2h.2v-.2c-.2-.8-.7-1.3-.9-2a10.8,10.8,0,0,0-1.2-2.4,14.7,14.7,0,0,1-2.2-5.7l-3.9.5h-.6l-.3.5a10.5,10.5,0,0,0-.3,7.8,2.4,2.4,0,0,0,.6.8,1.2,1.2,0,0,0,1,.4l3.6.9a16,16,0,0,1-2.3.3l-1.3-.3c-.2-.1-1.1-.2-1.2-.4l1.9,2.1a4.4,4.4,0,0,1-1.9-.7,9.5,9.5,0,0,0-9.1.5c-.1-2.3,3.5-1.7,4.8-2.5s1.1-1.4,1.4-2.3a5.5,5.5,0,0,0-.1-3.8,9.6,9.6,0,0,0-1.8-2.2,20,20,0,0,1-4.8-7.7,6.2,6.2,0,0,1-.3-3c.5-2,2.6-3.1,3.6-4.9s.5-1.2.8-1.7,3.2-2.3,5.2-2.8Z" fill="#d6b780"/><path d="M152.5,128.7h1.4a1.6,1.6,0,0,0,1.1-.7.9.9,0,0,0-.3-1.2h-.8a1.3,1.3,0,0,0-1,.4c-.3.2-.4.8-.1,1a.5.5,0,0,0-.5.3" fill="#fff"/><path d="M137.2,132l1.9.7h.5l.3-.3a1.8,1.8,0,0,0,.5-1.2l-1.4-.2h-.7c-.3.1-.4.6-.5,1" fill="#fff"/><path d="M33.7,103.2H34l.5.2.9.3,2,.4,2,.3,2.1.4H39.4l-2.1-.2a7.6,7.6,0,0,1-2-.6l-.9-.4-.5-.3Z" fill="#191919"/><path d="M90.1,154.1a9,9,0,0,1-2.3-.8l-2-1.4a9.8,9.8,0,0,1-1.7-1.8,4.2,4.2,0,0,1-.8-2.2,8.2,8.2,0,0,0,2.8,3.6l1.9,1.4A10.5,10.5,0,0,0,90.1,154.1Z" fill="#191919"/><path d="M9.1,119.3a1.6,1.6,0,0,1,1.5-.2l.3.4a1.4,1.4,0,0,1-.1,1.4,4.2,4.2,0,0,1-2,.5,4.1,4.1,0,0,0-1.3.8c-.3.3-.8,1-1.1.4s.3-1,.4-1.2A5.2,5.2,0,0,1,9.1,119.3Z" fill="#fff"/><path d="M6.1,124a2.7,2.7,0,0,1,.3-1.2l.7-1.1.8-.9a1.6,1.6,0,0,1,1.1-.5,3.7,3.7,0,0,0-1.7,1.6,6.1,6.1,0,0,0-.7,1A5.4,5.4,0,0,0,6.1,124Z" fill="#191919"/><path d="M110.3,144.9a71.7,71.7,0,0,0,8.8,1.7,34,34,0,0,0,4.5.3,21.2,21.2,0,0,0,4.4-.4,20.5,20.5,0,0,1-8.9.6A37.8,37.8,0,0,1,110.3,144.9Z" fill="#191919"/><path d="M156.1,137.2c-1.8-.2-1.7-2.3-.8-3.1s4.2-1.4,6.6-1.2a9.6,9.6,0,0,0,5.1-1.1c.7-.4,3.2-3.3,3.7-3-.9,3.1-3.7,5.4-5.9,6.7A14.3,14.3,0,0,1,156.1,137.2Z" fill="#fff"/><path d="M171,128.1a22.4,22.4,0,0,1-4.2,4.5,19.1,19.1,0,0,1-2.7,1.6,10.8,10.8,0,0,1-3.1.7,14,14,0,0,0,5.5-2.6A29.9,29.9,0,0,0,171,128.1Z" fill="#191919"/><path d="M162,101.2a.1.1,0,0,0,0,.2h0l1.7-1.1,1.7-1a9.1,9.1,0,0,0,2.2-3.2,7.6,7.6,0,0,1-.6,2,5.1,5.1,0,0,1-1.3,1.6l-1.8,1-1.9.7h-.1C161.9,101.3,161.9,101.3,162,101.2Z" fill="#191919"/><path d="M51.1,94.7l1.3.9A15.7,15.7,0,0,0,46,94.2,34.4,34.4,0,0,0,49.6,97c-2.7-.2-4.9-2.5-7.6-2.9a38.8,38.8,0,0,0-5.9-.1c-.5,0-2.5-.2-2.9.2s1.9-.5,2.9-.6a4.6,4.6,0,0,0,1.6-.7l1.7-.9.6-.4c.7-1-.2-3.5-.6-4.5s-1.5-2.9-1.1-4.4a34.2,34.2,0,0,1-7.8.6H28.4v.6a9.8,9.8,0,0,1-.9,2.9c-.6,1.4-1.7,2.9-1.1,4.4s1.8,1.6,2.8,2.1l4.2,2c-1.5.2-2.9-.7-4.4-1.1a12.8,12.8,0,0,0-5.5.2,6.7,6.7,0,0,0-1.8.7,22.8,22.8,0,0,1-6.4,1.3A5.1,5.1,0,0,1,18,95.1a10.1,10.1,0,0,0,1.7-.3c.6-.3,1.1-.9.2-1.3a2.2,2.2,0,0,0-1.1.2H16.6a31.8,31.8,0,0,0-4.3.6,10.3,10.3,0,0,1,4.5-1.7c1.6-.2,3.5,0,4.7-1.1a7,7,0,0,0,1.7-2.9c.6-1.2,1.1-2.5,1.6-3.7s-.7-2-1.1-3a3,3,0,0,0-1-1.7,6.1,6.1,0,0,0-1.8-.9,6.1,6.1,0,0,1-2.6-2.9c-.6-1.2-1-2.4-1.6-3.6a6.4,6.4,0,0,1-.8-1.4,7.6,7.6,0,0,1-.1-2.6,8.3,8.3,0,0,1,1-3.8c1.3-2.2,4.1-2.9,6.1-4.5a6.8,6.8,0,0,0,2.8-4.7,21.1,21.1,0,0,0-.2-2.5c-.2-1.1-.4-2.3-.5-3.4s-.1-.4-.2-.6a1,1,0,0,1-.5-.4c-.5-.6.5-1.4.5-2.2a9.3,9.3,0,0,0-.5-1,1.7,1.7,0,0,1,.6-2.2l.9-.5a.9.9,0,0,0,.6-.6v-.8l-.2-.4a.9.9,0,0,1,.7-1c.3.1.2.6.1.9a1.8,1.8,0,0,0,1.4,1.6,13.1,13.1,0,0,1,2.1.8,4.8,4.8,0,0,1,1.7,2.6,53.1,53.1,0,0,1,2,6.8c.4,1.6.9,3.4,2.2,4.5a8.6,8.6,0,0,0,2.3,1.3,65.4,65.4,0,0,1,6,2.8,9.1,9.1,0,0,1,3.4,2.7,9.3,9.3,0,0,1,.8,4.4c0,1.7.1,3.4.1,5.1a4.1,4.1,0,0,1-.2,1.6A5.8,5.8,0,0,1,47,77.7a23.7,23.7,0,0,0-3.3,3.8,8.8,8.8,0,0,0-1.2,2.6l-.3,1.1a4.2,4.2,0,0,0,.4,1.6c.5,1.7.6,3.7,2,4.9s2.5,1.1,3.7,1.6A14.7,14.7,0,0,1,51.1,94.7Z" fill="#d6b780"/><path d="M158.8,92.3c-.1.9-.2,1.9-.4,2.9h0l-.6,3a2.9,2.9,0,0,0-.2.9l-.3,1c-.1.1-.1.3-.2.4a1.4,1.4,0,0,1-.2.6,11.5,11.5,0,0,1-1,2.3l-.2.3-.6,1.1a27.7,27.7,0,0,1-8.2,7l-2.5,1.6a24.4,24.4,0,0,1-4.3,2.1,37.7,37.7,0,0,1-8.1,1.7l-3.5.6H128l-10.3,1.8c-1.9.4-3.6,1.2-5.5,1.6s-4.5.7-6.8.9a27.5,27.5,0,0,1-8.6-.4,18.9,18.9,0,0,0-3.4-.9,23.4,23.4,0,0,0-3.8.3c-7.6,1.1-15.3-.7-22.1-4.1a14.5,14.5,0,0,1-3.6-2.2A2.5,2.5,0,0,0,62,114a1.8,1.8,0,0,0-1,.7l-.4.6a9,9,0,0,1-1.5,1.8,12.9,12.9,0,0,1-5.3,3.6,20.2,20.2,0,0,1-6.4,1.7H40.9a23.3,23.3,0,0,0-6.9,1.7c1.2-1.7,3.7-1.9,5.7-2.6l2.9-1.3c2.2-.7,4.7-.5,7-.9s2.8-.9,2.1-2.2-1.9-.9-2.8-1.2l-3.9-.9a49.7,49.7,0,0,0-7.6-1.1A72.1,72.1,0,0,1,27,112.7a20.5,20.5,0,0,0-4.2-.7c-1.3,0-2.8.6-4.1.2.3.1,1.9-.7,2.4-.7a12.9,12.9,0,0,1,2.8-.1c1.5,0,2.9-.3,4.4-.2,3.9.4,7.7,1.1,11.7.9a8.4,8.4,0,0,1-2.7-.8,21.8,21.8,0,0,1-2.7-1.1,8.8,8.8,0,0,0-5.5-.7c.3-.1.7-.6,1-.7a3,3,0,0,1,1.5-.5,11.7,11.7,0,0,1,2.7.5c2.2.5,4.4,1.4,6.6,2a14,14,0,0,0,3.4.8c1.2.1,2.3-.1,3.4,0a58.4,58.4,0,0,1,7.3,1.1,8.1,8.1,0,0,0,2.2.1h.1l1.6-.8.3-.3h0c.2-.3,0-.6-.1-.9s-1.5-2.9-2.2-4.4a42.2,42.2,0,0,1-3.1-7.8,33.2,33.2,0,0,1-.6-13.3,38.3,38.3,0,0,1,2.7-9.5c1.4-3.3,3.8-5.1,3.7-9.1a7.1,7.1,0,0,1,.2-2.5c1.2-3.2,4.4.7,5.5,1.7l.4.2c.2,0,.3-.1.3-.2a3,3,0,0,0,0-2.9c-.3-1-.8-1.9-1-2.9a.7.7,0,0,1,.1-.5c.1-.2.3-.2.5-.3a5,5,0,0,1,3.4-.3,11,11,0,0,0,.2,1.8c.2.1.4-.2.6-.4a1.4,1.4,0,0,1,1.4-.1,2.7,2.7,0,0,1,1,1.1c.1.1.2.3.4.3s.6,0,.8.1.1,1.9.9,2.4.5.1.8.1c1.9.1,3.3,1.7,5.4,1.6a10.4,10.4,0,0,0,6-3c1.3-1.1,3-1.8,3.7-3.4a15.5,15.5,0,0,0,.5-2.3c.5-2.2,2.3-4,4.1-5.5s3.8-2.9,4.9-4.9,1.2-1.6,2.1-.7,1.1,1.1,2.1,0a8,8,0,0,1,6.7-2.7l.6.2c.5.4.3,1.2-.1,1.7s-1,1-.9,1.6,1.4-.2,1.9-.6l3.4-2.7a4.4,4.4,0,0,0,1.7-1.9,5.6,5.6,0,0,1,.4-1.2c.3-.3.8-.5,1.1-.2s.2.5.1.9l-.3,2.1a3.3,3.3,0,0,0,1.5-2.3,7.2,7.2,0,0,1,2.1,2.5c.4-1.8.7-3.6,1.1-5.4,0-.2,0-.4.2-.5h.4a6.5,6.5,0,0,1,1.9.4c.3.1.6.2.7.4a1.6,1.6,0,0,1,.3.9,11.4,11.4,0,0,1-.6,6.1,1.7,1.7,0,0,1,1.8.9,4.3,4.3,0,0,0,4,2.2c1.7,0,4,.1,5.5,1.1a2,2,0,0,1,.8,2.3c-.3.9-1.3,1.2-2.2,1.5s.6,2,2.1,1.8a4.2,4.2,0,0,0,2-1l.6-.3a.9.9,0,0,1,.8.6,4.5,4.5,0,0,1,.1,1.1c-.2,1.1-.3,2.2-.4,3.3s1.6-.5,2-1.2.8-1.6,1.5-2a.8.8,0,0,1,.7-.2.8.8,0,0,1,.4.9c0,.4-.3.7-.4,1a4.5,4.5,0,0,0-.6,3.2c.1.1.1.3.3.4h.3l1.9-.6.5-.3c.3-.4.1-.8.2-1.2a1,1,0,0,1,1.6,0,2.8,2.8,0,0,1,.2,1.8,17.9,17.9,0,0,1,2.3.2c.7.3,1.2,1.3.6,1.8l2.4-.5a2.1,2.1,0,0,1-.7,2.1c-.4.4-1.1.9-.8,1.4s.7.2,1.1.4.8,1.1.6,1.8a3.1,3.1,0,0,0-.2,2.1,9,9,0,0,0,.5.9c.5,1-.1,2.4.6,3.3s.4.4.4.6V75a5.4,5.4,0,0,1,.5,1.1,16.3,16.3,0,0,1,1.3,3.7A37.4,37.4,0,0,1,158.8,92.3Z" fill="#fff"/><path d="M54.7,111.2h-.2C54.5,111.2,54.6,111.1,54.7,111.2Z" fill="#fff"/><path d="M58.8,96c1.7,0,2.4,0,3.7-1.1a9.9,9.9,0,0,1,1.7-1.1A13.9,13.9,0,0,1,70,91.7h3.4a15.2,15.2,0,0,1,3.7,0c1,.2,1.8,1,2.8,1.3s2,.3,3,.6a63.5,63.5,0,0,0,7.6,1.3c.6.1,2.6-.1,2,1s-2.8,1-3.5,1.3a42.7,42.7,0,0,1-6,2.1,40.5,40.5,0,0,1-8.5.5,14.2,14.2,0,0,0-2.9.2,23.3,23.3,0,0,1-2.8,1.1,9.8,9.8,0,0,1-5.1-.7c-2-.8-4.1-.5-5.6-1.9s-1.2-1.2-1-2S58.2,95.7,58.8,96Z" fill="#7a6956" opacity="0.1"/><path d="M73.8,90.3a5.3,5.3,0,0,1-2.5,2.2c-1.2.5-2.4-.2-3.6-.3a5.6,5.6,0,0,0-2.7,1l-3.2,1.5a16.7,16.7,0,0,1-2,.8c-.4.2-.7.6-1.2.6h-.4c-.7-1.4.3-3.7.8-5.1a9.9,9.9,0,0,0,.6-2.6,5.5,5.5,0,0,1,1.2-3.2A2.8,2.8,0,0,1,63.5,84c.4.1.5.7.9,1l.5.2.6.4c.9.4,2,.3,2.9.6s1.8.8,2.8,1,2.5.8,2.7,1.8A3,3,0,0,1,73.8,90.3Z" fill="#eca414"/><path d="M73.8,90.3a5.3,5.3,0,0,1-2.5,2.2c-1.2.5-2.4-.2-3.6-.3a5.6,5.6,0,0,0-2.7,1l-3.2,1.5a16.7,16.7,0,0,1-2,.8c-.4.2-.7.6-1.2.6a26.4,26.4,0,0,1,4-3.5c1.4-1,3.4-2.7,5-3.1a26,26,0,0,1,3.9-.5,6.5,6.5,0,0,1,2.4,0A3,3,0,0,1,73.8,90.3Z" fill="#7a6956" opacity="0.2"/><path d="M70,77c-.3.5-1.3.9-1.7,1.2a13.7,13.7,0,0,0-1.7,1.7,11.8,11.8,0,0,0-2.1,4,2,2,0,0,1-.6,1.2l-.5.3c-1,.3-2.2.4-2.9,1.2l-.6.5-.4.2a1,1,0,0,1-1.2-1,3.4,3.4,0,0,1,.5-1.7L60,82.4l.8-1.5,1-1.4a6.6,6.6,0,0,0,.8-2.1,8.1,8.1,0,0,0-.1-3.1c-.1-.4-.2-1,.2-1.2s.5-.1.7-.3-.3-.7-.3-1.1.4-.6.7-.6a1.4,1.4,0,0,1,1,.5c.6.4,1.2,1,1.8,1.5l2,1.7.9.8C69.9,76,70.3,76.5,70,77Z" fill="#fc9e8c"/><path d="M82.8,79.3a29.9,29.9,0,0,0-5.2,1c-.3.1-.5.1-.6.3s-.3,1.1-.4,1.5a3.2,3.2,0,0,1-.9,1.6,1.8,1.8,0,0,1-2.1.1c-.6-.3-1.3-1-.7-1.7A6.2,6.2,0,0,1,74.6,81,22.6,22.6,0,0,1,83,79.2Z" fill="#313131"/><path d="M70.9,91.7l-2.6.6a6.2,6.2,0,0,0-2.4.8c-1.5.9-3.1,1.7-4.7,2.5l-1.2.5a2.3,2.3,0,0,1-1.5.2.3.3,0,0,1-.3-.3c-.1-.1-.1-.2-.1-.4a1.5,1.5,0,0,1-.1-.7c.1-.4.1-.9.2-1.3a29.3,29.3,0,0,1,1.3-5.1h0l.4-1.3h0l.2-.2h0s.1.1,0,.1h0c-.1,0-.1.1-.1.2h0l-.3,1.2h0a43.6,43.6,0,0,0-1.1,5.2c0,.4-.1.8-.1,1.2s0,1,.2,1a1.7,1.7,0,0,0,1.1-.3l1.2-.5,4.7-2.3a7.9,7.9,0,0,1,2.6-.8Z" fill="#191919"/><path d="M58.2,95.8A17.9,17.9,0,0,1,61.7,93a29.5,29.5,0,0,1,3.8-2.3,12.4,12.4,0,0,1,2-1l2.1-.5a16.2,16.2,0,0,1,4.4,0,12.5,12.5,0,0,0-4.3.2,6.5,6.5,0,0,0-2.1.6,12.1,12.1,0,0,0-2,.9l-3.7,2.4a30.4,30.4,0,0,0-3.3,2.8Z" fill="#191919"/><path d="M77.3,91.6c-.3.6-1.1.8-1.7,1.1s-2.9,2-4.4,2.9a4.2,4.2,0,0,1-1.9.6,1.8,1.8,0,0,1-1.4-.6l-.3-.4c-.4-.9.4-1.9.4-2.9a10.6,10.6,0,0,1,3.9-.9l2.8.4a2.9,2.9,0,0,0,1.3-.1A2,2,0,0,1,77.3,91.6Z" fill="#fc9e8c"/><path d="M75.5,82.1a1.8,1.8,0,0,1-1,1.1,1.1,1.1,0,0,0,1.4-.8.3.3,0,0,0,0-.4c0-.2-.2-.4-.4-.3Z" fill="#fff"/><path d="M64.2,84.8a56.4,56.4,0,0,0,7,2.1,3.6,3.6,0,0,1,1.7.7,2.2,2.2,0,0,1,1.2,1.6,2.1,2.1,0,0,1-.7,1.7A5.3,5.3,0,0,1,72,92.1l1.2-1.3a1.9,1.9,0,0,0,.5-1.6,2.3,2.3,0,0,0-1-1.2,5.2,5.2,0,0,0-1.6-.6C68.8,86.7,66.3,86.2,64.2,84.8Z" fill="#191919"/><path d="M76.8,92a40.7,40.7,0,0,0,11.4,2.4" fill="#7a6956" opacity="0.1"/><path d="M69.5,75.2a18.8,18.8,0,0,1,5.6-2.5A39.2,39.2,0,0,1,81,71.2a55.4,55.4,0,0,0-5.8,1.7,21,21,0,0,0-5.4,2.7Z" fill="#191919"/><polygon points="69.6 75.8 69.1 75.8 69.3 75.3 69.6 75.8" fill="#191919"/><path d="M152.7,97a12.3,12.3,0,0,1-1.4,2.5,13.6,13.6,0,0,0-1.4,4,63.8,63.8,0,0,1-2.2,8.6,31.6,31.6,0,0,1-4.4,6.6l-2.2,2.8-.9.9a3.3,3.3,0,0,1-1.5,1.1,53.7,53.7,0,0,1-6.5,2.9c-1.7.6-3.6.7-5.2,1.5a22.7,22.7,0,0,0-3.2,2.2c-3.2,2.4-7.1,4.1-10.7,5.8a17.9,17.9,0,0,1-3.2,1.3,14.7,14.7,0,0,1-2.9.5,21,21,0,0,1-7.5-.5c-.2-.1-.3-.1-.4-.3a.4.4,0,0,1,.2-.5l.6-.2a25.4,25.4,0,0,0,8.7-1.2,2.6,2.6,0,0,0,1.6-1.1,1.2,1.2,0,0,0-.1-1.7H110a1.7,1.7,0,0,0-1.2-.1c-2.9.2-6.4.3-9.1,1.4a11.5,11.5,0,0,1-2.9,1.1c.7-1.2,2.8-2,3.9-2.6s3.7-1.6,5.6-2.2c7.9-2.8,16.4-3.4,24-7,.8-.4,1.6-1,1.6-1.7v-.3c-.4-1.2-1.4-1.6-2.5-2.1a13.7,13.7,0,0,1-3-1.9,16.6,16.6,0,0,1-4.8-5.4l31.1-21.6a13.3,13.3,0,0,1,.5,4A9.3,9.3,0,0,1,152.7,97Z" fill="#eca414"/><path d="M102.8,102.7a26.7,26.7,0,0,0,16.5-4.1,28.8,28.8,0,0,0,6.4-5.7c1.9-2.1,3.7-4.4,5.7-6.5s2.1-2,3.3-2.9l1.8-1.2c.6-.5,1.3-.7,1.6-1.2s.2-.6,0-.8-.4-.2-.7-.2a2.5,2.5,0,0,1-1.2-.1l-.5-.5a1.6,1.6,0,0,1,0-.7c.4-.8.9-1.3.9-1.9s-.3,0-.6,0h-.6a.7.7,0,0,1-.6-.3,1.1,1.1,0,0,1-.2-1.2,3.6,3.6,0,0,1,.4-1.1c.3-.7.7-1.3,1-1.9a3.5,3.5,0,0,0,.5-2,1.6,1.6,0,0,0-1-1.5,2.2,2.2,0,0,0-1.9.2,8.8,8.8,0,0,0-2,.9l-1.9.9a7.6,7.6,0,0,1-2.1.8v-.3h-.1V70.2c0-.1,0-.2-.1-.2a.5.5,0,0,0-.2-.4c-.3-.2-.7-.1-1.1-.1l-1.1.3c-1.4.6-2.6,1.6-4,2.3a31.6,31.6,0,0,1-8.8,3,30.4,30.4,0,0,0,8.7-3.2,38.1,38.1,0,0,1,4-2.3l1.2-.4a2.5,2.5,0,0,1,1.2.1,1.2,1.2,0,0,1,.5,1.2v.9h-.2v-.3a7.7,7.7,0,0,0,1.9-.8l2-1,2-.9,1-.3a2.5,2.5,0,0,1,1.2.1,3.4,3.4,0,0,1,.9.8,2,2,0,0,1,.3,1.1,4.2,4.2,0,0,1-.5,2.2c-.3.7-.7,1.3-1,1.9a3,3,0,0,0-.4,1,.8.8,0,0,0,.1.8c.1.2.5.1.8.1h1l.2.2v.2c0,.9-.7,1.5-.9,2s.4.8,1.1.7a1.4,1.4,0,0,1,1.2.4,1.2,1.2,0,0,1,.1,1.3c-.5.8-1.3,1-1.9,1.4a17.7,17.7,0,0,0-1.7,1.2,21.4,21.4,0,0,0-3.2,2.8c-2,2.1-3.9,4.3-5.8,6.5a30.1,30.1,0,0,1-6.6,5.7A26.2,26.2,0,0,1,102.8,102.7Z" fill="#191919"/><path d="M132.5,121h4a14.8,14.8,0,0,0,4.2,0,7.5,7.5,0,0,1-4.2.5l-2.1-.2-1-.2h-.8a.1.1,0,0,1-.1-.1C132.4,121,132.5,121,132.5,121Z" fill="#191919"/><path d="M61,114.7c-.1.1-.1.1-.1.2l-.3.4a13.9,13.9,0,0,1-6.8,5.4,20.2,20.2,0,0,1-6.4,1.7H40.9a23.3,23.3,0,0,0-6.9,1.7c1.2-1.7,3.7-1.9,5.7-2.6l2.9-1.3c2.2-.7,4.7-.5,7-.9s2.8-.9,2.1-2.2-1.9-.9-2.8-1.2l-3.9-.9a34,34,0,0,0-4.6-.8l-3-.3A72.1,72.1,0,0,1,27,112.7a20.5,20.5,0,0,0-4.2-.7c-1.3,0-2.8.6-4.1.2.3.1,1.9-.7,2.4-.7a12.9,12.9,0,0,1,2.8-.1c1.5,0,2.9-.3,4.4-.2,3.9.4,7.7,1.1,11.7.9a8.4,8.4,0,0,1-2.7-.8,21.8,21.8,0,0,1-2.7-1.1,8.8,8.8,0,0,0-5.5-.7c.3-.1.7-.6,1-.7a3,3,0,0,1,1.5-.5,11.7,11.7,0,0,1,2.7.5c2.2.5,4.4,1.4,6.6,2a14,14,0,0,0,3.4.8c1.2.1,2.3-.1,3.4,0a58.4,58.4,0,0,1,7.3,1.1,8.1,8.1,0,0,0,2.2.1,5.3,5.3,0,0,0,1.7-.8l.3-.3h0c.1.1.1.2.2.2A11.8,11.8,0,0,1,61,114.7Z" fill="#eca414"/><path d="M152.7,97a12.3,12.3,0,0,1-1.4,2.5,13.6,13.6,0,0,0-1.4,4,63.8,63.8,0,0,1-2.2,8.6,31.6,31.6,0,0,1-4.4,6.6l-2.2,2.8h-5.3l-3.9-.4v-.3c-.4-1.2-1.4-1.6-2.5-2.1a13.7,13.7,0,0,1-3-1.9,16.6,16.6,0,0,1-4.8-5.4l31.1-21.6a13.3,13.3,0,0,1,.5,4A9.3,9.3,0,0,1,152.7,97Z" fill="#fff"/><path d="M127.3,117a14.4,14.4,0,0,1-3.7-1.9,20,20,0,0,1-3.1-2.7,13.2,13.2,0,0,1-2.3-3.5,8.4,8.4,0,0,1-.8-4.1,12.3,12.3,0,0,0,3.5,7.2,26.8,26.8,0,0,0,3,2.8A19.8,19.8,0,0,0,127.3,117Z" fill="#191919"/><path d="M54.7,111.2h-.2C54.5,111.2,54.6,111.1,54.7,111.2Z" fill="#d6b780"/><path d="M59.2,111.6a.7.7,0,0,1,.7.6l.5.7c.3.5.6.9.9,1.5l-.8-.5-.6-.7c0-.2-.1-.3-.2-.5s-.1-.2-.1-.4S59.5,111.8,59.2,111.6Z" fill="#191919"/><path d="M69.7,75.4l-.2.2c.4.4.8.9.5,1.4s-1.3.9-1.7,1.2a13.7,13.7,0,0,0-1.7,1.7,11.8,11.8,0,0,0-2.1,4,2,2,0,0,1-.6,1.2l-.5.3c-1,.3-2.2.4-2.9,1.2l-.6.5c.3-.7.6-1.3.8-1.9a23.1,23.1,0,0,1,3.1-3.9c1.2-1.7,2.4-3.5,2.4-5.6s-.3-2.1.4-2.6h0Z" fill="#9f352d" opacity="0.4"/><path d="M74.7,91.8a5.4,5.4,0,0,1-2.8,1.8c-1.3.4-1.9.2-3,1.1l-1,.9-.3-.4c-.4-.9.4-1.9.4-2.9a10.6,10.6,0,0,1,3.9-.9Z" fill="#9f352d" opacity="0.4"/><path d="M103.3,102.7c1.1.7,3.4.3,4.8.1a13.9,13.9,0,0,0,3.5-.9c2.5-.7,5.3-1.2,7.5-2.7a18.2,18.2,0,0,0,3.1-3.1c1-1.2,2.4-2,3.4-3.1s4-5.5,6.6-7.4a24.3,24.3,0,0,1,5.4-3.1c1.3-.5,4.5-1.2,5.4.3s-.7,3.1-1.5,4.2a7.7,7.7,0,0,0-1.4,3.8c-.2,2.4.1,5.3-2,7.1s-3.8,1.4-5,3.3-1.2,3.1-4,2.6-4.9-1.3-7.5-.9-4,1.5-6.2,1.6a8,8,0,0,0-3.1.4,4.1,4.1,0,0,1-1.9.8c-2.1.2-5.1-.8-6.2-2.5C103.8,103.1,103.4,103.1,103.3,102.7Z" fill="#7a6956" opacity="0.1"/><path d="M158.8,92.3c-.1.9-.2,1.9-.4,2.9h0l-.6,3a2.9,2.9,0,0,0-.2.9l-.3,1c-.1.1-.1.3-.2.4a1.4,1.4,0,0,1-.2.6,6.7,6.7,0,0,1-1,2.3l-.2.2h0a3,3,0,0,0-.6,1.1c-2.2,3.1-5.5,5.3-6.6,9.2a11.3,11.3,0,0,1-3,5.2,10.4,10.4,0,0,1-2.5,2.2,3.1,3.1,0,0,1-2.1.4c-1.8,0-3.4-.5-5.2-.5l-2.7-.5a5.3,5.3,0,0,1-1.7-.4l-1-1-1.7-1.1c-.5-.2-1.7-.6-1.2-1.3s2-.6,2.5-.9,3.1-1.7,4.9-2,5.1-1.4,6.9-3.7a22.6,22.6,0,0,0,1.6-2.6c.3-.7,1.1-1.1,1.4-1.7s.3-1.6.6-2.4a49,49,0,0,0,2.6-6.7,32.4,32.4,0,0,1,1.3-4.1c.4-1.1,1.1-2.1,1.5-3.2s.8-3.4,1.3-5a23.9,23.9,0,0,1,2.9-5.2c.4-.6.9-1.2,1.3-1.9a10.9,10.9,0,0,1,.8-1.5,16.3,16.3,0,0,1,1.3,3.7A37.4,37.4,0,0,1,158.8,92.3Z" fill="#7a6956" opacity="0.1"/><path d="M107.1,130.8a15.7,15.7,0,0,0-4.7,3,19.5,19.5,0,0,0-1.7,2.3c-.4.7-.7,1.6-1.1,2.2h.2c2.2-1.3,4-3.2,6.4-4.2a13.8,13.8,0,0,1,2.9-.8l4.2-.7c1-.2,3.6-.5,3.8-1.9s-2.8-1.1-3.7-1.1A16.8,16.8,0,0,0,107.1,130.8Z" fill="#eca414"/><path d="M22.7,127.5c-.6-.8-1.2-1.9-.5-2.7l.7-.5a4.1,4.1,0,0,1,2.1-.5,3.2,3.2,0,0,1,2.5,1.6,14.7,14.7,0,0,1,1.4,2.8,19.8,19.8,0,0,0,4.2,6.4,5.8,5.8,0,0,1,1,1.2c-2.4.8-4.1-1.1-5.8-2.6A43.1,43.1,0,0,1,22.7,127.5Z" fill="#fff"/><path d="M14.7,104.1v-1.3c0-.2.1-.3.1-.4l.3-.2a3.8,3.8,0,0,1,3.4.6c.3.3.6.6.4,1s-.7.4-1.1.2l-1.1-.5a2.9,2.9,0,0,0,.1,1.3.8.8,0,0,1-1-.8h-.9" fill="#fff"/><path d="M48.7,99.6c-.1-.4.5-.8.9-.5s.4.7.2,1.1a.7.7,0,0,1,.6.9c-.2.3-.9.3-1-.1l-.2-.3c-.2-.2-.7.1-1-.1v-.7a.8.8,0,0,0,.8-.6" fill="#fff"/><path d="M63.8,139.9a1.1,1.1,0,0,1,.1-1,.5.5,0,0,1,.8-.4l.5.5a1.3,1.3,0,0,0,1.2.4,1.8,1.8,0,0,0-.5.7c-.1.2.1.5.3.6A.9.9,0,0,1,65,140a1.2,1.2,0,0,1-.5.7l-.7-1" fill="#fff"/><path d="M100.6,160.2c.9-1.1,1.6-2.7,3-3.2s1.9.3,1.9,1.1a1.7,1.7,0,0,1-.5,1.3l-1.9,1.9-1.3.9a9.7,9.7,0,0,1-6.7.7C96.5,161.5,99,161.9,100.6,160.2Z" fill="#fff"/><path d="M63.2,158a6.1,6.1,0,0,1-2.6-3.3,4.2,4.2,0,0,1,.4-3.3,2.4,2.4,0,0,1,3-1c1.3.6,1.5,2.3,2,3.6.9,2.8,3.2,4.9,5.5,6.8-.2-.2-1.8,0-2.2-.1a7,7,0,0,1-2.3-.8A19.3,19.3,0,0,1,63.2,158Z" fill="#fff"/><path d="M153.8,118.5c-.5-.6-.9-1.4-.4-2a1.7,1.7,0,0,1,1.2-.3h.9a2,2,0,0,1,.8,1.5c.2.8,1.8,3.2.8,3.3S154.3,119.1,153.8,118.5Z" fill="#fff"/><path d="M146.3,135.6a1.1,1.1,0,0,1-.3-1.1h1.8c-.1-.2.2-.4.4-.3a.5.5,0,0,1,.3.5l.3,1.6a1.6,1.6,0,0,1-1,.1.5.5,0,0,0-.2-.6c0,.2-.3.4-.6.3s-.4-.3-.4-.6" fill="#fff"/><path d="M98,145.3a1.1,1.1,0,0,1-.3-.7c0-.3.3-.6.5-.5s.4,1.1.9,1.1.6-.4.8-.2v1l-.2.2a1.1,1.1,0,0,1-1.2.2,1.2,1.2,0,0,1-.7-1.1" fill="#fff"/><path d="M130.6,153.8h-.4a1,1,0,0,1,.5-1.3,1,1,0,0,1,1.3.4c.1.2.1.4.3.5l.8.4a.5.5,0,0,1,.4.6l-.2.2a2.3,2.3,0,0,1-1.1.3c-.4-.1-.8-.4-.8-.7s-.3.3-.6.3a.4.4,0,0,1-.4-.4" fill="#fff"/><path d="M40.2,128.5a.6.6,0,0,1-.1-.4c0-.7.7-1.5,1.3-1.2s.8,1.4,1.5,1.6,1.2-.1,1.5.3-.2.9-.6.9-.8-.4-1.1-.8a1,1,0,0,1-.7.4l-.6-.2-1.2-.7" fill="#fff"/><path d="M37,142.8a1.2,1.2,0,0,1,.3-1.1,1.6,1.6,0,0,1,1.6.2c.5.3,1.2.6,1.6.3l.4,1.1a.4.4,0,0,1,.1.3.7.7,0,0,1-.6.3c-.8-.1-1.4-.8-2.2-.9h-.8c-.3-.1-.6-.4-.5-.6" fill="#fff"/><path d="M78.5,135.4a2,2,0,0,1,0,1.1.6.6,0,0,1,.7-.9c.5.2.5.9.9,1.3s1.3.3,1.5.9,0,.3,0,.5a1.5,1.5,0,0,1-1.4.8,2.3,2.3,0,0,1-1.5-.7v-.2c0-.3.6-.6.3-.8s-1-.3-.8-.7" fill="#fff"/><path d="M96.9,126.9a.8.8,0,0,1,.2-.8,1.4,1.4,0,0,1,.8-.5h.3c.2.1.2.3.3.5s.9.3,1.3.5a1.2,1.2,0,0,1,.5.9,2.1,2.1,0,0,1-.4,1.1,1.1,1.1,0,0,1-1-.9,1.1,1.1,0,0,0-1.1.3l-.2.3c-.2.1-.5-.1-.6-.3a.8.8,0,0,1,.1-.7l-.4-.3" fill="#fff"/><path d="M124.4,122a.8.8,0,0,1,.3-.9.8.8,0,0,1,.9.1c.2.3.2.7.5.8s-.1,1-.5.9a.6.6,0,0,1-.4-1h-.7" fill="#fff"/><path d="M109.8,123.5c-.1.2.2.3.4.2l1-.5c.4-.1.9,0,1,.4s.1.4.2.6.7.2.9.4-.2.6-.5.7a1.2,1.2,0,0,1-1-.1.9.9,0,0,1-.4-.9l-1,.2a.7.7,0,0,1-.4-.8" fill="#fff"/><path d="M123.5,158c-.1-.5.6-.9,1.1-.9a1.2,1.2,0,0,1,1,.2.7.7,0,0,1,.3.8h.4c.2.7-.6,1.4-1.3,1.4a1.9,1.9,0,0,1-1.6-1.5" fill="#fff"/><path d="M135.7,150.8a1.7,1.7,0,0,1,.7-1.3.7.7,0,0,1,.6-.1c.3,0,.4.3.6.6s.6.4.8.7.5.8.2,1a1.4,1.4,0,0,1-1.1-.6l-.2-.4a1,1,0,0,1-.7.4.4.4,0,0,1-.6-.4" fill="#fff"/><path d="M150.2,112.6c.1.1-.1.3-.2.2s.3-.7.7-.9l.9-.2c.3.1.6.4.5.7s-.4.3-.6.6,0,.7,0,1a1.8,1.8,0,0,1-1.2,1.9,2.8,2.8,0,0,1,0-2.2,1.4,1.4,0,0,0,.2-.6c0-.2-.1-.4-.3-.4" fill="#fff"/><path d="M163.2,106.6a3.8,3.8,0,0,1,1.6-1.2,1.4,1.4,0,0,0,.3,1.5,1.2,1.2,0,0,0,1.6.1l.6,1.4-1.8.3h-.3v-1a1.3,1.3,0,0,1-1.2-.3,2.1,2.1,0,0,0-.4-.6c-.2-.1-.5-.1-.6.1" fill="#fff"/><path d="M158.6,106.2c.3-.3.3-.7.5-1s.7-.6.8-.2a.3.3,0,0,1,0,.4,3.8,3.8,0,0,0,0,1.5.6.6,0,0,1-.7.1.5.5,0,0,1-.1-.8Z" fill="#fff"/><path d="M20.7,119.9a.6.6,0,1,0,0-1.2.6.6,0,1,0,0,1.2Z" fill="#d6b780"/><path d="M24.9,101.3a.7.7,0,0,0,0-1.3.7.7,0,0,0,0,1.3Z" fill="#d6b780"/><path d="M54.1,125.5a.7.7,0,1,0,0-1.3.7.7,0,0,0,0,1.3Z" fill="#d6b780"/><path d="M54.4,144.3a.7.7,0,0,0,0-1.3.7.7,0,0,0,0,1.3Z" fill="#d6b780"/><path d="M55.9,141.3a.7.7,0,1,0,0-1.3.7.7,0,0,0,0,1.3Z" fill="#d6b780"/><path d="M76.5,136.7a.7.7,0,0,0,0-1.3.7.7,0,0,0,0,1.3Z" fill="#d6b780"/><path d="M78.4,125.3a.6.6,0,1,0,0-1.2.6.6,0,0,0,0,1.2Z" fill="#d6b780"/><path d="M58.8,144.9a.7.7,0,0,0,0-1.3.7.7,0,1,0,0,1.3Z" fill="#d6b780"/><path d="M55.4,158.3a.7.7,0,0,0,0-1.3.7.7,0,0,0,0,1.3Z" fill="#d6b780"/><path d="M56.2,152.5a.7.7,0,0,0,0-1.3.7.7,0,0,0,0,1.3Z" fill="#d6b780"/><path d="M63.1,150.2a.7.7,0,1,0,0-1.3.7.7,0,0,0,0,1.3Z" fill="#d6b780"/><path d="M83.1,158.2a.7.7,0,0,0,0-1.3.7.7,0,0,0,0,1.3Z" fill="#d6b780"/><path d="M87.5,161.9a.7.7,0,0,0,0-1.3.7.7,0,1,0,0,1.3Z" fill="#d6b780"/><path d="M90.7,145.7a.7.7,0,0,0,0-1.3.7.7,0,1,0,0,1.3Z" fill="#d6b780"/><path d="M13.7,149.7a1.3,1.3,0,0,1-.3-.8c0-.2.3-.5.5-.4s.4,1.1.9,1,.6-.3.8-.1v1.2a1.5,1.5,0,0,1-1.3.2,1.1,1.1,0,0,1-.6-1.1" fill="#fff"/><path d="M6.4,150a.6.6,0,1,0,0-1.2.6.6,0,0,0,0,1.2Z" fill="#d6b780"/><path d="M94.5,129.1a.7.7,0,1,0,0-1.3.7.7,0,0,0,0,1.3Z" fill="#d6b780"/><path d="M105.3,126.1a.7.7,0,1,0,0-1.3.7.7,0,0,0,0,1.3Z" fill="#d6b780"/><path d="M118.9,144.9a.7.7,0,0,0,0-1.3.7.7,0,1,0,0,1.3Z" fill="#d6b780"/><path d="M158.2,145.2a.7.7,0,1,0,0-1.3.7.7,0,0,0,0,1.3Z" fill="#d6b780"/><path d="M110.2,149.4a.7.7,0,1,0,0-1.3.7.7,0,0,0,0,1.3Z" fill="#d6b780"/><path d="M110.9,145.2a.7.7,0,0,0,0-1.3.7.7,0,1,0,0,1.3Z" fill="#d6b780"/><path d="M116,158.5a.6.6,0,1,0,0-1.2.6.6,0,1,0,0,1.2Z" fill="#d6b780"/><path d="M179.1,131.8a.7.7,0,0,0,0-1.3.7.7,0,0,0,0,1.3Z" fill="#d6b780"/><path d="M107.8,163.1a.7.7,0,0,0,0-1.3.7.7,0,0,0,0,1.3Z" fill="#d6b780"/><path d="M123.1,139.9a.7.7,0,0,0,0-1.3.7.7,0,0,0,0,1.3Z" fill="#d6b780"/><path d="M139.1,133.7a.7.7,0,0,0,0-1.3.7.7,0,1,0,0,1.3Z" fill="#d6b780"/><path d="M137.1,130.4a.7.7,0,1,0,0-1.3.7.7,0,0,0,0,1.3Z" fill="#d6b780"/><path d="M144.8,141a.6.6,0,1,0,0-1.2.6.6,0,1,0,0,1.2Z" fill="#d6b780"/><path d="M23.6,146.6l-.4-.2a.8.8,0,0,0-.4.4c.8-.2,1.8.4,2.4-.2s.2-.3,0-.4H23.5" fill="#fff"/><path d="M25.2,141.8a1.3,1.3,0,0,1-.3-1.2h1.8c-.1-.2.2-.4.4-.3a.7.7,0,0,1,.3.6l.3,1.5-1,.2a.6.6,0,0,0-.2-.7c0,.2-.3.4-.6.3s-.4-.3-.4-.5" fill="#fff"/><path d="M23.7,147.2a.7.7,0,1,0,0-1.3.7.7,0,0,0,0,1.3Z" fill="#d6b780"/><path d="M143.2,148.3a.7.7,0,0,0,0-1.3.7.7,0,1,0,0,1.3Z" fill="#d6b780"/><path d="M38.5,156.6l-.4-.2c-.1.1-.3.2-.4.4s1.9.4,2.4-.2a.2.2,0,0,0,.1-.4H38.5" fill="#fff"/><path d="M40.1,151.8a1.6,1.6,0,0,1-.2-1.2h1.8c-.1-.2.2-.4.4-.3a1.1,1.1,0,0,1,.2.6l.4,1.5-1,.2a1.4,1.4,0,0,0-.2-.7.8.8,0,0,1-.6.4c-.3-.1-.5-.4-.4-.6" fill="#fff"/><path d="M38.7,157.2a.7.7,0,0,0,0-1.3.7.7,0,0,0,0,1.3Z" fill="#d6b780"/><path d="M37,164.4a.7.7,0,0,0,0-1.3.7.7,0,0,0,0,1.3Z" fill="#d6b780"/><path d="M149.2,124.3a.7.7,0,1,0,0-1.3.7.7,0,0,0,0,1.3Z" fill="#d6b780"/><path d="M158.9,114.3a.7.7,0,0,0,0-1.3.7.7,0,1,0,0,1.3Z" fill="#d6b780"/><path d="M158.6,110.9a.7.7,0,0,0,0-1.3.7.7,0,0,0,0,1.3Z" fill="#d6b780"/><path d="M169.6,105.8a.7.7,0,0,0,0-1.3.7.7,0,1,0,0,1.3Z" fill="#d6b780"/><path d="M165.6,115.8a.7.7,0,0,0,0-1.3.7.7,0,1,0,0,1.3Z" fill="#d6b780"/><path d="M162.3,124.4a.6.6,0,1,0,0-1.2.6.6,0,0,0,0,1.2Z" fill="#d6b780"/><path d="M155,129a.7.7,0,0,0,0-1.3.7.7,0,0,0,0,1.3Z" fill="#d6b780"/><path d="M114.1,153.8a.7.7,0,0,0,0-1.3.7.7,0,0,0,0,1.3Z" fill="#d6b780"/><path d="M113.7,153.5a.7.7,0,0,0,0-1.3.7.7,0,0,0,0,1.3Z" fill="#d6b780"/><path d="M114.2,153.4a.7.7,0,0,0,0-1.3.7.7,0,0,0,0,1.3Z" fill="#d6b780"/><path d="M78.8,161.8a.7.7,0,1,0,0-1.3.7.7,0,0,0,0,1.3Z" fill="#d6b780"/><path d="M50.4,149.3a.7.7,0,0,0,0-1.3.7.7,0,0,0,0,1.3Z" fill="#d6b780"/><path d="M179.4,148.5a.2.2,0,0,0,.1.4,10,10,0,0,1,2.4-.4,1.2,1.2,0,0,0-.5-1.5,3,3,0,0,0-1.6-.3,2,2,0,0,1-.4,1.3c-.3-.2-.7.3-.5.6l-.3.3" fill="#fff"/><path d="M167.8,143c-.1-.4-.1-.9.2-1.1s1.1-.1,1.7.2,1.1.5,1.6.2l.4,1.1v.3c0,.3-.3.4-.6.3s-1.4-.7-2.2-.8h-.8a.4.4,0,0,1-.4-.6" fill="#fff"/><path d="M181.1,149.4a.7.7,0,1,0,0-1.3.7.7,0,0,0,0,1.3Z" fill="#d6b780"/><path d="M175.6,123a.6.6,0,0,0,.1.4l2.4-.5c.4-.4.1-1.1-.4-1.4a3.2,3.2,0,0,0-1.7-.3,2.1,2.1,0,0,1-.3,1.3c-.4-.2-.8.3-.5.6l-.4.3" fill="#fff"/><path d="M181.4,118.9a.7.7,0,0,0,0-1.3.7.7,0,1,0,0,1.3Z" fill="#d6b780"/><path d="M177.4,123.9a.7.7,0,0,0,0-1.3.7.7,0,0,0,0,1.3Z" fill="#d6b780"/><path d="M37,131.9a.7.7,0,0,0,0-1.3.7.7,0,0,0,0,1.3Z" fill="#d6b780"/><path d="M6.3,111c-.2,0-.2-.2-.2-.4s.7-1.4,1.4-1.2.7,1.4,1.5,1.7,1.2-.2,1.5.2-.2,1-.7.9-.8-.4-1.1-.7l-.6.3-.6-.2-1.3-.7" fill="#fff"/><path d="M3.1,114.4a.6.6,0,0,0,0-1.2.6.6,0,1,0,0,1.2Z" fill="#d6b780"/><path d="M28.1,121.7a.6.6,0,1,0,0-1.2.6.6,0,0,0,0,1.2Z" fill="#d6b780"/><path d="M31.9,119.6a.7.7,0,0,0,0-1.3.7.7,0,1,0,0,1.3Z" fill="#d6b780"/><path d="M23,105.3a.7.7,0,0,0,0-1.3.7.7,0,0,0,0,1.3Z" fill="#d6b780"/><path d="M43.8,103.9a.7.7,0,1,0,0-1.3.7.7,0,0,0,0,1.3Z" fill="#d6b780"/><path d="M51.6,108.4a.7.7,0,0,0,0-1.3.7.7,0,1,0,0,1.3Z" fill="#d6b780"/><path d="M16.9,104.6a.7.7,0,1,0,0-1.3.7.7,0,0,0,0,1.3Z" fill="#d6b780"/><path d="M11.8,136.7v-1.3a.6.6,0,0,1,.1-.4h.2a3.7,3.7,0,0,1,3.4.5c.3.3.6.7.5,1s-.8.4-1.1.3l-1.2-.6a5.7,5.7,0,0,0,.1,1.3.8.8,0,0,1-1-.8h-.9" fill="#fff"/><path d="M21.9,133.9a.7.7,0,1,0,0-1.3.7.7,0,0,0,0,1.3Z" fill="#d6b780"/><path d="M20,137.9a.7.7,0,0,0,0-1.3.7.7,0,0,0,0,1.3Z" fill="#d6b780"/><path d="M14,137.2a.6.6,0,1,0,0-1.2.6.6,0,1,0,0,1.2Z" fill="#d6b780"/><path d="M54,126.6a.7.7,0,0,0,0-1.3.7.7,0,0,0,0,1.3Z" fill="#d6b780"/><path d="M59.1,126.1a.7.7,0,1,0,0-1.3.7.7,0,0,0,0,1.3Z" fill="#d6b780"/><path d="M72.4,126.8a.7.7,0,0,0,0-1.3.7.7,0,0,0,0,1.3Z" fill="#d6b780"/><path d="M26,127.7c1.5,1.7,2.9,3.5,4.5,5a17.1,17.1,0,0,0,2.5,2.2l1.4.9.8.4.4.2h.2v.2h-.3l-.4-.2-.8-.3-1.5-.8a13.9,13.9,0,0,1-2.7-2.1A30.7,30.7,0,0,1,26,127.7Z" fill="#191919"/><path d="M63.6,154.8a.5.5,0,0,1,.6.2l.5.4,1,.8,1.9,1.6,2.1,1.4,2.2,1.2-2.4-.9-2.2-1.3a15.4,15.4,0,0,1-1.9-1.7l-.9-.9-.4-.6C64,154.9,63.8,154.7,63.6,154.8Z" fill="#191919"/><path d="M93.6,162.6a38.8,38.8,0,0,0,4.9-1.1,9.2,9.2,0,0,0,2.3-.9l2.3-1a12.2,12.2,0,0,1-4.5,2.4A14,14,0,0,1,93.6,162.6Z" fill="#191919"/><path d="M178.3,108.4c1-1.1,1.7-2.7,3.1-3.2s1.9.3,1.9,1.1a1.5,1.5,0,0,1-.6,1.3l-1.8,1.9-1.3.9a9.7,9.7,0,0,1-6.7.7C174.3,109.7,176.8,110.1,178.3,108.4Z" fill="#fff"/><path d="M171.4,110.8a38.8,38.8,0,0,0,4.9-1.1,10.9,10.9,0,0,0,2.3-.9l2.3-1a12.2,12.2,0,0,1-4.5,2.4A14,14,0,0,1,171.4,110.8Z" fill="#191919"/><path d="M158.8,121.7a7.4,7.4,0,0,1-2.6-1.5l-1.1-1.1-.8-1.3,1.1,1,1.1,1A21.1,21.1,0,0,0,158.8,121.7Z" fill="#191919"/><path d="M57.2,107.2c0,.5.5,1,.8,1.5l.9,1.8a19.5,19.5,0,0,0,1.4,2.9c.2.2,1,2,1,1.1s1.1-.5,1.8-.2,1.2,1,1.9,1.5l2.5,1.3c6.8,3.4,14.5,5.2,22.1,4.1a23.4,23.4,0,0,1,3.8-.3,18.9,18.9,0,0,1,3.4.9,27.5,27.5,0,0,0,8.6.4c2.3-.2,4.5-.5,6.8-.9s3.6-1.2,5.5-1.6l10.3-1.8a6,6,0,0,0-1.3-1.4c-.8-.7-2-1.1-2.8-1.8a29.6,29.6,0,0,1-4.4-4.9c-.7-.9-1.9-3.1-3-3.3a9.3,9.3,0,0,0-2.9.2c-1.8.3-3.6.9-5.3,1.2a17.3,17.3,0,0,1-9.3-.5,39.8,39.8,0,0,0-9.1-1.9c-1.7-.2-3.3-.8-5-1a35.5,35.5,0,0,0-11.7.6c-2.8.6-5.7,2.1-8.6,2.3s-3-.2-4.4-.3a12,12,0,0,1-1.9,0C58,107,57.2,106.6,57.2,107.2Z" fill="#7a6956" opacity="0.1"/><path d="M136.4,122.5c-2.2.1-3.5,1.3-5.3,2.4s-5.2,1.7-7.8,2.5-2.8,1.2-4.4,1.6-3.3.2-4.9.5-4.6.4-6.9,1.3a15.7,15.7,0,0,0-4.7,3,19.5,19.5,0,0,0-1.7,2.3h-.8l-.6.2a.4.4,0,0,0-.2.5c.1.2.2.2.4.3h.6l-.5,1h.2l1.2-.8a24,24,0,0,0,6,.2,14.7,14.7,0,0,0,2.9-.5,17.9,17.9,0,0,0,3.2-1.3c3.6-1.7,7.5-3.4,10.7-5.8a22.7,22.7,0,0,1,3.2-2.2c1.6-.8,3.5-.9,5.2-1.5a53.7,53.7,0,0,0,6.5-2.9,3.3,3.3,0,0,0,1.5-1.1A15.7,15.7,0,0,0,136.4,122.5ZM108.6,135a19.2,19.2,0,0,1-5.8,1.1,19,19,0,0,1,3.4-2,13.8,13.8,0,0,1,2.9-.8l1.4-.2a1.1,1.1,0,0,1-.3.8A2.6,2.6,0,0,1,108.6,135Z" fill="#7a6956" opacity="0.2"/><path d="M60.9,114.9l-.3.4a13.9,13.9,0,0,1-6.8,5.4,20.2,20.2,0,0,1-6.4,1.7H40.9a23.3,23.3,0,0,0-6.9,1.7c1.2-1.7,3.7-1.9,5.7-2.6l2.9-1.3c2.2-.7,4.7-.5,7-.9s2.8-.9,2.1-2.2-1.9-.9-2.8-1.2l-3.9-.9a34,34,0,0,0-4.6-.8h2a37.1,37.1,0,0,1,6.6.4,40.2,40.2,0,0,0,5,1,16.8,16.8,0,0,0,4.5-.4c.5-.2,1.8-.8,2.3-.4Z" fill="#7a6956" opacity="0.2"/></svg>