<?xml version="1.0" encoding="UTF-8" standalone="no"?>
<svg width="36px" height="29px" viewBox="0 0 36 29" version="1.1" xmlns="http://www.w3.org/2000/svg" xmlns:xlink="http://www.w3.org/1999/xlink">
    <!-- Generator: Sketch 49.1 (51147) - http://www.bohemiancoding.com/sketch -->
    <title>Twitter</title>
    <desc>Created with Sketch.</desc>
    <defs></defs>
    <g id="Mockups" stroke="none" stroke-width="1" fill="none" fill-rule="evenodd">
        <g id="Desktop-HD" transform="translate(-1079.000000, -24.000000)" fill="#FFFFFF">
            <g id="Navigation-Bar" transform="translate(-4.000000, 0.000000)">
                <g id="Twitter" transform="translate(1083.000000, 24.000000)">
                    <path d="M11.321856,29 C24.907248,29 32.336496,17.843925 32.336496,8.1702645 C32.336496,7.85325675 32.330016,7.53767632 32.315472,7.22380868 C33.757488,6.19057181 35.011008,4.90127376 36,3.43327526 C34.67664,4.01590723 33.252336,4.40870567 31.75848,4.58583606 C33.283296,3.67963067 34.45416,2.24545965 35.006256,0.53610135 C33.578784,1.37465178 31.998816,1.9846883 30.316464,2.31297188 C28.968624,0.890076682 27.049104,0 24.925104,0 C20.845872,0 17.538048,3.27869651 17.538048,7.32043824 C17.538048,7.89507722 17.602992,8.45358749 17.729712,8.98968884 C11.591424,8.68381419 6.14808,5.77036884 2.505744,1.3408243 C1.870848,2.42244731 1.505376,3.67963067 1.505376,5.02045497 C1.505376,7.56037071 2.80944,9.80254752 4.792176,11.1142545 C3.580704,11.0772869 2.442384,10.7472906 1.446912,10.1983433 C1.445328,10.2290307 1.445328,10.2595753 1.445328,10.29169 C1.445328,13.8377236 3.991536,16.7976996 7.370928,17.4689681 C6.750576,17.63625 6.097824,17.7264566 5.423904,17.7264566 C4.947984,17.7264566 4.485168,17.6797832 4.035456,17.5944295 C4.975632,20.503022 7.702128,22.6195946 10.93536,22.6792566 C8.406864,24.6429633 5.222448,25.8130802 1.761984,25.8130802 C1.165968,25.8130802 0.57816,25.7792527 0,25.7115977 C3.268944,27.7880627 7.150032,29 11.321856,29" id="Fill-1"></path>
                </g>
            </g>
        </g>
    </g>
</svg>