<?xml version="1.0" encoding="UTF-8" standalone="no"?>
<svg width="66px" height="66px" viewBox="0 0 66 66" version="1.1" xmlns="http://www.w3.org/2000/svg" xmlns:xlink="http://www.w3.org/1999/xlink">
    <!-- Generator: Sketch 50.2 (55047) - http://www.bohemiancoding.com/sketch -->
    <title>volunteer</title>
    <desc>Created with Sketch.</desc>
    <defs>
        <polygon id="path-1" points="0 65.967 66 65.967 66 0 0 0"></polygon>
    </defs>
    <g id="Mockups" stroke="none" stroke-width="1" fill="none" fill-rule="evenodd">
        <g id="Mobile" transform="translate(-127.000000, -3136.000000)">
            <g id="Scrolling-Page" transform="translate(-58.000000, 0.000000)">
                <g id="Take-Action" transform="translate(0.000000, 2156.000000)">
                    <g id="Volunteer-Action" transform="translate(58.000000, 925.000000)">
                        <g id="volunteer" transform="translate(127.000000, 55.000000)">
                            <path d="M54.6480264,5.1149736 C56.3640264,5.1149736 57.7500264,6.5009736 57.7500264,8.2169736 C57.7500264,9.9329736 56.3640264,11.3189736 54.6480264,11.3189736 C52.9320264,11.3189736 51.5460264,9.9329736 51.5460264,8.2169736 C51.5460264,6.5009736 52.9320264,5.1149736 54.6480264,5.1149736 M54.6480264,13.3649736 C57.4860264,13.3649736 59.7960264,11.0549736 59.7960264,8.2169736 C59.7960264,5.3789736 57.4860264,3.0689736 54.6480264,3.0689736 C51.8100264,3.0689736 49.5000264,5.3789736 49.5000264,8.2169736 C49.5000264,11.0549736 51.8100264,13.3649736 54.6480264,13.3649736" id="Fill-1" fill="#000000" fill-rule="evenodd"></path>
                            <mask id="mask-2" fill="white">
                                <use xlink:href="#path-1"></use>
                            </mask>
                            <g id="Clip-4"></g>
                            <polygon id="Fill-3" fill="#000000" fill-rule="evenodd" mask="url(#mask-2)" points="59.796 65.967 61.842 65.967 61.842 44.319 59.796 44.319"></polygon>
                            <path d="M61.9080264,15.4769736 L48.9060264,15.4769736 L33.7260264,0.2969736 C33.3300264,-0.0990264 32.6700264,-0.0990264 32.2740264,0.2969736 L17.0940264,15.4769736 L4.0920264,15.4769736 C1.8480264,15.4769736 2.64e-05,17.3249736 2.64e-05,19.5689736 L2.64e-05,41.2169736 C2.64e-05,41.8109736 0.4620264,42.2729736 1.0560264,42.2729736 L5.0820264,42.2729736 C5.6760264,42.2729736 6.1380264,41.8109736 6.1380264,41.2169736 L6.1380264,22.6709736 L4.0920264,22.6709736 L4.0920264,40.0949736 L2.0460264,40.0949736 L2.0460264,19.5029736 C2.0460264,18.3809736 2.9700264,17.4569736 4.0920264,17.4569736 L17.5560264,17.4569736 C17.8200264,17.4569736 18.0840264,17.3909736 18.2820264,17.1929736 L31.9440264,3.5309736 L31.9440264,6.8011416 L16.7640264,24.0569736 C16.5660264,24.2549736 16.5000264,24.4529736 16.5000264,24.7169736 L16.5000264,38.1149736 L8.2500264,38.1149736 L8.2500264,40.1609736 L16.5000264,40.1609736 L16.5000264,65.9669736 L18.5460264,65.9669736 L18.5460264,25.1129736 L33.0660264,8.6789736 C34.5840264,10.5269736 38.2800264,14.7509736 47.4540264,25.1129736 L47.4540264,65.9669736 L49.5000264,65.9669736 L49.5000264,40.1609736 L57.7500264,40.1609736 L57.7500264,38.1149736 L49.5000264,38.1149736 L49.5000264,24.7169736 C49.5000264,24.4529736 49.4340264,24.2549736 49.2360264,24.0569736 C49.2360264,24.0569736 35.7910344,8.8157256 33.9900264,6.7340856 L33.9900264,3.4694616 L47.7180264,17.2589736 C47.9160264,17.3909736 48.1800264,17.5229736 48.4440264,17.5229736 L61.8420264,17.5229736 C62.9640264,17.5229736 63.8880264,18.4469736 63.8880264,19.5689736 L63.8880264,40.2269736 L61.8420264,40.2269736 L61.8420264,22.6709736 L59.7960264,22.6709736 L59.7960264,41.2169736 C59.7960264,41.8109736 60.2580264,42.2729736 60.8520264,42.2729736 L64.9440264,42.2729736 C65.5380264,42.2729736 66.0000264,41.7449736 66.0000264,41.2169736 L66.0000264,19.5689736 C66.0000264,17.3249736 64.1520264,15.4769736 61.9080264,15.4769736" id="Fill-5" fill="#000000" fill-rule="evenodd" mask="url(#mask-2)"></path>
                            <polygon id="Fill-6" fill="#000000" fill-rule="evenodd" mask="url(#mask-2)" points="10.296 65.967 12.342 65.967 12.342 42.273 10.296 42.273"></polygon>
                            <path d="M11.3520264,5.1149736 C13.0680264,5.1149736 14.4540264,6.5009736 14.4540264,8.2169736 C14.4540264,9.9329736 13.0680264,11.3189736 11.3520264,11.3189736 C9.6360264,11.3189736 8.2500264,9.9329736 8.2500264,8.2169736 C8.2500264,6.5009736 9.6360264,5.1149736 11.3520264,5.1149736 M11.3520264,13.3649736 C14.1900264,13.3649736 16.5000264,11.0549736 16.5000264,8.2169736 C16.5000264,5.3789736 14.1900264,3.0689736 11.3520264,3.0689736 C8.5140264,3.0689736 6.2040264,5.3789736 6.2040264,8.2169736 C6.2040264,11.0549736 8.5140264,13.3649736 11.3520264,13.3649736" id="Fill-7" fill="#000000" fill-rule="evenodd" mask="url(#mask-2)"></path>
                            <polygon id="Fill-8" fill="#000000" fill-rule="evenodd" mask="url(#mask-2)" points="53.592 65.967 55.638 65.967 55.638 42.273 53.592 42.273"></polygon>
                            <polygon id="Fill-9" fill="#000000" fill-rule="evenodd" mask="url(#mask-2)" points="4.092 65.967 6.138 65.967 6.138 44.319 4.092 44.319"></polygon>
                        </g>
                    </g>
                </g>
            </g>
        </g>
    </g>
</svg>